%TF.GenerationSoftware,KiCad,Pcbnew,7.0.9*%
%TF.CreationDate,2024-03-23T20:10:25+02:00*%
%TF.ProjectId,Micromouse Power,4d696372-6f6d-46f7-9573-6520506f7765,v0.0.0*%
%TF.SameCoordinates,Original*%
%TF.FileFunction,Legend,Top*%
%TF.FilePolarity,Positive*%
%FSLAX46Y46*%
G04 Gerber Fmt 4.6, Leading zero omitted, Abs format (unit mm)*
G04 Created by KiCad (PCBNEW 7.0.9) date 2024-03-23 20:10:25*
%MOMM*%
%LPD*%
G01*
G04 APERTURE LIST*
G04 Aperture macros list*
%AMRoundRect*
0 Rectangle with rounded corners*
0 $1 Rounding radius*
0 $2 $3 $4 $5 $6 $7 $8 $9 X,Y pos of 4 corners*
0 Add a 4 corners polygon primitive as box body*
4,1,4,$2,$3,$4,$5,$6,$7,$8,$9,$2,$3,0*
0 Add four circle primitives for the rounded corners*
1,1,$1+$1,$2,$3*
1,1,$1+$1,$4,$5*
1,1,$1+$1,$6,$7*
1,1,$1+$1,$8,$9*
0 Add four rect primitives between the rounded corners*
20,1,$1+$1,$2,$3,$4,$5,0*
20,1,$1+$1,$4,$5,$6,$7,0*
20,1,$1+$1,$6,$7,$8,$9,0*
20,1,$1+$1,$8,$9,$2,$3,0*%
%AMRotRect*
0 Rectangle, with rotation*
0 The origin of the aperture is its center*
0 $1 length*
0 $2 width*
0 $3 Rotation angle, in degrees counterclockwise*
0 Add horizontal line*
21,1,$1,$2,0,0,$3*%
%AMFreePoly0*
4,1,19,0.500000,-0.750000,0.000000,-0.750000,0.000000,-0.744911,-0.071157,-0.744911,-0.207708,-0.704816,-0.327430,-0.627875,-0.420627,-0.520320,-0.479746,-0.390866,-0.500000,-0.250000,-0.500000,0.250000,-0.479746,0.390866,-0.420627,0.520320,-0.327430,0.627875,-0.207708,0.704816,-0.071157,0.744911,0.000000,0.744911,0.000000,0.750000,0.500000,0.750000,0.500000,-0.750000,0.500000,-0.750000,
$1*%
%AMFreePoly1*
4,1,19,0.000000,0.744911,0.071157,0.744911,0.207708,0.704816,0.327430,0.627875,0.420627,0.520320,0.479746,0.390866,0.500000,0.250000,0.500000,-0.250000,0.479746,-0.390866,0.420627,-0.520320,0.327430,-0.627875,0.207708,-0.704816,0.071157,-0.744911,0.000000,-0.744911,0.000000,-0.750000,-0.500000,-0.750000,-0.500000,0.750000,0.000000,0.750000,0.000000,0.744911,0.000000,0.744911,
$1*%
G04 Aperture macros list end*
%ADD10C,0.150000*%
%ADD11C,0.100000*%
%ADD12C,0.120000*%
%ADD13C,0.127000*%
%ADD14C,0.200000*%
%ADD15RoundRect,0.250000X0.350000X0.625000X-0.350000X0.625000X-0.350000X-0.625000X0.350000X-0.625000X0*%
%ADD16O,1.200000X1.750000*%
%ADD17RoundRect,0.218750X-0.256250X0.218750X-0.256250X-0.218750X0.256250X-0.218750X0.256250X0.218750X0*%
%ADD18RoundRect,0.237500X-0.237500X0.250000X-0.237500X-0.250000X0.237500X-0.250000X0.237500X0.250000X0*%
%ADD19FreePoly0,180.000000*%
%ADD20FreePoly1,180.000000*%
%ADD21RoundRect,0.237500X-0.250000X-0.237500X0.250000X-0.237500X0.250000X0.237500X-0.250000X0.237500X0*%
%ADD22RoundRect,0.237500X0.250000X0.237500X-0.250000X0.237500X-0.250000X-0.237500X0.250000X-0.237500X0*%
%ADD23RoundRect,0.225000X-0.225000X-0.250000X0.225000X-0.250000X0.225000X0.250000X-0.225000X0.250000X0*%
%ADD24RotRect,0.900000X2.500000X135.000000*%
%ADD25R,2.000000X1.500000*%
%ADD26R,2.000000X3.800000*%
%ADD27RoundRect,0.225000X-0.250000X0.225000X-0.250000X-0.225000X0.250000X-0.225000X0.250000X0.225000X0*%
%ADD28RoundRect,0.237500X0.237500X-0.250000X0.237500X0.250000X-0.237500X0.250000X-0.237500X-0.250000X0*%
%ADD29R,0.500000X0.250000*%
%ADD30R,0.900000X1.600000*%
%ADD31R,1.700000X1.700000*%
%ADD32O,1.700000X1.700000*%
%ADD33RoundRect,0.225000X0.225000X0.250000X-0.225000X0.250000X-0.225000X-0.250000X0.225000X-0.250000X0*%
%ADD34RoundRect,0.150000X0.587500X0.150000X-0.587500X0.150000X-0.587500X-0.150000X0.587500X-0.150000X0*%
%ADD35RoundRect,0.237500X0.008839X0.344715X-0.344715X-0.008839X-0.008839X-0.344715X0.344715X0.008839X0*%
%ADD36RoundRect,0.237500X-0.344715X0.008839X0.008839X-0.344715X0.344715X-0.008839X-0.008839X0.344715X0*%
%ADD37RoundRect,0.144000X0.258000X-0.943000X0.258000X0.943000X-0.258000X0.943000X-0.258000X-0.943000X0*%
%ADD38RoundRect,0.102000X1.651000X-1.206500X1.651000X1.206500X-1.651000X1.206500X-1.651000X-1.206500X0*%
%ADD39RoundRect,0.150000X-0.587500X-0.150000X0.587500X-0.150000X0.587500X0.150000X-0.587500X0.150000X0*%
%ADD40FreePoly0,0.000000*%
%ADD41FreePoly1,0.000000*%
%ADD42RotRect,0.900000X2.500000X225.000000*%
%ADD43RoundRect,0.250000X-0.450000X0.350000X-0.450000X-0.350000X0.450000X-0.350000X0.450000X0.350000X0*%
G04 APERTURE END LIST*
D10*
X169150000Y-130270000D02*
X169150000Y-128300000D01*
X172700000Y-127140000D02*
X171484975Y-126084975D01*
X178220534Y-132399976D02*
X178139722Y-132426913D01*
X178139722Y-132426913D02*
X178085847Y-132426913D01*
X178085847Y-132426913D02*
X178005035Y-132399976D01*
X178005035Y-132399976D02*
X177843411Y-132238351D01*
X177843411Y-132238351D02*
X177816473Y-132157539D01*
X177816473Y-132157539D02*
X177816473Y-132103664D01*
X177816473Y-132103664D02*
X177843411Y-132022852D01*
X177843411Y-132022852D02*
X177924223Y-131942040D01*
X177924223Y-131942040D02*
X178005035Y-131915102D01*
X178005035Y-131915102D02*
X178058910Y-131915102D01*
X178058910Y-131915102D02*
X178139722Y-131942040D01*
X178139722Y-131942040D02*
X178301346Y-132103664D01*
X178301346Y-132103664D02*
X178328284Y-132184476D01*
X178328284Y-132184476D02*
X178328284Y-132238351D01*
X178328284Y-132238351D02*
X178301346Y-132319163D01*
X178301346Y-132319163D02*
X178220534Y-132399976D01*
X178274409Y-131591853D02*
X178651533Y-131968977D01*
X178328284Y-131645728D02*
X178328284Y-131591853D01*
X178328284Y-131591853D02*
X178355222Y-131511041D01*
X178355222Y-131511041D02*
X178436034Y-131430229D01*
X178436034Y-131430229D02*
X178516846Y-131403291D01*
X178516846Y-131403291D02*
X178597658Y-131430229D01*
X178597658Y-131430229D02*
X178893970Y-131726540D01*
X182611330Y-128009180D02*
X182530518Y-128036117D01*
X182530518Y-128036117D02*
X182476643Y-128036117D01*
X182476643Y-128036117D02*
X182395831Y-128009180D01*
X182395831Y-128009180D02*
X182234206Y-127847555D01*
X182234206Y-127847555D02*
X182207269Y-127766743D01*
X182207269Y-127766743D02*
X182207269Y-127712868D01*
X182207269Y-127712868D02*
X182234206Y-127632056D01*
X182234206Y-127632056D02*
X182315019Y-127551244D01*
X182315019Y-127551244D02*
X182395831Y-127524307D01*
X182395831Y-127524307D02*
X182449706Y-127524307D01*
X182449706Y-127524307D02*
X182530518Y-127551244D01*
X182530518Y-127551244D02*
X182692142Y-127712868D01*
X182692142Y-127712868D02*
X182719080Y-127793681D01*
X182719080Y-127793681D02*
X182719080Y-127847555D01*
X182719080Y-127847555D02*
X182692142Y-127928368D01*
X182692142Y-127928368D02*
X182611330Y-128009180D01*
X182584393Y-127281870D02*
X182799892Y-127066370D01*
X183042329Y-127578181D02*
X182557456Y-127093308D01*
X182557456Y-127093308D02*
X182530518Y-127012496D01*
X182530518Y-127012496D02*
X182557456Y-126931683D01*
X182557456Y-126931683D02*
X182611330Y-126877809D01*
X182907642Y-126958621D02*
X183123141Y-126743121D01*
X183365578Y-127254932D02*
X182880705Y-126770059D01*
X182880705Y-126770059D02*
X182853767Y-126689247D01*
X182853767Y-126689247D02*
X182880705Y-126608434D01*
X182880705Y-126608434D02*
X182934579Y-126554560D01*
X140560023Y-124790534D02*
X140533086Y-124709722D01*
X140533086Y-124709722D02*
X140533086Y-124655847D01*
X140533086Y-124655847D02*
X140560023Y-124575035D01*
X140560023Y-124575035D02*
X140721648Y-124413411D01*
X140721648Y-124413411D02*
X140802460Y-124386473D01*
X140802460Y-124386473D02*
X140856335Y-124386473D01*
X140856335Y-124386473D02*
X140937147Y-124413411D01*
X140937147Y-124413411D02*
X141017959Y-124494223D01*
X141017959Y-124494223D02*
X141044897Y-124575035D01*
X141044897Y-124575035D02*
X141044897Y-124628910D01*
X141044897Y-124628910D02*
X141017959Y-124709722D01*
X141017959Y-124709722D02*
X140856335Y-124871346D01*
X140856335Y-124871346D02*
X140775523Y-124898284D01*
X140775523Y-124898284D02*
X140721648Y-124898284D01*
X140721648Y-124898284D02*
X140640836Y-124871346D01*
X140640836Y-124871346D02*
X140560023Y-124790534D01*
X141368146Y-124844409D02*
X140991022Y-125221533D01*
X141314271Y-124898284D02*
X141368146Y-124898284D01*
X141368146Y-124898284D02*
X141448958Y-124925222D01*
X141448958Y-124925222D02*
X141529770Y-125006034D01*
X141529770Y-125006034D02*
X141556708Y-125086846D01*
X141556708Y-125086846D02*
X141529770Y-125167658D01*
X141529770Y-125167658D02*
X141233459Y-125463970D01*
X144950819Y-129181330D02*
X144923882Y-129100518D01*
X144923882Y-129100518D02*
X144923882Y-129046643D01*
X144923882Y-129046643D02*
X144950819Y-128965831D01*
X144950819Y-128965831D02*
X145112444Y-128804206D01*
X145112444Y-128804206D02*
X145193256Y-128777269D01*
X145193256Y-128777269D02*
X145247131Y-128777269D01*
X145247131Y-128777269D02*
X145327943Y-128804206D01*
X145327943Y-128804206D02*
X145408755Y-128885019D01*
X145408755Y-128885019D02*
X145435692Y-128965831D01*
X145435692Y-128965831D02*
X145435692Y-129019706D01*
X145435692Y-129019706D02*
X145408755Y-129100518D01*
X145408755Y-129100518D02*
X145247131Y-129262142D01*
X145247131Y-129262142D02*
X145166318Y-129289080D01*
X145166318Y-129289080D02*
X145112444Y-129289080D01*
X145112444Y-129289080D02*
X145031631Y-129262142D01*
X145031631Y-129262142D02*
X144950819Y-129181330D01*
X145678129Y-129154393D02*
X145893629Y-129369892D01*
X145381818Y-129612329D02*
X145866691Y-129127456D01*
X145866691Y-129127456D02*
X145947503Y-129100518D01*
X145947503Y-129100518D02*
X146028316Y-129127456D01*
X146028316Y-129127456D02*
X146082190Y-129181330D01*
X146001378Y-129477642D02*
X146216878Y-129693141D01*
X145705067Y-129935578D02*
X146189940Y-129450705D01*
X146189940Y-129450705D02*
X146270752Y-129423767D01*
X146270752Y-129423767D02*
X146351565Y-129450705D01*
X146351565Y-129450705D02*
X146405439Y-129504579D01*
X173667933Y-112713695D02*
X173667933Y-113285123D01*
X173667933Y-113285123D02*
X173629838Y-113399409D01*
X173629838Y-113399409D02*
X173553647Y-113475600D01*
X173553647Y-113475600D02*
X173439362Y-113513695D01*
X173439362Y-113513695D02*
X173363171Y-113513695D01*
X174467933Y-113513695D02*
X174010790Y-113513695D01*
X174239362Y-113513695D02*
X174239362Y-112713695D01*
X174239362Y-112713695D02*
X174163171Y-112827980D01*
X174163171Y-112827980D02*
X174086981Y-112904171D01*
X174086981Y-112904171D02*
X174010790Y-112942266D01*
X168573524Y-113265295D02*
X168573524Y-112465295D01*
X168573524Y-112465295D02*
X168764000Y-112465295D01*
X168764000Y-112465295D02*
X168878286Y-112503390D01*
X168878286Y-112503390D02*
X168954476Y-112579580D01*
X168954476Y-112579580D02*
X168992571Y-112655771D01*
X168992571Y-112655771D02*
X169030667Y-112808152D01*
X169030667Y-112808152D02*
X169030667Y-112922438D01*
X169030667Y-112922438D02*
X168992571Y-113074819D01*
X168992571Y-113074819D02*
X168954476Y-113151009D01*
X168954476Y-113151009D02*
X168878286Y-113227200D01*
X168878286Y-113227200D02*
X168764000Y-113265295D01*
X168764000Y-113265295D02*
X168573524Y-113265295D01*
X169792571Y-113265295D02*
X169335428Y-113265295D01*
X169564000Y-113265295D02*
X169564000Y-112465295D01*
X169564000Y-112465295D02*
X169487809Y-112579580D01*
X169487809Y-112579580D02*
X169411619Y-112655771D01*
X169411619Y-112655771D02*
X169335428Y-112693866D01*
X156915714Y-122432295D02*
X156649047Y-122051342D01*
X156458571Y-122432295D02*
X156458571Y-121632295D01*
X156458571Y-121632295D02*
X156763333Y-121632295D01*
X156763333Y-121632295D02*
X156839523Y-121670390D01*
X156839523Y-121670390D02*
X156877618Y-121708485D01*
X156877618Y-121708485D02*
X156915714Y-121784676D01*
X156915714Y-121784676D02*
X156915714Y-121898961D01*
X156915714Y-121898961D02*
X156877618Y-121975152D01*
X156877618Y-121975152D02*
X156839523Y-122013247D01*
X156839523Y-122013247D02*
X156763333Y-122051342D01*
X156763333Y-122051342D02*
X156458571Y-122051342D01*
X157677618Y-122432295D02*
X157220475Y-122432295D01*
X157449047Y-122432295D02*
X157449047Y-121632295D01*
X157449047Y-121632295D02*
X157372856Y-121746580D01*
X157372856Y-121746580D02*
X157296666Y-121822771D01*
X157296666Y-121822771D02*
X157220475Y-121860866D01*
X158439523Y-122432295D02*
X157982380Y-122432295D01*
X158210952Y-122432295D02*
X158210952Y-121632295D01*
X158210952Y-121632295D02*
X158134761Y-121746580D01*
X158134761Y-121746580D02*
X158058571Y-121822771D01*
X158058571Y-121822771D02*
X157982380Y-121860866D01*
X172552295Y-128876666D02*
X173123723Y-128876666D01*
X173123723Y-128876666D02*
X173238009Y-128914761D01*
X173238009Y-128914761D02*
X173314200Y-128990952D01*
X173314200Y-128990952D02*
X173352295Y-129105237D01*
X173352295Y-129105237D02*
X173352295Y-129181428D01*
X173352295Y-128495713D02*
X172552295Y-128495713D01*
X172552295Y-128495713D02*
X172552295Y-128190951D01*
X172552295Y-128190951D02*
X172590390Y-128114761D01*
X172590390Y-128114761D02*
X172628485Y-128076666D01*
X172628485Y-128076666D02*
X172704676Y-128038570D01*
X172704676Y-128038570D02*
X172818961Y-128038570D01*
X172818961Y-128038570D02*
X172895152Y-128076666D01*
X172895152Y-128076666D02*
X172933247Y-128114761D01*
X172933247Y-128114761D02*
X172971342Y-128190951D01*
X172971342Y-128190951D02*
X172971342Y-128495713D01*
X173352295Y-127276666D02*
X173352295Y-127733809D01*
X173352295Y-127505237D02*
X172552295Y-127505237D01*
X172552295Y-127505237D02*
X172666580Y-127581428D01*
X172666580Y-127581428D02*
X172742771Y-127657618D01*
X172742771Y-127657618D02*
X172780866Y-127733809D01*
X145383333Y-107385295D02*
X145383333Y-107956723D01*
X145383333Y-107956723D02*
X145345238Y-108071009D01*
X145345238Y-108071009D02*
X145269047Y-108147200D01*
X145269047Y-108147200D02*
X145154762Y-108185295D01*
X145154762Y-108185295D02*
X145078571Y-108185295D01*
X145764286Y-108185295D02*
X145764286Y-107385295D01*
X145764286Y-107385295D02*
X146069048Y-107385295D01*
X146069048Y-107385295D02*
X146145238Y-107423390D01*
X146145238Y-107423390D02*
X146183333Y-107461485D01*
X146183333Y-107461485D02*
X146221429Y-107537676D01*
X146221429Y-107537676D02*
X146221429Y-107651961D01*
X146221429Y-107651961D02*
X146183333Y-107728152D01*
X146183333Y-107728152D02*
X146145238Y-107766247D01*
X146145238Y-107766247D02*
X146069048Y-107804342D01*
X146069048Y-107804342D02*
X145764286Y-107804342D01*
X146945238Y-107385295D02*
X146564286Y-107385295D01*
X146564286Y-107385295D02*
X146526190Y-107766247D01*
X146526190Y-107766247D02*
X146564286Y-107728152D01*
X146564286Y-107728152D02*
X146640476Y-107690057D01*
X146640476Y-107690057D02*
X146830952Y-107690057D01*
X146830952Y-107690057D02*
X146907143Y-107728152D01*
X146907143Y-107728152D02*
X146945238Y-107766247D01*
X146945238Y-107766247D02*
X146983333Y-107842438D01*
X146983333Y-107842438D02*
X146983333Y-108032914D01*
X146983333Y-108032914D02*
X146945238Y-108109104D01*
X146945238Y-108109104D02*
X146907143Y-108147200D01*
X146907143Y-108147200D02*
X146830952Y-108185295D01*
X146830952Y-108185295D02*
X146640476Y-108185295D01*
X146640476Y-108185295D02*
X146564286Y-108147200D01*
X146564286Y-108147200D02*
X146526190Y-108109104D01*
X161085714Y-123532295D02*
X160819047Y-123151342D01*
X160628571Y-123532295D02*
X160628571Y-122732295D01*
X160628571Y-122732295D02*
X160933333Y-122732295D01*
X160933333Y-122732295D02*
X161009523Y-122770390D01*
X161009523Y-122770390D02*
X161047618Y-122808485D01*
X161047618Y-122808485D02*
X161085714Y-122884676D01*
X161085714Y-122884676D02*
X161085714Y-122998961D01*
X161085714Y-122998961D02*
X161047618Y-123075152D01*
X161047618Y-123075152D02*
X161009523Y-123113247D01*
X161009523Y-123113247D02*
X160933333Y-123151342D01*
X160933333Y-123151342D02*
X160628571Y-123151342D01*
X161847618Y-123532295D02*
X161390475Y-123532295D01*
X161619047Y-123532295D02*
X161619047Y-122732295D01*
X161619047Y-122732295D02*
X161542856Y-122846580D01*
X161542856Y-122846580D02*
X161466666Y-122922771D01*
X161466666Y-122922771D02*
X161390475Y-122960866D01*
X162114285Y-122732295D02*
X162609523Y-122732295D01*
X162609523Y-122732295D02*
X162342857Y-123037057D01*
X162342857Y-123037057D02*
X162457142Y-123037057D01*
X162457142Y-123037057D02*
X162533333Y-123075152D01*
X162533333Y-123075152D02*
X162571428Y-123113247D01*
X162571428Y-123113247D02*
X162609523Y-123189438D01*
X162609523Y-123189438D02*
X162609523Y-123379914D01*
X162609523Y-123379914D02*
X162571428Y-123456104D01*
X162571428Y-123456104D02*
X162533333Y-123494200D01*
X162533333Y-123494200D02*
X162457142Y-123532295D01*
X162457142Y-123532295D02*
X162228571Y-123532295D01*
X162228571Y-123532295D02*
X162152380Y-123494200D01*
X162152380Y-123494200D02*
X162114285Y-123456104D01*
X156457667Y-115043295D02*
X156191000Y-114662342D01*
X156000524Y-115043295D02*
X156000524Y-114243295D01*
X156000524Y-114243295D02*
X156305286Y-114243295D01*
X156305286Y-114243295D02*
X156381476Y-114281390D01*
X156381476Y-114281390D02*
X156419571Y-114319485D01*
X156419571Y-114319485D02*
X156457667Y-114395676D01*
X156457667Y-114395676D02*
X156457667Y-114509961D01*
X156457667Y-114509961D02*
X156419571Y-114586152D01*
X156419571Y-114586152D02*
X156381476Y-114624247D01*
X156381476Y-114624247D02*
X156305286Y-114662342D01*
X156305286Y-114662342D02*
X156000524Y-114662342D01*
X157143381Y-114243295D02*
X156991000Y-114243295D01*
X156991000Y-114243295D02*
X156914809Y-114281390D01*
X156914809Y-114281390D02*
X156876714Y-114319485D01*
X156876714Y-114319485D02*
X156800524Y-114433771D01*
X156800524Y-114433771D02*
X156762428Y-114586152D01*
X156762428Y-114586152D02*
X156762428Y-114890914D01*
X156762428Y-114890914D02*
X156800524Y-114967104D01*
X156800524Y-114967104D02*
X156838619Y-115005200D01*
X156838619Y-115005200D02*
X156914809Y-115043295D01*
X156914809Y-115043295D02*
X157067190Y-115043295D01*
X157067190Y-115043295D02*
X157143381Y-115005200D01*
X157143381Y-115005200D02*
X157181476Y-114967104D01*
X157181476Y-114967104D02*
X157219571Y-114890914D01*
X157219571Y-114890914D02*
X157219571Y-114700438D01*
X157219571Y-114700438D02*
X157181476Y-114624247D01*
X157181476Y-114624247D02*
X157143381Y-114586152D01*
X157143381Y-114586152D02*
X157067190Y-114548057D01*
X157067190Y-114548057D02*
X156914809Y-114548057D01*
X156914809Y-114548057D02*
X156838619Y-114586152D01*
X156838619Y-114586152D02*
X156800524Y-114624247D01*
X156800524Y-114624247D02*
X156762428Y-114700438D01*
X150473580Y-117736857D02*
X150521200Y-117784476D01*
X150521200Y-117784476D02*
X150568819Y-117927333D01*
X150568819Y-117927333D02*
X150568819Y-118022571D01*
X150568819Y-118022571D02*
X150521200Y-118165428D01*
X150521200Y-118165428D02*
X150425961Y-118260666D01*
X150425961Y-118260666D02*
X150330723Y-118308285D01*
X150330723Y-118308285D02*
X150140247Y-118355904D01*
X150140247Y-118355904D02*
X149997390Y-118355904D01*
X149997390Y-118355904D02*
X149806914Y-118308285D01*
X149806914Y-118308285D02*
X149711676Y-118260666D01*
X149711676Y-118260666D02*
X149616438Y-118165428D01*
X149616438Y-118165428D02*
X149568819Y-118022571D01*
X149568819Y-118022571D02*
X149568819Y-117927333D01*
X149568819Y-117927333D02*
X149616438Y-117784476D01*
X149616438Y-117784476D02*
X149664057Y-117736857D01*
X150568819Y-116784476D02*
X150568819Y-117355904D01*
X150568819Y-117070190D02*
X149568819Y-117070190D01*
X149568819Y-117070190D02*
X149711676Y-117165428D01*
X149711676Y-117165428D02*
X149806914Y-117260666D01*
X149806914Y-117260666D02*
X149854533Y-117355904D01*
X149664057Y-116403523D02*
X149616438Y-116355904D01*
X149616438Y-116355904D02*
X149568819Y-116260666D01*
X149568819Y-116260666D02*
X149568819Y-116022571D01*
X149568819Y-116022571D02*
X149616438Y-115927333D01*
X149616438Y-115927333D02*
X149664057Y-115879714D01*
X149664057Y-115879714D02*
X149759295Y-115832095D01*
X149759295Y-115832095D02*
X149854533Y-115832095D01*
X149854533Y-115832095D02*
X149997390Y-115879714D01*
X149997390Y-115879714D02*
X150568819Y-116451142D01*
X150568819Y-116451142D02*
X150568819Y-115832095D01*
X160520142Y-120501580D02*
X160472523Y-120549200D01*
X160472523Y-120549200D02*
X160329666Y-120596819D01*
X160329666Y-120596819D02*
X160234428Y-120596819D01*
X160234428Y-120596819D02*
X160091571Y-120549200D01*
X160091571Y-120549200D02*
X159996333Y-120453961D01*
X159996333Y-120453961D02*
X159948714Y-120358723D01*
X159948714Y-120358723D02*
X159901095Y-120168247D01*
X159901095Y-120168247D02*
X159901095Y-120025390D01*
X159901095Y-120025390D02*
X159948714Y-119834914D01*
X159948714Y-119834914D02*
X159996333Y-119739676D01*
X159996333Y-119739676D02*
X160091571Y-119644438D01*
X160091571Y-119644438D02*
X160234428Y-119596819D01*
X160234428Y-119596819D02*
X160329666Y-119596819D01*
X160329666Y-119596819D02*
X160472523Y-119644438D01*
X160472523Y-119644438D02*
X160520142Y-119692057D01*
X161472523Y-120596819D02*
X160901095Y-120596819D01*
X161186809Y-120596819D02*
X161186809Y-119596819D01*
X161186809Y-119596819D02*
X161091571Y-119739676D01*
X161091571Y-119739676D02*
X160996333Y-119834914D01*
X160996333Y-119834914D02*
X160901095Y-119882533D01*
X162424904Y-120596819D02*
X161853476Y-120596819D01*
X162139190Y-120596819D02*
X162139190Y-119596819D01*
X162139190Y-119596819D02*
X162043952Y-119739676D01*
X162043952Y-119739676D02*
X161948714Y-119834914D01*
X161948714Y-119834914D02*
X161853476Y-119882533D01*
D11*
X140511915Y-123018540D02*
X140619665Y-122964666D01*
X140619665Y-122964666D02*
X140754352Y-122829979D01*
X140754352Y-122829979D02*
X140781290Y-122749166D01*
X140781290Y-122749166D02*
X140781290Y-122695292D01*
X140781290Y-122695292D02*
X140754352Y-122614479D01*
X140754352Y-122614479D02*
X140700477Y-122560605D01*
X140700477Y-122560605D02*
X140619665Y-122533667D01*
X140619665Y-122533667D02*
X140565790Y-122533667D01*
X140565790Y-122533667D02*
X140484978Y-122560605D01*
X140484978Y-122560605D02*
X140350291Y-122641417D01*
X140350291Y-122641417D02*
X140269479Y-122668354D01*
X140269479Y-122668354D02*
X140215604Y-122668354D01*
X140215604Y-122668354D02*
X140134792Y-122641417D01*
X140134792Y-122641417D02*
X140080917Y-122587542D01*
X140080917Y-122587542D02*
X140053980Y-122506730D01*
X140053980Y-122506730D02*
X140053980Y-122452855D01*
X140053980Y-122452855D02*
X140080917Y-122372043D01*
X140080917Y-122372043D02*
X140215604Y-122237356D01*
X140215604Y-122237356D02*
X140323354Y-122183481D01*
X140484978Y-121967982D02*
X141185351Y-122398980D01*
X141185351Y-122398980D02*
X140889039Y-121887169D01*
X140889039Y-121887169D02*
X141400850Y-122183481D01*
X141400850Y-122183481D02*
X140969851Y-121483108D01*
X141212288Y-121348421D02*
X141212288Y-121294546D01*
X141212288Y-121294546D02*
X141239226Y-121213734D01*
X141239226Y-121213734D02*
X141373913Y-121079047D01*
X141373913Y-121079047D02*
X141454725Y-121052110D01*
X141454725Y-121052110D02*
X141508600Y-121052110D01*
X141508600Y-121052110D02*
X141589412Y-121079047D01*
X141589412Y-121079047D02*
X141643287Y-121132922D01*
X141643287Y-121132922D02*
X141697162Y-121240672D01*
X141697162Y-121240672D02*
X141697162Y-121887169D01*
X141697162Y-121887169D02*
X142047348Y-121536983D01*
D10*
X160108095Y-124364819D02*
X160108095Y-125174342D01*
X160108095Y-125174342D02*
X160155714Y-125269580D01*
X160155714Y-125269580D02*
X160203333Y-125317200D01*
X160203333Y-125317200D02*
X160298571Y-125364819D01*
X160298571Y-125364819D02*
X160489047Y-125364819D01*
X160489047Y-125364819D02*
X160584285Y-125317200D01*
X160584285Y-125317200D02*
X160631904Y-125269580D01*
X160631904Y-125269580D02*
X160679523Y-125174342D01*
X160679523Y-125174342D02*
X160679523Y-124364819D01*
X161679523Y-125364819D02*
X161108095Y-125364819D01*
X161393809Y-125364819D02*
X161393809Y-124364819D01*
X161393809Y-124364819D02*
X161298571Y-124507676D01*
X161298571Y-124507676D02*
X161203333Y-124602914D01*
X161203333Y-124602914D02*
X161108095Y-124650533D01*
X171456667Y-113112295D02*
X171190000Y-112731342D01*
X170999524Y-113112295D02*
X170999524Y-112312295D01*
X170999524Y-112312295D02*
X171304286Y-112312295D01*
X171304286Y-112312295D02*
X171380476Y-112350390D01*
X171380476Y-112350390D02*
X171418571Y-112388485D01*
X171418571Y-112388485D02*
X171456667Y-112464676D01*
X171456667Y-112464676D02*
X171456667Y-112578961D01*
X171456667Y-112578961D02*
X171418571Y-112655152D01*
X171418571Y-112655152D02*
X171380476Y-112693247D01*
X171380476Y-112693247D02*
X171304286Y-112731342D01*
X171304286Y-112731342D02*
X170999524Y-112731342D01*
X171723333Y-112312295D02*
X172218571Y-112312295D01*
X172218571Y-112312295D02*
X171951905Y-112617057D01*
X171951905Y-112617057D02*
X172066190Y-112617057D01*
X172066190Y-112617057D02*
X172142381Y-112655152D01*
X172142381Y-112655152D02*
X172180476Y-112693247D01*
X172180476Y-112693247D02*
X172218571Y-112769438D01*
X172218571Y-112769438D02*
X172218571Y-112959914D01*
X172218571Y-112959914D02*
X172180476Y-113036104D01*
X172180476Y-113036104D02*
X172142381Y-113074200D01*
X172142381Y-113074200D02*
X172066190Y-113112295D01*
X172066190Y-113112295D02*
X171837619Y-113112295D01*
X171837619Y-113112295D02*
X171761428Y-113074200D01*
X171761428Y-113074200D02*
X171723333Y-113036104D01*
X150799580Y-128216666D02*
X150847200Y-128264285D01*
X150847200Y-128264285D02*
X150894819Y-128407142D01*
X150894819Y-128407142D02*
X150894819Y-128502380D01*
X150894819Y-128502380D02*
X150847200Y-128645237D01*
X150847200Y-128645237D02*
X150751961Y-128740475D01*
X150751961Y-128740475D02*
X150656723Y-128788094D01*
X150656723Y-128788094D02*
X150466247Y-128835713D01*
X150466247Y-128835713D02*
X150323390Y-128835713D01*
X150323390Y-128835713D02*
X150132914Y-128788094D01*
X150132914Y-128788094D02*
X150037676Y-128740475D01*
X150037676Y-128740475D02*
X149942438Y-128645237D01*
X149942438Y-128645237D02*
X149894819Y-128502380D01*
X149894819Y-128502380D02*
X149894819Y-128407142D01*
X149894819Y-128407142D02*
X149942438Y-128264285D01*
X149942438Y-128264285D02*
X149990057Y-128216666D01*
X149990057Y-127835713D02*
X149942438Y-127788094D01*
X149942438Y-127788094D02*
X149894819Y-127692856D01*
X149894819Y-127692856D02*
X149894819Y-127454761D01*
X149894819Y-127454761D02*
X149942438Y-127359523D01*
X149942438Y-127359523D02*
X149990057Y-127311904D01*
X149990057Y-127311904D02*
X150085295Y-127264285D01*
X150085295Y-127264285D02*
X150180533Y-127264285D01*
X150180533Y-127264285D02*
X150323390Y-127311904D01*
X150323390Y-127311904D02*
X150894819Y-127883332D01*
X150894819Y-127883332D02*
X150894819Y-127264285D01*
X169903333Y-129412295D02*
X169903333Y-129983723D01*
X169903333Y-129983723D02*
X169865238Y-130098009D01*
X169865238Y-130098009D02*
X169789047Y-130174200D01*
X169789047Y-130174200D02*
X169674762Y-130212295D01*
X169674762Y-130212295D02*
X169598571Y-130212295D01*
X170284286Y-130212295D02*
X170284286Y-129412295D01*
X170284286Y-129412295D02*
X170589048Y-129412295D01*
X170589048Y-129412295D02*
X170665238Y-129450390D01*
X170665238Y-129450390D02*
X170703333Y-129488485D01*
X170703333Y-129488485D02*
X170741429Y-129564676D01*
X170741429Y-129564676D02*
X170741429Y-129678961D01*
X170741429Y-129678961D02*
X170703333Y-129755152D01*
X170703333Y-129755152D02*
X170665238Y-129793247D01*
X170665238Y-129793247D02*
X170589048Y-129831342D01*
X170589048Y-129831342D02*
X170284286Y-129831342D01*
X171008095Y-129412295D02*
X171503333Y-129412295D01*
X171503333Y-129412295D02*
X171236667Y-129717057D01*
X171236667Y-129717057D02*
X171350952Y-129717057D01*
X171350952Y-129717057D02*
X171427143Y-129755152D01*
X171427143Y-129755152D02*
X171465238Y-129793247D01*
X171465238Y-129793247D02*
X171503333Y-129869438D01*
X171503333Y-129869438D02*
X171503333Y-130059914D01*
X171503333Y-130059914D02*
X171465238Y-130136104D01*
X171465238Y-130136104D02*
X171427143Y-130174200D01*
X171427143Y-130174200D02*
X171350952Y-130212295D01*
X171350952Y-130212295D02*
X171122381Y-130212295D01*
X171122381Y-130212295D02*
X171046190Y-130174200D01*
X171046190Y-130174200D02*
X171008095Y-130136104D01*
X151054819Y-125082857D02*
X150578628Y-125416190D01*
X151054819Y-125654285D02*
X150054819Y-125654285D01*
X150054819Y-125654285D02*
X150054819Y-125273333D01*
X150054819Y-125273333D02*
X150102438Y-125178095D01*
X150102438Y-125178095D02*
X150150057Y-125130476D01*
X150150057Y-125130476D02*
X150245295Y-125082857D01*
X150245295Y-125082857D02*
X150388152Y-125082857D01*
X150388152Y-125082857D02*
X150483390Y-125130476D01*
X150483390Y-125130476D02*
X150531009Y-125178095D01*
X150531009Y-125178095D02*
X150578628Y-125273333D01*
X150578628Y-125273333D02*
X150578628Y-125654285D01*
X151054819Y-124130476D02*
X151054819Y-124701904D01*
X151054819Y-124416190D02*
X150054819Y-124416190D01*
X150054819Y-124416190D02*
X150197676Y-124511428D01*
X150197676Y-124511428D02*
X150292914Y-124606666D01*
X150292914Y-124606666D02*
X150340533Y-124701904D01*
X150388152Y-123273333D02*
X151054819Y-123273333D01*
X150007200Y-123511428D02*
X150721485Y-123749523D01*
X150721485Y-123749523D02*
X150721485Y-123130476D01*
X163957095Y-112738819D02*
X163957095Y-113548342D01*
X163957095Y-113548342D02*
X164004714Y-113643580D01*
X164004714Y-113643580D02*
X164052333Y-113691200D01*
X164052333Y-113691200D02*
X164147571Y-113738819D01*
X164147571Y-113738819D02*
X164338047Y-113738819D01*
X164338047Y-113738819D02*
X164433285Y-113691200D01*
X164433285Y-113691200D02*
X164480904Y-113643580D01*
X164480904Y-113643580D02*
X164528523Y-113548342D01*
X164528523Y-113548342D02*
X164528523Y-112738819D01*
X164909476Y-112738819D02*
X165528523Y-112738819D01*
X165528523Y-112738819D02*
X165195190Y-113119771D01*
X165195190Y-113119771D02*
X165338047Y-113119771D01*
X165338047Y-113119771D02*
X165433285Y-113167390D01*
X165433285Y-113167390D02*
X165480904Y-113215009D01*
X165480904Y-113215009D02*
X165528523Y-113310247D01*
X165528523Y-113310247D02*
X165528523Y-113548342D01*
X165528523Y-113548342D02*
X165480904Y-113643580D01*
X165480904Y-113643580D02*
X165433285Y-113691200D01*
X165433285Y-113691200D02*
X165338047Y-113738819D01*
X165338047Y-113738819D02*
X165052333Y-113738819D01*
X165052333Y-113738819D02*
X164957095Y-113691200D01*
X164957095Y-113691200D02*
X164909476Y-113643580D01*
X178773333Y-122052295D02*
X178773333Y-122623723D01*
X178773333Y-122623723D02*
X178735238Y-122738009D01*
X178735238Y-122738009D02*
X178659047Y-122814200D01*
X178659047Y-122814200D02*
X178544762Y-122852295D01*
X178544762Y-122852295D02*
X178468571Y-122852295D01*
X179154286Y-122852295D02*
X179154286Y-122052295D01*
X179154286Y-122052295D02*
X179459048Y-122052295D01*
X179459048Y-122052295D02*
X179535238Y-122090390D01*
X179535238Y-122090390D02*
X179573333Y-122128485D01*
X179573333Y-122128485D02*
X179611429Y-122204676D01*
X179611429Y-122204676D02*
X179611429Y-122318961D01*
X179611429Y-122318961D02*
X179573333Y-122395152D01*
X179573333Y-122395152D02*
X179535238Y-122433247D01*
X179535238Y-122433247D02*
X179459048Y-122471342D01*
X179459048Y-122471342D02*
X179154286Y-122471342D01*
X180297143Y-122052295D02*
X180144762Y-122052295D01*
X180144762Y-122052295D02*
X180068571Y-122090390D01*
X180068571Y-122090390D02*
X180030476Y-122128485D01*
X180030476Y-122128485D02*
X179954286Y-122242771D01*
X179954286Y-122242771D02*
X179916190Y-122395152D01*
X179916190Y-122395152D02*
X179916190Y-122699914D01*
X179916190Y-122699914D02*
X179954286Y-122776104D01*
X179954286Y-122776104D02*
X179992381Y-122814200D01*
X179992381Y-122814200D02*
X180068571Y-122852295D01*
X180068571Y-122852295D02*
X180220952Y-122852295D01*
X180220952Y-122852295D02*
X180297143Y-122814200D01*
X180297143Y-122814200D02*
X180335238Y-122776104D01*
X180335238Y-122776104D02*
X180373333Y-122699914D01*
X180373333Y-122699914D02*
X180373333Y-122509438D01*
X180373333Y-122509438D02*
X180335238Y-122433247D01*
X180335238Y-122433247D02*
X180297143Y-122395152D01*
X180297143Y-122395152D02*
X180220952Y-122357057D01*
X180220952Y-122357057D02*
X180068571Y-122357057D01*
X180068571Y-122357057D02*
X179992381Y-122395152D01*
X179992381Y-122395152D02*
X179954286Y-122433247D01*
X179954286Y-122433247D02*
X179916190Y-122509438D01*
X157256667Y-118876104D02*
X157218571Y-118914200D01*
X157218571Y-118914200D02*
X157104286Y-118952295D01*
X157104286Y-118952295D02*
X157028095Y-118952295D01*
X157028095Y-118952295D02*
X156913809Y-118914200D01*
X156913809Y-118914200D02*
X156837619Y-118838009D01*
X156837619Y-118838009D02*
X156799524Y-118761819D01*
X156799524Y-118761819D02*
X156761428Y-118609438D01*
X156761428Y-118609438D02*
X156761428Y-118495152D01*
X156761428Y-118495152D02*
X156799524Y-118342771D01*
X156799524Y-118342771D02*
X156837619Y-118266580D01*
X156837619Y-118266580D02*
X156913809Y-118190390D01*
X156913809Y-118190390D02*
X157028095Y-118152295D01*
X157028095Y-118152295D02*
X157104286Y-118152295D01*
X157104286Y-118152295D02*
X157218571Y-118190390D01*
X157218571Y-118190390D02*
X157256667Y-118228485D01*
X157713809Y-118495152D02*
X157637619Y-118457057D01*
X157637619Y-118457057D02*
X157599524Y-118418961D01*
X157599524Y-118418961D02*
X157561428Y-118342771D01*
X157561428Y-118342771D02*
X157561428Y-118304676D01*
X157561428Y-118304676D02*
X157599524Y-118228485D01*
X157599524Y-118228485D02*
X157637619Y-118190390D01*
X157637619Y-118190390D02*
X157713809Y-118152295D01*
X157713809Y-118152295D02*
X157866190Y-118152295D01*
X157866190Y-118152295D02*
X157942381Y-118190390D01*
X157942381Y-118190390D02*
X157980476Y-118228485D01*
X157980476Y-118228485D02*
X158018571Y-118304676D01*
X158018571Y-118304676D02*
X158018571Y-118342771D01*
X158018571Y-118342771D02*
X157980476Y-118418961D01*
X157980476Y-118418961D02*
X157942381Y-118457057D01*
X157942381Y-118457057D02*
X157866190Y-118495152D01*
X157866190Y-118495152D02*
X157713809Y-118495152D01*
X157713809Y-118495152D02*
X157637619Y-118533247D01*
X157637619Y-118533247D02*
X157599524Y-118571342D01*
X157599524Y-118571342D02*
X157561428Y-118647533D01*
X157561428Y-118647533D02*
X157561428Y-118799914D01*
X157561428Y-118799914D02*
X157599524Y-118876104D01*
X157599524Y-118876104D02*
X157637619Y-118914200D01*
X157637619Y-118914200D02*
X157713809Y-118952295D01*
X157713809Y-118952295D02*
X157866190Y-118952295D01*
X157866190Y-118952295D02*
X157942381Y-118914200D01*
X157942381Y-118914200D02*
X157980476Y-118876104D01*
X157980476Y-118876104D02*
X158018571Y-118799914D01*
X158018571Y-118799914D02*
X158018571Y-118647533D01*
X158018571Y-118647533D02*
X157980476Y-118571342D01*
X157980476Y-118571342D02*
X157942381Y-118533247D01*
X157942381Y-118533247D02*
X157866190Y-118495152D01*
X160996333Y-113389580D02*
X160948714Y-113437200D01*
X160948714Y-113437200D02*
X160805857Y-113484819D01*
X160805857Y-113484819D02*
X160710619Y-113484819D01*
X160710619Y-113484819D02*
X160567762Y-113437200D01*
X160567762Y-113437200D02*
X160472524Y-113341961D01*
X160472524Y-113341961D02*
X160424905Y-113246723D01*
X160424905Y-113246723D02*
X160377286Y-113056247D01*
X160377286Y-113056247D02*
X160377286Y-112913390D01*
X160377286Y-112913390D02*
X160424905Y-112722914D01*
X160424905Y-112722914D02*
X160472524Y-112627676D01*
X160472524Y-112627676D02*
X160567762Y-112532438D01*
X160567762Y-112532438D02*
X160710619Y-112484819D01*
X160710619Y-112484819D02*
X160805857Y-112484819D01*
X160805857Y-112484819D02*
X160948714Y-112532438D01*
X160948714Y-112532438D02*
X160996333Y-112580057D01*
X161853476Y-112484819D02*
X161663000Y-112484819D01*
X161663000Y-112484819D02*
X161567762Y-112532438D01*
X161567762Y-112532438D02*
X161520143Y-112580057D01*
X161520143Y-112580057D02*
X161424905Y-112722914D01*
X161424905Y-112722914D02*
X161377286Y-112913390D01*
X161377286Y-112913390D02*
X161377286Y-113294342D01*
X161377286Y-113294342D02*
X161424905Y-113389580D01*
X161424905Y-113389580D02*
X161472524Y-113437200D01*
X161472524Y-113437200D02*
X161567762Y-113484819D01*
X161567762Y-113484819D02*
X161758238Y-113484819D01*
X161758238Y-113484819D02*
X161853476Y-113437200D01*
X161853476Y-113437200D02*
X161901095Y-113389580D01*
X161901095Y-113389580D02*
X161948714Y-113294342D01*
X161948714Y-113294342D02*
X161948714Y-113056247D01*
X161948714Y-113056247D02*
X161901095Y-112961009D01*
X161901095Y-112961009D02*
X161853476Y-112913390D01*
X161853476Y-112913390D02*
X161758238Y-112865771D01*
X161758238Y-112865771D02*
X161567762Y-112865771D01*
X161567762Y-112865771D02*
X161472524Y-112913390D01*
X161472524Y-112913390D02*
X161424905Y-112961009D01*
X161424905Y-112961009D02*
X161377286Y-113056247D01*
X151376142Y-120374580D02*
X151328523Y-120422200D01*
X151328523Y-120422200D02*
X151185666Y-120469819D01*
X151185666Y-120469819D02*
X151090428Y-120469819D01*
X151090428Y-120469819D02*
X150947571Y-120422200D01*
X150947571Y-120422200D02*
X150852333Y-120326961D01*
X150852333Y-120326961D02*
X150804714Y-120231723D01*
X150804714Y-120231723D02*
X150757095Y-120041247D01*
X150757095Y-120041247D02*
X150757095Y-119898390D01*
X150757095Y-119898390D02*
X150804714Y-119707914D01*
X150804714Y-119707914D02*
X150852333Y-119612676D01*
X150852333Y-119612676D02*
X150947571Y-119517438D01*
X150947571Y-119517438D02*
X151090428Y-119469819D01*
X151090428Y-119469819D02*
X151185666Y-119469819D01*
X151185666Y-119469819D02*
X151328523Y-119517438D01*
X151328523Y-119517438D02*
X151376142Y-119565057D01*
X152328523Y-120469819D02*
X151757095Y-120469819D01*
X152042809Y-120469819D02*
X152042809Y-119469819D01*
X152042809Y-119469819D02*
X151947571Y-119612676D01*
X151947571Y-119612676D02*
X151852333Y-119707914D01*
X151852333Y-119707914D02*
X151757095Y-119755533D01*
X152661857Y-119469819D02*
X153280904Y-119469819D01*
X153280904Y-119469819D02*
X152947571Y-119850771D01*
X152947571Y-119850771D02*
X153090428Y-119850771D01*
X153090428Y-119850771D02*
X153185666Y-119898390D01*
X153185666Y-119898390D02*
X153233285Y-119946009D01*
X153233285Y-119946009D02*
X153280904Y-120041247D01*
X153280904Y-120041247D02*
X153280904Y-120279342D01*
X153280904Y-120279342D02*
X153233285Y-120374580D01*
X153233285Y-120374580D02*
X153185666Y-120422200D01*
X153185666Y-120422200D02*
X153090428Y-120469819D01*
X153090428Y-120469819D02*
X152804714Y-120469819D01*
X152804714Y-120469819D02*
X152709476Y-120422200D01*
X152709476Y-120422200D02*
X152661857Y-120374580D01*
X165728667Y-115983104D02*
X165690571Y-116021200D01*
X165690571Y-116021200D02*
X165576286Y-116059295D01*
X165576286Y-116059295D02*
X165500095Y-116059295D01*
X165500095Y-116059295D02*
X165385809Y-116021200D01*
X165385809Y-116021200D02*
X165309619Y-115945009D01*
X165309619Y-115945009D02*
X165271524Y-115868819D01*
X165271524Y-115868819D02*
X165233428Y-115716438D01*
X165233428Y-115716438D02*
X165233428Y-115602152D01*
X165233428Y-115602152D02*
X165271524Y-115449771D01*
X165271524Y-115449771D02*
X165309619Y-115373580D01*
X165309619Y-115373580D02*
X165385809Y-115297390D01*
X165385809Y-115297390D02*
X165500095Y-115259295D01*
X165500095Y-115259295D02*
X165576286Y-115259295D01*
X165576286Y-115259295D02*
X165690571Y-115297390D01*
X165690571Y-115297390D02*
X165728667Y-115335485D01*
X166452476Y-115259295D02*
X166071524Y-115259295D01*
X166071524Y-115259295D02*
X166033428Y-115640247D01*
X166033428Y-115640247D02*
X166071524Y-115602152D01*
X166071524Y-115602152D02*
X166147714Y-115564057D01*
X166147714Y-115564057D02*
X166338190Y-115564057D01*
X166338190Y-115564057D02*
X166414381Y-115602152D01*
X166414381Y-115602152D02*
X166452476Y-115640247D01*
X166452476Y-115640247D02*
X166490571Y-115716438D01*
X166490571Y-115716438D02*
X166490571Y-115906914D01*
X166490571Y-115906914D02*
X166452476Y-115983104D01*
X166452476Y-115983104D02*
X166414381Y-116021200D01*
X166414381Y-116021200D02*
X166338190Y-116059295D01*
X166338190Y-116059295D02*
X166147714Y-116059295D01*
X166147714Y-116059295D02*
X166071524Y-116021200D01*
X166071524Y-116021200D02*
X166033428Y-115983104D01*
X173856667Y-116440295D02*
X173590000Y-116059342D01*
X173399524Y-116440295D02*
X173399524Y-115640295D01*
X173399524Y-115640295D02*
X173704286Y-115640295D01*
X173704286Y-115640295D02*
X173780476Y-115678390D01*
X173780476Y-115678390D02*
X173818571Y-115716485D01*
X173818571Y-115716485D02*
X173856667Y-115792676D01*
X173856667Y-115792676D02*
X173856667Y-115906961D01*
X173856667Y-115906961D02*
X173818571Y-115983152D01*
X173818571Y-115983152D02*
X173780476Y-116021247D01*
X173780476Y-116021247D02*
X173704286Y-116059342D01*
X173704286Y-116059342D02*
X173399524Y-116059342D01*
X174161428Y-115716485D02*
X174199524Y-115678390D01*
X174199524Y-115678390D02*
X174275714Y-115640295D01*
X174275714Y-115640295D02*
X174466190Y-115640295D01*
X174466190Y-115640295D02*
X174542381Y-115678390D01*
X174542381Y-115678390D02*
X174580476Y-115716485D01*
X174580476Y-115716485D02*
X174618571Y-115792676D01*
X174618571Y-115792676D02*
X174618571Y-115868866D01*
X174618571Y-115868866D02*
X174580476Y-115983152D01*
X174580476Y-115983152D02*
X174123333Y-116440295D01*
X174123333Y-116440295D02*
X174618571Y-116440295D01*
X178485809Y-117278485D02*
X178409619Y-117240390D01*
X178409619Y-117240390D02*
X178333428Y-117164200D01*
X178333428Y-117164200D02*
X178219142Y-117049914D01*
X178219142Y-117049914D02*
X178142952Y-117011819D01*
X178142952Y-117011819D02*
X178066761Y-117011819D01*
X178104857Y-117202295D02*
X178028666Y-117164200D01*
X178028666Y-117164200D02*
X177952476Y-117088009D01*
X177952476Y-117088009D02*
X177914380Y-116935628D01*
X177914380Y-116935628D02*
X177914380Y-116668961D01*
X177914380Y-116668961D02*
X177952476Y-116516580D01*
X177952476Y-116516580D02*
X178028666Y-116440390D01*
X178028666Y-116440390D02*
X178104857Y-116402295D01*
X178104857Y-116402295D02*
X178257238Y-116402295D01*
X178257238Y-116402295D02*
X178333428Y-116440390D01*
X178333428Y-116440390D02*
X178409619Y-116516580D01*
X178409619Y-116516580D02*
X178447714Y-116668961D01*
X178447714Y-116668961D02*
X178447714Y-116935628D01*
X178447714Y-116935628D02*
X178409619Y-117088009D01*
X178409619Y-117088009D02*
X178333428Y-117164200D01*
X178333428Y-117164200D02*
X178257238Y-117202295D01*
X178257238Y-117202295D02*
X178104857Y-117202295D01*
X179209618Y-117202295D02*
X178752475Y-117202295D01*
X178981047Y-117202295D02*
X178981047Y-116402295D01*
X178981047Y-116402295D02*
X178904856Y-116516580D01*
X178904856Y-116516580D02*
X178828666Y-116592771D01*
X178828666Y-116592771D02*
X178752475Y-116630866D01*
X153603333Y-132459580D02*
X153555714Y-132507200D01*
X153555714Y-132507200D02*
X153412857Y-132554819D01*
X153412857Y-132554819D02*
X153317619Y-132554819D01*
X153317619Y-132554819D02*
X153174762Y-132507200D01*
X153174762Y-132507200D02*
X153079524Y-132411961D01*
X153079524Y-132411961D02*
X153031905Y-132316723D01*
X153031905Y-132316723D02*
X152984286Y-132126247D01*
X152984286Y-132126247D02*
X152984286Y-131983390D01*
X152984286Y-131983390D02*
X153031905Y-131792914D01*
X153031905Y-131792914D02*
X153079524Y-131697676D01*
X153079524Y-131697676D02*
X153174762Y-131602438D01*
X153174762Y-131602438D02*
X153317619Y-131554819D01*
X153317619Y-131554819D02*
X153412857Y-131554819D01*
X153412857Y-131554819D02*
X153555714Y-131602438D01*
X153555714Y-131602438D02*
X153603333Y-131650057D01*
X154555714Y-132554819D02*
X153984286Y-132554819D01*
X154270000Y-132554819D02*
X154270000Y-131554819D01*
X154270000Y-131554819D02*
X154174762Y-131697676D01*
X154174762Y-131697676D02*
X154079524Y-131792914D01*
X154079524Y-131792914D02*
X153984286Y-131840533D01*
X142951755Y-116390456D02*
X142379336Y-116289441D01*
X142547694Y-116794517D02*
X141840588Y-116087410D01*
X141840588Y-116087410D02*
X142109962Y-115818036D01*
X142109962Y-115818036D02*
X142210977Y-115784364D01*
X142210977Y-115784364D02*
X142278320Y-115784364D01*
X142278320Y-115784364D02*
X142379336Y-115818036D01*
X142379336Y-115818036D02*
X142480351Y-115919051D01*
X142480351Y-115919051D02*
X142514023Y-116020067D01*
X142514023Y-116020067D02*
X142514023Y-116087410D01*
X142514023Y-116087410D02*
X142480351Y-116188425D01*
X142480351Y-116188425D02*
X142210977Y-116457799D01*
X142951755Y-115582334D02*
X142850740Y-115616006D01*
X142850740Y-115616006D02*
X142783397Y-115616006D01*
X142783397Y-115616006D02*
X142682381Y-115582334D01*
X142682381Y-115582334D02*
X142648710Y-115548662D01*
X142648710Y-115548662D02*
X142615038Y-115447647D01*
X142615038Y-115447647D02*
X142615038Y-115380303D01*
X142615038Y-115380303D02*
X142648710Y-115279288D01*
X142648710Y-115279288D02*
X142783397Y-115144601D01*
X142783397Y-115144601D02*
X142884412Y-115110929D01*
X142884412Y-115110929D02*
X142951755Y-115110929D01*
X142951755Y-115110929D02*
X143052771Y-115144601D01*
X143052771Y-115144601D02*
X143086442Y-115178273D01*
X143086442Y-115178273D02*
X143120114Y-115279288D01*
X143120114Y-115279288D02*
X143120114Y-115346632D01*
X143120114Y-115346632D02*
X143086442Y-115447647D01*
X143086442Y-115447647D02*
X142951755Y-115582334D01*
X142951755Y-115582334D02*
X142918084Y-115683349D01*
X142918084Y-115683349D02*
X142918084Y-115750693D01*
X142918084Y-115750693D02*
X142951755Y-115851708D01*
X142951755Y-115851708D02*
X143086442Y-115986395D01*
X143086442Y-115986395D02*
X143187458Y-116020067D01*
X143187458Y-116020067D02*
X143254801Y-116020067D01*
X143254801Y-116020067D02*
X143355816Y-115986395D01*
X143355816Y-115986395D02*
X143490503Y-115851708D01*
X143490503Y-115851708D02*
X143524175Y-115750693D01*
X143524175Y-115750693D02*
X143524175Y-115683349D01*
X143524175Y-115683349D02*
X143490503Y-115582334D01*
X143490503Y-115582334D02*
X143355816Y-115447647D01*
X143355816Y-115447647D02*
X143254801Y-115413975D01*
X143254801Y-115413975D02*
X143187458Y-115413975D01*
X143187458Y-115413975D02*
X143086442Y-115447647D01*
X159632667Y-118853295D02*
X159366000Y-118472342D01*
X159175524Y-118853295D02*
X159175524Y-118053295D01*
X159175524Y-118053295D02*
X159480286Y-118053295D01*
X159480286Y-118053295D02*
X159556476Y-118091390D01*
X159556476Y-118091390D02*
X159594571Y-118129485D01*
X159594571Y-118129485D02*
X159632667Y-118205676D01*
X159632667Y-118205676D02*
X159632667Y-118319961D01*
X159632667Y-118319961D02*
X159594571Y-118396152D01*
X159594571Y-118396152D02*
X159556476Y-118434247D01*
X159556476Y-118434247D02*
X159480286Y-118472342D01*
X159480286Y-118472342D02*
X159175524Y-118472342D01*
X160356476Y-118053295D02*
X159975524Y-118053295D01*
X159975524Y-118053295D02*
X159937428Y-118434247D01*
X159937428Y-118434247D02*
X159975524Y-118396152D01*
X159975524Y-118396152D02*
X160051714Y-118358057D01*
X160051714Y-118358057D02*
X160242190Y-118358057D01*
X160242190Y-118358057D02*
X160318381Y-118396152D01*
X160318381Y-118396152D02*
X160356476Y-118434247D01*
X160356476Y-118434247D02*
X160394571Y-118510438D01*
X160394571Y-118510438D02*
X160394571Y-118700914D01*
X160394571Y-118700914D02*
X160356476Y-118777104D01*
X160356476Y-118777104D02*
X160318381Y-118815200D01*
X160318381Y-118815200D02*
X160242190Y-118853295D01*
X160242190Y-118853295D02*
X160051714Y-118853295D01*
X160051714Y-118853295D02*
X159975524Y-118815200D01*
X159975524Y-118815200D02*
X159937428Y-118777104D01*
X181486667Y-117052295D02*
X181220000Y-116671342D01*
X181029524Y-117052295D02*
X181029524Y-116252295D01*
X181029524Y-116252295D02*
X181334286Y-116252295D01*
X181334286Y-116252295D02*
X181410476Y-116290390D01*
X181410476Y-116290390D02*
X181448571Y-116328485D01*
X181448571Y-116328485D02*
X181486667Y-116404676D01*
X181486667Y-116404676D02*
X181486667Y-116518961D01*
X181486667Y-116518961D02*
X181448571Y-116595152D01*
X181448571Y-116595152D02*
X181410476Y-116633247D01*
X181410476Y-116633247D02*
X181334286Y-116671342D01*
X181334286Y-116671342D02*
X181029524Y-116671342D01*
X181753333Y-116252295D02*
X182286667Y-116252295D01*
X182286667Y-116252295D02*
X181943809Y-117052295D01*
X176396667Y-122731104D02*
X176358571Y-122769200D01*
X176358571Y-122769200D02*
X176244286Y-122807295D01*
X176244286Y-122807295D02*
X176168095Y-122807295D01*
X176168095Y-122807295D02*
X176053809Y-122769200D01*
X176053809Y-122769200D02*
X175977619Y-122693009D01*
X175977619Y-122693009D02*
X175939524Y-122616819D01*
X175939524Y-122616819D02*
X175901428Y-122464438D01*
X175901428Y-122464438D02*
X175901428Y-122350152D01*
X175901428Y-122350152D02*
X175939524Y-122197771D01*
X175939524Y-122197771D02*
X175977619Y-122121580D01*
X175977619Y-122121580D02*
X176053809Y-122045390D01*
X176053809Y-122045390D02*
X176168095Y-122007295D01*
X176168095Y-122007295D02*
X176244286Y-122007295D01*
X176244286Y-122007295D02*
X176358571Y-122045390D01*
X176358571Y-122045390D02*
X176396667Y-122083485D01*
X176663333Y-122007295D02*
X177158571Y-122007295D01*
X177158571Y-122007295D02*
X176891905Y-122312057D01*
X176891905Y-122312057D02*
X177006190Y-122312057D01*
X177006190Y-122312057D02*
X177082381Y-122350152D01*
X177082381Y-122350152D02*
X177120476Y-122388247D01*
X177120476Y-122388247D02*
X177158571Y-122464438D01*
X177158571Y-122464438D02*
X177158571Y-122654914D01*
X177158571Y-122654914D02*
X177120476Y-122731104D01*
X177120476Y-122731104D02*
X177082381Y-122769200D01*
X177082381Y-122769200D02*
X177006190Y-122807295D01*
X177006190Y-122807295D02*
X176777619Y-122807295D01*
X176777619Y-122807295D02*
X176701428Y-122769200D01*
X176701428Y-122769200D02*
X176663333Y-122731104D01*
X166938095Y-119714819D02*
X166938095Y-120524342D01*
X166938095Y-120524342D02*
X166985714Y-120619580D01*
X166985714Y-120619580D02*
X167033333Y-120667200D01*
X167033333Y-120667200D02*
X167128571Y-120714819D01*
X167128571Y-120714819D02*
X167319047Y-120714819D01*
X167319047Y-120714819D02*
X167414285Y-120667200D01*
X167414285Y-120667200D02*
X167461904Y-120619580D01*
X167461904Y-120619580D02*
X167509523Y-120524342D01*
X167509523Y-120524342D02*
X167509523Y-119714819D01*
X167938095Y-119810057D02*
X167985714Y-119762438D01*
X167985714Y-119762438D02*
X168080952Y-119714819D01*
X168080952Y-119714819D02*
X168319047Y-119714819D01*
X168319047Y-119714819D02*
X168414285Y-119762438D01*
X168414285Y-119762438D02*
X168461904Y-119810057D01*
X168461904Y-119810057D02*
X168509523Y-119905295D01*
X168509523Y-119905295D02*
X168509523Y-120000533D01*
X168509523Y-120000533D02*
X168461904Y-120143390D01*
X168461904Y-120143390D02*
X167890476Y-120714819D01*
X167890476Y-120714819D02*
X168509523Y-120714819D01*
X156457667Y-116110104D02*
X156419571Y-116148200D01*
X156419571Y-116148200D02*
X156305286Y-116186295D01*
X156305286Y-116186295D02*
X156229095Y-116186295D01*
X156229095Y-116186295D02*
X156114809Y-116148200D01*
X156114809Y-116148200D02*
X156038619Y-116072009D01*
X156038619Y-116072009D02*
X156000524Y-115995819D01*
X156000524Y-115995819D02*
X155962428Y-115843438D01*
X155962428Y-115843438D02*
X155962428Y-115729152D01*
X155962428Y-115729152D02*
X156000524Y-115576771D01*
X156000524Y-115576771D02*
X156038619Y-115500580D01*
X156038619Y-115500580D02*
X156114809Y-115424390D01*
X156114809Y-115424390D02*
X156229095Y-115386295D01*
X156229095Y-115386295D02*
X156305286Y-115386295D01*
X156305286Y-115386295D02*
X156419571Y-115424390D01*
X156419571Y-115424390D02*
X156457667Y-115462485D01*
X156724333Y-115386295D02*
X157257667Y-115386295D01*
X157257667Y-115386295D02*
X156914809Y-116186295D01*
X146589761Y-114596057D02*
X146494523Y-114548438D01*
X146494523Y-114548438D02*
X146399285Y-114453200D01*
X146399285Y-114453200D02*
X146256428Y-114310342D01*
X146256428Y-114310342D02*
X146161190Y-114262723D01*
X146161190Y-114262723D02*
X146065952Y-114262723D01*
X146113571Y-114500819D02*
X146018333Y-114453200D01*
X146018333Y-114453200D02*
X145923095Y-114357961D01*
X145923095Y-114357961D02*
X145875476Y-114167485D01*
X145875476Y-114167485D02*
X145875476Y-113834152D01*
X145875476Y-113834152D02*
X145923095Y-113643676D01*
X145923095Y-113643676D02*
X146018333Y-113548438D01*
X146018333Y-113548438D02*
X146113571Y-113500819D01*
X146113571Y-113500819D02*
X146304047Y-113500819D01*
X146304047Y-113500819D02*
X146399285Y-113548438D01*
X146399285Y-113548438D02*
X146494523Y-113643676D01*
X146494523Y-113643676D02*
X146542142Y-113834152D01*
X146542142Y-113834152D02*
X146542142Y-114167485D01*
X146542142Y-114167485D02*
X146494523Y-114357961D01*
X146494523Y-114357961D02*
X146399285Y-114453200D01*
X146399285Y-114453200D02*
X146304047Y-114500819D01*
X146304047Y-114500819D02*
X146113571Y-114500819D01*
X146923095Y-113596057D02*
X146970714Y-113548438D01*
X146970714Y-113548438D02*
X147065952Y-113500819D01*
X147065952Y-113500819D02*
X147304047Y-113500819D01*
X147304047Y-113500819D02*
X147399285Y-113548438D01*
X147399285Y-113548438D02*
X147446904Y-113596057D01*
X147446904Y-113596057D02*
X147494523Y-113691295D01*
X147494523Y-113691295D02*
X147494523Y-113786533D01*
X147494523Y-113786533D02*
X147446904Y-113929390D01*
X147446904Y-113929390D02*
X146875476Y-114500819D01*
X146875476Y-114500819D02*
X147494523Y-114500819D01*
X175083333Y-116712295D02*
X175083333Y-117283723D01*
X175083333Y-117283723D02*
X175045238Y-117398009D01*
X175045238Y-117398009D02*
X174969047Y-117474200D01*
X174969047Y-117474200D02*
X174854762Y-117512295D01*
X174854762Y-117512295D02*
X174778571Y-117512295D01*
X175464286Y-117512295D02*
X175464286Y-116712295D01*
X175464286Y-116712295D02*
X175769048Y-116712295D01*
X175769048Y-116712295D02*
X175845238Y-116750390D01*
X175845238Y-116750390D02*
X175883333Y-116788485D01*
X175883333Y-116788485D02*
X175921429Y-116864676D01*
X175921429Y-116864676D02*
X175921429Y-116978961D01*
X175921429Y-116978961D02*
X175883333Y-117055152D01*
X175883333Y-117055152D02*
X175845238Y-117093247D01*
X175845238Y-117093247D02*
X175769048Y-117131342D01*
X175769048Y-117131342D02*
X175464286Y-117131342D01*
X176607143Y-116978961D02*
X176607143Y-117512295D01*
X176416667Y-116674200D02*
X176226190Y-117245628D01*
X176226190Y-117245628D02*
X176721429Y-117245628D01*
X149963819Y-110399457D02*
X149487628Y-110732790D01*
X149963819Y-110970885D02*
X148963819Y-110970885D01*
X148963819Y-110970885D02*
X148963819Y-110589933D01*
X148963819Y-110589933D02*
X149011438Y-110494695D01*
X149011438Y-110494695D02*
X149059057Y-110447076D01*
X149059057Y-110447076D02*
X149154295Y-110399457D01*
X149154295Y-110399457D02*
X149297152Y-110399457D01*
X149297152Y-110399457D02*
X149392390Y-110447076D01*
X149392390Y-110447076D02*
X149440009Y-110494695D01*
X149440009Y-110494695D02*
X149487628Y-110589933D01*
X149487628Y-110589933D02*
X149487628Y-110970885D01*
X149963819Y-109447076D02*
X149963819Y-110018504D01*
X149963819Y-109732790D02*
X148963819Y-109732790D01*
X148963819Y-109732790D02*
X149106676Y-109828028D01*
X149106676Y-109828028D02*
X149201914Y-109923266D01*
X149201914Y-109923266D02*
X149249533Y-110018504D01*
X148963819Y-108828028D02*
X148963819Y-108732790D01*
X148963819Y-108732790D02*
X149011438Y-108637552D01*
X149011438Y-108637552D02*
X149059057Y-108589933D01*
X149059057Y-108589933D02*
X149154295Y-108542314D01*
X149154295Y-108542314D02*
X149344771Y-108494695D01*
X149344771Y-108494695D02*
X149582866Y-108494695D01*
X149582866Y-108494695D02*
X149773342Y-108542314D01*
X149773342Y-108542314D02*
X149868580Y-108589933D01*
X149868580Y-108589933D02*
X149916200Y-108637552D01*
X149916200Y-108637552D02*
X149963819Y-108732790D01*
X149963819Y-108732790D02*
X149963819Y-108828028D01*
X149963819Y-108828028D02*
X149916200Y-108923266D01*
X149916200Y-108923266D02*
X149868580Y-108970885D01*
X149868580Y-108970885D02*
X149773342Y-109018504D01*
X149773342Y-109018504D02*
X149582866Y-109066123D01*
X149582866Y-109066123D02*
X149344771Y-109066123D01*
X149344771Y-109066123D02*
X149154295Y-109018504D01*
X149154295Y-109018504D02*
X149059057Y-108970885D01*
X149059057Y-108970885D02*
X149011438Y-108923266D01*
X149011438Y-108923266D02*
X148963819Y-108828028D01*
X170167333Y-105861295D02*
X170167333Y-106432723D01*
X170167333Y-106432723D02*
X170129238Y-106547009D01*
X170129238Y-106547009D02*
X170053047Y-106623200D01*
X170053047Y-106623200D02*
X169938762Y-106661295D01*
X169938762Y-106661295D02*
X169862571Y-106661295D01*
X170510190Y-105937485D02*
X170548286Y-105899390D01*
X170548286Y-105899390D02*
X170624476Y-105861295D01*
X170624476Y-105861295D02*
X170814952Y-105861295D01*
X170814952Y-105861295D02*
X170891143Y-105899390D01*
X170891143Y-105899390D02*
X170929238Y-105937485D01*
X170929238Y-105937485D02*
X170967333Y-106013676D01*
X170967333Y-106013676D02*
X170967333Y-106089866D01*
X170967333Y-106089866D02*
X170929238Y-106204152D01*
X170929238Y-106204152D02*
X170472095Y-106661295D01*
X170472095Y-106661295D02*
X170967333Y-106661295D01*
X165573333Y-129322295D02*
X165573333Y-129893723D01*
X165573333Y-129893723D02*
X165535238Y-130008009D01*
X165535238Y-130008009D02*
X165459047Y-130084200D01*
X165459047Y-130084200D02*
X165344762Y-130122295D01*
X165344762Y-130122295D02*
X165268571Y-130122295D01*
X165954286Y-130122295D02*
X165954286Y-129322295D01*
X165954286Y-129322295D02*
X166259048Y-129322295D01*
X166259048Y-129322295D02*
X166335238Y-129360390D01*
X166335238Y-129360390D02*
X166373333Y-129398485D01*
X166373333Y-129398485D02*
X166411429Y-129474676D01*
X166411429Y-129474676D02*
X166411429Y-129588961D01*
X166411429Y-129588961D02*
X166373333Y-129665152D01*
X166373333Y-129665152D02*
X166335238Y-129703247D01*
X166335238Y-129703247D02*
X166259048Y-129741342D01*
X166259048Y-129741342D02*
X165954286Y-129741342D01*
X166716190Y-129398485D02*
X166754286Y-129360390D01*
X166754286Y-129360390D02*
X166830476Y-129322295D01*
X166830476Y-129322295D02*
X167020952Y-129322295D01*
X167020952Y-129322295D02*
X167097143Y-129360390D01*
X167097143Y-129360390D02*
X167135238Y-129398485D01*
X167135238Y-129398485D02*
X167173333Y-129474676D01*
X167173333Y-129474676D02*
X167173333Y-129550866D01*
X167173333Y-129550866D02*
X167135238Y-129665152D01*
X167135238Y-129665152D02*
X166678095Y-130122295D01*
X166678095Y-130122295D02*
X167173333Y-130122295D01*
X150368095Y-113754819D02*
X150368095Y-114564342D01*
X150368095Y-114564342D02*
X150415714Y-114659580D01*
X150415714Y-114659580D02*
X150463333Y-114707200D01*
X150463333Y-114707200D02*
X150558571Y-114754819D01*
X150558571Y-114754819D02*
X150749047Y-114754819D01*
X150749047Y-114754819D02*
X150844285Y-114707200D01*
X150844285Y-114707200D02*
X150891904Y-114659580D01*
X150891904Y-114659580D02*
X150939523Y-114564342D01*
X150939523Y-114564342D02*
X150939523Y-113754819D01*
X151844285Y-114088152D02*
X151844285Y-114754819D01*
X151606190Y-113707200D02*
X151368095Y-114421485D01*
X151368095Y-114421485D02*
X151987142Y-114421485D01*
X161322104Y-115703285D02*
X161360200Y-115741381D01*
X161360200Y-115741381D02*
X161398295Y-115855666D01*
X161398295Y-115855666D02*
X161398295Y-115931857D01*
X161398295Y-115931857D02*
X161360200Y-116046143D01*
X161360200Y-116046143D02*
X161284009Y-116122333D01*
X161284009Y-116122333D02*
X161207819Y-116160428D01*
X161207819Y-116160428D02*
X161055438Y-116198524D01*
X161055438Y-116198524D02*
X160941152Y-116198524D01*
X160941152Y-116198524D02*
X160788771Y-116160428D01*
X160788771Y-116160428D02*
X160712580Y-116122333D01*
X160712580Y-116122333D02*
X160636390Y-116046143D01*
X160636390Y-116046143D02*
X160598295Y-115931857D01*
X160598295Y-115931857D02*
X160598295Y-115855666D01*
X160598295Y-115855666D02*
X160636390Y-115741381D01*
X160636390Y-115741381D02*
X160674485Y-115703285D01*
X161398295Y-114941381D02*
X161398295Y-115398524D01*
X161398295Y-115169952D02*
X160598295Y-115169952D01*
X160598295Y-115169952D02*
X160712580Y-115246143D01*
X160712580Y-115246143D02*
X160788771Y-115322333D01*
X160788771Y-115322333D02*
X160826866Y-115398524D01*
X160598295Y-114446142D02*
X160598295Y-114369952D01*
X160598295Y-114369952D02*
X160636390Y-114293761D01*
X160636390Y-114293761D02*
X160674485Y-114255666D01*
X160674485Y-114255666D02*
X160750676Y-114217571D01*
X160750676Y-114217571D02*
X160903057Y-114179476D01*
X160903057Y-114179476D02*
X161093533Y-114179476D01*
X161093533Y-114179476D02*
X161245914Y-114217571D01*
X161245914Y-114217571D02*
X161322104Y-114255666D01*
X161322104Y-114255666D02*
X161360200Y-114293761D01*
X161360200Y-114293761D02*
X161398295Y-114369952D01*
X161398295Y-114369952D02*
X161398295Y-114446142D01*
X161398295Y-114446142D02*
X161360200Y-114522333D01*
X161360200Y-114522333D02*
X161322104Y-114560428D01*
X161322104Y-114560428D02*
X161245914Y-114598523D01*
X161245914Y-114598523D02*
X161093533Y-114636619D01*
X161093533Y-114636619D02*
X160903057Y-114636619D01*
X160903057Y-114636619D02*
X160750676Y-114598523D01*
X160750676Y-114598523D02*
X160674485Y-114560428D01*
X160674485Y-114560428D02*
X160636390Y-114522333D01*
X160636390Y-114522333D02*
X160598295Y-114446142D01*
D11*
X174744670Y-130456834D02*
X174798544Y-130564584D01*
X174798544Y-130564584D02*
X174933231Y-130699271D01*
X174933231Y-130699271D02*
X175014044Y-130726209D01*
X175014044Y-130726209D02*
X175067918Y-130726209D01*
X175067918Y-130726209D02*
X175148731Y-130699271D01*
X175148731Y-130699271D02*
X175202605Y-130645396D01*
X175202605Y-130645396D02*
X175229543Y-130564584D01*
X175229543Y-130564584D02*
X175229543Y-130510709D01*
X175229543Y-130510709D02*
X175202605Y-130429897D01*
X175202605Y-130429897D02*
X175121793Y-130295210D01*
X175121793Y-130295210D02*
X175094856Y-130214398D01*
X175094856Y-130214398D02*
X175094856Y-130160523D01*
X175094856Y-130160523D02*
X175121793Y-130079711D01*
X175121793Y-130079711D02*
X175175668Y-130025836D01*
X175175668Y-130025836D02*
X175256480Y-129998899D01*
X175256480Y-129998899D02*
X175310355Y-129998899D01*
X175310355Y-129998899D02*
X175391167Y-130025836D01*
X175391167Y-130025836D02*
X175525854Y-130160523D01*
X175525854Y-130160523D02*
X175579729Y-130268273D01*
X175795228Y-130429897D02*
X175364230Y-131130270D01*
X175364230Y-131130270D02*
X175876041Y-130833958D01*
X175876041Y-130833958D02*
X175579729Y-131345769D01*
X175579729Y-131345769D02*
X176280102Y-130914770D01*
X176226227Y-131992267D02*
X175902978Y-131669018D01*
X176064603Y-131830642D02*
X176630288Y-131264957D01*
X176630288Y-131264957D02*
X176495601Y-131291894D01*
X176495601Y-131291894D02*
X176387851Y-131291894D01*
X176387851Y-131291894D02*
X176307039Y-131264957D01*
D10*
X145767933Y-111855019D02*
X145434600Y-111378828D01*
X145196505Y-111855019D02*
X145196505Y-110855019D01*
X145196505Y-110855019D02*
X145577457Y-110855019D01*
X145577457Y-110855019D02*
X145672695Y-110902638D01*
X145672695Y-110902638D02*
X145720314Y-110950257D01*
X145720314Y-110950257D02*
X145767933Y-111045495D01*
X145767933Y-111045495D02*
X145767933Y-111188352D01*
X145767933Y-111188352D02*
X145720314Y-111283590D01*
X145720314Y-111283590D02*
X145672695Y-111331209D01*
X145672695Y-111331209D02*
X145577457Y-111378828D01*
X145577457Y-111378828D02*
X145196505Y-111378828D01*
X146244124Y-111855019D02*
X146434600Y-111855019D01*
X146434600Y-111855019D02*
X146529838Y-111807400D01*
X146529838Y-111807400D02*
X146577457Y-111759780D01*
X146577457Y-111759780D02*
X146672695Y-111616923D01*
X146672695Y-111616923D02*
X146720314Y-111426447D01*
X146720314Y-111426447D02*
X146720314Y-111045495D01*
X146720314Y-111045495D02*
X146672695Y-110950257D01*
X146672695Y-110950257D02*
X146625076Y-110902638D01*
X146625076Y-110902638D02*
X146529838Y-110855019D01*
X146529838Y-110855019D02*
X146339362Y-110855019D01*
X146339362Y-110855019D02*
X146244124Y-110902638D01*
X146244124Y-110902638D02*
X146196505Y-110950257D01*
X146196505Y-110950257D02*
X146148886Y-111045495D01*
X146148886Y-111045495D02*
X146148886Y-111283590D01*
X146148886Y-111283590D02*
X146196505Y-111378828D01*
X146196505Y-111378828D02*
X146244124Y-111426447D01*
X146244124Y-111426447D02*
X146339362Y-111474066D01*
X146339362Y-111474066D02*
X146529838Y-111474066D01*
X146529838Y-111474066D02*
X146625076Y-111426447D01*
X146625076Y-111426447D02*
X146672695Y-111378828D01*
X146672695Y-111378828D02*
X146720314Y-111283590D01*
X167406667Y-122302295D02*
X167140000Y-121921342D01*
X166949524Y-122302295D02*
X166949524Y-121502295D01*
X166949524Y-121502295D02*
X167254286Y-121502295D01*
X167254286Y-121502295D02*
X167330476Y-121540390D01*
X167330476Y-121540390D02*
X167368571Y-121578485D01*
X167368571Y-121578485D02*
X167406667Y-121654676D01*
X167406667Y-121654676D02*
X167406667Y-121768961D01*
X167406667Y-121768961D02*
X167368571Y-121845152D01*
X167368571Y-121845152D02*
X167330476Y-121883247D01*
X167330476Y-121883247D02*
X167254286Y-121921342D01*
X167254286Y-121921342D02*
X166949524Y-121921342D01*
X168092381Y-121768961D02*
X168092381Y-122302295D01*
X167901905Y-121464200D02*
X167711428Y-122035628D01*
X167711428Y-122035628D02*
X168206667Y-122035628D01*
X163536333Y-120247580D02*
X163488714Y-120295200D01*
X163488714Y-120295200D02*
X163345857Y-120342819D01*
X163345857Y-120342819D02*
X163250619Y-120342819D01*
X163250619Y-120342819D02*
X163107762Y-120295200D01*
X163107762Y-120295200D02*
X163012524Y-120199961D01*
X163012524Y-120199961D02*
X162964905Y-120104723D01*
X162964905Y-120104723D02*
X162917286Y-119914247D01*
X162917286Y-119914247D02*
X162917286Y-119771390D01*
X162917286Y-119771390D02*
X162964905Y-119580914D01*
X162964905Y-119580914D02*
X163012524Y-119485676D01*
X163012524Y-119485676D02*
X163107762Y-119390438D01*
X163107762Y-119390438D02*
X163250619Y-119342819D01*
X163250619Y-119342819D02*
X163345857Y-119342819D01*
X163345857Y-119342819D02*
X163488714Y-119390438D01*
X163488714Y-119390438D02*
X163536333Y-119438057D01*
X164393476Y-119676152D02*
X164393476Y-120342819D01*
X164155381Y-119295200D02*
X163917286Y-120009485D01*
X163917286Y-120009485D02*
X164536333Y-120009485D01*
X166735524Y-113265295D02*
X166735524Y-112465295D01*
X166735524Y-112465295D02*
X166926000Y-112465295D01*
X166926000Y-112465295D02*
X167040286Y-112503390D01*
X167040286Y-112503390D02*
X167116476Y-112579580D01*
X167116476Y-112579580D02*
X167154571Y-112655771D01*
X167154571Y-112655771D02*
X167192667Y-112808152D01*
X167192667Y-112808152D02*
X167192667Y-112922438D01*
X167192667Y-112922438D02*
X167154571Y-113074819D01*
X167154571Y-113074819D02*
X167116476Y-113151009D01*
X167116476Y-113151009D02*
X167040286Y-113227200D01*
X167040286Y-113227200D02*
X166926000Y-113265295D01*
X166926000Y-113265295D02*
X166735524Y-113265295D01*
X167497428Y-112541485D02*
X167535524Y-112503390D01*
X167535524Y-112503390D02*
X167611714Y-112465295D01*
X167611714Y-112465295D02*
X167802190Y-112465295D01*
X167802190Y-112465295D02*
X167878381Y-112503390D01*
X167878381Y-112503390D02*
X167916476Y-112541485D01*
X167916476Y-112541485D02*
X167954571Y-112617676D01*
X167954571Y-112617676D02*
X167954571Y-112693866D01*
X167954571Y-112693866D02*
X167916476Y-112808152D01*
X167916476Y-112808152D02*
X167459333Y-113265295D01*
X167459333Y-113265295D02*
X167954571Y-113265295D01*
X151107142Y-122224819D02*
X150773809Y-121748628D01*
X150535714Y-122224819D02*
X150535714Y-121224819D01*
X150535714Y-121224819D02*
X150916666Y-121224819D01*
X150916666Y-121224819D02*
X151011904Y-121272438D01*
X151011904Y-121272438D02*
X151059523Y-121320057D01*
X151059523Y-121320057D02*
X151107142Y-121415295D01*
X151107142Y-121415295D02*
X151107142Y-121558152D01*
X151107142Y-121558152D02*
X151059523Y-121653390D01*
X151059523Y-121653390D02*
X151011904Y-121701009D01*
X151011904Y-121701009D02*
X150916666Y-121748628D01*
X150916666Y-121748628D02*
X150535714Y-121748628D01*
X152059523Y-122224819D02*
X151488095Y-122224819D01*
X151773809Y-122224819D02*
X151773809Y-121224819D01*
X151773809Y-121224819D02*
X151678571Y-121367676D01*
X151678571Y-121367676D02*
X151583333Y-121462914D01*
X151583333Y-121462914D02*
X151488095Y-121510533D01*
X152440476Y-121320057D02*
X152488095Y-121272438D01*
X152488095Y-121272438D02*
X152583333Y-121224819D01*
X152583333Y-121224819D02*
X152821428Y-121224819D01*
X152821428Y-121224819D02*
X152916666Y-121272438D01*
X152916666Y-121272438D02*
X152964285Y-121320057D01*
X152964285Y-121320057D02*
X153011904Y-121415295D01*
X153011904Y-121415295D02*
X153011904Y-121510533D01*
X153011904Y-121510533D02*
X152964285Y-121653390D01*
X152964285Y-121653390D02*
X152392857Y-122224819D01*
X152392857Y-122224819D02*
X153011904Y-122224819D01*
X165396667Y-122152295D02*
X165130000Y-121771342D01*
X164939524Y-122152295D02*
X164939524Y-121352295D01*
X164939524Y-121352295D02*
X165244286Y-121352295D01*
X165244286Y-121352295D02*
X165320476Y-121390390D01*
X165320476Y-121390390D02*
X165358571Y-121428485D01*
X165358571Y-121428485D02*
X165396667Y-121504676D01*
X165396667Y-121504676D02*
X165396667Y-121618961D01*
X165396667Y-121618961D02*
X165358571Y-121695152D01*
X165358571Y-121695152D02*
X165320476Y-121733247D01*
X165320476Y-121733247D02*
X165244286Y-121771342D01*
X165244286Y-121771342D02*
X164939524Y-121771342D01*
X166158571Y-122152295D02*
X165701428Y-122152295D01*
X165930000Y-122152295D02*
X165930000Y-121352295D01*
X165930000Y-121352295D02*
X165853809Y-121466580D01*
X165853809Y-121466580D02*
X165777619Y-121542771D01*
X165777619Y-121542771D02*
X165701428Y-121580866D01*
D12*
%TO.C,J1*%
X178560000Y-112300000D02*
X178532000Y-106725200D01*
X178560000Y-110700000D02*
X177640000Y-110700000D01*
X178532000Y-106725200D02*
X172412000Y-106725200D01*
X177800000Y-108340000D02*
X177800000Y-106740000D01*
X177800000Y-106740000D02*
X176800000Y-106740000D01*
X177640000Y-112300000D02*
X178560000Y-112300000D01*
X177640000Y-110700000D02*
X177640000Y-112300000D01*
X177360000Y-110700000D02*
X177640000Y-110700000D01*
X177360000Y-110700000D02*
X177360000Y-111915000D01*
X176800000Y-108340000D02*
X177800000Y-108340000D01*
X176800000Y-106740000D02*
X176800000Y-108340000D01*
X176800000Y-106740000D02*
X176800000Y-106740000D01*
X176000000Y-108840000D02*
X175000000Y-108840000D01*
X175992000Y-106725200D02*
X176000000Y-108840000D01*
X175000000Y-108840000D02*
X175026800Y-106750600D01*
X174200000Y-108340000D02*
X173200000Y-108340000D01*
X174200000Y-106740000D02*
X174200000Y-108340000D01*
X173360000Y-112300000D02*
X173360000Y-110700000D01*
X173360000Y-110700000D02*
X173640000Y-110700000D01*
X173200000Y-108340000D02*
X173200000Y-106740000D01*
X173200000Y-106740000D02*
X174200000Y-106740000D01*
X172440000Y-112300000D02*
X173360000Y-112300000D01*
X172440000Y-110700000D02*
X173360000Y-110700000D01*
X172412000Y-106725200D02*
X172416000Y-112681000D01*
%TO.C,D1*%
X169955000Y-113477500D02*
X168485000Y-113477500D01*
X168485000Y-113477500D02*
X168485000Y-115762500D01*
X169955000Y-115762500D02*
X169955000Y-113477500D01*
%TO.C,R11*%
X156112500Y-122165276D02*
X156112500Y-122674724D01*
X155067500Y-122165276D02*
X155067500Y-122674724D01*
%TO.C,JP1*%
X171690000Y-124990000D02*
X171690000Y-125590000D01*
X170990000Y-126290000D02*
X169590000Y-126290000D01*
X169590000Y-124290000D02*
X170990000Y-124290000D01*
X168890000Y-125590000D02*
X168890000Y-124990000D01*
X170990000Y-126290000D02*
G75*
G03*
X171690000Y-125590000I1J699999D01*
G01*
X171690000Y-124990000D02*
G75*
G03*
X170990000Y-124290000I-699999J1D01*
G01*
X168890000Y-125590000D02*
G75*
G03*
X169590000Y-126290000I700000J0D01*
G01*
X169590000Y-124290000D02*
G75*
G03*
X168890000Y-124990000I0J-700000D01*
G01*
%TO.C,JP5*%
X148260000Y-109290000D02*
X148260000Y-109890000D01*
X147560000Y-110590000D02*
X146160000Y-110590000D01*
X146160000Y-108590000D02*
X147560000Y-108590000D01*
X145460000Y-109890000D02*
X145460000Y-109290000D01*
X147560000Y-110590000D02*
G75*
G03*
X148260000Y-109890000I1J699999D01*
G01*
X148260000Y-109290000D02*
G75*
G03*
X147560000Y-108590000I-699999J1D01*
G01*
X145460000Y-109890000D02*
G75*
G03*
X146160000Y-110590000I700000J0D01*
G01*
X146160000Y-108590000D02*
G75*
G03*
X145460000Y-109290000I0J-700000D01*
G01*
%TO.C,R13*%
X158085276Y-122807500D02*
X158594724Y-122807500D01*
X158085276Y-123852500D02*
X158594724Y-123852500D01*
%TO.C,R6*%
X159309524Y-115813100D02*
X158800076Y-115813100D01*
X159309524Y-114768100D02*
X158800076Y-114768100D01*
%TO.C,C12*%
X151995095Y-116619400D02*
X152276255Y-116619400D01*
X151995095Y-117639400D02*
X152276255Y-117639400D01*
%TO.C,C11*%
X161761420Y-118119400D02*
X162042580Y-118119400D01*
X161761420Y-119139400D02*
X162042580Y-119139400D01*
D11*
%TO.C,SW2*%
X147074621Y-129750559D02*
X140852082Y-123528019D01*
X140852082Y-123528019D02*
X142902691Y-121477410D01*
X142902691Y-121477410D02*
X149125231Y-127699949D01*
X149125231Y-127699949D02*
X147074621Y-129750559D01*
X143069003Y-128573368D02*
X142008343Y-127512708D01*
X142008343Y-127512708D02*
X143422556Y-126098494D01*
X143422556Y-126098494D02*
X144483216Y-127159154D01*
X144483216Y-127159154D02*
X143069003Y-128573368D01*
D12*
%TO.C,U1*%
X153180000Y-124390000D02*
X159190000Y-124390000D01*
X155430000Y-131210000D02*
X159190000Y-131210000D01*
X159190000Y-124390000D02*
X159190000Y-125650000D01*
X159190000Y-131210000D02*
X159190000Y-129950000D01*
%TO.C,R3*%
X171322500Y-114420276D02*
X171322500Y-114929724D01*
X170277500Y-114420276D02*
X170277500Y-114929724D01*
%TO.C,C2*%
X152510000Y-127529420D02*
X152510000Y-127810580D01*
X151490000Y-127529420D02*
X151490000Y-127810580D01*
%TO.C,JP3*%
X171950000Y-127700000D02*
X171950000Y-128300000D01*
X171250000Y-129000000D02*
X169850000Y-129000000D01*
X169850000Y-127000000D02*
X171250000Y-127000000D01*
X169150000Y-128300000D02*
X169150000Y-127700000D01*
X171250000Y-129000000D02*
G75*
G03*
X171950000Y-128300000I1J699999D01*
G01*
X171950000Y-127700000D02*
G75*
G03*
X171250000Y-127000000I-699999J1D01*
G01*
X169150000Y-128300000D02*
G75*
G03*
X169850000Y-129000000I700000J0D01*
G01*
X169850000Y-127000000D02*
G75*
G03*
X169150000Y-127700000I0J-700000D01*
G01*
%TO.C,R14*%
X151507500Y-124694724D02*
X151507500Y-124185276D01*
X152552500Y-124694724D02*
X152552500Y-124185276D01*
%TO.C,U3*%
X164917000Y-116199400D02*
X162917000Y-116199400D01*
X162917000Y-113959400D02*
X163917000Y-113959400D01*
D11*
X164926121Y-115841400D02*
G75*
G03*
X164926121Y-115841400I-35921J0D01*
G01*
D12*
%TO.C,JP6*%
X180860000Y-117590000D02*
X182190000Y-117590000D01*
X180860000Y-118920000D02*
X180860000Y-117590000D01*
X180860000Y-120190000D02*
X180860000Y-122790000D01*
X180860000Y-120190000D02*
X183520000Y-120190000D01*
X180860000Y-122790000D02*
X183520000Y-122790000D01*
X183520000Y-120190000D02*
X183520000Y-122790000D01*
%TO.C,C8*%
X155296255Y-119139400D02*
X155015095Y-119139400D01*
X155296255Y-118119400D02*
X155015095Y-118119400D01*
%TO.C,C6*%
X158789420Y-113260000D02*
X159070580Y-113260000D01*
X158789420Y-114280000D02*
X159070580Y-114280000D01*
%TO.C,C13*%
X151995095Y-118119400D02*
X152276255Y-118119400D01*
X151995095Y-119139400D02*
X152276255Y-119139400D01*
%TO.C,C5*%
X165072579Y-117629400D02*
X164791419Y-117629400D01*
X165072579Y-116609400D02*
X164791419Y-116609400D01*
%TO.C,R2*%
X172872500Y-114435276D02*
X172872500Y-114944724D01*
X171827500Y-114435276D02*
X171827500Y-114944724D01*
%TO.C,Q1*%
X175818800Y-116241000D02*
X177493800Y-116241000D01*
X175818800Y-116241000D02*
X175168800Y-116241000D01*
X175818800Y-113121000D02*
X176468800Y-113121000D01*
X175818800Y-113121000D02*
X175168800Y-113121000D01*
%TO.C,C1*%
X152530000Y-130749420D02*
X152530000Y-131030580D01*
X151510000Y-130749420D02*
X151510000Y-131030580D01*
%TO.C,R8*%
X144211980Y-117181746D02*
X143851746Y-117541980D01*
X143473054Y-116442820D02*
X143112820Y-116803054D01*
%TO.C,R5*%
X158904724Y-117662500D02*
X158395276Y-117662500D01*
X158904724Y-116617500D02*
X158395276Y-116617500D01*
%TO.C,R7*%
X179939346Y-114375185D02*
X180299580Y-114735419D01*
X179200420Y-115114111D02*
X179560654Y-115474345D01*
%TO.C,C3*%
X175510000Y-122419420D02*
X175510000Y-122700580D01*
X174490000Y-122419420D02*
X174490000Y-122700580D01*
D13*
%TO.C,U2*%
X168850000Y-122275000D02*
X168850000Y-118275000D01*
X173950000Y-122275000D02*
X173950000Y-118275000D01*
D14*
X169010800Y-124059600D02*
G75*
G03*
X169010800Y-124059600I-100000J0D01*
G01*
D12*
%TO.C,C7*%
X155296255Y-117639400D02*
X155015095Y-117639400D01*
X155296255Y-116619400D02*
X155015095Y-116619400D01*
%TO.C,Q2*%
X147677900Y-114736400D02*
X146002900Y-114736400D01*
X147677900Y-114736400D02*
X148327900Y-114736400D01*
X147677900Y-117856400D02*
X147027900Y-117856400D01*
X147677900Y-117856400D02*
X148327900Y-117856400D01*
%TO.C,JP4*%
X174955000Y-120380000D02*
X174955000Y-119050000D01*
X176285000Y-120380000D02*
X174955000Y-120380000D01*
X177555000Y-120380000D02*
X180155000Y-120380000D01*
X177555000Y-120380000D02*
X177555000Y-117720000D01*
X180155000Y-120380000D02*
X180155000Y-117720000D01*
X177555000Y-117720000D02*
X180155000Y-117720000D01*
%TO.C,R10*%
X148097500Y-113084724D02*
X148097500Y-112575276D01*
X149142500Y-113084724D02*
X149142500Y-112575276D01*
%TO.C,J2*%
X170930000Y-107020000D02*
X170930000Y-108350000D01*
X169600000Y-107020000D02*
X170930000Y-107020000D01*
X168330000Y-107020000D02*
X150490000Y-107020000D01*
X168330000Y-107020000D02*
X168330000Y-109620000D01*
X150490000Y-107020000D02*
X150490000Y-112220000D01*
X170930000Y-109620000D02*
X170930000Y-112220000D01*
X168330000Y-109620000D02*
X170930000Y-109620000D01*
X170930000Y-112220000D02*
X150490000Y-112220000D01*
%TO.C,JP2*%
X165260000Y-128200000D02*
X165260000Y-127600000D01*
X165960000Y-126900000D02*
X167360000Y-126900000D01*
X167360000Y-128900000D02*
X165960000Y-128900000D01*
X168060000Y-127600000D02*
X168060000Y-128200000D01*
X165960000Y-126900000D02*
G75*
G03*
X165260000Y-127600000I-1J-699999D01*
G01*
X165260000Y-128200000D02*
G75*
G03*
X165960000Y-128900000I699999J-1D01*
G01*
X168060000Y-127600000D02*
G75*
G03*
X167360000Y-126900000I-700000J0D01*
G01*
X167360000Y-128900000D02*
G75*
G03*
X168060000Y-128200000I0J700000D01*
G01*
%TO.C,U4*%
X155145675Y-116199400D02*
X153145675Y-116199400D01*
X153145675Y-113959400D02*
X154145675Y-113959400D01*
D11*
X155195075Y-115841400D02*
G75*
G03*
X155195075Y-115841400I-50800J0D01*
G01*
D12*
%TO.C,C10*%
X161771420Y-116609400D02*
X162052580Y-116609400D01*
X161771420Y-117629400D02*
X162052580Y-117629400D01*
D11*
%TO.C,SW1*%
X183680559Y-125515379D02*
X177458019Y-131737918D01*
X177458019Y-131737918D02*
X175407410Y-129687309D01*
X175407410Y-129687309D02*
X181629949Y-123464769D01*
X181629949Y-123464769D02*
X183680559Y-125515379D01*
X182503368Y-129520997D02*
X181442708Y-130581657D01*
X181442708Y-130581657D02*
X180028494Y-129167444D01*
X180028494Y-129167444D02*
X181089154Y-128106784D01*
X181089154Y-128106784D02*
X182503368Y-129520997D01*
D12*
%TO.C,R9*%
X146434724Y-113212500D02*
X145925276Y-113212500D01*
X146434724Y-112167500D02*
X145925276Y-112167500D01*
%TO.C,R4*%
X168345000Y-124102936D02*
X168345000Y-124557064D01*
X166875000Y-124102936D02*
X166875000Y-124557064D01*
%TO.C,C4*%
X165072580Y-119139401D02*
X164791420Y-119139401D01*
X165072580Y-118119401D02*
X164791420Y-118119401D01*
%TO.C,D2*%
X168248000Y-113477500D02*
X166778000Y-113477500D01*
X166778000Y-113477500D02*
X166778000Y-115762500D01*
X168248000Y-115762500D02*
X168248000Y-113477500D01*
%TO.C,R12*%
X154482500Y-122175276D02*
X154482500Y-122684724D01*
X153437500Y-122175276D02*
X153437500Y-122684724D01*
%TO.C,R1*%
X166355000Y-124102936D02*
X166355000Y-124557064D01*
X164885000Y-124102936D02*
X164885000Y-124557064D01*
%TD*%
%LPC*%
D15*
%TO.C,J1*%
X176500000Y-110840000D03*
D16*
X174500000Y-110840000D03*
%TD*%
D17*
%TO.C,D1*%
X169220000Y-114175000D03*
X169220000Y-115750000D03*
%TD*%
D18*
%TO.C,R11*%
X155590000Y-121507500D03*
X155590000Y-123332500D03*
%TD*%
D19*
%TO.C,JP1*%
X170940000Y-125290000D03*
D20*
X169640000Y-125290000D03*
%TD*%
D19*
%TO.C,JP5*%
X147510000Y-109590000D03*
D20*
X146210000Y-109590000D03*
%TD*%
D21*
%TO.C,R13*%
X157427500Y-123330000D03*
X159252500Y-123330000D03*
%TD*%
D22*
%TO.C,R6*%
X159967300Y-115290600D03*
X158142300Y-115290600D03*
%TD*%
D23*
%TO.C,C12*%
X151360675Y-117129400D03*
X152910675Y-117129400D03*
%TD*%
%TO.C,C11*%
X161127000Y-118629400D03*
X162677000Y-118629400D03*
%TD*%
D24*
%TO.C,SW2*%
X148135281Y-123881573D03*
X146721068Y-122467359D03*
X145306854Y-121053146D03*
%TD*%
D25*
%TO.C,U1*%
X154130000Y-125500000D03*
X154130000Y-127800000D03*
D26*
X160430000Y-127800000D03*
D25*
X154130000Y-130100000D03*
%TD*%
D18*
%TO.C,R3*%
X170800000Y-113762500D03*
X170800000Y-115587500D03*
%TD*%
D27*
%TO.C,C2*%
X152000000Y-126895000D03*
X152000000Y-128445000D03*
%TD*%
D19*
%TO.C,JP3*%
X171200000Y-128000000D03*
D20*
X169900000Y-128000000D03*
%TD*%
D28*
%TO.C,R14*%
X152030000Y-125352500D03*
X152030000Y-123527500D03*
%TD*%
D29*
%TO.C,U3*%
X164367000Y-115829400D03*
X164367000Y-115329400D03*
X164367000Y-114829400D03*
X164367000Y-114329400D03*
X162467000Y-114329400D03*
X162467000Y-114829400D03*
X162467000Y-115329400D03*
X162467000Y-115829400D03*
D30*
X163417000Y-115079400D03*
%TD*%
D31*
%TO.C,JP6*%
X182190000Y-118920000D03*
D32*
X182190000Y-121460000D03*
%TD*%
D33*
%TO.C,C8*%
X155930675Y-118629400D03*
X154380675Y-118629400D03*
%TD*%
D23*
%TO.C,C6*%
X158155000Y-113770000D03*
X159705000Y-113770000D03*
%TD*%
%TO.C,C13*%
X151360675Y-118629400D03*
X152910675Y-118629400D03*
%TD*%
D33*
%TO.C,C5*%
X165706999Y-117119400D03*
X164156999Y-117119400D03*
%TD*%
D18*
%TO.C,R2*%
X172350000Y-113777500D03*
X172350000Y-115602500D03*
%TD*%
D34*
%TO.C,Q1*%
X176756300Y-115631000D03*
X176756300Y-113731000D03*
X174881300Y-114681000D03*
%TD*%
D27*
%TO.C,C1*%
X152020000Y-130115000D03*
X152020000Y-131665000D03*
%TD*%
D35*
%TO.C,R8*%
X144307635Y-116347165D03*
X143017165Y-117637635D03*
%TD*%
D22*
%TO.C,R5*%
X159562500Y-117140000D03*
X157737500Y-117140000D03*
%TD*%
D36*
%TO.C,R7*%
X179104765Y-114279530D03*
X180395235Y-115570000D03*
%TD*%
D27*
%TO.C,C3*%
X175000000Y-121785000D03*
X175000000Y-123335000D03*
%TD*%
D37*
%TO.C,U2*%
X169495000Y-122750000D03*
X170765000Y-122750000D03*
X172035000Y-122750000D03*
X173305000Y-122750000D03*
X173305000Y-117800000D03*
X172035000Y-117800000D03*
X170765000Y-117800000D03*
X169495000Y-117800000D03*
D38*
X171400000Y-120275000D03*
%TD*%
D33*
%TO.C,C7*%
X155930675Y-117129400D03*
X154380675Y-117129400D03*
%TD*%
D39*
%TO.C,Q2*%
X146740400Y-115346400D03*
X146740400Y-117246400D03*
X148615400Y-116296400D03*
%TD*%
D31*
%TO.C,JP4*%
X176285000Y-119050000D03*
D32*
X178825000Y-119050000D03*
%TD*%
D28*
%TO.C,R10*%
X148620000Y-113742500D03*
X148620000Y-111917500D03*
%TD*%
D31*
%TO.C,J2*%
X169600000Y-108350000D03*
D32*
X169600000Y-110890000D03*
X167060000Y-108350000D03*
X167060000Y-110890000D03*
X164520000Y-108350000D03*
X164520000Y-110890000D03*
X161980000Y-108350000D03*
X161980000Y-110890000D03*
X159440000Y-108350000D03*
X159440000Y-110890000D03*
X156900000Y-108350000D03*
X156900000Y-110890000D03*
X154360000Y-108350000D03*
X154360000Y-110890000D03*
X151820000Y-108350000D03*
X151820000Y-110890000D03*
%TD*%
D40*
%TO.C,JP2*%
X166010000Y-127900000D03*
D41*
X167310000Y-127900000D03*
%TD*%
D29*
%TO.C,U4*%
X154595675Y-115829400D03*
X154595675Y-115329400D03*
X154595675Y-114829400D03*
X154595675Y-114329400D03*
X152695675Y-114329400D03*
X152695675Y-114829400D03*
X152695675Y-115329400D03*
X152695675Y-115829400D03*
D30*
X153645675Y-115079400D03*
%TD*%
D23*
%TO.C,C10*%
X161137000Y-117119400D03*
X162687000Y-117119400D03*
%TD*%
D42*
%TO.C,SW1*%
X177811573Y-124454719D03*
X176397359Y-125868932D03*
X174983146Y-127283146D03*
%TD*%
D22*
%TO.C,R9*%
X147092500Y-112690000D03*
X145267500Y-112690000D03*
%TD*%
D43*
%TO.C,R4*%
X167610000Y-123330000D03*
X167610000Y-125330000D03*
%TD*%
D33*
%TO.C,C4*%
X165707000Y-118629401D03*
X164157000Y-118629401D03*
%TD*%
D17*
%TO.C,D2*%
X167513000Y-114175000D03*
X167513000Y-115750000D03*
%TD*%
D18*
%TO.C,R12*%
X153960000Y-121517500D03*
X153960000Y-123342500D03*
%TD*%
D43*
%TO.C,R1*%
X165620000Y-123330000D03*
X165620000Y-125330000D03*
%TD*%
%LPD*%
M02*
