%TF.GenerationSoftware,KiCad,Pcbnew,7.0.9*%
%TF.CreationDate,2024-03-22T22:57:52+02:00*%
%TF.ProjectId,Micromouse Power,4d696372-6f6d-46f7-9573-6520506f7765,v0.0.0*%
%TF.SameCoordinates,Original*%
%TF.FileFunction,Copper,L1,Top*%
%TF.FilePolarity,Positive*%
%FSLAX46Y46*%
G04 Gerber Fmt 4.6, Leading zero omitted, Abs format (unit mm)*
G04 Created by KiCad (PCBNEW 7.0.9) date 2024-03-22 22:57:52*
%MOMM*%
%LPD*%
G01*
G04 APERTURE LIST*
G04 Aperture macros list*
%AMRoundRect*
0 Rectangle with rounded corners*
0 $1 Rounding radius*
0 $2 $3 $4 $5 $6 $7 $8 $9 X,Y pos of 4 corners*
0 Add a 4 corners polygon primitive as box body*
4,1,4,$2,$3,$4,$5,$6,$7,$8,$9,$2,$3,0*
0 Add four circle primitives for the rounded corners*
1,1,$1+$1,$2,$3*
1,1,$1+$1,$4,$5*
1,1,$1+$1,$6,$7*
1,1,$1+$1,$8,$9*
0 Add four rect primitives between the rounded corners*
20,1,$1+$1,$2,$3,$4,$5,0*
20,1,$1+$1,$4,$5,$6,$7,0*
20,1,$1+$1,$6,$7,$8,$9,0*
20,1,$1+$1,$8,$9,$2,$3,0*%
%AMRotRect*
0 Rectangle, with rotation*
0 The origin of the aperture is its center*
0 $1 length*
0 $2 width*
0 $3 Rotation angle, in degrees counterclockwise*
0 Add horizontal line*
21,1,$1,$2,0,0,$3*%
%AMFreePoly0*
4,1,19,0.500000,-0.750000,0.000000,-0.750000,0.000000,-0.744911,-0.071157,-0.744911,-0.207708,-0.704816,-0.327430,-0.627875,-0.420627,-0.520320,-0.479746,-0.390866,-0.500000,-0.250000,-0.500000,0.250000,-0.479746,0.390866,-0.420627,0.520320,-0.327430,0.627875,-0.207708,0.704816,-0.071157,0.744911,0.000000,0.744911,0.000000,0.750000,0.500000,0.750000,0.500000,-0.750000,0.500000,-0.750000,
$1*%
%AMFreePoly1*
4,1,19,0.000000,0.744911,0.071157,0.744911,0.207708,0.704816,0.327430,0.627875,0.420627,0.520320,0.479746,0.390866,0.500000,0.250000,0.500000,-0.250000,0.479746,-0.390866,0.420627,-0.520320,0.327430,-0.627875,0.207708,-0.704816,0.071157,-0.744911,0.000000,-0.744911,0.000000,-0.750000,-0.500000,-0.750000,-0.500000,0.750000,0.000000,0.750000,0.000000,0.744911,0.000000,0.744911,
$1*%
G04 Aperture macros list end*
%TA.AperFunction,ComponentPad*%
%ADD10R,1.700000X1.700000*%
%TD*%
%TA.AperFunction,ComponentPad*%
%ADD11O,1.700000X1.700000*%
%TD*%
%TA.AperFunction,SMDPad,CuDef*%
%ADD12RoundRect,0.218750X-0.256250X0.218750X-0.256250X-0.218750X0.256250X-0.218750X0.256250X0.218750X0*%
%TD*%
%TA.AperFunction,SMDPad,CuDef*%
%ADD13FreePoly0,180.000000*%
%TD*%
%TA.AperFunction,SMDPad,CuDef*%
%ADD14FreePoly1,180.000000*%
%TD*%
%TA.AperFunction,SMDPad,CuDef*%
%ADD15RoundRect,0.237500X0.250000X0.237500X-0.250000X0.237500X-0.250000X-0.237500X0.250000X-0.237500X0*%
%TD*%
%TA.AperFunction,SMDPad,CuDef*%
%ADD16RoundRect,0.225000X-0.225000X-0.250000X0.225000X-0.250000X0.225000X0.250000X-0.225000X0.250000X0*%
%TD*%
%TA.AperFunction,SMDPad,CuDef*%
%ADD17RotRect,0.900000X2.500000X135.000000*%
%TD*%
%TA.AperFunction,SMDPad,CuDef*%
%ADD18R,2.000000X1.500000*%
%TD*%
%TA.AperFunction,SMDPad,CuDef*%
%ADD19R,2.000000X3.800000*%
%TD*%
%TA.AperFunction,SMDPad,CuDef*%
%ADD20RoundRect,0.237500X-0.237500X0.250000X-0.237500X-0.250000X0.237500X-0.250000X0.237500X0.250000X0*%
%TD*%
%TA.AperFunction,SMDPad,CuDef*%
%ADD21RoundRect,0.225000X0.250000X-0.225000X0.250000X0.225000X-0.250000X0.225000X-0.250000X-0.225000X0*%
%TD*%
%TA.AperFunction,SMDPad,CuDef*%
%ADD22R,0.500000X0.250000*%
%TD*%
%TA.AperFunction,SMDPad,CuDef*%
%ADD23R,0.900000X1.600000*%
%TD*%
%TA.AperFunction,SMDPad,CuDef*%
%ADD24RoundRect,0.225000X0.225000X0.250000X-0.225000X0.250000X-0.225000X-0.250000X0.225000X-0.250000X0*%
%TD*%
%TA.AperFunction,SMDPad,CuDef*%
%ADD25RoundRect,0.150000X0.587500X0.150000X-0.587500X0.150000X-0.587500X-0.150000X0.587500X-0.150000X0*%
%TD*%
%TA.AperFunction,SMDPad,CuDef*%
%ADD26RoundRect,0.225000X-0.250000X0.225000X-0.250000X-0.225000X0.250000X-0.225000X0.250000X0.225000X0*%
%TD*%
%TA.AperFunction,SMDPad,CuDef*%
%ADD27RoundRect,0.237500X0.008839X0.344715X-0.344715X-0.008839X-0.008839X-0.344715X0.344715X0.008839X0*%
%TD*%
%TA.AperFunction,SMDPad,CuDef*%
%ADD28RoundRect,0.237500X-0.344715X0.008839X0.008839X-0.344715X0.344715X-0.008839X-0.008839X0.344715X0*%
%TD*%
%TA.AperFunction,SMDPad,CuDef*%
%ADD29RoundRect,0.042000X0.258000X-0.943000X0.258000X0.943000X-0.258000X0.943000X-0.258000X-0.943000X0*%
%TD*%
%TA.AperFunction,SMDPad,CuDef*%
%ADD30R,3.302000X2.413000*%
%TD*%
%TA.AperFunction,SMDPad,CuDef*%
%ADD31RoundRect,0.150000X-0.587500X-0.150000X0.587500X-0.150000X0.587500X0.150000X-0.587500X0.150000X0*%
%TD*%
%TA.AperFunction,ComponentPad*%
%ADD32RoundRect,0.250000X0.350000X0.625000X-0.350000X0.625000X-0.350000X-0.625000X0.350000X-0.625000X0*%
%TD*%
%TA.AperFunction,ComponentPad*%
%ADD33O,1.200000X1.750000*%
%TD*%
%TA.AperFunction,SMDPad,CuDef*%
%ADD34RoundRect,0.237500X0.237500X-0.250000X0.237500X0.250000X-0.237500X0.250000X-0.237500X-0.250000X0*%
%TD*%
%TA.AperFunction,SMDPad,CuDef*%
%ADD35FreePoly0,0.000000*%
%TD*%
%TA.AperFunction,SMDPad,CuDef*%
%ADD36FreePoly1,0.000000*%
%TD*%
%TA.AperFunction,SMDPad,CuDef*%
%ADD37RotRect,0.900000X2.500000X225.000000*%
%TD*%
%TA.AperFunction,SMDPad,CuDef*%
%ADD38RoundRect,0.250000X-0.450000X0.350000X-0.450000X-0.350000X0.450000X-0.350000X0.450000X0.350000X0*%
%TD*%
%TA.AperFunction,ViaPad*%
%ADD39C,0.500000*%
%TD*%
%TA.AperFunction,ViaPad*%
%ADD40C,0.600000*%
%TD*%
%TA.AperFunction,Conductor*%
%ADD41C,0.300000*%
%TD*%
%TA.AperFunction,Conductor*%
%ADD42C,0.250000*%
%TD*%
%TA.AperFunction,Conductor*%
%ADD43C,0.600000*%
%TD*%
G04 APERTURE END LIST*
%TA.AperFunction,EtchedComponent*%
%TO.C,JP1*%
G36*
X170540000Y-125590000D02*
G01*
X170040000Y-125590000D01*
X170040000Y-124990000D01*
X170540000Y-124990000D01*
X170540000Y-125590000D01*
G37*
%TD.AperFunction*%
%TA.AperFunction,EtchedComponent*%
%TO.C,JP2*%
G36*
X166910000Y-128200000D02*
G01*
X166410000Y-128200000D01*
X166410000Y-127600000D01*
X166910000Y-127600000D01*
X166910000Y-128200000D01*
G37*
%TD.AperFunction*%
%TD*%
D10*
%TO.P,JP6,1,A*%
%TO.N,Net-(J1-Pin_2)*%
X182190000Y-118920000D03*
D11*
%TO.P,JP6,2,B*%
%TO.N,GND*%
X182190000Y-121460000D03*
%TD*%
D12*
%TO.P,D1,1,K*%
%TO.N,Net-(D1-K)*%
X169220000Y-114175000D03*
%TO.P,D1,2,A*%
%TO.N,+5V*%
X169220000Y-115750000D03*
%TD*%
D13*
%TO.P,JP1,1,A*%
%TO.N,Net-(JP1-A)*%
X170940000Y-125290000D03*
D14*
%TO.P,JP1,2,B*%
%TO.N,/PROG*%
X169640000Y-125290000D03*
%TD*%
D13*
%TO.P,JP5,1,A*%
%TO.N,BATT_SWITCHED*%
X147510000Y-109590000D03*
D14*
%TO.P,JP5,2,B*%
%TO.N,BATT*%
X146210000Y-109590000D03*
%TD*%
D15*
%TO.P,R6,1*%
%TO.N,GND*%
X159967300Y-115290600D03*
%TO.P,R6,2*%
%TO.N,/BATT_ADC*%
X158142300Y-115290600D03*
%TD*%
D16*
%TO.P,C12,1*%
%TO.N,+3V3*%
X151360675Y-117129400D03*
%TO.P,C12,2*%
%TO.N,GND*%
X152910675Y-117129400D03*
%TD*%
%TO.P,C11,1*%
%TO.N,+3V3*%
X161127000Y-118629400D03*
%TO.P,C11,2*%
%TO.N,GND*%
X162677000Y-118629400D03*
%TD*%
D17*
%TO.P,SW2,1,A*%
%TO.N,unconnected-(SW2-A-Pad1)*%
X149410200Y-122728362D03*
%TO.P,SW2,2,B*%
%TO.N,GND*%
X147995987Y-121314148D03*
%TO.P,SW2,3,C*%
%TO.N,Net-(Q2-G)*%
X146581773Y-119899935D03*
%TD*%
D18*
%TO.P,U1,1,GND*%
%TO.N,GND*%
X154600000Y-123770000D03*
%TO.P,U1,2,VO*%
%TO.N,+3V3*%
X154600000Y-126070000D03*
D19*
X160900000Y-126070000D03*
D18*
%TO.P,U1,3,VI*%
%TO.N,BATT_SWITCHED*%
X154600000Y-128370000D03*
%TD*%
D20*
%TO.P,R3,1*%
%TO.N,Net-(D2-K)*%
X170800000Y-113762500D03*
%TO.P,R3,2*%
%TO.N,Net-(U2-~{CHRG})*%
X170800000Y-115587500D03*
%TD*%
D21*
%TO.P,C2,1*%
%TO.N,+3V3*%
X152530000Y-125205000D03*
%TO.P,C2,2*%
%TO.N,GND*%
X152530000Y-123655000D03*
%TD*%
D14*
%TO.P,JP3,2,B*%
%TO.N,Net-(JP2-B)*%
X169900000Y-128000000D03*
D13*
%TO.P,JP3,1,A*%
%TO.N,GND*%
X171200000Y-128000000D03*
%TD*%
D22*
%TO.P,U3,1,VM*%
%TO.N,BATT_SWITCHED*%
X164367000Y-115829400D03*
%TO.P,U3,2,OUT1*%
%TO.N,/Motor2_A*%
X164367000Y-115329400D03*
%TO.P,U3,3,OUT2*%
%TO.N,/Motor2_B*%
X164367000Y-114829400D03*
%TO.P,U3,4,GND*%
%TO.N,GND*%
X164367000Y-114329400D03*
%TO.P,U3,5,IN2*%
%TO.N,/PC6*%
X162467000Y-114329400D03*
%TO.P,U3,6,IN1*%
%TO.N,/PC7*%
X162467000Y-114829400D03*
%TO.P,U3,7,~{SLEEP}*%
%TO.N,+3V3*%
X162467000Y-115329400D03*
%TO.P,U3,8,VCC*%
X162467000Y-115829400D03*
D23*
%TO.P,U3,9,GND*%
%TO.N,GND*%
X163417000Y-115079400D03*
%TD*%
D24*
%TO.P,C8,1*%
%TO.N,BATT_SWITCHED*%
X155930675Y-118629400D03*
%TO.P,C8,2*%
%TO.N,GND*%
X154380675Y-118629400D03*
%TD*%
D16*
%TO.P,C6,1*%
%TO.N,/BATT_ADC*%
X158155000Y-113770000D03*
%TO.P,C6,2*%
%TO.N,GND*%
X159705000Y-113770000D03*
%TD*%
%TO.P,C13,1*%
%TO.N,+3V3*%
X151360675Y-118629400D03*
%TO.P,C13,2*%
%TO.N,GND*%
X152910675Y-118629400D03*
%TD*%
D24*
%TO.P,C5,1*%
%TO.N,BATT_SWITCHED*%
X165706999Y-117119400D03*
%TO.P,C5,2*%
%TO.N,GND*%
X164156999Y-117119400D03*
%TD*%
D20*
%TO.P,R2,1*%
%TO.N,Net-(D1-K)*%
X172350000Y-113777500D03*
%TO.P,R2,2*%
%TO.N,Net-(U2-~{STDBY})*%
X172350000Y-115602500D03*
%TD*%
D25*
%TO.P,Q1,1,G*%
%TO.N,Net-(Q1-G)*%
X176756300Y-115631000D03*
%TO.P,Q1,2,S*%
%TO.N,+BATT*%
X176756300Y-113731000D03*
%TO.P,Q1,3,D*%
%TO.N,BATT*%
X174881300Y-114681000D03*
%TD*%
D26*
%TO.P,C1,1*%
%TO.N,BATT_SWITCHED*%
X152500000Y-128325000D03*
%TO.P,C1,2*%
%TO.N,GND*%
X152500000Y-129875000D03*
%TD*%
D27*
%TO.P,R8,1*%
%TO.N,Net-(Q2-S)*%
X144307635Y-116347165D03*
%TO.P,R8,2*%
%TO.N,Net-(Q2-G)*%
X143017165Y-117637635D03*
%TD*%
D15*
%TO.P,R5,1*%
%TO.N,/BATT_ADC*%
X159562500Y-117140000D03*
%TO.P,R5,2*%
%TO.N,BATT_SWITCHED*%
X157737500Y-117140000D03*
%TD*%
D28*
%TO.P,R7,1*%
%TO.N,+BATT*%
X179104765Y-114279530D03*
%TO.P,R7,2*%
%TO.N,Net-(Q1-G)*%
X180395235Y-115570000D03*
%TD*%
D26*
%TO.P,C3,1*%
%TO.N,+5V*%
X175000000Y-121785000D03*
%TO.P,C3,2*%
%TO.N,GND*%
X175000000Y-123335000D03*
%TD*%
D29*
%TO.P,U2,1,TEMP*%
%TO.N,GND*%
X169495000Y-122750000D03*
%TO.P,U2,2,PROG*%
%TO.N,/PROG*%
X170765000Y-122750000D03*
%TO.P,U2,3,GND*%
%TO.N,GND*%
X172035000Y-122750000D03*
%TO.P,U2,4,VCC*%
%TO.N,+5V*%
X173305000Y-122750000D03*
%TO.P,U2,5,BAT*%
%TO.N,Net-(JP4-A)*%
X173305000Y-117800000D03*
%TO.P,U2,6,~{STDBY}*%
%TO.N,Net-(U2-~{STDBY})*%
X172035000Y-117800000D03*
%TO.P,U2,7,~{CHRG}*%
%TO.N,Net-(U2-~{CHRG})*%
X170765000Y-117800000D03*
%TO.P,U2,8,CE*%
%TO.N,+5V*%
X169495000Y-117800000D03*
D30*
%TO.P,U2,9*%
%TO.N,N/C*%
X171400000Y-120275000D03*
%TD*%
D24*
%TO.P,C7,1*%
%TO.N,BATT_SWITCHED*%
X155930675Y-117129400D03*
%TO.P,C7,2*%
%TO.N,GND*%
X154380675Y-117129400D03*
%TD*%
D31*
%TO.P,Q2,1,G*%
%TO.N,Net-(Q2-G)*%
X146740400Y-115346400D03*
%TO.P,Q2,2,S*%
%TO.N,Net-(Q2-S)*%
X146740400Y-117246400D03*
%TO.P,Q2,3,D*%
%TO.N,Net-(Q2-D)*%
X148615400Y-116296400D03*
%TD*%
D32*
%TO.P,J1,1,Pin_1*%
%TO.N,+BATT*%
X176555400Y-110845600D03*
D33*
%TO.P,J1,2,Pin_2*%
%TO.N,Net-(J1-Pin_2)*%
X174555400Y-110845600D03*
%TD*%
D11*
%TO.P,JP4,2,B*%
%TO.N,BATT*%
X178825000Y-119050000D03*
D10*
%TO.P,JP4,1,A*%
%TO.N,Net-(JP4-A)*%
X176285000Y-119050000D03*
%TD*%
D34*
%TO.P,R10,1*%
%TO.N,Net-(Q2-D)*%
X148590000Y-113713900D03*
%TO.P,R10,2*%
%TO.N,BATT_SWITCHED*%
X148590000Y-111888900D03*
%TD*%
D10*
%TO.P,J2,1,Pin_1*%
%TO.N,/Motor2_A*%
X169600000Y-108350000D03*
D11*
%TO.P,J2,2,Pin_2*%
%TO.N,/PC6*%
X169600000Y-110890000D03*
%TO.P,J2,3,Pin_3*%
%TO.N,/Motor2_B*%
X167060000Y-108350000D03*
%TO.P,J2,4,Pin_4*%
%TO.N,/PC7*%
X167060000Y-110890000D03*
%TO.P,J2,5,Pin_5*%
%TO.N,GND*%
X164520000Y-108350000D03*
%TO.P,J2,6,Pin_6*%
X164520000Y-110890000D03*
%TO.P,J2,7,Pin_7*%
%TO.N,BATT_SWITCHED*%
X161980000Y-108350000D03*
%TO.P,J2,8,Pin_8*%
X161980000Y-110890000D03*
%TO.P,J2,9,Pin_9*%
%TO.N,/PD7*%
X159440000Y-108350000D03*
%TO.P,J2,10,Pin_10*%
%TO.N,/BATT_ADC*%
X159440000Y-110890000D03*
%TO.P,J2,11,Pin_11*%
%TO.N,+5V*%
X156900000Y-108350000D03*
%TO.P,J2,12,Pin_12*%
X156900000Y-110890000D03*
%TO.P,J2,13,Pin_13*%
%TO.N,/Motor1_A*%
X154360000Y-108350000D03*
%TO.P,J2,14,Pin_14*%
%TO.N,/PC8*%
X154360000Y-110890000D03*
%TO.P,J2,15,Pin_15*%
%TO.N,/Motor1_B*%
X151820000Y-108350000D03*
%TO.P,J2,16,Pin_16*%
%TO.N,/PC9*%
X151820000Y-110890000D03*
%TD*%
D35*
%TO.P,JP2,1,A*%
%TO.N,Net-(JP2-A)*%
X166010000Y-127900000D03*
D36*
%TO.P,JP2,2,B*%
%TO.N,Net-(JP2-B)*%
X167310000Y-127900000D03*
%TD*%
D22*
%TO.P,U4,1,VM*%
%TO.N,BATT_SWITCHED*%
X154595675Y-115829400D03*
%TO.P,U4,2,OUT1*%
%TO.N,/Motor1_A*%
X154595675Y-115329400D03*
%TO.P,U4,3,OUT2*%
%TO.N,/Motor1_B*%
X154595675Y-114829400D03*
%TO.P,U4,4,GND*%
%TO.N,GND*%
X154595675Y-114329400D03*
%TO.P,U4,5,IN2*%
%TO.N,/PC8*%
X152695675Y-114329400D03*
%TO.P,U4,6,IN1*%
%TO.N,/PC9*%
X152695675Y-114829400D03*
%TO.P,U4,7,~{SLEEP}*%
%TO.N,+3V3*%
X152695675Y-115329400D03*
%TO.P,U4,8,VCC*%
X152695675Y-115829400D03*
D23*
%TO.P,U4,9,GND*%
%TO.N,GND*%
X153645675Y-115079400D03*
%TD*%
D16*
%TO.P,C10,1*%
%TO.N,+3V3*%
X161137000Y-117119400D03*
%TO.P,C10,2*%
%TO.N,GND*%
X162687000Y-117119400D03*
%TD*%
D37*
%TO.P,SW1,1,A*%
%TO.N,unconnected-(SW1-A-Pad1)*%
X177811573Y-124454719D03*
%TO.P,SW1,2,B*%
%TO.N,GND*%
X176397359Y-125868932D03*
%TO.P,SW1,3,C*%
%TO.N,Net-(Q1-G)*%
X174983146Y-127283146D03*
%TD*%
D15*
%TO.P,R9,1*%
%TO.N,BATT*%
X146987900Y-112699800D03*
%TO.P,R9,2*%
%TO.N,Net-(Q2-S)*%
X145162900Y-112699800D03*
%TD*%
D38*
%TO.P,R4,1*%
%TO.N,Net-(JP2-B)*%
X167610000Y-123330000D03*
%TO.P,R4,2*%
%TO.N,/PROG*%
X167610000Y-125330000D03*
%TD*%
D24*
%TO.P,C4,1*%
%TO.N,BATT_SWITCHED*%
X165707000Y-118629401D03*
%TO.P,C4,2*%
%TO.N,GND*%
X164157000Y-118629401D03*
%TD*%
D12*
%TO.P,D2,1,K*%
%TO.N,Net-(D2-K)*%
X167513000Y-114175000D03*
%TO.P,D2,2,A*%
%TO.N,+5V*%
X167513000Y-115750000D03*
%TD*%
D38*
%TO.P,R1,1*%
%TO.N,Net-(JP2-A)*%
X165620000Y-123330000D03*
%TO.P,R1,2*%
%TO.N,Net-(JP1-A)*%
X165620000Y-125330000D03*
%TD*%
D39*
%TO.N,GND*%
X173200000Y-131910000D03*
X174200000Y-131910000D03*
X172200000Y-132910000D03*
X175200000Y-131910000D03*
X172200000Y-131910000D03*
X171200000Y-131910000D03*
X173200000Y-132910000D03*
X171200000Y-132910000D03*
X175200000Y-132910000D03*
X174200000Y-132910000D03*
X177360000Y-121540000D03*
X178180000Y-121680000D03*
X154420639Y-121443528D03*
X155850000Y-121440000D03*
X155070000Y-121430000D03*
X173920000Y-106450000D03*
X177700000Y-106450000D03*
X176150000Y-106450000D03*
X176900000Y-106450000D03*
X175350000Y-106450000D03*
X174630000Y-106450000D03*
X173220000Y-106450000D03*
X177720000Y-108590000D03*
X176920000Y-108590000D03*
X176170000Y-108590000D03*
X175370000Y-108590000D03*
X174650000Y-108590000D03*
X173940000Y-108590000D03*
X158700000Y-122460000D03*
X158690000Y-123390000D03*
X158700000Y-124330000D03*
X158700000Y-125240000D03*
X158700000Y-126070000D03*
X150960000Y-114460000D03*
X150970000Y-113520000D03*
X162950000Y-122330000D03*
X162300000Y-122330000D03*
X153650000Y-115510000D03*
X153650000Y-114640000D03*
X163420000Y-114710000D03*
X163420000Y-115490000D03*
X170260000Y-132930000D03*
X169260000Y-132930000D03*
X168260000Y-132930000D03*
X167260000Y-132930000D03*
X166260000Y-132930000D03*
X170260000Y-131930000D03*
X169260000Y-131930000D03*
X168260000Y-131930000D03*
X167260000Y-131930000D03*
X166260000Y-131930000D03*
X165330000Y-132920000D03*
X164330000Y-132920000D03*
X163330000Y-132920000D03*
X162330000Y-132920000D03*
X161330000Y-132920000D03*
X165330000Y-131920000D03*
X164330000Y-131920000D03*
X163330000Y-131920000D03*
X162330000Y-131920000D03*
X161330000Y-131920000D03*
X179110000Y-121690000D03*
X178210000Y-120870000D03*
X179100000Y-120870000D03*
X160930000Y-113240000D03*
D40*
%TO.N,BATT_SWITCHED*%
X149895897Y-114220000D03*
X155905200Y-120167400D03*
X157556200Y-127482600D03*
X165730000Y-119761000D03*
X149895897Y-115040000D03*
X149895897Y-113360000D03*
X156743400Y-120180000D03*
X155100000Y-120180000D03*
D39*
%TO.N,GND*%
X163600000Y-121400000D03*
X177370000Y-120860000D03*
X162300000Y-121400000D03*
X158600000Y-119300000D03*
X154300000Y-113500000D03*
X144018000Y-120396000D03*
X160400000Y-112160000D03*
X172466000Y-126238000D03*
X161317500Y-114001833D03*
X173050000Y-125840000D03*
X175640000Y-120830000D03*
X163000000Y-121400000D03*
X153644600Y-113461800D03*
X176470000Y-120810000D03*
X157900000Y-119300000D03*
%TO.N,+3V3*%
X162280000Y-129030000D03*
D40*
%TO.N,+5V*%
X168503600Y-117800000D03*
X173300000Y-124400000D03*
X167685000Y-118200000D03*
X167700000Y-117200000D03*
%TO.N,/BATT_ADC*%
X158500000Y-118300000D03*
D39*
%TO.N,/Motor2_A*%
X166068626Y-114699429D03*
%TO.N,/Motor2_B*%
X165760400Y-114020600D03*
%TO.N,/PC8*%
X152704800Y-113182400D03*
%TO.N,/PROG*%
X167610000Y-125330000D03*
D40*
%TO.N,Net-(U2-~{STDBY})*%
X173050200Y-114909600D03*
%TO.N,Net-(U2-~{CHRG})*%
X171500800Y-114884200D03*
%TO.N,Net-(Q2-G)*%
X144099130Y-118719600D03*
X145465800Y-114884200D03*
D39*
%TO.N,Net-(Q2-D)*%
X148600000Y-117300000D03*
%TD*%
D41*
%TO.N,BATT_SWITCHED*%
X154555000Y-128325000D02*
X154600000Y-128370000D01*
X152500000Y-128325000D02*
X154555000Y-128325000D01*
D42*
%TO.N,+3V3*%
X161590000Y-129030000D02*
X162280000Y-129030000D01*
X160883600Y-128323600D02*
X161590000Y-129030000D01*
X160883600Y-126086400D02*
X160883600Y-128323600D01*
X160900000Y-126070000D02*
X160883600Y-126086400D01*
D41*
%TO.N,Net-(Q1-G)*%
X176820000Y-128440000D02*
X180420000Y-124840000D01*
X180420000Y-124840000D02*
X180420000Y-115840000D01*
X180420000Y-115840000D02*
X180395235Y-115815235D01*
X176140000Y-128440000D02*
X176820000Y-128440000D01*
X174983146Y-127283146D02*
X176140000Y-128440000D01*
%TO.N,+5V*%
X173305000Y-121915000D02*
X173305000Y-122750000D01*
X173435000Y-121785000D02*
X173305000Y-121915000D01*
X175000000Y-121785000D02*
X173435000Y-121785000D01*
%TO.N,GND*%
X174170000Y-125050000D02*
X172690000Y-125050000D01*
X172690000Y-125050000D02*
X172035000Y-124395000D01*
X172035000Y-124395000D02*
X172035000Y-122750000D01*
X174990000Y-123420000D02*
X174990000Y-124230000D01*
X174990000Y-124230000D02*
X174170000Y-125050000D01*
%TO.N,+5V*%
X167685000Y-117215000D02*
X167700000Y-117200000D01*
X167685000Y-118200000D02*
X167685000Y-117215000D01*
D42*
%TO.N,/PC7*%
X162467000Y-114829400D02*
X161942000Y-114829400D01*
X161942000Y-114829400D02*
X161892000Y-114779400D01*
X161892000Y-114779400D02*
X161892000Y-113748800D01*
X161892000Y-113748800D02*
X163340800Y-112300000D01*
X163340800Y-112300000D02*
X165650000Y-112300000D01*
X165650000Y-112300000D02*
X167060000Y-110890000D01*
D41*
%TO.N,/BATT_ADC*%
X158142300Y-115992300D02*
X158142300Y-115290600D01*
X158430000Y-116280000D02*
X158142300Y-115992300D01*
X159340000Y-116280000D02*
X158430000Y-116280000D01*
X159562500Y-116502500D02*
X159340000Y-116280000D01*
X159562500Y-117140000D02*
X159562500Y-116502500D01*
%TO.N,GND*%
X165421400Y-113275000D02*
X164367000Y-114329400D01*
X171030000Y-111450000D02*
X170250000Y-112230000D01*
X170250000Y-112230000D02*
X168931751Y-112230000D01*
X171030000Y-110350000D02*
X171030000Y-111450000D01*
X170370000Y-109690000D02*
X171030000Y-110350000D01*
X167886751Y-113275000D02*
X165421400Y-113275000D01*
X165720000Y-109690000D02*
X170370000Y-109690000D01*
X168931751Y-112230000D02*
X167886751Y-113275000D01*
X164520000Y-110890000D02*
X165720000Y-109690000D01*
X164079048Y-110890000D02*
X164520000Y-110890000D01*
X161317500Y-113651548D02*
X164079048Y-110890000D01*
X161317500Y-114001833D02*
X161317500Y-113651548D01*
D43*
X153645675Y-117105075D02*
X153645675Y-115079400D01*
X153670000Y-117129400D02*
X153645675Y-117105075D01*
X163410000Y-115598000D02*
X163410000Y-116840000D01*
X163322000Y-115510000D02*
X163410000Y-115598000D01*
%TO.N,Net-(JP4-A)*%
X176285000Y-119050000D02*
X175035000Y-117800000D01*
X175035000Y-117800000D02*
X173305000Y-117800000D01*
%TO.N,BATT*%
X178861800Y-118795800D02*
X178861800Y-117774800D01*
X178861800Y-117774800D02*
X178227000Y-117140000D01*
X178227000Y-117140000D02*
X175839400Y-117140000D01*
X174870000Y-116170600D02*
X174870000Y-114715000D01*
X175839400Y-117140000D02*
X174870000Y-116170600D01*
%TO.N,BATT_SWITCHED*%
X149348900Y-111888900D02*
X149895897Y-112435897D01*
X149895897Y-112435897D02*
X149895897Y-115040000D01*
X148590000Y-111888900D02*
X149348900Y-111888900D01*
%TO.N,BATT*%
X147960000Y-106390000D02*
X146210000Y-108140000D01*
X146210000Y-108140000D02*
X146210000Y-109590000D01*
X170846100Y-106390000D02*
X147960000Y-106390000D01*
X172491400Y-108035300D02*
X170846100Y-106390000D01*
X174881300Y-113845100D02*
X172491400Y-111455200D01*
X174881300Y-114681000D02*
X174881300Y-113845100D01*
X172491400Y-111455200D02*
X172491400Y-108035300D01*
%TO.N,BATT_SWITCHED*%
X148590000Y-111888900D02*
X148590000Y-110896400D01*
X147510000Y-109816400D02*
X147510000Y-109590000D01*
X148590000Y-110896400D02*
X147510000Y-109816400D01*
D41*
%TO.N,/Motor2_B*%
X164951600Y-114829400D02*
X164367000Y-114829400D01*
X165760400Y-114020600D02*
X164951600Y-114829400D01*
%TO.N,Net-(JP2-B)*%
X167540000Y-123330000D02*
X167610000Y-123330000D01*
X163880000Y-122770000D02*
X164630000Y-122020000D01*
X163880000Y-128140000D02*
X163880000Y-122770000D01*
X164630000Y-122020000D02*
X166230000Y-122020000D01*
X166230000Y-122020000D02*
X167540000Y-123330000D01*
X167080000Y-129170000D02*
X164910000Y-129170000D01*
X167310000Y-127900000D02*
X167310000Y-128940000D01*
X167310000Y-128940000D02*
X167080000Y-129170000D01*
X164910000Y-129170000D02*
X163880000Y-128140000D01*
%TO.N,Net-(JP2-A)*%
X164510000Y-124310000D02*
X165490000Y-123330000D01*
X164510000Y-127210000D02*
X164510000Y-124310000D01*
X165490000Y-123330000D02*
X165620000Y-123330000D01*
X165200000Y-127900000D02*
X164510000Y-127210000D01*
X166010000Y-127900000D02*
X165200000Y-127900000D01*
D42*
%TO.N,/PROG*%
X170765000Y-123435000D02*
X170765000Y-122750000D01*
X170120000Y-124080000D02*
X170765000Y-123435000D01*
X169730000Y-124080000D02*
X170120000Y-124080000D01*
X169640000Y-125290000D02*
X169640000Y-124170000D01*
X169640000Y-124170000D02*
X169730000Y-124080000D01*
D41*
%TO.N,/Motor1_B*%
X155473400Y-113766600D02*
X153110000Y-111403200D01*
X153110000Y-111403200D02*
X153110000Y-109640000D01*
X153110000Y-109640000D02*
X151820000Y-108350000D01*
X155473400Y-114526675D02*
X155473400Y-113766600D01*
X155170675Y-114829400D02*
X155473400Y-114526675D01*
X154595675Y-114829400D02*
X155170675Y-114829400D01*
%TO.N,/Motor1_A*%
X155610000Y-109600000D02*
X154360000Y-108350000D01*
X155610000Y-113010000D02*
X155610000Y-109600000D01*
X155973400Y-113373400D02*
X155610000Y-113010000D01*
X155973400Y-114733781D02*
X155973400Y-113373400D01*
X154595675Y-115329400D02*
X155377781Y-115329400D01*
X155377781Y-115329400D02*
X155973400Y-114733781D01*
D42*
%TO.N,Net-(D2-K)*%
X168329400Y-114960400D02*
X167700000Y-114331000D01*
X169994600Y-114960400D02*
X168329400Y-114960400D01*
X170180000Y-114775000D02*
X169994600Y-114960400D01*
X170800000Y-113762500D02*
X170180000Y-114382500D01*
X170180000Y-114382500D02*
X170180000Y-114775000D01*
X167700000Y-114331000D02*
X167700000Y-114175000D01*
%TO.N,Net-(U2-~{STDBY})*%
X172350000Y-116270200D02*
X172350000Y-115602500D01*
X172035000Y-116585200D02*
X172350000Y-116270200D01*
X172035000Y-117800000D02*
X172035000Y-116585200D01*
D43*
%TO.N,BATT_SWITCHED*%
X156668800Y-128370000D02*
X154600000Y-128370000D01*
X157556200Y-127482600D02*
X156668800Y-128370000D01*
%TO.N,BATT*%
X146210000Y-111921900D02*
X146210000Y-109590000D01*
X146987900Y-112699800D02*
X146210000Y-111921900D01*
D41*
%TO.N,BATT_SWITCHED*%
X165706999Y-116354799D02*
X165706999Y-117119400D01*
X164367000Y-115829400D02*
X165181600Y-115829400D01*
X165181600Y-115829400D02*
X165706999Y-116354799D01*
%TO.N,/Motor2_A*%
X166068626Y-114699429D02*
X165438655Y-115329400D01*
X165438655Y-115329400D02*
X164367000Y-115329400D01*
D43*
%TO.N,BATT_SWITCHED*%
X156723400Y-120200000D02*
X155920000Y-120200000D01*
X156743400Y-120180000D02*
X156723400Y-120200000D01*
X161980000Y-108350000D02*
X161980000Y-110890000D01*
X155920000Y-120200000D02*
X155930675Y-120189325D01*
D41*
X157726900Y-117129400D02*
X157737500Y-117140000D01*
X155930675Y-118629400D02*
X155930675Y-117129400D01*
X155478800Y-115829400D02*
X155930675Y-116281275D01*
X155930675Y-116281275D02*
X155930675Y-117129400D01*
D43*
X165707000Y-118629401D02*
X165706999Y-117119400D01*
X155120000Y-120200000D02*
X155920000Y-120200000D01*
X165730000Y-119761000D02*
X165730000Y-118652401D01*
D41*
X155930675Y-117129400D02*
X157726900Y-117129400D01*
D43*
X155100000Y-120180000D02*
X155120000Y-120200000D01*
X165730000Y-118652401D02*
X165707000Y-118629401D01*
D41*
X154595675Y-115829400D02*
X155478800Y-115829400D01*
D43*
X155930675Y-120189325D02*
X155930675Y-118629400D01*
%TO.N,GND*%
X152910675Y-118629400D02*
X154380675Y-118629400D01*
D41*
X154595675Y-113795675D02*
X154300000Y-113500000D01*
D43*
X153670000Y-117129400D02*
X153888600Y-117129400D01*
X164157000Y-118629401D02*
X164156999Y-117119400D01*
D41*
X169495000Y-122750000D02*
X168978000Y-122750000D01*
X168656000Y-121666000D02*
X168355000Y-121365000D01*
X168978000Y-122750000D02*
X168656000Y-122428000D01*
D43*
X162687000Y-117119400D02*
X164156999Y-117119400D01*
X162677000Y-118629400D02*
X162677000Y-117129400D01*
X152910675Y-117129400D02*
X153670000Y-117129400D01*
X162677000Y-117129400D02*
X162687000Y-117119400D01*
D41*
X152645000Y-123770000D02*
X152530000Y-123655000D01*
X154600000Y-123770000D02*
X152645000Y-123770000D01*
X154595675Y-114329400D02*
X154595675Y-113795675D01*
D43*
X162677000Y-118629400D02*
X164157000Y-118629401D01*
X154380675Y-118629400D02*
X154380675Y-117129400D01*
D41*
X168656000Y-122428000D02*
X168656000Y-121666000D01*
X159967300Y-114032300D02*
X159705000Y-113770000D01*
X159967300Y-115290600D02*
X159967300Y-114032300D01*
D43*
X152910675Y-118629400D02*
X152910675Y-117129400D01*
D41*
%TO.N,+3V3*%
X151360675Y-116379325D02*
X151360675Y-117129400D01*
D43*
X161127000Y-117129400D02*
X161137000Y-117119400D01*
D41*
X162467000Y-115329400D02*
X161529400Y-115329400D01*
D43*
X151360675Y-124690675D02*
X151875000Y-125205000D01*
X151360675Y-118629400D02*
X151360675Y-124690675D01*
D41*
X151810600Y-115329400D02*
X152695675Y-115329400D01*
D43*
X151875000Y-125205000D02*
X152530000Y-125205000D01*
X153399000Y-125205000D02*
X152530000Y-125205000D01*
D41*
X161137000Y-116263000D02*
X161529400Y-115870600D01*
X161137000Y-117119400D02*
X161137000Y-116263000D01*
X152695675Y-115829400D02*
X151910600Y-115829400D01*
X162467000Y-115829400D02*
X161529400Y-115829400D01*
X151910600Y-115829400D02*
X151800000Y-115940000D01*
D43*
X154600000Y-126070000D02*
X154264000Y-126070000D01*
D41*
X161529400Y-115329400D02*
X161529400Y-115829400D01*
X151800000Y-115940000D02*
X151360675Y-116379325D01*
X151800000Y-115340000D02*
X151810600Y-115329400D01*
X161529400Y-115870600D02*
X161529400Y-115829400D01*
D43*
X151360675Y-118629400D02*
X151360675Y-117129400D01*
D41*
X151800000Y-115940000D02*
X151800000Y-115340000D01*
D43*
X161127000Y-126692800D02*
X161127000Y-117129400D01*
X154264000Y-126070000D02*
X153399000Y-125205000D01*
%TO.N,+5V*%
X167700000Y-117200000D02*
X167700000Y-115937000D01*
D41*
X167685000Y-117811000D02*
X167696000Y-117800000D01*
D43*
X167696000Y-117800000D02*
X169495000Y-117800000D01*
D41*
X173305000Y-122750000D02*
X173305000Y-124395000D01*
X173305000Y-124395000D02*
X173300000Y-124400000D01*
D43*
X167700000Y-115937000D02*
X167513000Y-115750000D01*
D41*
%TO.N,/BATT_ADC*%
X158142300Y-115290600D02*
X158142300Y-113827900D01*
X158500000Y-118300000D02*
X158500000Y-118202500D01*
X158142300Y-113827900D02*
X158229000Y-113741200D01*
D42*
X159500000Y-110950000D02*
X159440000Y-110890000D01*
D41*
X158155000Y-113770000D02*
X158155000Y-112175000D01*
X158500000Y-118202500D02*
X159562500Y-117140000D01*
X158155000Y-112175000D02*
X159440000Y-110890000D01*
D42*
%TO.N,+BATT*%
X176756300Y-113731000D02*
X178556235Y-113731000D01*
D43*
X176756300Y-113731000D02*
X176555400Y-113530100D01*
X176555400Y-113530100D02*
X176555400Y-110845600D01*
D42*
X178556235Y-113731000D02*
X179104765Y-114279530D01*
%TO.N,Net-(D1-K)*%
X172350000Y-113015600D02*
X172135800Y-112801400D01*
X172135800Y-112801400D02*
X169748200Y-112801400D01*
X169748200Y-112801400D02*
X169220000Y-113329600D01*
X172350000Y-113777500D02*
X172350000Y-113015600D01*
X169220000Y-113329600D02*
X169220000Y-114175000D01*
%TO.N,/PC6*%
X163477196Y-112800000D02*
X167690000Y-112800000D01*
X167690000Y-112800000D02*
X169600000Y-110890000D01*
X162467000Y-113810196D02*
X163477196Y-112800000D01*
X162467000Y-114329400D02*
X162467000Y-113810196D01*
%TO.N,/PC8*%
X152695675Y-113191525D02*
X152695675Y-114329400D01*
X152704800Y-113182400D02*
X152695675Y-113191525D01*
%TO.N,/PC9*%
X152174675Y-114833400D02*
X151820000Y-114478725D01*
X152695675Y-114829400D02*
X152691675Y-114833400D01*
X151820000Y-114478725D02*
X151820000Y-110890000D01*
X152691675Y-114833400D02*
X152174675Y-114833400D01*
D41*
%TO.N,Net-(JP1-A)*%
X170940000Y-126240000D02*
X170500000Y-126680000D01*
X170500000Y-126680000D02*
X166120000Y-126680000D01*
X166120000Y-126680000D02*
X165620000Y-126180000D01*
X170940000Y-125290000D02*
X170940000Y-126240000D01*
X165620000Y-126180000D02*
X165620000Y-125330000D01*
D42*
%TO.N,/PROG*%
X167610000Y-125330000D02*
X169600000Y-125330000D01*
X169600000Y-125330000D02*
X169640000Y-125290000D01*
%TO.N,Net-(JP2-B)*%
X167410000Y-128000000D02*
X167310000Y-127900000D01*
X169600000Y-128000000D02*
X167410000Y-128000000D01*
%TO.N,Net-(U2-~{STDBY})*%
X173050200Y-114909600D02*
X173042900Y-114909600D01*
X173042900Y-114909600D02*
X172350000Y-115602500D01*
%TO.N,Net-(U2-~{CHRG})*%
X170800000Y-115585000D02*
X170800000Y-115587500D01*
X170800000Y-115587500D02*
X170800000Y-117765000D01*
X170800000Y-117765000D02*
X170765000Y-117800000D01*
X171500800Y-114884200D02*
X170800000Y-115585000D01*
%TO.N,Net-(Q1-G)*%
X180334235Y-115631000D02*
X177309000Y-115631000D01*
X180395235Y-115570000D02*
X180334235Y-115631000D01*
D41*
%TO.N,Net-(Q2-G)*%
X146581773Y-119705773D02*
X146086000Y-119210000D01*
D43*
X144099130Y-118719600D02*
X143017165Y-117637635D01*
X145928000Y-115346400D02*
X146740400Y-115346400D01*
D41*
X146086000Y-119210000D02*
X144589530Y-119210000D01*
X144589530Y-119210000D02*
X144099130Y-118719600D01*
D43*
X145465800Y-114884200D02*
X145928000Y-115346400D01*
D41*
X146581773Y-119899935D02*
X146581773Y-119705773D01*
D43*
%TO.N,Net-(Q2-S)*%
X143662400Y-114200300D02*
X145162900Y-112699800D01*
X145260700Y-117246400D02*
X143662400Y-115648100D01*
X143662400Y-115648100D02*
X143662400Y-114200300D01*
X146740400Y-117246400D02*
X145260700Y-117246400D01*
D41*
%TO.N,Net-(Q2-D)*%
X148615400Y-113891700D02*
X148437600Y-113713900D01*
D42*
X148600000Y-117300000D02*
X148600000Y-116311800D01*
X148600000Y-116311800D02*
X148615400Y-116296400D01*
D41*
X148615400Y-116296400D02*
X148615400Y-113891700D01*
%TD*%
%TA.AperFunction,Conductor*%
%TO.N,GND*%
G36*
X150837280Y-107210185D02*
G01*
X150883035Y-107262989D01*
X150892979Y-107332147D01*
X150863954Y-107395703D01*
X150857922Y-107402181D01*
X150781505Y-107478597D01*
X150645965Y-107672169D01*
X150645964Y-107672171D01*
X150546098Y-107886335D01*
X150546094Y-107886344D01*
X150484938Y-108114586D01*
X150484936Y-108114596D01*
X150464341Y-108349999D01*
X150464341Y-108350000D01*
X150484936Y-108585403D01*
X150484938Y-108585413D01*
X150546094Y-108813655D01*
X150546096Y-108813659D01*
X150546097Y-108813663D01*
X150625801Y-108984588D01*
X150645965Y-109027830D01*
X150645967Y-109027834D01*
X150714510Y-109125723D01*
X150781504Y-109221400D01*
X150781506Y-109221402D01*
X150948597Y-109388493D01*
X150948603Y-109388498D01*
X151134158Y-109518425D01*
X151177783Y-109573002D01*
X151184977Y-109642500D01*
X151153454Y-109704855D01*
X151134158Y-109721575D01*
X150948597Y-109851505D01*
X150781505Y-110018597D01*
X150645965Y-110212169D01*
X150645964Y-110212171D01*
X150546098Y-110426335D01*
X150546094Y-110426344D01*
X150484938Y-110654586D01*
X150484936Y-110654596D01*
X150464341Y-110889999D01*
X150464341Y-110890000D01*
X150484936Y-111125403D01*
X150484938Y-111125413D01*
X150546094Y-111353655D01*
X150546096Y-111353659D01*
X150546097Y-111353663D01*
X150635503Y-111545394D01*
X150645965Y-111567830D01*
X150645967Y-111567834D01*
X150720209Y-111673862D01*
X150781501Y-111761396D01*
X150781506Y-111761402D01*
X150948597Y-111928493D01*
X150948603Y-111928498D01*
X150963967Y-111939256D01*
X151141624Y-112063653D01*
X151185248Y-112118228D01*
X151194500Y-112165226D01*
X151194500Y-114395980D01*
X151192775Y-114411597D01*
X151193061Y-114411624D01*
X151192326Y-114419390D01*
X151194500Y-114488539D01*
X151194500Y-114518068D01*
X151194501Y-114518085D01*
X151195368Y-114524956D01*
X151195826Y-114530775D01*
X151197290Y-114577349D01*
X151197291Y-114577352D01*
X151202880Y-114596592D01*
X151206824Y-114615636D01*
X151209336Y-114635517D01*
X151226282Y-114678319D01*
X151226490Y-114678844D01*
X151228382Y-114684372D01*
X151235928Y-114710345D01*
X151241382Y-114729115D01*
X151247277Y-114739084D01*
X151251580Y-114746359D01*
X151260136Y-114763825D01*
X151267514Y-114782457D01*
X151273807Y-114791118D01*
X151278625Y-114797750D01*
X151302103Y-114863557D01*
X151286276Y-114931610D01*
X151274051Y-114948236D01*
X151274136Y-114948298D01*
X151269552Y-114954606D01*
X151259322Y-114973213D01*
X151248646Y-114989464D01*
X151235640Y-115006232D01*
X151235636Y-115006238D01*
X151216348Y-115050811D01*
X151213777Y-115056058D01*
X151190372Y-115098630D01*
X151190372Y-115098631D01*
X151185091Y-115119199D01*
X151178791Y-115137601D01*
X151170364Y-115157073D01*
X151162766Y-115205047D01*
X151161581Y-115210770D01*
X151149500Y-115257818D01*
X151149500Y-115279044D01*
X151147973Y-115298443D01*
X151144653Y-115319405D01*
X151147459Y-115349083D01*
X151149225Y-115367767D01*
X151149500Y-115373606D01*
X151149500Y-115619191D01*
X151129815Y-115686230D01*
X151113181Y-115706872D01*
X151035249Y-115784804D01*
X150961159Y-115858894D01*
X150948586Y-115868969D01*
X150948740Y-115869155D01*
X150942734Y-115874123D01*
X150918109Y-115900346D01*
X150893484Y-115926569D01*
X150882624Y-115937429D01*
X150871763Y-115948290D01*
X150871753Y-115948302D01*
X150867262Y-115954090D01*
X150863476Y-115958522D01*
X150830227Y-115993931D01*
X150819997Y-116012538D01*
X150809321Y-116028789D01*
X150796315Y-116045557D01*
X150796311Y-116045563D01*
X150777023Y-116090136D01*
X150774452Y-116095383D01*
X150751047Y-116137955D01*
X150751047Y-116137956D01*
X150745766Y-116158524D01*
X150739466Y-116176926D01*
X150731039Y-116196398D01*
X150731039Y-116196399D01*
X150725623Y-116230596D01*
X150695693Y-116293731D01*
X150687688Y-116301275D01*
X150687738Y-116301325D01*
X150562704Y-116426359D01*
X150473676Y-116570694D01*
X150473671Y-116570705D01*
X150420326Y-116731690D01*
X150410175Y-116831047D01*
X150410175Y-117427737D01*
X150410176Y-117427755D01*
X150420325Y-117527107D01*
X150420326Y-117527110D01*
X150473671Y-117688094D01*
X150473674Y-117688101D01*
X150482098Y-117701758D01*
X150541713Y-117798409D01*
X150560175Y-117863504D01*
X150560175Y-117895293D01*
X150541714Y-117960390D01*
X150473673Y-118070700D01*
X150473671Y-118070705D01*
X150420326Y-118231690D01*
X150410175Y-118331047D01*
X150410175Y-118927737D01*
X150410176Y-118927755D01*
X150420325Y-119027107D01*
X150420326Y-119027110D01*
X150454491Y-119130212D01*
X150473672Y-119188097D01*
X150541713Y-119298409D01*
X150560175Y-119363504D01*
X150560175Y-121456947D01*
X150540490Y-121523986D01*
X150487686Y-121569741D01*
X150418528Y-121579685D01*
X150354972Y-121550660D01*
X150348494Y-121544628D01*
X150135570Y-121331704D01*
X150073626Y-121290315D01*
X149975885Y-121270872D01*
X149878144Y-121290315D01*
X149816200Y-121331704D01*
X148013542Y-123134362D01*
X147972153Y-123196306D01*
X147972153Y-123196307D01*
X147952710Y-123294047D01*
X147972153Y-123391788D01*
X148013541Y-123453731D01*
X148684831Y-124125021D01*
X148746774Y-124166409D01*
X148825071Y-124181984D01*
X148844514Y-124185852D01*
X148844514Y-124185851D01*
X148844515Y-124185852D01*
X148942255Y-124166409D01*
X149004198Y-124125021D01*
X150348494Y-122780725D01*
X150409817Y-122747240D01*
X150479509Y-122752224D01*
X150535442Y-122794096D01*
X150559859Y-122859560D01*
X150560175Y-122868406D01*
X150560175Y-124780866D01*
X150560176Y-124780875D01*
X150569466Y-124821583D01*
X150570630Y-124828438D01*
X150575307Y-124869934D01*
X150589095Y-124909337D01*
X150591020Y-124916020D01*
X150600314Y-124956736D01*
X150618434Y-124994363D01*
X150621096Y-125000789D01*
X150634887Y-125040200D01*
X150657097Y-125075547D01*
X150660462Y-125081634D01*
X150678585Y-125119264D01*
X150704615Y-125151904D01*
X150708641Y-125157579D01*
X150730857Y-125192934D01*
X150730859Y-125192937D01*
X151372740Y-125834818D01*
X151385790Y-125843017D01*
X151408104Y-125857038D01*
X151413757Y-125861049D01*
X151446413Y-125887091D01*
X151484044Y-125905213D01*
X151490106Y-125908563D01*
X151523637Y-125929632D01*
X151525478Y-125930789D01*
X151564898Y-125944583D01*
X151571326Y-125947245D01*
X151608939Y-125965359D01*
X151649655Y-125974652D01*
X151656324Y-125976574D01*
X151695745Y-125990368D01*
X151737251Y-125995044D01*
X151744076Y-125996203D01*
X151784805Y-126005500D01*
X151795895Y-126005500D01*
X151860991Y-126023961D01*
X151971303Y-126092003D01*
X152132292Y-126145349D01*
X152231655Y-126155500D01*
X152828344Y-126155499D01*
X152828352Y-126155498D01*
X152828355Y-126155498D01*
X152889411Y-126149261D01*
X152927708Y-126145349D01*
X152933403Y-126143461D01*
X152936494Y-126142438D01*
X153006323Y-126140035D01*
X153066365Y-126175766D01*
X153097558Y-126238286D01*
X153099500Y-126260143D01*
X153099500Y-126867870D01*
X153099501Y-126867876D01*
X153105908Y-126927483D01*
X153156202Y-127062328D01*
X153156203Y-127062330D01*
X153156204Y-127062331D01*
X153209164Y-127133077D01*
X153218606Y-127145689D01*
X153243023Y-127211153D01*
X153228172Y-127279426D01*
X153218606Y-127294309D01*
X153175648Y-127351695D01*
X153154150Y-127380413D01*
X153098216Y-127422284D01*
X153028524Y-127427268D01*
X153015880Y-127423808D01*
X152897711Y-127384651D01*
X152798346Y-127374500D01*
X152201662Y-127374500D01*
X152201644Y-127374501D01*
X152102292Y-127384650D01*
X152102289Y-127384651D01*
X151941305Y-127437996D01*
X151941294Y-127438001D01*
X151796959Y-127527029D01*
X151796955Y-127527032D01*
X151677032Y-127646955D01*
X151677029Y-127646959D01*
X151588001Y-127791294D01*
X151587996Y-127791305D01*
X151534651Y-127952290D01*
X151524500Y-128051647D01*
X151524500Y-128598337D01*
X151524501Y-128598355D01*
X151534650Y-128697707D01*
X151534651Y-128697710D01*
X151587996Y-128858694D01*
X151588001Y-128858705D01*
X151677029Y-129003040D01*
X151677032Y-129003044D01*
X151686660Y-129012672D01*
X151720145Y-129073995D01*
X151715161Y-129143687D01*
X151686663Y-129188031D01*
X151677428Y-129197265D01*
X151677424Y-129197271D01*
X151588457Y-129341507D01*
X151588452Y-129341518D01*
X151535144Y-129502393D01*
X151525000Y-129601677D01*
X151525000Y-129625000D01*
X153500265Y-129625000D01*
X153505912Y-129621916D01*
X153545535Y-129619791D01*
X153552127Y-129620500D01*
X155647872Y-129620499D01*
X155707483Y-129614091D01*
X155842331Y-129563796D01*
X155957546Y-129477546D01*
X156043796Y-129362331D01*
X156064507Y-129306803D01*
X156085258Y-129251167D01*
X156127129Y-129195233D01*
X156192593Y-129170816D01*
X156201440Y-129170500D01*
X156758994Y-129170500D01*
X156799705Y-129161208D01*
X156806560Y-129160043D01*
X156848055Y-129155368D01*
X156887480Y-129141571D01*
X156894121Y-129139658D01*
X156934861Y-129130360D01*
X156972493Y-129112236D01*
X156978905Y-129109580D01*
X157018322Y-129095789D01*
X157053689Y-129073565D01*
X157059761Y-129070209D01*
X157097387Y-129052091D01*
X157130036Y-129026052D01*
X157135695Y-129022037D01*
X157171062Y-128999816D01*
X157298616Y-128872262D01*
X158154026Y-128016852D01*
X158186016Y-127984862D01*
X158208237Y-127949495D01*
X158212252Y-127943836D01*
X158238291Y-127911187D01*
X158256409Y-127873561D01*
X158259765Y-127867489D01*
X158281989Y-127832122D01*
X158295780Y-127792705D01*
X158298436Y-127786293D01*
X158316560Y-127748661D01*
X158325858Y-127707921D01*
X158327771Y-127701280D01*
X158341568Y-127661855D01*
X158346243Y-127620360D01*
X158347408Y-127613505D01*
X158349269Y-127605350D01*
X158356700Y-127572794D01*
X158356700Y-127531035D01*
X158357089Y-127524096D01*
X158361765Y-127482600D01*
X158357089Y-127441102D01*
X158356700Y-127434164D01*
X158356700Y-127392407D01*
X158356700Y-127392406D01*
X158347407Y-127351693D01*
X158346242Y-127344833D01*
X158341568Y-127303345D01*
X158338407Y-127294311D01*
X158327776Y-127263928D01*
X158325850Y-127257241D01*
X158316561Y-127216541D01*
X158298444Y-127178920D01*
X158295781Y-127172491D01*
X158281989Y-127133077D01*
X158270777Y-127115235D01*
X158259767Y-127097712D01*
X158256406Y-127091630D01*
X158238292Y-127054015D01*
X158238291Y-127054014D01*
X158238291Y-127054013D01*
X158212252Y-127021362D01*
X158208237Y-127015703D01*
X158186016Y-126980338D01*
X158156488Y-126950810D01*
X158151851Y-126945622D01*
X158125820Y-126912980D01*
X158125817Y-126912978D01*
X158125816Y-126912976D01*
X158093176Y-126886947D01*
X158087988Y-126882310D01*
X158058462Y-126852784D01*
X158058459Y-126852782D01*
X158023100Y-126830564D01*
X158017426Y-126826538D01*
X157984788Y-126800510D01*
X157984787Y-126800509D01*
X157947166Y-126782391D01*
X157947160Y-126782388D01*
X157941078Y-126779026D01*
X157921807Y-126766917D01*
X157905726Y-126756813D01*
X157905725Y-126756812D01*
X157866314Y-126743021D01*
X157859888Y-126740359D01*
X157822261Y-126722239D01*
X157781545Y-126712945D01*
X157774862Y-126711020D01*
X157735459Y-126697232D01*
X157693963Y-126692555D01*
X157687108Y-126691391D01*
X157646400Y-126682101D01*
X157646396Y-126682100D01*
X157646394Y-126682100D01*
X157646391Y-126682100D01*
X157604636Y-126682100D01*
X157597697Y-126681710D01*
X157568799Y-126678454D01*
X157556202Y-126677035D01*
X157556198Y-126677035D01*
X157543600Y-126678454D01*
X157514702Y-126681710D01*
X157507764Y-126682100D01*
X157466006Y-126682100D01*
X157460088Y-126683450D01*
X157425289Y-126691391D01*
X157418435Y-126692555D01*
X157376944Y-126697232D01*
X157337541Y-126711019D01*
X157330859Y-126712944D01*
X157290139Y-126722239D01*
X157252520Y-126740355D01*
X157246095Y-126743016D01*
X157206683Y-126756808D01*
X157206676Y-126756812D01*
X157171320Y-126779027D01*
X157165233Y-126782391D01*
X157127610Y-126800510D01*
X157094969Y-126826541D01*
X157089296Y-126830566D01*
X157053939Y-126852783D01*
X157053935Y-126852786D01*
X156373541Y-127533181D01*
X156312218Y-127566666D01*
X156285860Y-127569500D01*
X156201440Y-127569500D01*
X156134401Y-127549815D01*
X156088646Y-127497011D01*
X156085258Y-127488833D01*
X156043797Y-127377671D01*
X156043796Y-127377669D01*
X155988157Y-127303345D01*
X155981393Y-127294310D01*
X155956977Y-127228847D01*
X155971828Y-127160574D01*
X155981394Y-127145689D01*
X155990835Y-127133078D01*
X156043796Y-127062331D01*
X156094091Y-126927483D01*
X156100500Y-126867873D01*
X156100499Y-125272128D01*
X156094091Y-125212517D01*
X156091960Y-125206804D01*
X156043797Y-125077671D01*
X156043795Y-125077668D01*
X156042207Y-125075547D01*
X155981081Y-124993893D01*
X155956664Y-124928431D01*
X155971515Y-124860158D01*
X155981082Y-124845271D01*
X156043352Y-124762089D01*
X156043354Y-124762086D01*
X156093596Y-124627379D01*
X156093598Y-124627372D01*
X156099999Y-124567844D01*
X156100000Y-124567827D01*
X156100000Y-124020000D01*
X153184000Y-124020000D01*
X153116961Y-124000315D01*
X153071206Y-123947511D01*
X153062502Y-123907502D01*
X153060000Y-123905000D01*
X152404000Y-123905000D01*
X152336961Y-123885315D01*
X152291206Y-123832511D01*
X152280000Y-123781000D01*
X152280000Y-123405000D01*
X152780000Y-123405000D01*
X153421000Y-123405000D01*
X153488039Y-123424685D01*
X153533794Y-123477489D01*
X153542497Y-123517497D01*
X153545000Y-123520000D01*
X154350000Y-123520000D01*
X154350000Y-122520000D01*
X154850000Y-122520000D01*
X154850000Y-123520000D01*
X156100000Y-123520000D01*
X156100000Y-122972172D01*
X156099999Y-122972155D01*
X156093598Y-122912627D01*
X156093596Y-122912620D01*
X156043354Y-122777913D01*
X156043350Y-122777906D01*
X155957190Y-122662812D01*
X155957187Y-122662809D01*
X155842093Y-122576649D01*
X155842086Y-122576645D01*
X155707379Y-122526403D01*
X155707372Y-122526401D01*
X155647844Y-122520000D01*
X154850000Y-122520000D01*
X154350000Y-122520000D01*
X153552155Y-122520000D01*
X153492627Y-122526401D01*
X153492620Y-122526403D01*
X153357913Y-122576645D01*
X153357906Y-122576649D01*
X153242812Y-122662809D01*
X153202282Y-122716950D01*
X153146348Y-122758820D01*
X153076656Y-122763804D01*
X153064012Y-122760344D01*
X152927607Y-122715144D01*
X152828322Y-122705000D01*
X152780000Y-122705000D01*
X152780000Y-123405000D01*
X152280000Y-123405000D01*
X152280000Y-122705000D01*
X152277846Y-122702847D01*
X152218136Y-122685314D01*
X152172381Y-122632510D01*
X152161175Y-122580999D01*
X152161175Y-119629881D01*
X152180860Y-119562842D01*
X152233664Y-119517087D01*
X152302822Y-119507143D01*
X152350273Y-119524343D01*
X152377187Y-119540944D01*
X152377193Y-119540947D01*
X152538068Y-119594255D01*
X152637358Y-119604399D01*
X152660675Y-119604398D01*
X152660675Y-118879400D01*
X153160675Y-118879400D01*
X153160675Y-119604399D01*
X153183983Y-119604399D01*
X153183997Y-119604398D01*
X153283282Y-119594255D01*
X153444156Y-119540947D01*
X153444163Y-119540944D01*
X153580577Y-119456802D01*
X153647970Y-119438361D01*
X153710773Y-119456802D01*
X153847186Y-119540944D01*
X153847193Y-119540947D01*
X154008068Y-119594255D01*
X154107358Y-119604399D01*
X154130675Y-119604398D01*
X154130675Y-118879400D01*
X153160675Y-118879400D01*
X152660675Y-118879400D01*
X152660675Y-117379400D01*
X153160675Y-117379400D01*
X153160675Y-118379400D01*
X154130675Y-118379400D01*
X154130675Y-117379400D01*
X153160675Y-117379400D01*
X152660675Y-117379400D01*
X152660675Y-117003400D01*
X152680360Y-116936361D01*
X152733164Y-116890606D01*
X152784675Y-116879400D01*
X154506675Y-116879400D01*
X154573714Y-116899085D01*
X154619469Y-116951889D01*
X154630675Y-117003400D01*
X154630675Y-119465883D01*
X154610990Y-119532922D01*
X154594354Y-119553566D01*
X154568207Y-119579712D01*
X154563022Y-119584346D01*
X154530380Y-119610380D01*
X154504345Y-119643023D01*
X154499713Y-119648206D01*
X154470185Y-119677736D01*
X154470180Y-119677742D01*
X154447964Y-119713098D01*
X154443939Y-119718772D01*
X154417909Y-119751413D01*
X154399791Y-119789033D01*
X154396427Y-119795120D01*
X154374212Y-119830476D01*
X154374208Y-119830483D01*
X154360416Y-119869895D01*
X154357755Y-119876320D01*
X154339639Y-119913939D01*
X154330344Y-119954659D01*
X154328419Y-119961341D01*
X154314632Y-120000744D01*
X154309955Y-120042235D01*
X154308791Y-120049089D01*
X154299500Y-120089806D01*
X154299500Y-120131564D01*
X154299110Y-120138502D01*
X154294435Y-120180000D01*
X154299110Y-120221496D01*
X154299500Y-120228435D01*
X154299500Y-120270194D01*
X154299500Y-120270196D01*
X154299501Y-120270200D01*
X154308791Y-120310908D01*
X154309955Y-120317763D01*
X154314632Y-120359259D01*
X154328420Y-120398662D01*
X154330345Y-120405345D01*
X154339639Y-120446061D01*
X154357759Y-120483688D01*
X154360421Y-120490114D01*
X154374212Y-120529525D01*
X154396422Y-120564872D01*
X154399787Y-120570959D01*
X154417910Y-120608589D01*
X154443940Y-120641229D01*
X154447966Y-120646904D01*
X154470182Y-120682259D01*
X154470184Y-120682262D01*
X154490184Y-120702262D01*
X154617738Y-120829816D01*
X154653089Y-120852028D01*
X154658765Y-120856055D01*
X154691411Y-120882090D01*
X154691412Y-120882091D01*
X154709458Y-120890781D01*
X154729035Y-120900208D01*
X154735112Y-120903567D01*
X154752635Y-120914577D01*
X154770477Y-120925789D01*
X154809891Y-120939581D01*
X154816320Y-120942244D01*
X154853941Y-120960361D01*
X154894641Y-120969650D01*
X154901328Y-120971576D01*
X154940742Y-120985367D01*
X154940745Y-120985368D01*
X154982241Y-120990043D01*
X154989093Y-120991207D01*
X155029806Y-121000500D01*
X155029808Y-121000500D01*
X156813594Y-121000500D01*
X156854305Y-120991208D01*
X156861160Y-120990043D01*
X156902655Y-120985368D01*
X156942080Y-120971571D01*
X156948721Y-120969658D01*
X156989461Y-120960360D01*
X157027093Y-120942236D01*
X157033505Y-120939580D01*
X157072922Y-120925789D01*
X157108289Y-120903565D01*
X157114361Y-120900209D01*
X157151987Y-120882091D01*
X157184636Y-120856052D01*
X157190295Y-120852037D01*
X157225662Y-120829816D01*
X157353216Y-120702262D01*
X157373216Y-120682262D01*
X157395437Y-120646895D01*
X157399452Y-120641236D01*
X157425491Y-120608587D01*
X157443611Y-120570959D01*
X157446965Y-120564889D01*
X157469189Y-120529522D01*
X157482980Y-120490105D01*
X157485639Y-120483688D01*
X157503760Y-120446061D01*
X157513058Y-120405321D01*
X157514971Y-120398680D01*
X157528768Y-120359255D01*
X157533443Y-120317760D01*
X157534608Y-120310905D01*
X157536126Y-120304249D01*
X157543900Y-120270194D01*
X157543900Y-120228435D01*
X157544289Y-120221496D01*
X157548965Y-120180000D01*
X157544289Y-120138502D01*
X157543900Y-120131564D01*
X157543900Y-120089807D01*
X157543900Y-120089806D01*
X157534607Y-120049089D01*
X157533443Y-120042241D01*
X157528768Y-120000745D01*
X157528767Y-120000742D01*
X157514976Y-119961328D01*
X157513050Y-119954641D01*
X157503760Y-119913941D01*
X157503760Y-119913940D01*
X157485641Y-119876316D01*
X157482978Y-119869886D01*
X157481389Y-119865346D01*
X157469189Y-119830478D01*
X157467212Y-119827332D01*
X157446970Y-119795117D01*
X157443603Y-119789025D01*
X157425491Y-119751414D01*
X157425490Y-119751413D01*
X157424899Y-119750672D01*
X157399451Y-119718762D01*
X157395441Y-119713109D01*
X157373216Y-119677738D01*
X157343684Y-119648206D01*
X157339050Y-119643021D01*
X157328571Y-119629881D01*
X157313020Y-119610380D01*
X157305521Y-119604400D01*
X157280376Y-119584347D01*
X157275189Y-119579711D01*
X157245662Y-119550184D01*
X157245659Y-119550182D01*
X157210299Y-119527963D01*
X157204624Y-119523937D01*
X157171984Y-119497907D01*
X157134372Y-119479795D01*
X157128288Y-119476433D01*
X157092922Y-119454211D01*
X157053512Y-119440420D01*
X157047094Y-119437763D01*
X157009461Y-119419640D01*
X157009457Y-119419639D01*
X157009452Y-119419637D01*
X156968745Y-119410345D01*
X156962062Y-119408420D01*
X156922659Y-119394632D01*
X156905760Y-119392728D01*
X156899687Y-119392043D01*
X156835275Y-119364975D01*
X156795721Y-119307380D01*
X156793586Y-119237543D01*
X156808035Y-119203729D01*
X156817678Y-119188097D01*
X156871024Y-119027108D01*
X156881175Y-118927745D01*
X156881174Y-118331056D01*
X156880926Y-118328633D01*
X156871024Y-118231692D01*
X156871023Y-118231689D01*
X156860522Y-118200000D01*
X156823988Y-118089748D01*
X156821587Y-118019923D01*
X156857319Y-117959881D01*
X156919839Y-117928688D01*
X156989298Y-117936248D01*
X157020164Y-117956902D01*
X157020987Y-117955862D01*
X157026647Y-117960338D01*
X157026649Y-117960339D01*
X157026650Y-117960340D01*
X157173484Y-118050908D01*
X157337247Y-118105174D01*
X157438323Y-118115500D01*
X157576467Y-118115499D01*
X157643506Y-118135183D01*
X157689261Y-118187987D01*
X157699687Y-118253382D01*
X157694435Y-118299996D01*
X157694435Y-118300003D01*
X157714630Y-118479249D01*
X157714631Y-118479254D01*
X157774211Y-118649523D01*
X157844887Y-118762002D01*
X157870184Y-118802262D01*
X157997738Y-118929816D01*
X158086148Y-118985368D01*
X158127552Y-119011384D01*
X158150478Y-119025789D01*
X158320745Y-119085368D01*
X158320750Y-119085369D01*
X158499996Y-119105565D01*
X158500000Y-119105565D01*
X158500004Y-119105565D01*
X158679249Y-119085369D01*
X158679252Y-119085368D01*
X158679255Y-119085368D01*
X158849522Y-119025789D01*
X159002262Y-118929816D01*
X159129816Y-118802262D01*
X159225789Y-118649522D01*
X159285368Y-118479255D01*
X159288266Y-118453539D01*
X159298563Y-118362141D01*
X159325629Y-118297727D01*
X159334083Y-118288361D01*
X159470629Y-118151815D01*
X159531950Y-118118333D01*
X159558308Y-118115499D01*
X159861670Y-118115499D01*
X159861676Y-118115499D01*
X159962753Y-118105174D01*
X160027303Y-118083783D01*
X160097129Y-118081382D01*
X160157171Y-118117113D01*
X160188364Y-118179633D01*
X160187561Y-118227437D01*
X160186651Y-118231686D01*
X160176500Y-118331047D01*
X160176500Y-118927737D01*
X160176501Y-118927755D01*
X160186650Y-119027107D01*
X160186651Y-119027110D01*
X160220816Y-119130212D01*
X160239997Y-119188097D01*
X160308038Y-119298409D01*
X160326500Y-119363504D01*
X160326500Y-123545500D01*
X160306815Y-123612539D01*
X160254011Y-123658294D01*
X160202500Y-123669500D01*
X159852130Y-123669500D01*
X159852123Y-123669501D01*
X159792516Y-123675908D01*
X159657671Y-123726202D01*
X159657664Y-123726206D01*
X159542455Y-123812452D01*
X159542452Y-123812455D01*
X159456206Y-123927664D01*
X159456202Y-123927671D01*
X159405908Y-124062517D01*
X159399501Y-124122116D01*
X159399501Y-124122123D01*
X159399500Y-124122135D01*
X159399500Y-128017870D01*
X159399501Y-128017876D01*
X159405908Y-128077483D01*
X159456202Y-128212328D01*
X159456206Y-128212335D01*
X159542452Y-128327544D01*
X159542455Y-128327547D01*
X159657664Y-128413793D01*
X159657671Y-128413797D01*
X159670726Y-128418666D01*
X159792517Y-128464091D01*
X159852127Y-128470500D01*
X160181812Y-128470499D01*
X160248851Y-128490183D01*
X160294606Y-128542987D01*
X160300887Y-128559899D01*
X160304980Y-128573987D01*
X160315180Y-128591234D01*
X160323738Y-128608703D01*
X160331114Y-128627332D01*
X160358498Y-128665023D01*
X160361706Y-128669907D01*
X160385427Y-128710016D01*
X160385433Y-128710024D01*
X160399590Y-128724180D01*
X160412228Y-128738976D01*
X160424005Y-128755186D01*
X160424006Y-128755187D01*
X160459909Y-128784888D01*
X160464220Y-128788810D01*
X160940758Y-129265349D01*
X161089197Y-129413788D01*
X161099022Y-129426051D01*
X161099243Y-129425869D01*
X161104214Y-129431878D01*
X161130217Y-129456295D01*
X161154635Y-129479226D01*
X161175529Y-129500120D01*
X161181011Y-129504373D01*
X161185443Y-129508157D01*
X161219418Y-129540062D01*
X161236976Y-129549714D01*
X161253235Y-129560395D01*
X161269064Y-129572673D01*
X161311838Y-129591182D01*
X161317056Y-129593738D01*
X161357908Y-129616197D01*
X161377316Y-129621180D01*
X161395717Y-129627480D01*
X161414104Y-129635437D01*
X161457488Y-129642308D01*
X161460119Y-129642725D01*
X161465839Y-129643909D01*
X161510981Y-129655500D01*
X161531016Y-129655500D01*
X161550414Y-129657026D01*
X161570194Y-129660159D01*
X161570195Y-129660160D01*
X161570195Y-129660159D01*
X161570196Y-129660160D01*
X161616584Y-129655775D01*
X161622422Y-129655500D01*
X161829124Y-129655500D01*
X161895095Y-129674505D01*
X161952310Y-129710456D01*
X162072114Y-129752377D01*
X162111943Y-129766314D01*
X162279997Y-129785249D01*
X162280000Y-129785249D01*
X162280003Y-129785249D01*
X162448056Y-129766314D01*
X162463403Y-129760944D01*
X162607690Y-129710456D01*
X162607692Y-129710454D01*
X162607694Y-129710454D01*
X162607697Y-129710452D01*
X162750884Y-129620481D01*
X162750885Y-129620480D01*
X162750890Y-129620477D01*
X162870477Y-129500890D01*
X162870964Y-129500115D01*
X162960452Y-129357697D01*
X162960454Y-129357694D01*
X162960454Y-129357692D01*
X162960456Y-129357690D01*
X163016313Y-129198059D01*
X163016313Y-129198058D01*
X163016314Y-129198056D01*
X163035249Y-129030002D01*
X163035249Y-129029997D01*
X163016314Y-128861943D01*
X162968853Y-128726307D01*
X162960456Y-128702310D01*
X162960455Y-128702309D01*
X162960454Y-128702305D01*
X162960452Y-128702302D01*
X162870481Y-128559115D01*
X162870476Y-128559109D01*
X162750890Y-128439523D01*
X162750884Y-128439518D01*
X162607697Y-128349547D01*
X162607691Y-128349544D01*
X162448445Y-128293822D01*
X162391668Y-128253100D01*
X162365921Y-128188147D01*
X162373217Y-128133447D01*
X162394091Y-128077483D01*
X162400500Y-128017873D01*
X162400499Y-124122128D01*
X162394091Y-124062517D01*
X162388944Y-124048718D01*
X162343797Y-123927671D01*
X162343793Y-123927664D01*
X162257547Y-123812455D01*
X162257544Y-123812452D01*
X162142335Y-123726206D01*
X162142330Y-123726203D01*
X162008166Y-123676163D01*
X161952233Y-123634291D01*
X161927816Y-123568827D01*
X161927500Y-123559981D01*
X161927500Y-119629881D01*
X161947185Y-119562842D01*
X161999989Y-119517087D01*
X162069147Y-119507143D01*
X162116598Y-119524343D01*
X162143512Y-119540944D01*
X162143518Y-119540947D01*
X162304393Y-119594255D01*
X162403683Y-119604399D01*
X162427000Y-119604398D01*
X162427000Y-118879400D01*
X162927000Y-118879400D01*
X162927000Y-119604399D01*
X162950308Y-119604399D01*
X162950322Y-119604398D01*
X163049607Y-119594255D01*
X163210481Y-119540947D01*
X163210492Y-119540942D01*
X163351902Y-119453719D01*
X163419294Y-119435278D01*
X163482096Y-119453719D01*
X163623507Y-119540943D01*
X163623518Y-119540948D01*
X163784393Y-119594256D01*
X163883683Y-119604400D01*
X163907000Y-119604399D01*
X163907000Y-118879401D01*
X163218363Y-118879401D01*
X163218360Y-118879400D01*
X162927000Y-118879400D01*
X162427000Y-118879400D01*
X162427000Y-118379400D01*
X162927000Y-118379400D01*
X163615637Y-118379400D01*
X163615640Y-118379401D01*
X163907000Y-118379401D01*
X163907000Y-118083046D01*
X163906999Y-118083037D01*
X163906999Y-117369400D01*
X162937000Y-117369400D01*
X162937000Y-118073038D01*
X162927000Y-118107093D01*
X162927000Y-118379400D01*
X162427000Y-118379400D01*
X162427000Y-117675762D01*
X162437000Y-117641706D01*
X162437000Y-116993400D01*
X162456685Y-116926361D01*
X162509489Y-116880606D01*
X162561000Y-116869400D01*
X164282999Y-116869400D01*
X164350038Y-116889085D01*
X164395793Y-116941889D01*
X164406999Y-116993400D01*
X164406999Y-117665754D01*
X164407000Y-117665764D01*
X164407000Y-119604400D01*
X164430308Y-119604400D01*
X164430322Y-119604399D01*
X164529607Y-119594256D01*
X164690481Y-119540948D01*
X164690487Y-119540945D01*
X164740402Y-119510157D01*
X164807794Y-119491716D01*
X164874458Y-119512637D01*
X164919228Y-119566279D01*
X164929500Y-119615695D01*
X164929500Y-119712564D01*
X164929110Y-119719502D01*
X164925599Y-119750672D01*
X164924435Y-119760999D01*
X164924435Y-119761003D01*
X164944630Y-119940249D01*
X164944631Y-119940254D01*
X165004211Y-120110523D01*
X165073935Y-120221487D01*
X165100184Y-120263262D01*
X165227738Y-120390816D01*
X165288070Y-120428725D01*
X165375542Y-120483688D01*
X165380478Y-120486789D01*
X165550745Y-120546368D01*
X165550750Y-120546369D01*
X165729996Y-120566565D01*
X165730000Y-120566565D01*
X165730004Y-120566565D01*
X165909249Y-120546369D01*
X165909252Y-120546368D01*
X165909255Y-120546368D01*
X166079522Y-120486789D01*
X166232262Y-120390816D01*
X166359816Y-120263262D01*
X166455789Y-120110522D01*
X166515368Y-119940255D01*
X166516460Y-119930566D01*
X166535565Y-119761003D01*
X166535565Y-119760999D01*
X166534401Y-119750672D01*
X166530889Y-119719502D01*
X166530500Y-119712564D01*
X166530500Y-119326218D01*
X166548962Y-119261120D01*
X166594001Y-119188101D01*
X166594000Y-119188101D01*
X166594003Y-119188098D01*
X166647349Y-119027109D01*
X166657500Y-118927746D01*
X166657499Y-118417091D01*
X166677183Y-118350053D01*
X166729987Y-118304298D01*
X166799146Y-118294354D01*
X166862702Y-118323379D01*
X166898541Y-118376137D01*
X166959211Y-118549523D01*
X167040912Y-118679548D01*
X167055184Y-118702262D01*
X167182738Y-118829816D01*
X167335478Y-118925789D01*
X167341097Y-118927755D01*
X167505745Y-118985368D01*
X167505750Y-118985369D01*
X167684996Y-119005565D01*
X167685000Y-119005565D01*
X167685004Y-119005565D01*
X167864249Y-118985369D01*
X167864252Y-118985368D01*
X167864255Y-118985368D01*
X168034522Y-118925789D01*
X168187262Y-118829816D01*
X168314816Y-118702262D01*
X168328450Y-118680564D01*
X168342297Y-118658527D01*
X168394631Y-118612237D01*
X168447290Y-118600500D01*
X168455164Y-118600500D01*
X168462102Y-118600889D01*
X168491000Y-118604145D01*
X168503598Y-118605565D01*
X168503600Y-118605565D01*
X168503602Y-118605565D01*
X168516199Y-118604145D01*
X168545097Y-118600889D01*
X168552036Y-118600500D01*
X168570500Y-118600500D01*
X168637539Y-118620185D01*
X168683294Y-118672989D01*
X168694500Y-118724500D01*
X168694500Y-118785468D01*
X168704969Y-118872649D01*
X168704971Y-118872657D01*
X168759677Y-119011380D01*
X168759680Y-119011386D01*
X168771603Y-119027109D01*
X168849788Y-119130212D01*
X168968616Y-119220321D01*
X169107348Y-119275030D01*
X169139287Y-119278865D01*
X169203498Y-119306401D01*
X169242631Y-119364284D01*
X169248500Y-119401980D01*
X169248500Y-121148523D01*
X169228815Y-121215562D01*
X169176011Y-121261317D01*
X169139288Y-121271638D01*
X169107468Y-121275459D01*
X168968860Y-121330119D01*
X168850144Y-121420144D01*
X168760119Y-121538860D01*
X168705459Y-121677468D01*
X168705459Y-121677469D01*
X168695000Y-121764565D01*
X168695000Y-122267715D01*
X168675315Y-122334754D01*
X168622511Y-122380509D01*
X168553353Y-122390453D01*
X168505904Y-122373254D01*
X168379340Y-122295189D01*
X168379335Y-122295187D01*
X168379334Y-122295186D01*
X168212797Y-122240001D01*
X168212795Y-122240000D01*
X168110016Y-122229500D01*
X168110009Y-122229500D01*
X167410808Y-122229500D01*
X167343769Y-122209815D01*
X167323127Y-122193181D01*
X166750434Y-121620488D01*
X166740361Y-121607914D01*
X166740174Y-121608070D01*
X166735201Y-121602059D01*
X166682756Y-121552810D01*
X166661035Y-121531089D01*
X166659061Y-121529558D01*
X166655235Y-121526589D01*
X166650798Y-121522799D01*
X166615396Y-121489554D01*
X166615388Y-121489548D01*
X166596792Y-121479325D01*
X166580531Y-121468644D01*
X166563763Y-121455637D01*
X166540180Y-121445432D01*
X166519178Y-121436343D01*
X166513956Y-121433786D01*
X166471368Y-121410373D01*
X166471365Y-121410372D01*
X166450801Y-121405092D01*
X166432396Y-121398790D01*
X166412927Y-121390365D01*
X166412921Y-121390363D01*
X166364951Y-121382766D01*
X166359236Y-121381582D01*
X166342772Y-121377355D01*
X166312180Y-121369500D01*
X166312177Y-121369500D01*
X166290955Y-121369500D01*
X166271555Y-121367973D01*
X166250596Y-121364653D01*
X166250595Y-121364653D01*
X166226786Y-121366903D01*
X166202230Y-121369225D01*
X166196392Y-121369500D01*
X164715504Y-121369500D01*
X164699493Y-121367732D01*
X164699471Y-121367974D01*
X164691704Y-121367240D01*
X164691703Y-121367240D01*
X164619796Y-121369500D01*
X164589075Y-121369500D01*
X164589071Y-121369500D01*
X164589061Y-121369501D01*
X164581793Y-121370419D01*
X164575976Y-121370876D01*
X164527436Y-121372402D01*
X164527425Y-121372404D01*
X164507049Y-121378323D01*
X164488008Y-121382266D01*
X164466953Y-121384926D01*
X164466937Y-121384930D01*
X164421776Y-121402810D01*
X164416250Y-121404702D01*
X164369602Y-121418255D01*
X164351332Y-121429060D01*
X164333863Y-121437618D01*
X164314128Y-121445432D01*
X164314126Y-121445433D01*
X164274839Y-121473977D01*
X164269956Y-121477184D01*
X164228132Y-121501919D01*
X164213126Y-121516926D01*
X164198336Y-121529558D01*
X164181167Y-121542032D01*
X164181165Y-121542034D01*
X164150194Y-121579470D01*
X164146262Y-121583791D01*
X163480483Y-122249569D01*
X163467910Y-122259643D01*
X163468065Y-122259830D01*
X163462059Y-122264798D01*
X163439614Y-122288700D01*
X163412809Y-122317244D01*
X163401949Y-122328104D01*
X163391088Y-122338965D01*
X163391078Y-122338977D01*
X163386587Y-122344765D01*
X163382801Y-122349197D01*
X163349552Y-122384606D01*
X163339322Y-122403213D01*
X163328646Y-122419464D01*
X163315640Y-122436232D01*
X163315636Y-122436238D01*
X163296348Y-122480811D01*
X163293777Y-122486058D01*
X163270372Y-122528630D01*
X163270372Y-122528631D01*
X163265091Y-122549199D01*
X163258791Y-122567601D01*
X163250364Y-122587073D01*
X163242766Y-122635047D01*
X163241581Y-122640770D01*
X163229500Y-122687818D01*
X163229500Y-122709044D01*
X163227973Y-122728444D01*
X163226856Y-122735499D01*
X163224653Y-122749405D01*
X163228551Y-122790634D01*
X163229225Y-122797767D01*
X163229500Y-122803606D01*
X163229500Y-128054494D01*
X163227732Y-128070505D01*
X163227974Y-128070528D01*
X163227240Y-128078294D01*
X163229500Y-128150203D01*
X163229500Y-128180920D01*
X163229501Y-128180940D01*
X163230418Y-128188206D01*
X163230876Y-128194024D01*
X163232402Y-128242567D01*
X163232403Y-128242570D01*
X163238323Y-128262948D01*
X163242268Y-128281996D01*
X163244928Y-128303054D01*
X163244931Y-128303064D01*
X163262813Y-128348230D01*
X163264705Y-128353758D01*
X163278254Y-128400395D01*
X163278255Y-128400397D01*
X163289060Y-128418666D01*
X163297617Y-128436134D01*
X163303226Y-128450300D01*
X163305432Y-128455872D01*
X163333983Y-128495170D01*
X163337188Y-128500049D01*
X163361919Y-128541865D01*
X163361923Y-128541869D01*
X163376925Y-128556871D01*
X163389563Y-128571669D01*
X163402033Y-128588833D01*
X163402036Y-128588836D01*
X163402037Y-128588837D01*
X163439476Y-128619809D01*
X163443776Y-128623722D01*
X163929632Y-129109578D01*
X164389564Y-129569510D01*
X164399635Y-129582080D01*
X164399822Y-129581926D01*
X164404796Y-129587937D01*
X164404798Y-129587940D01*
X164424254Y-129606210D01*
X164457243Y-129637190D01*
X164478967Y-129658913D01*
X164484757Y-129663405D01*
X164489197Y-129667197D01*
X164518498Y-129694711D01*
X164524607Y-129700448D01*
X164524610Y-129700450D01*
X164524612Y-129700451D01*
X164543207Y-129710674D01*
X164559468Y-129721356D01*
X164576232Y-129734359D01*
X164576236Y-129734362D01*
X164617867Y-129752377D01*
X164620811Y-129753651D01*
X164626050Y-129756217D01*
X164668632Y-129779627D01*
X164689204Y-129784908D01*
X164707594Y-129791205D01*
X164727074Y-129799635D01*
X164771221Y-129806626D01*
X164775048Y-129807233D01*
X164780757Y-129808415D01*
X164827823Y-129820500D01*
X164849045Y-129820500D01*
X164868444Y-129822026D01*
X164889405Y-129825347D01*
X164934104Y-129821121D01*
X164937770Y-129820775D01*
X164943608Y-129820500D01*
X166994495Y-129820500D01*
X167010505Y-129822267D01*
X167010528Y-129822026D01*
X167018289Y-129822758D01*
X167018296Y-129822760D01*
X167090203Y-129820500D01*
X167120925Y-129820500D01*
X167128190Y-129819581D01*
X167134016Y-129819122D01*
X167182569Y-129817597D01*
X167202956Y-129811673D01*
X167221996Y-129807731D01*
X167243058Y-129805071D01*
X167288235Y-129787183D01*
X167293735Y-129785300D01*
X167340398Y-129771744D01*
X167358665Y-129760939D01*
X167376136Y-129752380D01*
X167395871Y-129744568D01*
X167435177Y-129716010D01*
X167440043Y-129712813D01*
X167481865Y-129688081D01*
X167496870Y-129673075D01*
X167511668Y-129660436D01*
X167512048Y-129660160D01*
X167528837Y-129647963D01*
X167559809Y-129610522D01*
X167563723Y-129606221D01*
X167709513Y-129460431D01*
X167722079Y-129450365D01*
X167721925Y-129450178D01*
X167727937Y-129445204D01*
X167727937Y-129445203D01*
X167727940Y-129445202D01*
X167777190Y-129392755D01*
X167798911Y-129371035D01*
X167803401Y-129365245D01*
X167807183Y-129360815D01*
X167840448Y-129325393D01*
X167850674Y-129306790D01*
X167861353Y-129290533D01*
X167874362Y-129273764D01*
X167893663Y-129229159D01*
X167896207Y-129223965D01*
X167919627Y-129181368D01*
X167922417Y-129170500D01*
X167924906Y-129160807D01*
X167931208Y-129142398D01*
X167939635Y-129122926D01*
X167947232Y-129074956D01*
X167948417Y-129069235D01*
X167950478Y-129061208D01*
X167960500Y-129022177D01*
X167960500Y-129000948D01*
X167962027Y-128981548D01*
X167964983Y-128962890D01*
X167965346Y-128960595D01*
X167966567Y-128952887D01*
X167969262Y-128953314D01*
X167986940Y-128899369D01*
X168007922Y-128875902D01*
X168022943Y-128862887D01*
X168117097Y-128754226D01*
X168163217Y-128682460D01*
X168216021Y-128636706D01*
X168267533Y-128625500D01*
X168886242Y-128625500D01*
X168953281Y-128645185D01*
X168999035Y-128697986D01*
X169009633Y-128721192D01*
X169015095Y-128733153D01*
X169015105Y-128733171D01*
X169092896Y-128854216D01*
X169092911Y-128854237D01*
X169157618Y-128928912D01*
X169187057Y-128962887D01*
X169187060Y-128962890D01*
X169295830Y-129057139D01*
X169347741Y-129090500D01*
X169416778Y-129134868D01*
X169416780Y-129134868D01*
X169416784Y-129134871D01*
X169547700Y-129194658D01*
X169685655Y-129235165D01*
X169828111Y-129255647D01*
X169828114Y-129255647D01*
X170400000Y-129255647D01*
X170471961Y-129250500D01*
X170471963Y-129250499D01*
X170471965Y-129250499D01*
X170610050Y-129209954D01*
X170610050Y-129209953D01*
X170610053Y-129209953D01*
X170731128Y-129132143D01*
X170825377Y-129023373D01*
X170885165Y-128892457D01*
X170905647Y-128750000D01*
X170905647Y-128285763D01*
X170905647Y-127252180D01*
X170925332Y-127185141D01*
X170944764Y-127161787D01*
X170948827Y-127157969D01*
X170948837Y-127157963D01*
X170979809Y-127120522D01*
X170983723Y-127116221D01*
X171339513Y-126760431D01*
X171352079Y-126750365D01*
X171351925Y-126750178D01*
X171357937Y-126745204D01*
X171357937Y-126745203D01*
X171357940Y-126745202D01*
X171407190Y-126692755D01*
X171428911Y-126671035D01*
X171433401Y-126665245D01*
X171437183Y-126660815D01*
X171470448Y-126625393D01*
X171480674Y-126606790D01*
X171491353Y-126590533D01*
X171504362Y-126573764D01*
X171523663Y-126529159D01*
X171526207Y-126523965D01*
X171549627Y-126481368D01*
X171554907Y-126460802D01*
X171561209Y-126442395D01*
X171569635Y-126422926D01*
X171577235Y-126374932D01*
X171578414Y-126369245D01*
X171585883Y-126340157D01*
X171621620Y-126280124D01*
X171624721Y-126277341D01*
X171652943Y-126252887D01*
X171719768Y-126175766D01*
X171747088Y-126144237D01*
X171747090Y-126144233D01*
X171747097Y-126144226D01*
X171824904Y-126023155D01*
X171824907Y-126023147D01*
X171824910Y-126023143D01*
X171867615Y-125929632D01*
X171884632Y-125892370D01*
X171884632Y-125892369D01*
X171884632Y-125892367D01*
X171884814Y-125891970D01*
X171885250Y-125890262D01*
X171925180Y-125754277D01*
X171945642Y-125611962D01*
X171945642Y-125555603D01*
X171945647Y-125555585D01*
X171945647Y-125303246D01*
X174690136Y-125303246D01*
X174710596Y-125445560D01*
X174710597Y-125445565D01*
X174770323Y-125576343D01*
X174770324Y-125576345D01*
X174804643Y-125618932D01*
X176147359Y-125618932D01*
X176147359Y-124775429D01*
X176647359Y-124775429D01*
X176647359Y-125618932D01*
X177490861Y-125618932D01*
X177490861Y-125618931D01*
X176647359Y-124775429D01*
X176147359Y-124775429D01*
X176147359Y-124276215D01*
X176104771Y-124241896D01*
X175973992Y-124182170D01*
X175973987Y-124182169D01*
X175926062Y-124175279D01*
X175862506Y-124146254D01*
X175824732Y-124087476D01*
X175824732Y-124017606D01*
X175838171Y-123987443D01*
X175911544Y-123868488D01*
X175911547Y-123868481D01*
X175964855Y-123707606D01*
X175974999Y-123608322D01*
X175975000Y-123608309D01*
X175975000Y-123585000D01*
X175250000Y-123585000D01*
X175250000Y-124284999D01*
X175267851Y-124302850D01*
X175274096Y-124304684D01*
X175319851Y-124357488D01*
X175329795Y-124426646D01*
X175300770Y-124490202D01*
X175294738Y-124496680D01*
X174807908Y-124983509D01*
X174807902Y-124983516D01*
X174770324Y-125030147D01*
X174770323Y-125030149D01*
X174710597Y-125160927D01*
X174710596Y-125160932D01*
X174690136Y-125303246D01*
X171945647Y-125303246D01*
X171945647Y-125024443D01*
X171945642Y-125024397D01*
X171945642Y-124968039D01*
X171945642Y-124968038D01*
X171927991Y-124845271D01*
X171925180Y-124825720D01*
X171884632Y-124687631D01*
X171884627Y-124687618D01*
X171824910Y-124556856D01*
X171824897Y-124556833D01*
X171747103Y-124435783D01*
X171747098Y-124435776D01*
X171747097Y-124435774D01*
X171747087Y-124435762D01*
X171747085Y-124435759D01*
X171747080Y-124435753D01*
X171747078Y-124435750D01*
X171744440Y-124432225D01*
X171745207Y-124431650D01*
X171718061Y-124372195D01*
X171728012Y-124303037D01*
X171753120Y-124266878D01*
X171785000Y-124234998D01*
X171785000Y-122624000D01*
X171804685Y-122556961D01*
X171857489Y-122511206D01*
X171909000Y-122500000D01*
X172161000Y-122500000D01*
X172228039Y-122519685D01*
X172273794Y-122572489D01*
X172285000Y-122624000D01*
X172285000Y-124235000D01*
X172335434Y-124235000D01*
X172359914Y-124232060D01*
X172428822Y-124243610D01*
X172480547Y-124290581D01*
X172498666Y-124358061D01*
X172497921Y-124369056D01*
X172494435Y-124400001D01*
X172494435Y-124400003D01*
X172514630Y-124579249D01*
X172514631Y-124579254D01*
X172574211Y-124749523D01*
X172622091Y-124825723D01*
X172670184Y-124902262D01*
X172797738Y-125029816D01*
X172880206Y-125081634D01*
X172940093Y-125119264D01*
X172950478Y-125125789D01*
X173032901Y-125154630D01*
X173120745Y-125185368D01*
X173120750Y-125185369D01*
X173299996Y-125205565D01*
X173300000Y-125205565D01*
X173300004Y-125205565D01*
X173479249Y-125185369D01*
X173479252Y-125185368D01*
X173479255Y-125185368D01*
X173649522Y-125125789D01*
X173802262Y-125029816D01*
X173929816Y-124902262D01*
X174025789Y-124749522D01*
X174085368Y-124579255D01*
X174085827Y-124575184D01*
X174105565Y-124400003D01*
X174105565Y-124399997D01*
X174086942Y-124234713D01*
X174098996Y-124165891D01*
X174146346Y-124114511D01*
X174213956Y-124096887D01*
X174280362Y-124118614D01*
X174294883Y-124130687D01*
X174297271Y-124132575D01*
X174441507Y-124221542D01*
X174441518Y-124221547D01*
X174602393Y-124274855D01*
X174701683Y-124284999D01*
X174749999Y-124284998D01*
X174750000Y-124284998D01*
X174750000Y-123209000D01*
X174769685Y-123141961D01*
X174822489Y-123096206D01*
X174874000Y-123085000D01*
X175974999Y-123085000D01*
X175974999Y-123061692D01*
X175974998Y-123061677D01*
X175964855Y-122962392D01*
X175911547Y-122801518D01*
X175911542Y-122801507D01*
X175822575Y-122657271D01*
X175822572Y-122657267D01*
X175813339Y-122648034D01*
X175779854Y-122586711D01*
X175784838Y-122517019D01*
X175813343Y-122472668D01*
X175822968Y-122463044D01*
X175912003Y-122318697D01*
X175965349Y-122157708D01*
X175975500Y-122058345D01*
X175975499Y-121511656D01*
X175974504Y-121501919D01*
X175965349Y-121412292D01*
X175965348Y-121412289D01*
X175958083Y-121390365D01*
X175912003Y-121251303D01*
X175911999Y-121251297D01*
X175911998Y-121251294D01*
X175822970Y-121106959D01*
X175822967Y-121106955D01*
X175703044Y-120987032D01*
X175703040Y-120987029D01*
X175558705Y-120898001D01*
X175558699Y-120897998D01*
X175558697Y-120897997D01*
X175558694Y-120897996D01*
X175397709Y-120844651D01*
X175298346Y-120834500D01*
X174701662Y-120834500D01*
X174701644Y-120834501D01*
X174602292Y-120844650D01*
X174602289Y-120844651D01*
X174441305Y-120897996D01*
X174441294Y-120898001D01*
X174296959Y-120987029D01*
X174296955Y-120987032D01*
X174185807Y-121098181D01*
X174124484Y-121131666D01*
X174098126Y-121134500D01*
X173675500Y-121134500D01*
X173608461Y-121114815D01*
X173562706Y-121062011D01*
X173551500Y-121010500D01*
X173551499Y-119401980D01*
X173571184Y-119334941D01*
X173623987Y-119289186D01*
X173660706Y-119278866D01*
X173692652Y-119275030D01*
X173831384Y-119220321D01*
X173950212Y-119130212D01*
X174040321Y-119011384D01*
X174095030Y-118872652D01*
X174105500Y-118785468D01*
X174105500Y-118724500D01*
X174125185Y-118657461D01*
X174177989Y-118611706D01*
X174229500Y-118600500D01*
X174652060Y-118600500D01*
X174719099Y-118620185D01*
X174739741Y-118636819D01*
X174898181Y-118795259D01*
X174931666Y-118856582D01*
X174934500Y-118882940D01*
X174934500Y-119947870D01*
X174934501Y-119947876D01*
X174940908Y-120007483D01*
X174991202Y-120142328D01*
X174991206Y-120142335D01*
X175077452Y-120257544D01*
X175077455Y-120257547D01*
X175192664Y-120343793D01*
X175192671Y-120343797D01*
X175327517Y-120394091D01*
X175327516Y-120394091D01*
X175334444Y-120394835D01*
X175387127Y-120400500D01*
X177182872Y-120400499D01*
X177242483Y-120394091D01*
X177377331Y-120343796D01*
X177492546Y-120257546D01*
X177578796Y-120142331D01*
X177627810Y-120010916D01*
X177669681Y-119954984D01*
X177735145Y-119930566D01*
X177803418Y-119945417D01*
X177831673Y-119966569D01*
X177953599Y-120088495D01*
X178050384Y-120156265D01*
X178147165Y-120224032D01*
X178147167Y-120224033D01*
X178147170Y-120224035D01*
X178361337Y-120323903D01*
X178589592Y-120385063D01*
X178766034Y-120400500D01*
X178824999Y-120405659D01*
X178825000Y-120405659D01*
X178825001Y-120405659D01*
X178883966Y-120400500D01*
X179060408Y-120385063D01*
X179288663Y-120323903D01*
X179502830Y-120224035D01*
X179574378Y-120173936D01*
X179640582Y-120151610D01*
X179708349Y-120168620D01*
X179756163Y-120219568D01*
X179769500Y-120275512D01*
X179769500Y-124519191D01*
X179749815Y-124586230D01*
X179733181Y-124606872D01*
X179423658Y-124916394D01*
X179362335Y-124949879D01*
X179292643Y-124944895D01*
X179236710Y-124903023D01*
X179232883Y-124897614D01*
X179208232Y-124860721D01*
X177405571Y-123058060D01*
X177343628Y-123016672D01*
X177245888Y-122997229D01*
X177148146Y-123016672D01*
X177086202Y-123058061D01*
X176414915Y-123729348D01*
X176373526Y-123791292D01*
X176369317Y-123812454D01*
X176354083Y-123889034D01*
X176373526Y-123986774D01*
X176414914Y-124048717D01*
X178217575Y-125851378D01*
X178254456Y-125876021D01*
X178299261Y-125929632D01*
X178307969Y-125998957D01*
X178277815Y-126061985D01*
X178273248Y-126066804D01*
X178190792Y-126149261D01*
X178129469Y-126182746D01*
X178059777Y-126177762D01*
X178006559Y-126139387D01*
X177990075Y-126118932D01*
X176647359Y-126118932D01*
X176647359Y-127461647D01*
X176667814Y-127478132D01*
X176707662Y-127535525D01*
X176710155Y-127605350D01*
X176677689Y-127662364D01*
X176595233Y-127744821D01*
X176533910Y-127778306D01*
X176464218Y-127773322D01*
X176408284Y-127731451D01*
X176404449Y-127726031D01*
X176379805Y-127689148D01*
X174809589Y-126118932D01*
X175303856Y-126118932D01*
X176147358Y-126962434D01*
X176147359Y-126962433D01*
X176147359Y-126118932D01*
X175303856Y-126118932D01*
X174809589Y-126118932D01*
X174577145Y-125886488D01*
X174561478Y-125876020D01*
X174515201Y-125845099D01*
X174417461Y-125825656D01*
X174319719Y-125845099D01*
X174257775Y-125886488D01*
X173586488Y-126557775D01*
X173545099Y-126619719D01*
X173526555Y-126712944D01*
X173525656Y-126717461D01*
X173545099Y-126815201D01*
X173586487Y-126877144D01*
X175389148Y-128679805D01*
X175451091Y-128721193D01*
X175476807Y-128726308D01*
X175538717Y-128758691D01*
X175540298Y-128760244D01*
X175619564Y-128839510D01*
X175629635Y-128852080D01*
X175629822Y-128851926D01*
X175634796Y-128857937D01*
X175634798Y-128857940D01*
X175654254Y-128876210D01*
X175687243Y-128907190D01*
X175708966Y-128928912D01*
X175714758Y-128933405D01*
X175719198Y-128937198D01*
X175735260Y-128952280D01*
X175754607Y-128970448D01*
X175773198Y-128980668D01*
X175789463Y-128991352D01*
X175806234Y-129004361D01*
X175806237Y-129004363D01*
X175850827Y-129023658D01*
X175856056Y-129026220D01*
X175898632Y-129049627D01*
X175919193Y-129054905D01*
X175937597Y-129061207D01*
X175957074Y-129069636D01*
X175991392Y-129075071D01*
X176005054Y-129077235D01*
X176010764Y-129078417D01*
X176057823Y-129090500D01*
X176079045Y-129090500D01*
X176098442Y-129092026D01*
X176119405Y-129095347D01*
X176167772Y-129090774D01*
X176173609Y-129090500D01*
X176734495Y-129090500D01*
X176750505Y-129092267D01*
X176750528Y-129092026D01*
X176758289Y-129092758D01*
X176758296Y-129092760D01*
X176830203Y-129090500D01*
X176860925Y-129090500D01*
X176868190Y-129089581D01*
X176874016Y-129089122D01*
X176922569Y-129087597D01*
X176942956Y-129081673D01*
X176961996Y-129077731D01*
X176983058Y-129075071D01*
X177028235Y-129057183D01*
X177033735Y-129055300D01*
X177080398Y-129041744D01*
X177098665Y-129030939D01*
X177116136Y-129022380D01*
X177135871Y-129014568D01*
X177175177Y-128986010D01*
X177180043Y-128982813D01*
X177221865Y-128958081D01*
X177236870Y-128943075D01*
X177251668Y-128930436D01*
X177253766Y-128928912D01*
X177268837Y-128917963D01*
X177299809Y-128880522D01*
X177303723Y-128876221D01*
X180593854Y-125586089D01*
X181328225Y-125586089D01*
X181347265Y-125742907D01*
X181397749Y-125876020D01*
X181403283Y-125890612D01*
X181493020Y-126020619D01*
X181611263Y-126125372D01*
X181611265Y-126125373D01*
X181751137Y-126198785D01*
X181904517Y-126236589D01*
X181904518Y-126236589D01*
X182062488Y-126236589D01*
X182215868Y-126198785D01*
X182259726Y-126175766D01*
X182355743Y-126125372D01*
X182473986Y-126020619D01*
X182563723Y-125890612D01*
X182619740Y-125742907D01*
X182638781Y-125586089D01*
X182621719Y-125445565D01*
X182619740Y-125429270D01*
X182567960Y-125292739D01*
X182563723Y-125281566D01*
X182473986Y-125151559D01*
X182355743Y-125046806D01*
X182355741Y-125046805D01*
X182355740Y-125046804D01*
X182215868Y-124973392D01*
X182062489Y-124935589D01*
X182062488Y-124935589D01*
X181904518Y-124935589D01*
X181904517Y-124935589D01*
X181751137Y-124973392D01*
X181611265Y-125046804D01*
X181493019Y-125151560D01*
X181403284Y-125281564D01*
X181403283Y-125281565D01*
X181347265Y-125429270D01*
X181328225Y-125586088D01*
X181328225Y-125586089D01*
X180593854Y-125586089D01*
X180819511Y-125360432D01*
X180832086Y-125350359D01*
X180831931Y-125350172D01*
X180837933Y-125345205D01*
X180837940Y-125345202D01*
X180887205Y-125292739D01*
X180908911Y-125271034D01*
X180913403Y-125265241D01*
X180917193Y-125260805D01*
X180950448Y-125225393D01*
X180960670Y-125206796D01*
X180971355Y-125190531D01*
X180984363Y-125173763D01*
X181003652Y-125129187D01*
X181006224Y-125123936D01*
X181006561Y-125123321D01*
X181029627Y-125081368D01*
X181034904Y-125060808D01*
X181041206Y-125042403D01*
X181049636Y-125022926D01*
X181057235Y-124974945D01*
X181058417Y-124969234D01*
X181070500Y-124922177D01*
X181070500Y-124900955D01*
X181072027Y-124881555D01*
X181075347Y-124860595D01*
X181070775Y-124812230D01*
X181070500Y-124806392D01*
X181070500Y-122549050D01*
X181090185Y-122482011D01*
X181142989Y-122436256D01*
X181212147Y-122426312D01*
X181275703Y-122455337D01*
X181282181Y-122461369D01*
X181318917Y-122498105D01*
X181512421Y-122633600D01*
X181726507Y-122733429D01*
X181726516Y-122733433D01*
X181940000Y-122790634D01*
X181940000Y-121895501D01*
X182047685Y-121944680D01*
X182154237Y-121960000D01*
X182225763Y-121960000D01*
X182332315Y-121944680D01*
X182440000Y-121895501D01*
X182440000Y-122790633D01*
X182653483Y-122733433D01*
X182653492Y-122733429D01*
X182867578Y-122633600D01*
X183061082Y-122498105D01*
X183228105Y-122331082D01*
X183363600Y-122137578D01*
X183463429Y-121923492D01*
X183463432Y-121923486D01*
X183520636Y-121710000D01*
X182623686Y-121710000D01*
X182649493Y-121669844D01*
X182690000Y-121531889D01*
X182690000Y-121388111D01*
X182649493Y-121250156D01*
X182623686Y-121210000D01*
X183520636Y-121210000D01*
X183520635Y-121209999D01*
X183463432Y-120996513D01*
X183463429Y-120996507D01*
X183363600Y-120782422D01*
X183363599Y-120782420D01*
X183228113Y-120588926D01*
X183228108Y-120588920D01*
X183106053Y-120466865D01*
X183072568Y-120405542D01*
X183077552Y-120335850D01*
X183119424Y-120279917D01*
X183150400Y-120263002D01*
X183254879Y-120224035D01*
X183282326Y-120213798D01*
X183282326Y-120213797D01*
X183282331Y-120213796D01*
X183397546Y-120127546D01*
X183483796Y-120012331D01*
X183534091Y-119877483D01*
X183540500Y-119817873D01*
X183540499Y-118022128D01*
X183534091Y-117962517D01*
X183533298Y-117960392D01*
X183483797Y-117827671D01*
X183483793Y-117827664D01*
X183397547Y-117712455D01*
X183397544Y-117712452D01*
X183282335Y-117626206D01*
X183282328Y-117626202D01*
X183147482Y-117575908D01*
X183147483Y-117575908D01*
X183087883Y-117569501D01*
X183087881Y-117569500D01*
X183087873Y-117569500D01*
X183087864Y-117569500D01*
X181292129Y-117569500D01*
X181292123Y-117569501D01*
X181232512Y-117575909D01*
X181224969Y-117577692D01*
X181224307Y-117574893D01*
X181168139Y-117578910D01*
X181106816Y-117545423D01*
X181073333Y-117484099D01*
X181070500Y-117457744D01*
X181070500Y-116343338D01*
X181090185Y-116276299D01*
X181106815Y-116255661D01*
X181296566Y-116065910D01*
X181360738Y-115987137D01*
X181438164Y-115832967D01*
X181438290Y-115832438D01*
X181477950Y-115665100D01*
X181477950Y-115492577D01*
X181440813Y-115335887D01*
X181444506Y-115266115D01*
X181485334Y-115209416D01*
X181550336Y-115183791D01*
X181618872Y-115197376D01*
X181648895Y-115219353D01*
X183553741Y-117113107D01*
X183563643Y-117124527D01*
X183564642Y-117125469D01*
X183564643Y-117125470D01*
X183594378Y-117153507D01*
X183595926Y-117155046D01*
X183598472Y-117157651D01*
X183671707Y-117238951D01*
X183683958Y-117255008D01*
X183738919Y-117340718D01*
X183748400Y-117358552D01*
X183788716Y-117452043D01*
X183795177Y-117471180D01*
X183819781Y-117569982D01*
X183823049Y-117589912D01*
X183828480Y-117656798D01*
X183831020Y-117688094D01*
X183831892Y-117698827D01*
X183832095Y-117703880D01*
X183823869Y-132919412D01*
X183823861Y-132919504D01*
X183823841Y-132970550D01*
X183823540Y-132976625D01*
X183810604Y-133107531D01*
X183805859Y-133131355D01*
X183770309Y-133248467D01*
X183761010Y-133270908D01*
X183703313Y-133378837D01*
X183689818Y-133399034D01*
X183612182Y-133493651D01*
X183595010Y-133510828D01*
X183550363Y-133547486D01*
X183500421Y-133588490D01*
X183480228Y-133601990D01*
X183372314Y-133659721D01*
X183349875Y-133669027D01*
X183232774Y-133704611D01*
X183208953Y-133709363D01*
X183077930Y-133722351D01*
X183071855Y-133722654D01*
X183021436Y-133722689D01*
X183021344Y-133722697D01*
X140408171Y-133759042D01*
X140402086Y-133758748D01*
X140400647Y-133758607D01*
X140270968Y-133745938D01*
X140247118Y-133741212D01*
X140129799Y-133705711D01*
X140107325Y-133696419D01*
X139999192Y-133638704D01*
X139978962Y-133625202D01*
X139884171Y-133547486D01*
X139866967Y-133530297D01*
X139789174Y-133435582D01*
X139775655Y-133415365D01*
X139717844Y-133307284D01*
X139708531Y-133284817D01*
X139672927Y-133167527D01*
X139668179Y-133143675D01*
X139655282Y-133012862D01*
X139654983Y-133006775D01*
X139654983Y-130125000D01*
X151525001Y-130125000D01*
X151525001Y-130148322D01*
X151535144Y-130247607D01*
X151588452Y-130408481D01*
X151588457Y-130408492D01*
X151677424Y-130552728D01*
X151677427Y-130552732D01*
X151797267Y-130672572D01*
X151797271Y-130672575D01*
X151941507Y-130761542D01*
X151941518Y-130761547D01*
X152102393Y-130814855D01*
X152201683Y-130824999D01*
X152249999Y-130824998D01*
X152250000Y-130824998D01*
X152250000Y-130125000D01*
X152750000Y-130125000D01*
X152750000Y-130824999D01*
X152798308Y-130824999D01*
X152798322Y-130824998D01*
X152897607Y-130814855D01*
X153058481Y-130761547D01*
X153058492Y-130761542D01*
X153202728Y-130672575D01*
X153202732Y-130672572D01*
X153322572Y-130552732D01*
X153322575Y-130552728D01*
X153411542Y-130408492D01*
X153411547Y-130408481D01*
X153464855Y-130247606D01*
X153474999Y-130148322D01*
X153475000Y-130148309D01*
X153475000Y-130125000D01*
X152750000Y-130125000D01*
X152250000Y-130125000D01*
X151525001Y-130125000D01*
X139654983Y-130125000D01*
X139654983Y-130040862D01*
X176873452Y-130040862D01*
X176892492Y-130197680D01*
X176948510Y-130345385D01*
X177038247Y-130475392D01*
X177156490Y-130580145D01*
X177156492Y-130580146D01*
X177296364Y-130653558D01*
X177449744Y-130691362D01*
X177449745Y-130691362D01*
X177607715Y-130691362D01*
X177761095Y-130653558D01*
X177900970Y-130580145D01*
X178019213Y-130475392D01*
X178108950Y-130345385D01*
X178164967Y-130197680D01*
X178184008Y-130040862D01*
X178164967Y-129884044D01*
X178108950Y-129736339D01*
X178019213Y-129606332D01*
X177900970Y-129501579D01*
X177900968Y-129501578D01*
X177900967Y-129501577D01*
X177761095Y-129428165D01*
X177607716Y-129390362D01*
X177607715Y-129390362D01*
X177449745Y-129390362D01*
X177449744Y-129390362D01*
X177296364Y-129428165D01*
X177156492Y-129501577D01*
X177113051Y-129540062D01*
X177043502Y-129601677D01*
X177038246Y-129606333D01*
X176948511Y-129736337D01*
X176948510Y-129736338D01*
X176892492Y-129884043D01*
X176873452Y-130040861D01*
X176873452Y-130040862D01*
X139654983Y-130040862D01*
X139654983Y-126900292D01*
X147623552Y-126900292D01*
X147642592Y-127057110D01*
X147686351Y-127172491D01*
X147698610Y-127204815D01*
X147788347Y-127334822D01*
X147906590Y-127439575D01*
X147918690Y-127445925D01*
X148046464Y-127512988D01*
X148199844Y-127550792D01*
X148199845Y-127550792D01*
X148357815Y-127550792D01*
X148511195Y-127512988D01*
X148557218Y-127488833D01*
X148651070Y-127439575D01*
X148769313Y-127334822D01*
X148859050Y-127204815D01*
X148915067Y-127057110D01*
X148934108Y-126900292D01*
X148931298Y-126877145D01*
X148915067Y-126743473D01*
X148887595Y-126671037D01*
X148859050Y-126595769D01*
X148769313Y-126465762D01*
X148651070Y-126361009D01*
X148651068Y-126361008D01*
X148651067Y-126361007D01*
X148511195Y-126287595D01*
X148357816Y-126249792D01*
X148357815Y-126249792D01*
X148199845Y-126249792D01*
X148199844Y-126249792D01*
X148046464Y-126287595D01*
X147906592Y-126361007D01*
X147788346Y-126465763D01*
X147698611Y-126595767D01*
X147698610Y-126595768D01*
X147642592Y-126743473D01*
X147623552Y-126900291D01*
X147623552Y-126900292D01*
X139654983Y-126900292D01*
X139654983Y-122445519D01*
X143168779Y-122445519D01*
X143187819Y-122602337D01*
X143238322Y-122735500D01*
X143243837Y-122750042D01*
X143333574Y-122880049D01*
X143451817Y-122984802D01*
X143451819Y-122984803D01*
X143591691Y-123058215D01*
X143745071Y-123096019D01*
X143745072Y-123096019D01*
X143903042Y-123096019D01*
X144056422Y-123058215D01*
X144126623Y-123021370D01*
X144196297Y-122984802D01*
X144314540Y-122880049D01*
X144404277Y-122750042D01*
X144460294Y-122602337D01*
X144479335Y-122445519D01*
X144478119Y-122435500D01*
X144460294Y-122288700D01*
X144437842Y-122229500D01*
X144404277Y-122140996D01*
X144314540Y-122010989D01*
X144196297Y-121906236D01*
X144196295Y-121906235D01*
X144196294Y-121906234D01*
X144145992Y-121879833D01*
X146288764Y-121879833D01*
X146309224Y-122022147D01*
X146309225Y-122022152D01*
X146368951Y-122152930D01*
X146368952Y-122152932D01*
X146406530Y-122199563D01*
X146406536Y-122199570D01*
X147110564Y-122903598D01*
X147110571Y-122903604D01*
X147157202Y-122941182D01*
X147157204Y-122941183D01*
X147287982Y-123000909D01*
X147287987Y-123000910D01*
X147430301Y-123021370D01*
X147572615Y-123000910D01*
X147572620Y-123000909D01*
X147703398Y-122941183D01*
X147703400Y-122941182D01*
X147745987Y-122906863D01*
X147745987Y-121564148D01*
X148245987Y-121564148D01*
X148245987Y-122407650D01*
X149089489Y-121564148D01*
X148245987Y-121564148D01*
X147745987Y-121564148D01*
X146403271Y-121564148D01*
X146368952Y-121606734D01*
X146368951Y-121606736D01*
X146309225Y-121737514D01*
X146309224Y-121737519D01*
X146288764Y-121879833D01*
X144145992Y-121879833D01*
X144056422Y-121832822D01*
X143903043Y-121795019D01*
X143903042Y-121795019D01*
X143745072Y-121795019D01*
X143745071Y-121795019D01*
X143591691Y-121832822D01*
X143451819Y-121906234D01*
X143333573Y-122010990D01*
X143243838Y-122140994D01*
X143243837Y-122140995D01*
X143187819Y-122288700D01*
X143168779Y-122445518D01*
X143168779Y-122445519D01*
X139654983Y-122445519D01*
X139654983Y-117933905D01*
X139655260Y-117928049D01*
X139655421Y-117926356D01*
X139667226Y-117801853D01*
X139671620Y-117778881D01*
X139704618Y-117665634D01*
X139713250Y-117643899D01*
X139766940Y-117538864D01*
X139779498Y-117519143D01*
X139857510Y-117418943D01*
X139861311Y-117414511D01*
X139884335Y-117390094D01*
X139889468Y-117384651D01*
X139889468Y-117384650D01*
X139905730Y-117367405D01*
X139905735Y-117367396D01*
X142647681Y-114459421D01*
X142707994Y-114424150D01*
X142777802Y-114427086D01*
X142834942Y-114467296D01*
X142861271Y-114532015D01*
X142861900Y-114544490D01*
X142861900Y-115738291D01*
X142861901Y-115738300D01*
X142871191Y-115779008D01*
X142872355Y-115785863D01*
X142877032Y-115827359D01*
X142890820Y-115866762D01*
X142892745Y-115873445D01*
X142902039Y-115914161D01*
X142920159Y-115951788D01*
X142922821Y-115958214D01*
X142936612Y-115997625D01*
X142958822Y-116032972D01*
X142962187Y-116039059D01*
X142980310Y-116076689D01*
X143006340Y-116109329D01*
X143010366Y-116115004D01*
X143032582Y-116150359D01*
X143032584Y-116150362D01*
X143188601Y-116306379D01*
X143222086Y-116367702D01*
X143224920Y-116394060D01*
X143224920Y-116430920D01*
X143205235Y-116497959D01*
X143152431Y-116543714D01*
X143100920Y-116554920D01*
X142939744Y-116554920D01*
X142813842Y-116584759D01*
X142771874Y-116594706D01*
X142617700Y-116672135D01*
X142538943Y-116736292D01*
X142538925Y-116736308D01*
X142115841Y-117159394D01*
X142115822Y-117159415D01*
X142051667Y-117238168D01*
X142051663Y-117238174D01*
X141974236Y-117392344D01*
X141968984Y-117414503D01*
X141936197Y-117552846D01*
X141934450Y-117560216D01*
X141934450Y-117732735D01*
X141974234Y-117900599D01*
X142002896Y-117957669D01*
X142049721Y-118050908D01*
X142051663Y-118054773D01*
X142115820Y-118133531D01*
X142115829Y-118133542D01*
X142115832Y-118133545D01*
X142521255Y-118538966D01*
X142600028Y-118603138D01*
X142731819Y-118669325D01*
X142754200Y-118680565D01*
X142869922Y-118707991D01*
X142922066Y-118720350D01*
X142922067Y-118720350D01*
X142929240Y-118721189D01*
X142928910Y-118724011D01*
X142983479Y-118740035D01*
X143004121Y-118756669D01*
X143596868Y-119349416D01*
X143632226Y-119371633D01*
X143637900Y-119375660D01*
X143670541Y-119401690D01*
X143670544Y-119401692D01*
X143708168Y-119419810D01*
X143714253Y-119423174D01*
X143749608Y-119445389D01*
X143789029Y-119459183D01*
X143795437Y-119461838D01*
X143833069Y-119479960D01*
X143873771Y-119489250D01*
X143880458Y-119491176D01*
X143906439Y-119500266D01*
X143919875Y-119504968D01*
X143927104Y-119505782D01*
X143991518Y-119532846D01*
X144000906Y-119541322D01*
X144069094Y-119609510D01*
X144079165Y-119622080D01*
X144079352Y-119621926D01*
X144084326Y-119627937D01*
X144084328Y-119627940D01*
X144112875Y-119654748D01*
X144136773Y-119677190D01*
X144158497Y-119698913D01*
X144164287Y-119703405D01*
X144168727Y-119707197D01*
X144190700Y-119727830D01*
X144204137Y-119740448D01*
X144204139Y-119740449D01*
X144222735Y-119750672D01*
X144239000Y-119761357D01*
X144255762Y-119774360D01*
X144255765Y-119774361D01*
X144255766Y-119774362D01*
X144300353Y-119793656D01*
X144305589Y-119796221D01*
X144348162Y-119819627D01*
X144363870Y-119823659D01*
X144368716Y-119824904D01*
X144387128Y-119831207D01*
X144406603Y-119839635D01*
X144454601Y-119847237D01*
X144460270Y-119848411D01*
X144507353Y-119860500D01*
X144528581Y-119860500D01*
X144547978Y-119862026D01*
X144568933Y-119865345D01*
X144568934Y-119865346D01*
X144568934Y-119865345D01*
X144568935Y-119865346D01*
X144617291Y-119860775D01*
X144623129Y-119860500D01*
X145331189Y-119860500D01*
X145398228Y-119880185D01*
X145443983Y-119932989D01*
X145453927Y-120002147D01*
X145424902Y-120065703D01*
X145418870Y-120072181D01*
X145185116Y-120305934D01*
X145185115Y-120305935D01*
X145143726Y-120367879D01*
X145128175Y-120446057D01*
X145124283Y-120465620D01*
X145143726Y-120563361D01*
X145185114Y-120625304D01*
X145856404Y-121296594D01*
X145918347Y-121337982D01*
X145996644Y-121353557D01*
X146016087Y-121357425D01*
X146016087Y-121357424D01*
X146016088Y-121357425D01*
X146113828Y-121337982D01*
X146175771Y-121296594D01*
X146408218Y-121064147D01*
X146902484Y-121064147D01*
X146902485Y-121064148D01*
X147745987Y-121064148D01*
X148245987Y-121064148D01*
X149588703Y-121064148D01*
X149623021Y-121021561D01*
X149623022Y-121021559D01*
X149682748Y-120890781D01*
X149682749Y-120890776D01*
X149703209Y-120748462D01*
X149682749Y-120606148D01*
X149682748Y-120606143D01*
X149623022Y-120475365D01*
X149623021Y-120475363D01*
X149585443Y-120428732D01*
X149585437Y-120428725D01*
X148881409Y-119724697D01*
X148881402Y-119724691D01*
X148834771Y-119687113D01*
X148834769Y-119687112D01*
X148703991Y-119627386D01*
X148703986Y-119627385D01*
X148561672Y-119606925D01*
X148419358Y-119627385D01*
X148419353Y-119627386D01*
X148288574Y-119687112D01*
X148245987Y-119721431D01*
X148245987Y-121064148D01*
X147745987Y-121064148D01*
X147745987Y-120220646D01*
X147745986Y-120220645D01*
X146902484Y-121064147D01*
X146408218Y-121064147D01*
X147978432Y-119493933D01*
X148019820Y-119431990D01*
X148039263Y-119334250D01*
X148019820Y-119236509D01*
X147978432Y-119174566D01*
X147307142Y-118503276D01*
X147245199Y-118461888D01*
X147147458Y-118442445D01*
X147049717Y-118461888D01*
X146987773Y-118503277D01*
X146731759Y-118759291D01*
X146670436Y-118792776D01*
X146600744Y-118787792D01*
X146559194Y-118762002D01*
X146538756Y-118742810D01*
X146517035Y-118721089D01*
X146511240Y-118716594D01*
X146506798Y-118712799D01*
X146471396Y-118679554D01*
X146471388Y-118679548D01*
X146452792Y-118669325D01*
X146436531Y-118658644D01*
X146419763Y-118645637D01*
X146396295Y-118635482D01*
X146375178Y-118626343D01*
X146369956Y-118623786D01*
X146327368Y-118600373D01*
X146327365Y-118600372D01*
X146306801Y-118595092D01*
X146288396Y-118588790D01*
X146268927Y-118580365D01*
X146268921Y-118580363D01*
X146220951Y-118572766D01*
X146215236Y-118571582D01*
X146198772Y-118567355D01*
X146168180Y-118559500D01*
X146168177Y-118559500D01*
X146146955Y-118559500D01*
X146127555Y-118557973D01*
X146106596Y-118554653D01*
X146106595Y-118554653D01*
X146082786Y-118556903D01*
X146058230Y-118559225D01*
X146052392Y-118559500D01*
X144982562Y-118559500D01*
X144915523Y-118539815D01*
X144869768Y-118487011D01*
X144861671Y-118463093D01*
X144859490Y-118453537D01*
X144841368Y-118415907D01*
X144838713Y-118409499D01*
X144824919Y-118370078D01*
X144812336Y-118350053D01*
X144802704Y-118334723D01*
X144799338Y-118328633D01*
X144787619Y-118304298D01*
X144781222Y-118291014D01*
X144781220Y-118291011D01*
X144755190Y-118258370D01*
X144751163Y-118252696D01*
X144728946Y-118217338D01*
X144153169Y-117641561D01*
X144119684Y-117580238D01*
X144124668Y-117510546D01*
X144166540Y-117454613D01*
X144232004Y-117430196D01*
X144240850Y-117429880D01*
X144260740Y-117429880D01*
X144327779Y-117449565D01*
X144348421Y-117466199D01*
X144758438Y-117876216D01*
X144793796Y-117898433D01*
X144799470Y-117902460D01*
X144832111Y-117928490D01*
X144832114Y-117928492D01*
X144869738Y-117946610D01*
X144875823Y-117949974D01*
X144895783Y-117962516D01*
X144911178Y-117972189D01*
X144950599Y-117985983D01*
X144957007Y-117988638D01*
X144994639Y-118006760D01*
X145035341Y-118016050D01*
X145042028Y-118017976D01*
X145081442Y-118031767D01*
X145081445Y-118031768D01*
X145122941Y-118036443D01*
X145129793Y-118037607D01*
X145170506Y-118046900D01*
X145170508Y-118046900D01*
X147393596Y-118046900D01*
X147412031Y-118045449D01*
X147430469Y-118043998D01*
X147430471Y-118043997D01*
X147430473Y-118043997D01*
X147472568Y-118031767D01*
X147588298Y-117998144D01*
X147729765Y-117914481D01*
X147780742Y-117863504D01*
X147851498Y-117792749D01*
X147853313Y-117794564D01*
X147899799Y-117760982D01*
X147969565Y-117757182D01*
X148028835Y-117790202D01*
X148129109Y-117890476D01*
X148129115Y-117890481D01*
X148272302Y-117980452D01*
X148272305Y-117980454D01*
X148272309Y-117980455D01*
X148272310Y-117980456D01*
X148292804Y-117987627D01*
X148431943Y-118036314D01*
X148599997Y-118055249D01*
X148600000Y-118055249D01*
X148600003Y-118055249D01*
X148768056Y-118036314D01*
X148781051Y-118031767D01*
X148927690Y-117980456D01*
X148927692Y-117980454D01*
X148927694Y-117980454D01*
X148927697Y-117980452D01*
X149070884Y-117890481D01*
X149070885Y-117890480D01*
X149070890Y-117890477D01*
X149190477Y-117770890D01*
X149196703Y-117760982D01*
X149280452Y-117627697D01*
X149280454Y-117627694D01*
X149280454Y-117627692D01*
X149280456Y-117627690D01*
X149336313Y-117468059D01*
X149336313Y-117468058D01*
X149336314Y-117468056D01*
X149355249Y-117300002D01*
X149355249Y-117299997D01*
X149342893Y-117190337D01*
X149354947Y-117121515D01*
X149402296Y-117070135D01*
X149431517Y-117057377D01*
X149463298Y-117048144D01*
X149604765Y-116964481D01*
X149720981Y-116848265D01*
X149804644Y-116706798D01*
X149850498Y-116548969D01*
X149853400Y-116512094D01*
X149853400Y-116080706D01*
X149853376Y-116080406D01*
X149850498Y-116043832D01*
X149850497Y-116043829D01*
X149849111Y-116039059D01*
X149837223Y-115998138D01*
X149837422Y-115928271D01*
X149875363Y-115869601D01*
X149939001Y-115840756D01*
X149942416Y-115840324D01*
X150075146Y-115825369D01*
X150075149Y-115825368D01*
X150075152Y-115825368D01*
X150245419Y-115765789D01*
X150398159Y-115669816D01*
X150525713Y-115542262D01*
X150621686Y-115389522D01*
X150681265Y-115219255D01*
X150683803Y-115196731D01*
X150687400Y-115164811D01*
X150696395Y-115084971D01*
X150696397Y-115084954D01*
X150696397Y-115084953D01*
X150701462Y-115040000D01*
X150696786Y-114998502D01*
X150696397Y-114991564D01*
X150696397Y-114268435D01*
X150696786Y-114261496D01*
X150701462Y-114220000D01*
X150696786Y-114178502D01*
X150696397Y-114171564D01*
X150696397Y-113408435D01*
X150696786Y-113401496D01*
X150701462Y-113360000D01*
X150696786Y-113318502D01*
X150696397Y-113311564D01*
X150696397Y-112345704D01*
X150696397Y-112345703D01*
X150687104Y-112304990D01*
X150685939Y-112298130D01*
X150685815Y-112297029D01*
X150681265Y-112256642D01*
X150673163Y-112233488D01*
X150667473Y-112217225D01*
X150665547Y-112210538D01*
X150656257Y-112169836D01*
X150638135Y-112132204D01*
X150635480Y-112125796D01*
X150621686Y-112086375D01*
X150599471Y-112051020D01*
X150596105Y-112044930D01*
X150577989Y-112007311D01*
X150577987Y-112007308D01*
X150551957Y-111974667D01*
X150547930Y-111968993D01*
X150525713Y-111933635D01*
X149851162Y-111259084D01*
X149851159Y-111259082D01*
X149815804Y-111236866D01*
X149810129Y-111232840D01*
X149777489Y-111206810D01*
X149739859Y-111188687D01*
X149733772Y-111185322D01*
X149698425Y-111163112D01*
X149659014Y-111149321D01*
X149652588Y-111146659D01*
X149614961Y-111128539D01*
X149574245Y-111119245D01*
X149567562Y-111117320D01*
X149528159Y-111103532D01*
X149500612Y-111100428D01*
X149436199Y-111073359D01*
X149396646Y-111015762D01*
X149390500Y-110977208D01*
X149390500Y-110806207D01*
X149390500Y-110806206D01*
X149381207Y-110765493D01*
X149380042Y-110758633D01*
X149375368Y-110717145D01*
X149375367Y-110717142D01*
X149361576Y-110677728D01*
X149359650Y-110671041D01*
X149350360Y-110630339D01*
X149332238Y-110592707D01*
X149329583Y-110586299D01*
X149315789Y-110546878D01*
X149293574Y-110511523D01*
X149290208Y-110505433D01*
X149272092Y-110467814D01*
X149270259Y-110465515D01*
X149246060Y-110435170D01*
X149242033Y-110429496D01*
X149219816Y-110394138D01*
X148551966Y-109726288D01*
X148518481Y-109664965D01*
X148515647Y-109638607D01*
X148515647Y-109324443D01*
X148515642Y-109324397D01*
X148515642Y-109268039D01*
X148515642Y-109268038D01*
X148495180Y-109125723D01*
X148495180Y-109125722D01*
X148495180Y-109125720D01*
X148463123Y-109016546D01*
X148454632Y-108987630D01*
X148454627Y-108987618D01*
X148394910Y-108856856D01*
X148394897Y-108856833D01*
X148317103Y-108735783D01*
X148317088Y-108735762D01*
X148222943Y-108627113D01*
X148222940Y-108627110D01*
X148114170Y-108532861D01*
X148078937Y-108510218D01*
X147993221Y-108455131D01*
X147993217Y-108455129D01*
X147993216Y-108455129D01*
X147862300Y-108395342D01*
X147724345Y-108354835D01*
X147724342Y-108354834D01*
X147581889Y-108334353D01*
X147447087Y-108334353D01*
X147380048Y-108314668D01*
X147334293Y-108261864D01*
X147324349Y-108192706D01*
X147353374Y-108129150D01*
X147359406Y-108122672D01*
X148255259Y-107226819D01*
X148316582Y-107193334D01*
X148342940Y-107190500D01*
X150770241Y-107190500D01*
X150837280Y-107210185D01*
G37*
%TD.AperFunction*%
%TA.AperFunction,Conductor*%
G36*
X153589465Y-112817005D02*
G01*
X153631452Y-112844598D01*
X154290858Y-113504004D01*
X154324343Y-113565327D01*
X154319359Y-113635019D01*
X154277487Y-113690952D01*
X154244871Y-113706223D01*
X154245568Y-113708091D01*
X154103583Y-113761048D01*
X154097750Y-113764234D01*
X154038326Y-113779400D01*
X153895675Y-113779400D01*
X153895675Y-114456330D01*
X153887857Y-114499663D01*
X153851709Y-114596583D01*
X153851584Y-114596917D01*
X153845175Y-114656527D01*
X153845175Y-114656534D01*
X153845175Y-114656535D01*
X153845175Y-115002269D01*
X153845176Y-115002279D01*
X153852042Y-115066151D01*
X153852042Y-115092657D01*
X153851584Y-115096916D01*
X153851584Y-115096917D01*
X153845175Y-115156527D01*
X153845175Y-115156529D01*
X153845175Y-115156533D01*
X153845175Y-115205400D01*
X153825490Y-115272439D01*
X153772686Y-115318194D01*
X153721175Y-115329400D01*
X153570174Y-115329400D01*
X153503135Y-115309715D01*
X153457380Y-115256911D01*
X153446174Y-115205400D01*
X153446174Y-115156529D01*
X153446174Y-115156528D01*
X153439766Y-115096917D01*
X153439764Y-115096913D01*
X153439307Y-115092655D01*
X153439307Y-115066145D01*
X153439764Y-115061886D01*
X153439766Y-115061883D01*
X153446175Y-115002273D01*
X153446174Y-114656528D01*
X153439766Y-114596917D01*
X153439764Y-114596913D01*
X153439307Y-114592655D01*
X153439307Y-114566145D01*
X153439764Y-114561886D01*
X153439766Y-114561883D01*
X153446175Y-114502273D01*
X153446174Y-114156528D01*
X153439766Y-114096917D01*
X153436852Y-114089105D01*
X153403493Y-113999663D01*
X153395675Y-113956330D01*
X153395675Y-113779400D01*
X153359356Y-113743081D01*
X153361695Y-113740741D01*
X153332381Y-113706911D01*
X153321175Y-113655400D01*
X153321175Y-113647796D01*
X153340181Y-113581824D01*
X153385256Y-113510090D01*
X153441113Y-113350459D01*
X153456768Y-113211518D01*
X153460049Y-113182402D01*
X153460049Y-113182397D01*
X153441113Y-113014340D01*
X153441113Y-113014338D01*
X153426730Y-112973234D01*
X153423168Y-112903455D01*
X153457896Y-112842828D01*
X153519890Y-112810600D01*
X153589465Y-112817005D01*
G37*
%TD.AperFunction*%
%TA.AperFunction,Conductor*%
G36*
X160794855Y-111556546D02*
G01*
X160811575Y-111575842D01*
X160941500Y-111761395D01*
X160941505Y-111761401D01*
X161108599Y-111928495D01*
X161179744Y-111978311D01*
X161302165Y-112064032D01*
X161302167Y-112064033D01*
X161302170Y-112064035D01*
X161516337Y-112163903D01*
X161516343Y-112163904D01*
X161516344Y-112163905D01*
X161539748Y-112170176D01*
X161744592Y-112225063D01*
X161927846Y-112241096D01*
X161979999Y-112245659D01*
X161980000Y-112245659D01*
X161980001Y-112245659D01*
X162070878Y-112237708D01*
X162215408Y-112225063D01*
X162215408Y-112225062D01*
X162220801Y-112224591D01*
X162220997Y-112226839D01*
X162280829Y-112233488D01*
X162335075Y-112277524D01*
X162356903Y-112343896D01*
X162339382Y-112411533D01*
X162320648Y-112435560D01*
X161508208Y-113247999D01*
X161495951Y-113257820D01*
X161496134Y-113258041D01*
X161490123Y-113263013D01*
X161442772Y-113313436D01*
X161421889Y-113334319D01*
X161421877Y-113334332D01*
X161417621Y-113339817D01*
X161413837Y-113344247D01*
X161381937Y-113378218D01*
X161381936Y-113378220D01*
X161372284Y-113395776D01*
X161361610Y-113412026D01*
X161349329Y-113427861D01*
X161349324Y-113427868D01*
X161330815Y-113470638D01*
X161328245Y-113475884D01*
X161305803Y-113516706D01*
X161300822Y-113536107D01*
X161294521Y-113554510D01*
X161286562Y-113572902D01*
X161286561Y-113572905D01*
X161279271Y-113618927D01*
X161278087Y-113624646D01*
X161266501Y-113669772D01*
X161266500Y-113669782D01*
X161266500Y-113689816D01*
X161264973Y-113709213D01*
X161261840Y-113728996D01*
X161264744Y-113759715D01*
X161266225Y-113775383D01*
X161266500Y-113781221D01*
X161266500Y-114653165D01*
X161246815Y-114720204D01*
X161215383Y-114753485D01*
X161165163Y-114789970D01*
X161161943Y-114792158D01*
X161111465Y-114824193D01*
X161111454Y-114824202D01*
X161111310Y-114824357D01*
X161111166Y-114824441D01*
X161105453Y-114829168D01*
X161104689Y-114828245D01*
X161051061Y-114859739D01*
X160981248Y-114856931D01*
X160924035Y-114816826D01*
X160903229Y-114778457D01*
X160890254Y-114739301D01*
X160890248Y-114739288D01*
X160799747Y-114592565D01*
X160677836Y-114470653D01*
X160650522Y-114453805D01*
X160603798Y-114401856D01*
X160592578Y-114332893D01*
X160597915Y-114309264D01*
X160644855Y-114167606D01*
X160654999Y-114068322D01*
X160655000Y-114068309D01*
X160655000Y-114020000D01*
X159579000Y-114020000D01*
X159511961Y-114000315D01*
X159466206Y-113947511D01*
X159455000Y-113896000D01*
X159455000Y-112795000D01*
X159955000Y-112795000D01*
X159955000Y-113520000D01*
X160654999Y-113520000D01*
X160654999Y-113471692D01*
X160654998Y-113471677D01*
X160644855Y-113372392D01*
X160591547Y-113211518D01*
X160591542Y-113211507D01*
X160502575Y-113067271D01*
X160502572Y-113067267D01*
X160382732Y-112947427D01*
X160382728Y-112947424D01*
X160238492Y-112858457D01*
X160238481Y-112858452D01*
X160077606Y-112805144D01*
X159978322Y-112795000D01*
X159955000Y-112795000D01*
X159455000Y-112795000D01*
X159455000Y-112794999D01*
X159431693Y-112795000D01*
X159431674Y-112795001D01*
X159332392Y-112805144D01*
X159171518Y-112858452D01*
X159171507Y-112858457D01*
X159027271Y-112947424D01*
X159027264Y-112947430D01*
X159018028Y-112956665D01*
X158956703Y-112990146D01*
X158887011Y-112985157D01*
X158842672Y-112956659D01*
X158841819Y-112955806D01*
X158808334Y-112894483D01*
X158805500Y-112868125D01*
X158805500Y-112495807D01*
X158825185Y-112428768D01*
X158841815Y-112408130D01*
X159012238Y-112237706D01*
X159073559Y-112204223D01*
X159132006Y-112205613D01*
X159204592Y-112225063D01*
X159387846Y-112241096D01*
X159439999Y-112245659D01*
X159440000Y-112245659D01*
X159440001Y-112245659D01*
X159492154Y-112241096D01*
X159675408Y-112225063D01*
X159903663Y-112163903D01*
X160117830Y-112064035D01*
X160311401Y-111928495D01*
X160478495Y-111761401D01*
X160598711Y-111589715D01*
X160608425Y-111575842D01*
X160663002Y-111532217D01*
X160732500Y-111525023D01*
X160794855Y-111556546D01*
G37*
%TD.AperFunction*%
%TA.AperFunction,Conductor*%
G36*
X165090647Y-113445185D02*
G01*
X165136402Y-113497989D01*
X165146346Y-113567147D01*
X165128601Y-113615473D01*
X165079946Y-113692905D01*
X165079945Y-113692906D01*
X165071095Y-113718199D01*
X165030372Y-113774974D01*
X164965419Y-113800720D01*
X164896857Y-113787263D01*
X164879742Y-113776508D01*
X164859089Y-113761047D01*
X164859086Y-113761045D01*
X164724379Y-113710803D01*
X164724372Y-113710801D01*
X164664844Y-113704400D01*
X164492000Y-113704400D01*
X164492000Y-114054900D01*
X164472315Y-114121939D01*
X164419511Y-114167694D01*
X164368000Y-114178900D01*
X164366000Y-114178900D01*
X164298961Y-114159215D01*
X164253206Y-114106411D01*
X164242000Y-114054900D01*
X164242000Y-113704400D01*
X164069155Y-113704400D01*
X164009627Y-113710801D01*
X164009623Y-113710802D01*
X163874908Y-113761048D01*
X163869075Y-113764234D01*
X163809651Y-113779400D01*
X163681749Y-113779400D01*
X163614710Y-113759715D01*
X163568955Y-113706911D01*
X163559011Y-113637753D01*
X163588036Y-113574197D01*
X163594068Y-113567719D01*
X163699968Y-113461819D01*
X163761291Y-113428334D01*
X163787649Y-113425500D01*
X165023608Y-113425500D01*
X165090647Y-113445185D01*
G37*
%TD.AperFunction*%
%TA.AperFunction,Conductor*%
G36*
X178707005Y-105860798D02*
G01*
X178838013Y-105873710D01*
X178861842Y-105878450D01*
X178979055Y-105914007D01*
X179001503Y-105923305D01*
X179109521Y-105981032D01*
X179129727Y-105994530D01*
X179224417Y-106072218D01*
X179241603Y-106089398D01*
X179319324Y-106184062D01*
X179332826Y-106204259D01*
X179374945Y-106283006D01*
X179390594Y-106312264D01*
X179399899Y-106334710D01*
X179435493Y-106451902D01*
X179440243Y-106475733D01*
X179453200Y-106606734D01*
X179453501Y-106612819D01*
X179455495Y-112470202D01*
X179455433Y-112473011D01*
X179451749Y-112554871D01*
X179469203Y-112732227D01*
X179469204Y-112732234D01*
X179511813Y-112905267D01*
X179511814Y-112905269D01*
X179511815Y-112905272D01*
X179523207Y-112933402D01*
X179577294Y-113066959D01*
X179578710Y-113070454D01*
X179582680Y-113077258D01*
X179600120Y-113107151D01*
X179616900Y-113174976D01*
X179594348Y-113241106D01*
X179539623Y-113284545D01*
X179470101Y-113291502D01*
X179437364Y-113280449D01*
X179350056Y-113236601D01*
X179298512Y-113224385D01*
X179182186Y-113196815D01*
X179009666Y-113196815D01*
X178973988Y-113205270D01*
X178904216Y-113201575D01*
X178882273Y-113191344D01*
X178877168Y-113188325D01*
X178834403Y-113169818D01*
X178829157Y-113167248D01*
X178788328Y-113144803D01*
X178788327Y-113144802D01*
X178768928Y-113139822D01*
X178750516Y-113133518D01*
X178732133Y-113125562D01*
X178732127Y-113125560D01*
X178686109Y-113118272D01*
X178680387Y-113117087D01*
X178635256Y-113105500D01*
X178635254Y-113105500D01*
X178615219Y-113105500D01*
X178595821Y-113103973D01*
X178588397Y-113102797D01*
X178576040Y-113100840D01*
X178576039Y-113100840D01*
X178529651Y-113105225D01*
X178523813Y-113105500D01*
X177839609Y-113105500D01*
X177772570Y-113085815D01*
X177751928Y-113069181D01*
X177745670Y-113062923D01*
X177745662Y-113062917D01*
X177604196Y-112979255D01*
X177604193Y-112979253D01*
X177445305Y-112933092D01*
X177386419Y-112895486D01*
X177357213Y-112832013D01*
X177355900Y-112814016D01*
X177355900Y-112132830D01*
X177375585Y-112065791D01*
X177392219Y-112045149D01*
X177445163Y-111992205D01*
X177498112Y-111939256D01*
X177590214Y-111789934D01*
X177645399Y-111623397D01*
X177655900Y-111520609D01*
X177655899Y-110170592D01*
X177645399Y-110067803D01*
X177590214Y-109901266D01*
X177498112Y-109751944D01*
X177374056Y-109627888D01*
X177281288Y-109570669D01*
X177224736Y-109535787D01*
X177224731Y-109535785D01*
X177194888Y-109525896D01*
X177058197Y-109480601D01*
X177058195Y-109480600D01*
X176955410Y-109470100D01*
X176155398Y-109470100D01*
X176155380Y-109470101D01*
X176052603Y-109480600D01*
X176052600Y-109480601D01*
X175886068Y-109535785D01*
X175886063Y-109535787D01*
X175736742Y-109627889D01*
X175612688Y-109751943D01*
X175612685Y-109751947D01*
X175573584Y-109815340D01*
X175521636Y-109862065D01*
X175452674Y-109873286D01*
X175388592Y-109845443D01*
X175370575Y-109826894D01*
X175355492Y-109807714D01*
X175355490Y-109807712D01*
X175196653Y-109670078D01*
X175014649Y-109564998D01*
X175014645Y-109564996D01*
X175014644Y-109564996D01*
X174816033Y-109496256D01*
X174608002Y-109466346D01*
X174607998Y-109466346D01*
X174398072Y-109476345D01*
X174193821Y-109525896D01*
X174193817Y-109525898D01*
X174002656Y-109613198D01*
X174002651Y-109613201D01*
X173831446Y-109735115D01*
X173831440Y-109735120D01*
X173686414Y-109887220D01*
X173572788Y-110064025D01*
X173531018Y-110168363D01*
X173487827Y-110223284D01*
X173421800Y-110246137D01*
X173353900Y-110229664D01*
X173305684Y-110179097D01*
X173291900Y-110122277D01*
X173291900Y-107945107D01*
X173291900Y-107945106D01*
X173282607Y-107904393D01*
X173281442Y-107897533D01*
X173276768Y-107856045D01*
X173269866Y-107836320D01*
X173262976Y-107816628D01*
X173261050Y-107809941D01*
X173251760Y-107769239D01*
X173233638Y-107731607D01*
X173230983Y-107725199D01*
X173217189Y-107685778D01*
X173194974Y-107650423D01*
X173191608Y-107644333D01*
X173173492Y-107606714D01*
X173173490Y-107606711D01*
X173147460Y-107574070D01*
X173143433Y-107568396D01*
X173121216Y-107533038D01*
X171660359Y-106072181D01*
X171626874Y-106010858D01*
X171631858Y-105941166D01*
X171673730Y-105885233D01*
X171739194Y-105860816D01*
X171748040Y-105860500D01*
X178700927Y-105860500D01*
X178707005Y-105860798D01*
G37*
%TD.AperFunction*%
%TA.AperFunction,Conductor*%
G36*
X171155702Y-107832126D02*
G01*
X171162180Y-107838158D01*
X171654581Y-108330559D01*
X171688066Y-108391882D01*
X171690900Y-108418240D01*
X171690900Y-111545391D01*
X171690901Y-111545400D01*
X171700191Y-111586108D01*
X171701355Y-111592963D01*
X171706032Y-111634459D01*
X171719820Y-111673862D01*
X171721745Y-111680545D01*
X171731039Y-111721261D01*
X171749159Y-111758888D01*
X171751821Y-111765314D01*
X171765612Y-111804725D01*
X171787822Y-111840072D01*
X171791187Y-111846159D01*
X171809310Y-111883789D01*
X171835340Y-111916429D01*
X171839366Y-111922104D01*
X171861582Y-111957459D01*
X171861584Y-111957462D01*
X171868341Y-111964219D01*
X171901826Y-112025542D01*
X171896842Y-112095234D01*
X171854970Y-112151167D01*
X171789506Y-112175584D01*
X171780660Y-112175900D01*
X170511348Y-112175900D01*
X170444309Y-112156215D01*
X170398554Y-112103411D01*
X170388610Y-112034253D01*
X170417635Y-111970697D01*
X170440225Y-111950325D01*
X170464060Y-111933635D01*
X170471401Y-111928495D01*
X170638495Y-111761401D01*
X170774035Y-111567830D01*
X170873903Y-111353663D01*
X170935063Y-111125408D01*
X170955659Y-110890000D01*
X170935063Y-110654592D01*
X170875539Y-110432443D01*
X170873905Y-110426344D01*
X170873904Y-110426343D01*
X170873903Y-110426337D01*
X170774035Y-110212171D01*
X170768730Y-110204595D01*
X170638496Y-110018600D01*
X170592814Y-109972918D01*
X170516567Y-109896671D01*
X170483084Y-109835351D01*
X170488068Y-109765659D01*
X170529939Y-109709725D01*
X170560915Y-109692810D01*
X170692331Y-109643796D01*
X170807546Y-109557546D01*
X170893796Y-109442331D01*
X170944091Y-109307483D01*
X170950500Y-109247873D01*
X170950499Y-107925838D01*
X170970184Y-107858800D01*
X171022987Y-107813045D01*
X171092146Y-107803101D01*
X171155702Y-107832126D01*
G37*
%TD.AperFunction*%
%TA.AperFunction,Conductor*%
G36*
X164770000Y-110454498D02*
G01*
X164662315Y-110405320D01*
X164555763Y-110390000D01*
X164484237Y-110390000D01*
X164377685Y-110405320D01*
X164270000Y-110454498D01*
X164270000Y-108785501D01*
X164377685Y-108834680D01*
X164484237Y-108850000D01*
X164555763Y-108850000D01*
X164662315Y-108834680D01*
X164770000Y-108785501D01*
X164770000Y-110454498D01*
G37*
%TD.AperFunction*%
%TA.AperFunction,Conductor*%
G36*
X165874549Y-109016110D02*
G01*
X165891269Y-109035405D01*
X166021505Y-109221401D01*
X166021506Y-109221402D01*
X166188597Y-109388493D01*
X166188603Y-109388498D01*
X166374158Y-109518425D01*
X166417783Y-109573002D01*
X166424977Y-109642500D01*
X166393454Y-109704855D01*
X166374158Y-109721575D01*
X166188597Y-109851505D01*
X166021508Y-110018594D01*
X165891269Y-110204595D01*
X165836692Y-110248219D01*
X165767193Y-110255412D01*
X165704839Y-110223890D01*
X165688119Y-110204594D01*
X165558113Y-110018926D01*
X165558108Y-110018920D01*
X165391082Y-109851894D01*
X165204968Y-109721575D01*
X165161344Y-109666998D01*
X165154151Y-109597499D01*
X165185673Y-109535145D01*
X165204968Y-109518425D01*
X165391082Y-109388105D01*
X165558105Y-109221082D01*
X165688119Y-109035405D01*
X165742696Y-108991781D01*
X165812195Y-108984588D01*
X165874549Y-109016110D01*
G37*
%TD.AperFunction*%
%TA.AperFunction,Conductor*%
G36*
X168184340Y-109238068D02*
G01*
X168240274Y-109279939D01*
X168257189Y-109310917D01*
X168306202Y-109442328D01*
X168306206Y-109442335D01*
X168392452Y-109557544D01*
X168392455Y-109557547D01*
X168507664Y-109643793D01*
X168507671Y-109643797D01*
X168639081Y-109692810D01*
X168695015Y-109734681D01*
X168719432Y-109800145D01*
X168704580Y-109868418D01*
X168683430Y-109896673D01*
X168561503Y-110018600D01*
X168431575Y-110204158D01*
X168376998Y-110247783D01*
X168307500Y-110254977D01*
X168245145Y-110223454D01*
X168228425Y-110204158D01*
X168098494Y-110018597D01*
X167931402Y-109851506D01*
X167931396Y-109851501D01*
X167745842Y-109721575D01*
X167702217Y-109666998D01*
X167695023Y-109597500D01*
X167726546Y-109535145D01*
X167745842Y-109518425D01*
X167799860Y-109480601D01*
X167931401Y-109388495D01*
X168053329Y-109266566D01*
X168114648Y-109233084D01*
X168184340Y-109238068D01*
G37*
%TD.AperFunction*%
%TD*%
%TA.AperFunction,Conductor*%
%TO.N,+5V*%
G36*
X168024929Y-115510198D02*
G01*
X168051233Y-115521581D01*
X168056469Y-115524145D01*
X168097308Y-115546597D01*
X168109923Y-115549835D01*
X168116705Y-115551577D01*
X168135119Y-115557881D01*
X168153504Y-115565838D01*
X168199557Y-115573132D01*
X168205226Y-115574306D01*
X168250381Y-115585900D01*
X168270416Y-115585900D01*
X168289813Y-115587426D01*
X168309596Y-115590560D01*
X168355984Y-115586175D01*
X168361822Y-115585900D01*
X169346000Y-115585900D01*
X169413039Y-115605585D01*
X169458794Y-115658389D01*
X169470000Y-115709900D01*
X169470000Y-115876000D01*
X169450315Y-115943039D01*
X169397511Y-115988794D01*
X169346000Y-116000000D01*
X167763000Y-116000000D01*
X167763000Y-116687499D01*
X167817136Y-116687499D01*
X167817152Y-116687498D01*
X167915583Y-116677443D01*
X168075072Y-116624593D01*
X168075077Y-116624591D01*
X168218080Y-116536385D01*
X168278819Y-116475647D01*
X168340142Y-116442162D01*
X168409834Y-116447146D01*
X168454181Y-116475647D01*
X168514920Y-116536386D01*
X168514924Y-116536389D01*
X168646213Y-116617370D01*
X168692938Y-116669318D01*
X168704232Y-116737692D01*
X168695000Y-116814571D01*
X168695000Y-117550000D01*
X169621000Y-117550000D01*
X169688039Y-117569685D01*
X169733794Y-117622489D01*
X169745000Y-117674000D01*
X169745000Y-117926000D01*
X169725315Y-117993039D01*
X169672511Y-118038794D01*
X169621000Y-118050000D01*
X168694999Y-118050000D01*
X168683895Y-118061104D01*
X168622572Y-118094588D01*
X168578571Y-118096160D01*
X168570506Y-118095000D01*
X168570500Y-118095000D01*
X168544958Y-118095000D01*
X168544957Y-118095000D01*
X168530807Y-118095396D01*
X168507071Y-118096726D01*
X168500127Y-118096726D01*
X168476397Y-118095396D01*
X168462244Y-118095000D01*
X168462243Y-118095000D01*
X168447290Y-118095000D01*
X168337330Y-118107105D01*
X168337301Y-118107110D01*
X168284670Y-118118840D01*
X168179960Y-118154583D01*
X168059730Y-118233594D01*
X168059724Y-118233598D01*
X168059722Y-118233600D01*
X168059717Y-118233604D01*
X168059715Y-118233606D01*
X168007395Y-118279883D01*
X168007382Y-118279896D01*
X167925275Y-118376626D01*
X167921847Y-118380346D01*
X167879975Y-118422217D01*
X167858267Y-118439529D01*
X167825634Y-118460034D01*
X167800616Y-118472082D01*
X167764245Y-118484809D01*
X167737175Y-118490988D01*
X167703429Y-118494790D01*
X167698885Y-118495302D01*
X167671123Y-118495302D01*
X167632824Y-118490986D01*
X167605758Y-118484809D01*
X167569379Y-118472080D01*
X167544360Y-118460032D01*
X167511733Y-118439531D01*
X167490024Y-118422218D01*
X167462781Y-118394975D01*
X167445468Y-118373265D01*
X167424965Y-118340634D01*
X167412918Y-118315619D01*
X167393662Y-118260590D01*
X167387483Y-118205755D01*
X167400713Y-118088328D01*
X167401874Y-118081503D01*
X167404470Y-118070128D01*
X167410644Y-118015303D01*
X167410641Y-117902139D01*
X167400696Y-117813882D01*
X167400696Y-117786128D01*
X167405012Y-117747812D01*
X167411188Y-117720756D01*
X167417679Y-117702204D01*
X167419815Y-117696103D01*
X167423760Y-117683834D01*
X167429137Y-117665521D01*
X167435762Y-117640629D01*
X167435762Y-117640626D01*
X167435764Y-117640620D01*
X167448955Y-117497345D01*
X167447884Y-117476361D01*
X167445475Y-117429143D01*
X167445449Y-117428132D01*
X167445394Y-117427567D01*
X167445394Y-117427565D01*
X167417685Y-117286378D01*
X167415191Y-117279251D01*
X167409011Y-117252176D01*
X167405812Y-117223777D01*
X167402416Y-117202119D01*
X167396007Y-117170326D01*
X167394133Y-117162742D01*
X167385498Y-117127797D01*
X167325732Y-116996934D01*
X167325729Y-116996929D01*
X167325726Y-116996922D01*
X167292265Y-116944856D01*
X167288853Y-116939547D01*
X167288119Y-116938335D01*
X167235612Y-116877741D01*
X167206586Y-116814186D01*
X167216529Y-116745027D01*
X167241643Y-116708856D01*
X167263000Y-116687499D01*
X167263000Y-115624000D01*
X167282685Y-115556961D01*
X167335489Y-115511206D01*
X167387000Y-115500000D01*
X167975683Y-115500000D01*
X168024929Y-115510198D01*
G37*
%TD.AperFunction*%
%TD*%
M02*
