%TF.GenerationSoftware,KiCad,Pcbnew,7.0.9*%
%TF.CreationDate,2024-03-23T20:10:25+02:00*%
%TF.ProjectId,Micromouse Power,4d696372-6f6d-46f7-9573-6520506f7765,v0.0.0*%
%TF.SameCoordinates,Original*%
%TF.FileFunction,Copper,L1,Top*%
%TF.FilePolarity,Positive*%
%FSLAX46Y46*%
G04 Gerber Fmt 4.6, Leading zero omitted, Abs format (unit mm)*
G04 Created by KiCad (PCBNEW 7.0.9) date 2024-03-23 20:10:25*
%MOMM*%
%LPD*%
G01*
G04 APERTURE LIST*
G04 Aperture macros list*
%AMRoundRect*
0 Rectangle with rounded corners*
0 $1 Rounding radius*
0 $2 $3 $4 $5 $6 $7 $8 $9 X,Y pos of 4 corners*
0 Add a 4 corners polygon primitive as box body*
4,1,4,$2,$3,$4,$5,$6,$7,$8,$9,$2,$3,0*
0 Add four circle primitives for the rounded corners*
1,1,$1+$1,$2,$3*
1,1,$1+$1,$4,$5*
1,1,$1+$1,$6,$7*
1,1,$1+$1,$8,$9*
0 Add four rect primitives between the rounded corners*
20,1,$1+$1,$2,$3,$4,$5,0*
20,1,$1+$1,$4,$5,$6,$7,0*
20,1,$1+$1,$6,$7,$8,$9,0*
20,1,$1+$1,$8,$9,$2,$3,0*%
%AMRotRect*
0 Rectangle, with rotation*
0 The origin of the aperture is its center*
0 $1 length*
0 $2 width*
0 $3 Rotation angle, in degrees counterclockwise*
0 Add horizontal line*
21,1,$1,$2,0,0,$3*%
%AMFreePoly0*
4,1,19,0.500000,-0.750000,0.000000,-0.750000,0.000000,-0.744911,-0.071157,-0.744911,-0.207708,-0.704816,-0.327430,-0.627875,-0.420627,-0.520320,-0.479746,-0.390866,-0.500000,-0.250000,-0.500000,0.250000,-0.479746,0.390866,-0.420627,0.520320,-0.327430,0.627875,-0.207708,0.704816,-0.071157,0.744911,0.000000,0.744911,0.000000,0.750000,0.500000,0.750000,0.500000,-0.750000,0.500000,-0.750000,
$1*%
%AMFreePoly1*
4,1,19,0.000000,0.744911,0.071157,0.744911,0.207708,0.704816,0.327430,0.627875,0.420627,0.520320,0.479746,0.390866,0.500000,0.250000,0.500000,-0.250000,0.479746,-0.390866,0.420627,-0.520320,0.327430,-0.627875,0.207708,-0.704816,0.071157,-0.744911,0.000000,-0.744911,0.000000,-0.750000,-0.500000,-0.750000,-0.500000,0.750000,0.000000,0.750000,0.000000,0.744911,0.000000,0.744911,
$1*%
G04 Aperture macros list end*
%TA.AperFunction,ComponentPad*%
%ADD10RoundRect,0.250000X0.350000X0.625000X-0.350000X0.625000X-0.350000X-0.625000X0.350000X-0.625000X0*%
%TD*%
%TA.AperFunction,ComponentPad*%
%ADD11O,1.200000X1.750000*%
%TD*%
%TA.AperFunction,SMDPad,CuDef*%
%ADD12RoundRect,0.218750X-0.256250X0.218750X-0.256250X-0.218750X0.256250X-0.218750X0.256250X0.218750X0*%
%TD*%
%TA.AperFunction,SMDPad,CuDef*%
%ADD13RoundRect,0.237500X-0.237500X0.250000X-0.237500X-0.250000X0.237500X-0.250000X0.237500X0.250000X0*%
%TD*%
%TA.AperFunction,SMDPad,CuDef*%
%ADD14FreePoly0,180.000000*%
%TD*%
%TA.AperFunction,SMDPad,CuDef*%
%ADD15FreePoly1,180.000000*%
%TD*%
%TA.AperFunction,SMDPad,CuDef*%
%ADD16RoundRect,0.237500X-0.250000X-0.237500X0.250000X-0.237500X0.250000X0.237500X-0.250000X0.237500X0*%
%TD*%
%TA.AperFunction,SMDPad,CuDef*%
%ADD17RoundRect,0.237500X0.250000X0.237500X-0.250000X0.237500X-0.250000X-0.237500X0.250000X-0.237500X0*%
%TD*%
%TA.AperFunction,SMDPad,CuDef*%
%ADD18RoundRect,0.225000X-0.225000X-0.250000X0.225000X-0.250000X0.225000X0.250000X-0.225000X0.250000X0*%
%TD*%
%TA.AperFunction,SMDPad,CuDef*%
%ADD19RotRect,0.900000X2.500000X135.000000*%
%TD*%
%TA.AperFunction,SMDPad,CuDef*%
%ADD20R,2.000000X1.500000*%
%TD*%
%TA.AperFunction,SMDPad,CuDef*%
%ADD21R,2.000000X3.800000*%
%TD*%
%TA.AperFunction,SMDPad,CuDef*%
%ADD22RoundRect,0.225000X-0.250000X0.225000X-0.250000X-0.225000X0.250000X-0.225000X0.250000X0.225000X0*%
%TD*%
%TA.AperFunction,SMDPad,CuDef*%
%ADD23RoundRect,0.237500X0.237500X-0.250000X0.237500X0.250000X-0.237500X0.250000X-0.237500X-0.250000X0*%
%TD*%
%TA.AperFunction,SMDPad,CuDef*%
%ADD24R,0.500000X0.250000*%
%TD*%
%TA.AperFunction,SMDPad,CuDef*%
%ADD25R,0.900000X1.600000*%
%TD*%
%TA.AperFunction,ComponentPad*%
%ADD26R,1.700000X1.700000*%
%TD*%
%TA.AperFunction,ComponentPad*%
%ADD27O,1.700000X1.700000*%
%TD*%
%TA.AperFunction,SMDPad,CuDef*%
%ADD28RoundRect,0.225000X0.225000X0.250000X-0.225000X0.250000X-0.225000X-0.250000X0.225000X-0.250000X0*%
%TD*%
%TA.AperFunction,SMDPad,CuDef*%
%ADD29RoundRect,0.150000X0.587500X0.150000X-0.587500X0.150000X-0.587500X-0.150000X0.587500X-0.150000X0*%
%TD*%
%TA.AperFunction,SMDPad,CuDef*%
%ADD30RoundRect,0.237500X0.008839X0.344715X-0.344715X-0.008839X-0.008839X-0.344715X0.344715X0.008839X0*%
%TD*%
%TA.AperFunction,SMDPad,CuDef*%
%ADD31RoundRect,0.237500X-0.344715X0.008839X0.008839X-0.344715X0.344715X-0.008839X-0.008839X0.344715X0*%
%TD*%
%TA.AperFunction,SMDPad,CuDef*%
%ADD32RoundRect,0.042000X0.258000X-0.943000X0.258000X0.943000X-0.258000X0.943000X-0.258000X-0.943000X0*%
%TD*%
%TA.AperFunction,SMDPad,CuDef*%
%ADD33R,3.302000X2.413000*%
%TD*%
%TA.AperFunction,SMDPad,CuDef*%
%ADD34RoundRect,0.150000X-0.587500X-0.150000X0.587500X-0.150000X0.587500X0.150000X-0.587500X0.150000X0*%
%TD*%
%TA.AperFunction,SMDPad,CuDef*%
%ADD35FreePoly0,0.000000*%
%TD*%
%TA.AperFunction,SMDPad,CuDef*%
%ADD36FreePoly1,0.000000*%
%TD*%
%TA.AperFunction,SMDPad,CuDef*%
%ADD37RotRect,0.900000X2.500000X225.000000*%
%TD*%
%TA.AperFunction,SMDPad,CuDef*%
%ADD38RoundRect,0.250000X-0.450000X0.350000X-0.450000X-0.350000X0.450000X-0.350000X0.450000X0.350000X0*%
%TD*%
%TA.AperFunction,ViaPad*%
%ADD39C,0.600000*%
%TD*%
%TA.AperFunction,ViaPad*%
%ADD40C,0.500000*%
%TD*%
%TA.AperFunction,Conductor*%
%ADD41C,0.600000*%
%TD*%
%TA.AperFunction,Conductor*%
%ADD42C,0.300000*%
%TD*%
%TA.AperFunction,Conductor*%
%ADD43C,0.250000*%
%TD*%
G04 APERTURE END LIST*
%TA.AperFunction,EtchedComponent*%
%TO.C,JP1*%
G36*
X170540000Y-125590000D02*
G01*
X170040000Y-125590000D01*
X170040000Y-124990000D01*
X170540000Y-124990000D01*
X170540000Y-125590000D01*
G37*
%TD.AperFunction*%
%TA.AperFunction,EtchedComponent*%
%TO.C,JP2*%
G36*
X166910000Y-128200000D02*
G01*
X166410000Y-128200000D01*
X166410000Y-127600000D01*
X166910000Y-127600000D01*
X166910000Y-128200000D01*
G37*
%TD.AperFunction*%
%TD*%
D10*
%TO.P,J1,1,Pin_1*%
%TO.N,+BATT*%
X176500000Y-110840000D03*
D11*
%TO.P,J1,2,Pin_2*%
%TO.N,Net-(J1-Pin_2)*%
X174500000Y-110840000D03*
%TD*%
D12*
%TO.P,D1,1,K*%
%TO.N,Net-(D1-K)*%
X169220000Y-114175000D03*
%TO.P,D1,2,A*%
%TO.N,+5V*%
X169220000Y-115750000D03*
%TD*%
D13*
%TO.P,R11,1*%
%TO.N,Net-(JP7-A)*%
X155590000Y-121507500D03*
%TO.P,R11,2*%
%TO.N,GND*%
X155590000Y-123332500D03*
%TD*%
D14*
%TO.P,JP1,1,A*%
%TO.N,Net-(JP1-A)*%
X170940000Y-125290000D03*
D15*
%TO.P,JP1,2,B*%
%TO.N,/PROG*%
X169640000Y-125290000D03*
%TD*%
D14*
%TO.P,JP5,1,A*%
%TO.N,BATT_SWITCHED*%
X147510000Y-109590000D03*
D15*
%TO.P,JP5,2,B*%
%TO.N,BATT*%
X146210000Y-109590000D03*
%TD*%
D16*
%TO.P,R13,1*%
%TO.N,GND*%
X157427500Y-123330000D03*
%TO.P,R13,2*%
%TO.N,Net-(U1-GND)*%
X159252500Y-123330000D03*
%TD*%
D17*
%TO.P,R6,1*%
%TO.N,GND*%
X159967300Y-115290600D03*
%TO.P,R6,2*%
%TO.N,/BATT_ADC*%
X158142300Y-115290600D03*
%TD*%
D18*
%TO.P,C12,1*%
%TO.N,VCC*%
X151360675Y-117129400D03*
%TO.P,C12,2*%
%TO.N,GND*%
X152910675Y-117129400D03*
%TD*%
%TO.P,C11,1*%
%TO.N,VCC*%
X161127000Y-118629400D03*
%TO.P,C11,2*%
%TO.N,GND*%
X162677000Y-118629400D03*
%TD*%
D19*
%TO.P,SW2,1,A*%
%TO.N,unconnected-(SW2-A-Pad1)*%
X148135281Y-123881573D03*
%TO.P,SW2,2,B*%
%TO.N,GND*%
X146721068Y-122467359D03*
%TO.P,SW2,3,C*%
%TO.N,Net-(Q2-G)*%
X145306854Y-121053146D03*
%TD*%
D20*
%TO.P,U1,1,GND*%
%TO.N,Net-(U1-GND)*%
X154130000Y-125500000D03*
%TO.P,U1,2,VO*%
%TO.N,+3V3*%
X154130000Y-127800000D03*
D21*
X160430000Y-127800000D03*
D20*
%TO.P,U1,3,VI*%
%TO.N,BATT_SWITCHED*%
X154130000Y-130100000D03*
%TD*%
D13*
%TO.P,R3,1*%
%TO.N,Net-(D2-K)*%
X170800000Y-113762500D03*
%TO.P,R3,2*%
%TO.N,Net-(U2-~{CHRG})*%
X170800000Y-115587500D03*
%TD*%
D22*
%TO.P,C2,1*%
%TO.N,+3V3*%
X152000000Y-126895000D03*
%TO.P,C2,2*%
%TO.N,GND*%
X152000000Y-128445000D03*
%TD*%
D14*
%TO.P,JP3,1,A*%
%TO.N,GND*%
X171200000Y-128000000D03*
D15*
%TO.P,JP3,2,B*%
%TO.N,Net-(JP2-B)*%
X169900000Y-128000000D03*
%TD*%
D23*
%TO.P,R14,1*%
%TO.N,+3V3*%
X152030000Y-125352500D03*
%TO.P,R14,2*%
%TO.N,Net-(U1-GND)*%
X152030000Y-123527500D03*
%TD*%
D24*
%TO.P,U3,1,VM*%
%TO.N,BATT_SWITCHED*%
X164367000Y-115829400D03*
%TO.P,U3,2,OUT1*%
%TO.N,/Motor2_A*%
X164367000Y-115329400D03*
%TO.P,U3,3,OUT2*%
%TO.N,/Motor2_B*%
X164367000Y-114829400D03*
%TO.P,U3,4,GND*%
%TO.N,GND*%
X164367000Y-114329400D03*
%TO.P,U3,5,IN2*%
%TO.N,/PC6*%
X162467000Y-114329400D03*
%TO.P,U3,6,IN1*%
%TO.N,/PC7*%
X162467000Y-114829400D03*
%TO.P,U3,7,~{SLEEP}*%
%TO.N,VCC*%
X162467000Y-115329400D03*
%TO.P,U3,8,VCC*%
X162467000Y-115829400D03*
D25*
%TO.P,U3,9,GND*%
%TO.N,GND*%
X163417000Y-115079400D03*
%TD*%
D26*
%TO.P,JP6,1,A*%
%TO.N,Net-(J1-Pin_2)*%
X182190000Y-118920000D03*
D27*
%TO.P,JP6,2,B*%
%TO.N,GND*%
X182190000Y-121460000D03*
%TD*%
D28*
%TO.P,C8,1*%
%TO.N,BATT_SWITCHED*%
X155930675Y-118629400D03*
%TO.P,C8,2*%
%TO.N,GND*%
X154380675Y-118629400D03*
%TD*%
D18*
%TO.P,C6,1*%
%TO.N,/BATT_ADC*%
X158155000Y-113770000D03*
%TO.P,C6,2*%
%TO.N,GND*%
X159705000Y-113770000D03*
%TD*%
%TO.P,C13,1*%
%TO.N,VCC*%
X151360675Y-118629400D03*
%TO.P,C13,2*%
%TO.N,GND*%
X152910675Y-118629400D03*
%TD*%
D28*
%TO.P,C5,1*%
%TO.N,BATT_SWITCHED*%
X165706999Y-117119400D03*
%TO.P,C5,2*%
%TO.N,GND*%
X164156999Y-117119400D03*
%TD*%
D13*
%TO.P,R2,1*%
%TO.N,Net-(D1-K)*%
X172350000Y-113777500D03*
%TO.P,R2,2*%
%TO.N,Net-(U2-~{STDBY})*%
X172350000Y-115602500D03*
%TD*%
D29*
%TO.P,Q1,1,G*%
%TO.N,Net-(Q1-G)*%
X176756300Y-115631000D03*
%TO.P,Q1,2,S*%
%TO.N,+BATT*%
X176756300Y-113731000D03*
%TO.P,Q1,3,D*%
%TO.N,BATT*%
X174881300Y-114681000D03*
%TD*%
D22*
%TO.P,C1,1*%
%TO.N,BATT_SWITCHED*%
X152020000Y-130115000D03*
%TO.P,C1,2*%
%TO.N,GND*%
X152020000Y-131665000D03*
%TD*%
D30*
%TO.P,R8,1*%
%TO.N,Net-(Q2-S)*%
X144307635Y-116347165D03*
%TO.P,R8,2*%
%TO.N,Net-(Q2-G)*%
X143017165Y-117637635D03*
%TD*%
D17*
%TO.P,R5,1*%
%TO.N,/BATT_ADC*%
X159562500Y-117140000D03*
%TO.P,R5,2*%
%TO.N,BATT_SWITCHED*%
X157737500Y-117140000D03*
%TD*%
D31*
%TO.P,R7,1*%
%TO.N,+BATT*%
X179104765Y-114279530D03*
%TO.P,R7,2*%
%TO.N,Net-(Q1-G)*%
X180395235Y-115570000D03*
%TD*%
D22*
%TO.P,C3,1*%
%TO.N,+5V*%
X175000000Y-121785000D03*
%TO.P,C3,2*%
%TO.N,GND*%
X175000000Y-123335000D03*
%TD*%
D32*
%TO.P,U2,1,TEMP*%
%TO.N,GND*%
X169495000Y-122750000D03*
%TO.P,U2,2,PROG*%
%TO.N,/PROG*%
X170765000Y-122750000D03*
%TO.P,U2,3,GND*%
%TO.N,GND*%
X172035000Y-122750000D03*
%TO.P,U2,4,VCC*%
%TO.N,+5V*%
X173305000Y-122750000D03*
%TO.P,U2,5,BAT*%
%TO.N,Net-(JP4-A)*%
X173305000Y-117800000D03*
%TO.P,U2,6,~{STDBY}*%
%TO.N,Net-(U2-~{STDBY})*%
X172035000Y-117800000D03*
%TO.P,U2,7,~{CHRG}*%
%TO.N,Net-(U2-~{CHRG})*%
X170765000Y-117800000D03*
%TO.P,U2,8,CE*%
%TO.N,+5V*%
X169495000Y-117800000D03*
D33*
%TO.P,U2,9*%
%TO.N,N/C*%
X171400000Y-120275000D03*
%TD*%
D28*
%TO.P,C7,1*%
%TO.N,BATT_SWITCHED*%
X155930675Y-117129400D03*
%TO.P,C7,2*%
%TO.N,GND*%
X154380675Y-117129400D03*
%TD*%
D34*
%TO.P,Q2,1,G*%
%TO.N,Net-(Q2-G)*%
X146740400Y-115346400D03*
%TO.P,Q2,2,S*%
%TO.N,Net-(Q2-S)*%
X146740400Y-117246400D03*
%TO.P,Q2,3,D*%
%TO.N,Net-(Q2-D)*%
X148615400Y-116296400D03*
%TD*%
D26*
%TO.P,JP4,1,A*%
%TO.N,Net-(JP4-A)*%
X176285000Y-119050000D03*
D27*
%TO.P,JP4,2,B*%
%TO.N,BATT*%
X178825000Y-119050000D03*
%TD*%
D23*
%TO.P,R10,1*%
%TO.N,Net-(Q2-D)*%
X148620000Y-113742500D03*
%TO.P,R10,2*%
%TO.N,BATT_SWITCHED*%
X148620000Y-111917500D03*
%TD*%
D26*
%TO.P,J2,1,Pin_1*%
%TO.N,/Motor2_A*%
X169600000Y-108350000D03*
D27*
%TO.P,J2,2,Pin_2*%
%TO.N,/PC6*%
X169600000Y-110890000D03*
%TO.P,J2,3,Pin_3*%
%TO.N,/Motor2_B*%
X167060000Y-108350000D03*
%TO.P,J2,4,Pin_4*%
%TO.N,/PC7*%
X167060000Y-110890000D03*
%TO.P,J2,5,Pin_5*%
%TO.N,GND*%
X164520000Y-108350000D03*
%TO.P,J2,6,Pin_6*%
X164520000Y-110890000D03*
%TO.P,J2,7,Pin_7*%
%TO.N,BATT_SWITCHED*%
X161980000Y-108350000D03*
%TO.P,J2,8,Pin_8*%
X161980000Y-110890000D03*
%TO.P,J2,9,Pin_9*%
%TO.N,/PD7*%
X159440000Y-108350000D03*
%TO.P,J2,10,Pin_10*%
%TO.N,/BATT_ADC*%
X159440000Y-110890000D03*
%TO.P,J2,11,Pin_11*%
%TO.N,+5V*%
X156900000Y-108350000D03*
%TO.P,J2,12,Pin_12*%
X156900000Y-110890000D03*
%TO.P,J2,13,Pin_13*%
%TO.N,/Motor1_A*%
X154360000Y-108350000D03*
%TO.P,J2,14,Pin_14*%
%TO.N,/PC8*%
X154360000Y-110890000D03*
%TO.P,J2,15,Pin_15*%
%TO.N,/Motor1_B*%
X151820000Y-108350000D03*
%TO.P,J2,16,Pin_16*%
%TO.N,/PC9*%
X151820000Y-110890000D03*
%TD*%
D35*
%TO.P,JP2,1,A*%
%TO.N,Net-(JP2-A)*%
X166010000Y-127900000D03*
D36*
%TO.P,JP2,2,B*%
%TO.N,Net-(JP2-B)*%
X167310000Y-127900000D03*
%TD*%
D24*
%TO.P,U4,1,VM*%
%TO.N,BATT_SWITCHED*%
X154595675Y-115829400D03*
%TO.P,U4,2,OUT1*%
%TO.N,/Motor1_A*%
X154595675Y-115329400D03*
%TO.P,U4,3,OUT2*%
%TO.N,/Motor1_B*%
X154595675Y-114829400D03*
%TO.P,U4,4,GND*%
%TO.N,GND*%
X154595675Y-114329400D03*
%TO.P,U4,5,IN2*%
%TO.N,/PC8*%
X152695675Y-114329400D03*
%TO.P,U4,6,IN1*%
%TO.N,/PC9*%
X152695675Y-114829400D03*
%TO.P,U4,7,~{SLEEP}*%
%TO.N,VCC*%
X152695675Y-115329400D03*
%TO.P,U4,8,VCC*%
X152695675Y-115829400D03*
D25*
%TO.P,U4,9,GND*%
%TO.N,GND*%
X153645675Y-115079400D03*
%TD*%
D18*
%TO.P,C10,1*%
%TO.N,VCC*%
X161137000Y-117119400D03*
%TO.P,C10,2*%
%TO.N,GND*%
X162687000Y-117119400D03*
%TD*%
D37*
%TO.P,SW1,1,A*%
%TO.N,unconnected-(SW1-A-Pad1)*%
X177811573Y-124454719D03*
%TO.P,SW1,2,B*%
%TO.N,GND*%
X176397359Y-125868932D03*
%TO.P,SW1,3,C*%
%TO.N,Net-(Q1-G)*%
X174983146Y-127283146D03*
%TD*%
D17*
%TO.P,R9,1*%
%TO.N,BATT*%
X147092500Y-112690000D03*
%TO.P,R9,2*%
%TO.N,Net-(Q2-S)*%
X145267500Y-112690000D03*
%TD*%
D38*
%TO.P,R4,1*%
%TO.N,Net-(JP2-B)*%
X167610000Y-123330000D03*
%TO.P,R4,2*%
%TO.N,/PROG*%
X167610000Y-125330000D03*
%TD*%
D28*
%TO.P,C4,1*%
%TO.N,BATT_SWITCHED*%
X165707000Y-118629401D03*
%TO.P,C4,2*%
%TO.N,GND*%
X164157000Y-118629401D03*
%TD*%
D12*
%TO.P,D2,1,K*%
%TO.N,Net-(D2-K)*%
X167513000Y-114175000D03*
%TO.P,D2,2,A*%
%TO.N,+5V*%
X167513000Y-115750000D03*
%TD*%
D13*
%TO.P,R12,1*%
%TO.N,BATT_SWITCHED*%
X153960000Y-121517500D03*
%TO.P,R12,2*%
%TO.N,Net-(JP7-A)*%
X153960000Y-123342500D03*
%TD*%
D38*
%TO.P,R1,1*%
%TO.N,Net-(JP2-A)*%
X165620000Y-123330000D03*
%TO.P,R1,2*%
%TO.N,Net-(JP1-A)*%
X165620000Y-125330000D03*
%TD*%
D39*
%TO.N,BATT_SWITCHED*%
X165730000Y-119761000D03*
X155940000Y-120180000D03*
X157340000Y-130100000D03*
X149895897Y-115040000D03*
X149895897Y-113360000D03*
X156743400Y-120180000D03*
X155140000Y-120180000D03*
X149895897Y-114220000D03*
D40*
%TO.N,GND*%
X166260000Y-132930000D03*
X151300000Y-132920000D03*
X146370000Y-132910000D03*
X160380000Y-123536666D03*
X163420000Y-114710000D03*
X161330000Y-132920000D03*
X148370000Y-132910000D03*
X152400000Y-120620000D03*
X182080000Y-116610000D03*
X163830000Y-121440000D03*
X149370000Y-132910000D03*
X162900000Y-123566666D03*
X160860000Y-113130000D03*
X171390000Y-108720000D03*
X177370000Y-120860000D03*
X158240000Y-132900000D03*
X176920000Y-108590000D03*
X172200000Y-132910000D03*
X147370000Y-132910000D03*
X154300000Y-132920000D03*
X162900000Y-121440000D03*
X161170000Y-112460000D03*
X150960000Y-114460000D03*
X158600000Y-119300000D03*
X178160000Y-121550000D03*
X182740000Y-117200000D03*
X159240000Y-132900000D03*
X160380000Y-124600000D03*
X154300000Y-113500000D03*
X157190000Y-128350000D03*
X157240000Y-132900000D03*
X163420000Y-115490000D03*
X143300000Y-119570000D03*
X178210000Y-120870000D03*
X145520000Y-118970000D03*
X152300000Y-132920000D03*
X150970000Y-113520000D03*
X170260000Y-132930000D03*
X160400000Y-112160000D03*
X176150000Y-106807000D03*
X173940000Y-108590000D03*
X173200000Y-132910000D03*
X157540000Y-131160000D03*
X171380000Y-109700000D03*
X153650000Y-115510000D03*
X156240000Y-132900000D03*
X168260000Y-132930000D03*
X155300000Y-132920000D03*
X153650000Y-114640000D03*
X153300000Y-132920000D03*
X172466000Y-126238000D03*
X179100000Y-120870000D03*
X163330000Y-132920000D03*
X157707820Y-127762664D03*
X174630000Y-106807000D03*
X150370000Y-132910000D03*
X160380000Y-121410000D03*
X179130000Y-121540000D03*
X175200000Y-132910000D03*
X161317500Y-114001833D03*
X162900000Y-124630000D03*
X171200000Y-132910000D03*
X173050000Y-125840000D03*
X174650000Y-108590000D03*
X175370000Y-108590000D03*
X176170000Y-108590000D03*
X175640000Y-120830000D03*
X174200000Y-132910000D03*
X175350000Y-106807000D03*
X162330000Y-132920000D03*
X177700000Y-106807000D03*
X169260000Y-132930000D03*
X156818537Y-131169155D03*
X162900000Y-122503333D03*
X176900000Y-106807000D03*
X167260000Y-132930000D03*
X153644600Y-113461800D03*
X160380000Y-122473333D03*
X173920000Y-106807000D03*
X160240000Y-132900000D03*
X164330000Y-132920000D03*
X177440000Y-121570000D03*
X165330000Y-132920000D03*
X177720000Y-108590000D03*
X176470000Y-120810000D03*
X157900000Y-119300000D03*
X173220000Y-106807000D03*
X171380000Y-110730000D03*
%TO.N,+3V3*%
X156900000Y-126690000D03*
D39*
%TO.N,+5V*%
X168503600Y-117800000D03*
X173300000Y-124400000D03*
X167685000Y-118200000D03*
X167700000Y-117200000D03*
%TO.N,/BATT_ADC*%
X158500000Y-118300000D03*
D40*
%TO.N,/Motor2_A*%
X166068626Y-114699429D03*
%TO.N,/Motor2_B*%
X165760400Y-114020600D03*
%TO.N,/PC8*%
X152704800Y-113182400D03*
%TO.N,/PROG*%
X167610000Y-125330000D03*
D39*
%TO.N,Net-(U2-~{STDBY})*%
X173050200Y-114909600D03*
%TO.N,Net-(U2-~{CHRG})*%
X171500800Y-114884200D03*
%TO.N,Net-(Q2-G)*%
X144099130Y-118719600D03*
X145490000Y-115346400D03*
D40*
%TO.N,Net-(Q2-D)*%
X148600000Y-117300000D03*
D39*
%TO.N,VCC*%
X151360675Y-120240000D03*
X158880000Y-121350000D03*
%TO.N,Net-(JP7-A)*%
X156890000Y-121507500D03*
%TD*%
D41*
%TO.N,+BATT*%
X176500000Y-113474700D02*
X176500000Y-110840000D01*
X176756300Y-113731000D02*
X176500000Y-113474700D01*
%TO.N,BATT_SWITCHED*%
X149377500Y-111917500D02*
X149895897Y-112435897D01*
X148620000Y-110926400D02*
X147510000Y-109816400D01*
X148620000Y-111917500D02*
X149377500Y-111917500D01*
X148620000Y-111917500D02*
X148620000Y-110926400D01*
X147510000Y-109816400D02*
X147510000Y-109590000D01*
X149895897Y-112435897D02*
X149895897Y-115040000D01*
%TO.N,Net-(Q2-S)*%
X145267500Y-113342500D02*
X145267500Y-112690000D01*
X144260000Y-114350000D02*
X145267500Y-113342500D01*
X145260700Y-117246400D02*
X144260000Y-116245700D01*
X146740400Y-117246400D02*
X145260700Y-117246400D01*
%TO.N,BATT*%
X146210000Y-111807500D02*
X146210000Y-109590000D01*
%TO.N,Net-(Q2-S)*%
X144260000Y-116245700D02*
X144260000Y-114350000D01*
%TO.N,BATT*%
X147092500Y-112690000D02*
X146210000Y-111807500D01*
D42*
%TO.N,Net-(Q2-G)*%
X145490000Y-115346400D02*
X146740400Y-115346400D01*
%TO.N,BATT_SWITCHED*%
X165706999Y-116354799D02*
X165706999Y-117119400D01*
D41*
X154450000Y-120180000D02*
X153960000Y-120670000D01*
D42*
X157726900Y-117129400D02*
X157737500Y-117140000D01*
X155930675Y-118629400D02*
X155930675Y-117129400D01*
D41*
X155140000Y-120180000D02*
X154450000Y-120180000D01*
D42*
X152020000Y-130115000D02*
X154115000Y-130115000D01*
D41*
X157340000Y-130100000D02*
X154130000Y-130100000D01*
D42*
X155478800Y-115829400D02*
X155930675Y-116281275D01*
X155930675Y-116281275D02*
X155930675Y-117129400D01*
D41*
X165707000Y-118629401D02*
X165706999Y-117119400D01*
X165730000Y-119761000D02*
X165730000Y-118652401D01*
D42*
X155930675Y-117129400D02*
X157726900Y-117129400D01*
X154115000Y-130115000D02*
X154130000Y-130100000D01*
D41*
X165730000Y-118652401D02*
X165707000Y-118629401D01*
D42*
X154595675Y-115829400D02*
X155478800Y-115829400D01*
X164367000Y-115829400D02*
X165181600Y-115829400D01*
D41*
X155930675Y-120189325D02*
X155930675Y-118629400D01*
D42*
X165181600Y-115829400D02*
X165706999Y-116354799D01*
D41*
X155140000Y-120180000D02*
X155900000Y-120180000D01*
X156743400Y-120180000D02*
X155940000Y-120180000D01*
X153960000Y-120670000D02*
X153960000Y-121517500D01*
X161980000Y-108350000D02*
X161980000Y-110890000D01*
D43*
%TO.N,GND*%
X150600000Y-131270000D02*
X150995000Y-131665000D01*
D41*
X153645675Y-117105075D02*
X153645675Y-115079400D01*
X152910675Y-118629400D02*
X154380675Y-118629400D01*
D42*
X154595675Y-113795675D02*
X154300000Y-113500000D01*
D41*
X153670000Y-117129400D02*
X153888600Y-117129400D01*
D42*
X174170000Y-125050000D02*
X172690000Y-125050000D01*
X168931751Y-112230000D02*
X167886751Y-113275000D01*
X161317500Y-113651548D02*
X164079048Y-110890000D01*
X170370000Y-109690000D02*
X171030000Y-110350000D01*
X165720000Y-109690000D02*
X170370000Y-109690000D01*
X171030000Y-111450000D02*
X170250000Y-112230000D01*
X170250000Y-112230000D02*
X168931751Y-112230000D01*
D41*
X164157000Y-118629401D02*
X164156999Y-117119400D01*
D42*
X169495000Y-122750000D02*
X168978000Y-122750000D01*
X168656000Y-121666000D02*
X168355000Y-121365000D01*
X157427500Y-122682500D02*
X157427500Y-123330000D01*
D43*
X150600000Y-128870000D02*
X150600000Y-131270000D01*
D42*
X168978000Y-122750000D02*
X168656000Y-122428000D01*
X174990000Y-123420000D02*
X174990000Y-124230000D01*
D41*
X162687000Y-117119400D02*
X164156999Y-117119400D01*
D42*
X157900000Y-122210000D02*
X157427500Y-122682500D01*
X165421400Y-113275000D02*
X164367000Y-114329400D01*
D43*
X150995000Y-131665000D02*
X152020000Y-131665000D01*
D41*
X162677000Y-118629400D02*
X162677000Y-117129400D01*
D42*
X160380000Y-122473333D02*
X160116667Y-122210000D01*
D41*
X152910675Y-117129400D02*
X153670000Y-117129400D01*
X162677000Y-117129400D02*
X162687000Y-117119400D01*
D42*
X164520000Y-110890000D02*
X165720000Y-109690000D01*
D41*
X163322000Y-115510000D02*
X163410000Y-115598000D01*
D42*
X172690000Y-125050000D02*
X172035000Y-124395000D01*
D41*
X153670000Y-117129400D02*
X153645675Y-117105075D01*
D43*
X152000000Y-128445000D02*
X151025000Y-128445000D01*
D42*
X174990000Y-124230000D02*
X174170000Y-125050000D01*
X164079048Y-110890000D02*
X164520000Y-110890000D01*
D41*
X164520000Y-110890000D02*
X164520000Y-108350000D01*
D42*
X167886751Y-113275000D02*
X165421400Y-113275000D01*
X154595675Y-114329400D02*
X154595675Y-113795675D01*
X171030000Y-110350000D02*
X171030000Y-111450000D01*
D41*
X162677000Y-118629400D02*
X164157000Y-118629401D01*
D42*
X161317500Y-114001833D02*
X161317500Y-113651548D01*
D43*
X151025000Y-128445000D02*
X150630000Y-128840000D01*
X150630000Y-128840000D02*
X150600000Y-128870000D01*
D41*
X154380675Y-118629400D02*
X154380675Y-117129400D01*
D42*
X168656000Y-122428000D02*
X168656000Y-121666000D01*
X172035000Y-124395000D02*
X172035000Y-122750000D01*
X159967300Y-114032300D02*
X159705000Y-113770000D01*
X159967300Y-115290600D02*
X159967300Y-114032300D01*
D41*
X152910675Y-118629400D02*
X152910675Y-117129400D01*
D42*
X160116667Y-122210000D02*
X157900000Y-122210000D01*
D41*
X163410000Y-115598000D02*
X163410000Y-116840000D01*
D42*
%TO.N,+3V3*%
X152885000Y-126895000D02*
X152000000Y-126895000D01*
X153790000Y-127800000D02*
X152885000Y-126895000D01*
X156900000Y-126690000D02*
X155790000Y-127800000D01*
X155790000Y-127800000D02*
X154130000Y-127800000D01*
X154555000Y-128325000D02*
X154600000Y-128370000D01*
X154130000Y-127800000D02*
X153790000Y-127800000D01*
X152030000Y-126865000D02*
X152000000Y-126895000D01*
X152030000Y-125352500D02*
X152030000Y-126865000D01*
%TO.N,+5V*%
X175000000Y-121785000D02*
X173435000Y-121785000D01*
D41*
X167700000Y-117200000D02*
X167700000Y-115937000D01*
D42*
X167685000Y-117811000D02*
X167696000Y-117800000D01*
D41*
X167696000Y-117800000D02*
X169495000Y-117800000D01*
D42*
X173305000Y-122750000D02*
X173305000Y-124395000D01*
X173305000Y-124395000D02*
X173300000Y-124400000D01*
X167685000Y-118200000D02*
X167685000Y-117215000D01*
X167685000Y-117215000D02*
X167700000Y-117200000D01*
D43*
X169220000Y-115750000D02*
X167513000Y-115750000D01*
D42*
X173305000Y-121915000D02*
X173305000Y-122750000D01*
X173435000Y-121785000D02*
X173305000Y-121915000D01*
D41*
X167700000Y-115937000D02*
X167513000Y-115750000D01*
D42*
%TO.N,/BATT_ADC*%
X158142300Y-115290600D02*
X158142300Y-113827900D01*
X158142300Y-115992300D02*
X158142300Y-115290600D01*
X158500000Y-118300000D02*
X158500000Y-118202500D01*
X158142300Y-113827900D02*
X158229000Y-113741200D01*
D43*
X159500000Y-110950000D02*
X159440000Y-110890000D01*
D42*
X159340000Y-116280000D02*
X158430000Y-116280000D01*
X158155000Y-113770000D02*
X158155000Y-112175000D01*
X159562500Y-117140000D02*
X159562500Y-116502500D01*
X158500000Y-118202500D02*
X159562500Y-117140000D01*
X158430000Y-116280000D02*
X158142300Y-115992300D01*
X158155000Y-112175000D02*
X159440000Y-110890000D01*
X159562500Y-116502500D02*
X159340000Y-116280000D01*
D43*
%TO.N,+BATT*%
X176756300Y-113731000D02*
X178556235Y-113731000D01*
X178556235Y-113731000D02*
X179104765Y-114279530D01*
%TO.N,Net-(D1-K)*%
X172350000Y-113015600D02*
X172135800Y-112801400D01*
X172135800Y-112801400D02*
X169748200Y-112801400D01*
X169748200Y-112801400D02*
X169220000Y-113329600D01*
X172350000Y-113777500D02*
X172350000Y-113015600D01*
X169220000Y-113329600D02*
X169220000Y-114175000D01*
%TO.N,Net-(D2-K)*%
X170180000Y-114382500D02*
X170180000Y-114775000D01*
X169994600Y-114960400D02*
X168329400Y-114960400D01*
X168329400Y-114960400D02*
X167700000Y-114331000D01*
X167700000Y-114331000D02*
X167700000Y-114175000D01*
X170800000Y-113762500D02*
X170180000Y-114382500D01*
X170180000Y-114775000D02*
X169994600Y-114960400D01*
D41*
%TO.N,BATT*%
X172491400Y-111455200D02*
X172491400Y-108035300D01*
X174870000Y-116170600D02*
X174870000Y-114715000D01*
X147960000Y-106390000D02*
X146210000Y-108140000D01*
X178227000Y-117140000D02*
X175839400Y-117140000D01*
X175839400Y-117140000D02*
X174870000Y-116170600D01*
X174881300Y-113845100D02*
X172491400Y-111455200D01*
X178861800Y-118795800D02*
X178861800Y-117774800D01*
X174881300Y-114681000D02*
X174881300Y-113845100D01*
X172491400Y-108035300D02*
X170846100Y-106390000D01*
X146210000Y-108140000D02*
X146210000Y-109590000D01*
X170846100Y-106390000D02*
X147960000Y-106390000D01*
X178861800Y-117774800D02*
X178227000Y-117140000D01*
D42*
%TO.N,/Motor2_A*%
X165438655Y-115329400D02*
X164367000Y-115329400D01*
X166068626Y-114699429D02*
X165438655Y-115329400D01*
D43*
%TO.N,/PC6*%
X163477196Y-112800000D02*
X167690000Y-112800000D01*
X167690000Y-112800000D02*
X169600000Y-110890000D01*
X162467000Y-113810196D02*
X163477196Y-112800000D01*
X162467000Y-114329400D02*
X162467000Y-113810196D01*
D42*
%TO.N,/Motor2_B*%
X165760400Y-114020600D02*
X164951600Y-114829400D01*
X164951600Y-114829400D02*
X164367000Y-114829400D01*
D43*
%TO.N,/PC7*%
X163340800Y-112300000D02*
X165650000Y-112300000D01*
X161942000Y-114829400D02*
X161892000Y-114779400D01*
X161892000Y-114779400D02*
X161892000Y-113748800D01*
X162467000Y-114829400D02*
X161942000Y-114829400D01*
X165650000Y-112300000D02*
X167060000Y-110890000D01*
X161892000Y-113748800D02*
X163340800Y-112300000D01*
D42*
%TO.N,/Motor1_A*%
X154595675Y-115329400D02*
X155377781Y-115329400D01*
X155973400Y-113373400D02*
X155610000Y-113010000D01*
X155973400Y-114733781D02*
X155973400Y-113373400D01*
X155377781Y-115329400D02*
X155973400Y-114733781D01*
X155610000Y-113010000D02*
X155610000Y-109600000D01*
X155610000Y-109600000D02*
X154360000Y-108350000D01*
D43*
%TO.N,/PC8*%
X152695675Y-113191525D02*
X152695675Y-114329400D01*
X152704800Y-113182400D02*
X152695675Y-113191525D01*
D42*
%TO.N,/Motor1_B*%
X155473400Y-113766600D02*
X153110000Y-111403200D01*
X155473400Y-114526675D02*
X155473400Y-113766600D01*
X153110000Y-111403200D02*
X153110000Y-109640000D01*
X155170675Y-114829400D02*
X155473400Y-114526675D01*
X154595675Y-114829400D02*
X155170675Y-114829400D01*
X153110000Y-109640000D02*
X151820000Y-108350000D01*
D43*
%TO.N,/PC9*%
X152174675Y-114833400D02*
X151820000Y-114478725D01*
X152695675Y-114829400D02*
X152691675Y-114833400D01*
X151820000Y-114478725D02*
X151820000Y-110890000D01*
X152691675Y-114833400D02*
X152174675Y-114833400D01*
D42*
%TO.N,Net-(JP1-A)*%
X170940000Y-126240000D02*
X170500000Y-126680000D01*
X170500000Y-126680000D02*
X166120000Y-126680000D01*
X166120000Y-126680000D02*
X165620000Y-126180000D01*
X170940000Y-125290000D02*
X170940000Y-126240000D01*
X165620000Y-126180000D02*
X165620000Y-125330000D01*
D43*
%TO.N,/PROG*%
X167610000Y-125330000D02*
X169600000Y-125330000D01*
X170765000Y-123435000D02*
X170765000Y-122750000D01*
X169730000Y-124080000D02*
X170120000Y-124080000D01*
X169640000Y-124170000D02*
X169730000Y-124080000D01*
X170120000Y-124080000D02*
X170765000Y-123435000D01*
X169600000Y-125330000D02*
X169640000Y-125290000D01*
X169640000Y-125290000D02*
X169640000Y-124170000D01*
D42*
%TO.N,Net-(JP2-A)*%
X164510000Y-124310000D02*
X165490000Y-123330000D01*
X166010000Y-127900000D02*
X165200000Y-127900000D01*
X164510000Y-127210000D02*
X164510000Y-124310000D01*
X165200000Y-127900000D02*
X164510000Y-127210000D01*
X165490000Y-123330000D02*
X165620000Y-123330000D01*
%TO.N,Net-(JP2-B)*%
X167080000Y-129170000D02*
X164910000Y-129170000D01*
D43*
X167410000Y-128000000D02*
X167310000Y-127900000D01*
D42*
X163880000Y-122770000D02*
X164630000Y-122020000D01*
X164910000Y-129170000D02*
X163880000Y-128140000D01*
X167540000Y-123330000D02*
X167610000Y-123330000D01*
X163880000Y-128140000D02*
X163880000Y-122770000D01*
X164630000Y-122020000D02*
X166230000Y-122020000D01*
D43*
X169600000Y-128000000D02*
X167410000Y-128000000D01*
D42*
X166230000Y-122020000D02*
X167540000Y-123330000D01*
X167310000Y-128940000D02*
X167080000Y-129170000D01*
X167310000Y-127900000D02*
X167310000Y-128940000D01*
D41*
%TO.N,Net-(JP4-A)*%
X176285000Y-119050000D02*
X175035000Y-117800000D01*
X175035000Y-117800000D02*
X173305000Y-117800000D01*
D43*
%TO.N,Net-(U2-~{STDBY})*%
X173050200Y-114909600D02*
X173042900Y-114909600D01*
X172035000Y-116585200D02*
X172350000Y-116270200D01*
X172350000Y-116270200D02*
X172350000Y-115602500D01*
X172035000Y-117800000D02*
X172035000Y-116585200D01*
X173042900Y-114909600D02*
X172350000Y-115602500D01*
%TO.N,Net-(U2-~{CHRG})*%
X170800000Y-115585000D02*
X170800000Y-115587500D01*
X170800000Y-115587500D02*
X170800000Y-117765000D01*
X170800000Y-117765000D02*
X170765000Y-117800000D01*
X171500800Y-114884200D02*
X170800000Y-115585000D01*
D42*
%TO.N,Net-(Q1-G)*%
X176140000Y-128440000D02*
X176820000Y-128440000D01*
X180420000Y-115840000D02*
X180395235Y-115815235D01*
D43*
X180334235Y-115631000D02*
X177309000Y-115631000D01*
D42*
X174983146Y-127283146D02*
X176140000Y-128440000D01*
X180420000Y-124840000D02*
X180420000Y-115840000D01*
D43*
X180395235Y-115570000D02*
X180334235Y-115631000D01*
D42*
X176820000Y-128440000D02*
X180420000Y-124840000D01*
%TO.N,Net-(Q2-G)*%
X144099130Y-118719600D02*
X143017165Y-117637635D01*
X145306854Y-121053146D02*
X144589530Y-120335822D01*
X144589530Y-119210000D02*
X144099130Y-118719600D01*
X144589530Y-120335822D02*
X144589530Y-119210000D01*
%TO.N,Net-(Q2-D)*%
X148615400Y-113891700D02*
X148437600Y-113713900D01*
D43*
X148600000Y-117300000D02*
X148600000Y-116311800D01*
X148600000Y-116311800D02*
X148615400Y-116296400D01*
D42*
X148615400Y-116296400D02*
X148615400Y-113891700D01*
%TO.N,VCC*%
X151360675Y-116379325D02*
X151360675Y-117129400D01*
D41*
X161127000Y-117129400D02*
X161137000Y-117119400D01*
D42*
X158880000Y-120816739D02*
X161137000Y-118559739D01*
X162467000Y-115329400D02*
X161529400Y-115329400D01*
X151810600Y-115329400D02*
X152695675Y-115329400D01*
X158880000Y-121350000D02*
X158880000Y-120816739D01*
X161137000Y-116263000D02*
X161529400Y-115870600D01*
X161137000Y-117119400D02*
X161137000Y-116263000D01*
X152695675Y-115829400D02*
X151910600Y-115829400D01*
X162467000Y-115829400D02*
X161529400Y-115829400D01*
X151910600Y-115829400D02*
X151800000Y-115940000D01*
X161529400Y-115329400D02*
X161529400Y-115829400D01*
X151360675Y-120240000D02*
X151360675Y-118629400D01*
X161137000Y-118559739D02*
X161137000Y-117119400D01*
X151800000Y-115940000D02*
X151360675Y-116379325D01*
X151800000Y-115340000D02*
X151810600Y-115329400D01*
X161529400Y-115870600D02*
X161529400Y-115829400D01*
X151360675Y-118629400D02*
X151360675Y-117129400D01*
X151800000Y-115940000D02*
X151800000Y-115340000D01*
%TO.N,Net-(JP7-A)*%
X156890000Y-121507500D02*
X155590000Y-121507500D01*
X153960000Y-123342500D02*
X153960000Y-123240000D01*
X153960000Y-123240000D02*
X155590000Y-121610000D01*
X155590000Y-121610000D02*
X155590000Y-121517500D01*
%TO.N,Net-(U1-GND)*%
X157082500Y-125500000D02*
X154130000Y-125500000D01*
X159252500Y-123330000D02*
X157082500Y-125500000D01*
X154002500Y-125500000D02*
X152030000Y-123527500D01*
X154130000Y-125500000D02*
X154002500Y-125500000D01*
%TD*%
%TA.AperFunction,Conductor*%
%TO.N,GND*%
G36*
X150837280Y-107210185D02*
G01*
X150883035Y-107262989D01*
X150892979Y-107332147D01*
X150863954Y-107395703D01*
X150857922Y-107402181D01*
X150781505Y-107478597D01*
X150645965Y-107672169D01*
X150645964Y-107672171D01*
X150546098Y-107886335D01*
X150546094Y-107886344D01*
X150484938Y-108114586D01*
X150484936Y-108114596D01*
X150464341Y-108349999D01*
X150464341Y-108350000D01*
X150484936Y-108585403D01*
X150484938Y-108585413D01*
X150546094Y-108813655D01*
X150546096Y-108813659D01*
X150546097Y-108813663D01*
X150625801Y-108984588D01*
X150645965Y-109027830D01*
X150645967Y-109027834D01*
X150714510Y-109125723D01*
X150781504Y-109221400D01*
X150781506Y-109221402D01*
X150948597Y-109388493D01*
X150948603Y-109388498D01*
X151134158Y-109518425D01*
X151177783Y-109573002D01*
X151184977Y-109642500D01*
X151153454Y-109704855D01*
X151134158Y-109721575D01*
X150948597Y-109851505D01*
X150781505Y-110018597D01*
X150645965Y-110212169D01*
X150645964Y-110212171D01*
X150546098Y-110426335D01*
X150546094Y-110426344D01*
X150484938Y-110654586D01*
X150484936Y-110654596D01*
X150464341Y-110889999D01*
X150464341Y-110890000D01*
X150484936Y-111125403D01*
X150484938Y-111125413D01*
X150546094Y-111353655D01*
X150546096Y-111353659D01*
X150546097Y-111353663D01*
X150635503Y-111545394D01*
X150645965Y-111567830D01*
X150645967Y-111567834D01*
X150748665Y-111714501D01*
X150781501Y-111761396D01*
X150781506Y-111761402D01*
X150948597Y-111928493D01*
X150948603Y-111928498D01*
X150978422Y-111949377D01*
X151141624Y-112063653D01*
X151185248Y-112118228D01*
X151194500Y-112165226D01*
X151194500Y-114395980D01*
X151192775Y-114411597D01*
X151193061Y-114411624D01*
X151192326Y-114419390D01*
X151194500Y-114488539D01*
X151194500Y-114518068D01*
X151194501Y-114518085D01*
X151195368Y-114524956D01*
X151195826Y-114530775D01*
X151197290Y-114577349D01*
X151197291Y-114577352D01*
X151202880Y-114596592D01*
X151206824Y-114615636D01*
X151209336Y-114635517D01*
X151226282Y-114678319D01*
X151226490Y-114678844D01*
X151228382Y-114684372D01*
X151235928Y-114710345D01*
X151241382Y-114729115D01*
X151247277Y-114739084D01*
X151251580Y-114746359D01*
X151260136Y-114763825D01*
X151267514Y-114782457D01*
X151273807Y-114791118D01*
X151278625Y-114797750D01*
X151302103Y-114863557D01*
X151286276Y-114931610D01*
X151274051Y-114948236D01*
X151274136Y-114948298D01*
X151269552Y-114954606D01*
X151259322Y-114973213D01*
X151248646Y-114989464D01*
X151235640Y-115006232D01*
X151235636Y-115006238D01*
X151216348Y-115050811D01*
X151213777Y-115056058D01*
X151190372Y-115098630D01*
X151190372Y-115098631D01*
X151185091Y-115119199D01*
X151178791Y-115137601D01*
X151170364Y-115157073D01*
X151162766Y-115205047D01*
X151161581Y-115210770D01*
X151149500Y-115257818D01*
X151149500Y-115279044D01*
X151147973Y-115298444D01*
X151145490Y-115314123D01*
X151144653Y-115319405D01*
X151147459Y-115349083D01*
X151149225Y-115367767D01*
X151149500Y-115373606D01*
X151149500Y-115619191D01*
X151129815Y-115686230D01*
X151113181Y-115706873D01*
X150961159Y-115858894D01*
X150948586Y-115868969D01*
X150948740Y-115869155D01*
X150942734Y-115874123D01*
X150918109Y-115900346D01*
X150893484Y-115926569D01*
X150882624Y-115937429D01*
X150871763Y-115948290D01*
X150871753Y-115948302D01*
X150867262Y-115954090D01*
X150863476Y-115958522D01*
X150830227Y-115993931D01*
X150819997Y-116012538D01*
X150809321Y-116028789D01*
X150796315Y-116045557D01*
X150796311Y-116045563D01*
X150777023Y-116090136D01*
X150774452Y-116095383D01*
X150751047Y-116137955D01*
X150751047Y-116137956D01*
X150745766Y-116158524D01*
X150739466Y-116176926D01*
X150731039Y-116196398D01*
X150731039Y-116196399D01*
X150725623Y-116230596D01*
X150695693Y-116293731D01*
X150687688Y-116301275D01*
X150687738Y-116301325D01*
X150562704Y-116426359D01*
X150473676Y-116570694D01*
X150473671Y-116570705D01*
X150420326Y-116731690D01*
X150410175Y-116831047D01*
X150410175Y-117427737D01*
X150410176Y-117427755D01*
X150420325Y-117527107D01*
X150420326Y-117527110D01*
X150473671Y-117688094D01*
X150473673Y-117688099D01*
X150551517Y-117814303D01*
X150569957Y-117881696D01*
X150551517Y-117944497D01*
X150473673Y-118070700D01*
X150473671Y-118070705D01*
X150420326Y-118231690D01*
X150410175Y-118331047D01*
X150410175Y-118927737D01*
X150410176Y-118927755D01*
X150420325Y-119027107D01*
X150420326Y-119027110D01*
X150473671Y-119188094D01*
X150473676Y-119188105D01*
X150562704Y-119332440D01*
X150562707Y-119332444D01*
X150673856Y-119443593D01*
X150707341Y-119504916D01*
X150710175Y-119531274D01*
X150710175Y-119734931D01*
X150691169Y-119800903D01*
X150634886Y-119890477D01*
X150634884Y-119890481D01*
X150575308Y-120060737D01*
X150575305Y-120060750D01*
X150555110Y-120239996D01*
X150555110Y-120240003D01*
X150575305Y-120419249D01*
X150575306Y-120419254D01*
X150634886Y-120589523D01*
X150673951Y-120651694D01*
X150730859Y-120742262D01*
X150858413Y-120869816D01*
X150875665Y-120880656D01*
X150991569Y-120953484D01*
X151011153Y-120965789D01*
X151138930Y-121010500D01*
X151181420Y-121025368D01*
X151181425Y-121025369D01*
X151360671Y-121045565D01*
X151360675Y-121045565D01*
X151360679Y-121045565D01*
X151539924Y-121025369D01*
X151539927Y-121025368D01*
X151539930Y-121025368D01*
X151710197Y-120965789D01*
X151862937Y-120869816D01*
X151990491Y-120742262D01*
X152086464Y-120589522D01*
X152146043Y-120419255D01*
X152148156Y-120400500D01*
X152166240Y-120240003D01*
X152166240Y-120239996D01*
X152146044Y-120060750D01*
X152146041Y-120060737D01*
X152086465Y-119890481D01*
X152086464Y-119890478D01*
X152048764Y-119830478D01*
X152030181Y-119800903D01*
X152011175Y-119734931D01*
X152011175Y-119531274D01*
X152030860Y-119464235D01*
X152047437Y-119443649D01*
X152048299Y-119442787D01*
X152109599Y-119409269D01*
X152179293Y-119414213D01*
X152223709Y-119442739D01*
X152232942Y-119451972D01*
X152232946Y-119451975D01*
X152377182Y-119540942D01*
X152377193Y-119540947D01*
X152538068Y-119594255D01*
X152637358Y-119604399D01*
X152660675Y-119604398D01*
X152660675Y-117379400D01*
X153160675Y-117379400D01*
X153160675Y-118379400D01*
X154130675Y-118379400D01*
X154130675Y-117379400D01*
X153160675Y-117379400D01*
X152660675Y-117379400D01*
X152660675Y-117003400D01*
X152680360Y-116936361D01*
X152733164Y-116890606D01*
X152784675Y-116879400D01*
X154506675Y-116879400D01*
X154573714Y-116899085D01*
X154619469Y-116951889D01*
X154630675Y-117003400D01*
X154630675Y-118755400D01*
X154610990Y-118822439D01*
X154558186Y-118868194D01*
X154506675Y-118879400D01*
X153160675Y-118879400D01*
X153160675Y-119604399D01*
X153183983Y-119604399D01*
X153183997Y-119604398D01*
X153283282Y-119594255D01*
X153444156Y-119540947D01*
X153444163Y-119540944D01*
X153580577Y-119456802D01*
X153647970Y-119438361D01*
X153710772Y-119456802D01*
X153781617Y-119500500D01*
X153828342Y-119552448D01*
X153839563Y-119621410D01*
X153811720Y-119685492D01*
X153804201Y-119693719D01*
X153457738Y-120040184D01*
X153330186Y-120167735D01*
X153330183Y-120167739D01*
X153307966Y-120203096D01*
X153303941Y-120208769D01*
X153277910Y-120241410D01*
X153259791Y-120279033D01*
X153256427Y-120285120D01*
X153234212Y-120320476D01*
X153234208Y-120320483D01*
X153220416Y-120359895D01*
X153217755Y-120366320D01*
X153199639Y-120403939D01*
X153190344Y-120444659D01*
X153188419Y-120451341D01*
X153174632Y-120490744D01*
X153169955Y-120532235D01*
X153168791Y-120539089D01*
X153159500Y-120579806D01*
X153159500Y-120739318D01*
X153141039Y-120804415D01*
X153139661Y-120806648D01*
X153139660Y-120806650D01*
X153118890Y-120840323D01*
X153049093Y-120953481D01*
X153049091Y-120953486D01*
X153022064Y-121035048D01*
X152994826Y-121117247D01*
X152994826Y-121117248D01*
X152994825Y-121117248D01*
X152984500Y-121218315D01*
X152984500Y-121816669D01*
X152984501Y-121816687D01*
X152994825Y-121917752D01*
X153016115Y-121981999D01*
X153049092Y-122081516D01*
X153139286Y-122227744D01*
X153139661Y-122228351D01*
X153253629Y-122342319D01*
X153287114Y-122403642D01*
X153282130Y-122473334D01*
X153253629Y-122517681D01*
X153139661Y-122631648D01*
X153049089Y-122778488D01*
X153048591Y-122779558D01*
X153048053Y-122780168D01*
X153045301Y-122784631D01*
X153044538Y-122784160D01*
X153002420Y-122831999D01*
X152935227Y-122851152D01*
X152868345Y-122830938D01*
X152848527Y-122814837D01*
X152728351Y-122694661D01*
X152728350Y-122694660D01*
X152613792Y-122624000D01*
X152581518Y-122604093D01*
X152581513Y-122604091D01*
X152530156Y-122587073D01*
X152417753Y-122549826D01*
X152417751Y-122549825D01*
X152316678Y-122539500D01*
X151743330Y-122539500D01*
X151743312Y-122539501D01*
X151642247Y-122549825D01*
X151478484Y-122604092D01*
X151478481Y-122604093D01*
X151331648Y-122694661D01*
X151209661Y-122816648D01*
X151119093Y-122963481D01*
X151119091Y-122963486D01*
X151091719Y-123046088D01*
X151064826Y-123127247D01*
X151064826Y-123127248D01*
X151064825Y-123127248D01*
X151054500Y-123228315D01*
X151054500Y-123826669D01*
X151054501Y-123826687D01*
X151064825Y-123927752D01*
X151098161Y-124028350D01*
X151117753Y-124087476D01*
X151119092Y-124091515D01*
X151119093Y-124091518D01*
X151120867Y-124094394D01*
X151207592Y-124234998D01*
X151209661Y-124238351D01*
X151323629Y-124352319D01*
X151357114Y-124413642D01*
X151352130Y-124483334D01*
X151323629Y-124527681D01*
X151209661Y-124641648D01*
X151119093Y-124788481D01*
X151119092Y-124788484D01*
X151064826Y-124952247D01*
X151064826Y-124952248D01*
X151064825Y-124952248D01*
X151054500Y-125053315D01*
X151054500Y-125651669D01*
X151054501Y-125651687D01*
X151064825Y-125752752D01*
X151088984Y-125825656D01*
X151119092Y-125916516D01*
X151185867Y-126024776D01*
X151204341Y-126054726D01*
X151222781Y-126122119D01*
X151201858Y-126188782D01*
X151186486Y-126207501D01*
X151177033Y-126216953D01*
X151177029Y-126216959D01*
X151088001Y-126361294D01*
X151087996Y-126361305D01*
X151034651Y-126522290D01*
X151024500Y-126621647D01*
X151024500Y-127168337D01*
X151024501Y-127168355D01*
X151034650Y-127267707D01*
X151034651Y-127267710D01*
X151087996Y-127428694D01*
X151088001Y-127428705D01*
X151177029Y-127573040D01*
X151177032Y-127573044D01*
X151186660Y-127582672D01*
X151220145Y-127643995D01*
X151215161Y-127713687D01*
X151186663Y-127758031D01*
X151177428Y-127767265D01*
X151177424Y-127767271D01*
X151088457Y-127911507D01*
X151088452Y-127911518D01*
X151035144Y-128072393D01*
X151025000Y-128171677D01*
X151025000Y-128195000D01*
X152126000Y-128195000D01*
X152193039Y-128214685D01*
X152238794Y-128267489D01*
X152250000Y-128319000D01*
X152250000Y-128571000D01*
X152230315Y-128638039D01*
X152177511Y-128683794D01*
X152126000Y-128695000D01*
X151025001Y-128695000D01*
X151025001Y-128718322D01*
X151035144Y-128817607D01*
X151088452Y-128978481D01*
X151088457Y-128978492D01*
X151177424Y-129122728D01*
X151177427Y-129122732D01*
X151256660Y-129201965D01*
X151290145Y-129263288D01*
X151285161Y-129332980D01*
X151256661Y-129377327D01*
X151197029Y-129436959D01*
X151108001Y-129581294D01*
X151107996Y-129581305D01*
X151054651Y-129742290D01*
X151044500Y-129841647D01*
X151044500Y-130388337D01*
X151044501Y-130388355D01*
X151054650Y-130487707D01*
X151054651Y-130487710D01*
X151107996Y-130648694D01*
X151108001Y-130648705D01*
X151197029Y-130793040D01*
X151197032Y-130793044D01*
X151206660Y-130802672D01*
X151240145Y-130863995D01*
X151235161Y-130933687D01*
X151206663Y-130978031D01*
X151197428Y-130987265D01*
X151197424Y-130987271D01*
X151108457Y-131131507D01*
X151108452Y-131131518D01*
X151055144Y-131292393D01*
X151045000Y-131391677D01*
X151045000Y-131415000D01*
X152994997Y-131415000D01*
X153023179Y-131386818D01*
X153084502Y-131353333D01*
X153110851Y-131350499D01*
X155177872Y-131350499D01*
X155237483Y-131344091D01*
X155372331Y-131293796D01*
X155487546Y-131207546D01*
X155573796Y-131092331D01*
X155587589Y-131055349D01*
X155615258Y-130981167D01*
X155657129Y-130925233D01*
X155722593Y-130900816D01*
X155731440Y-130900500D01*
X157291564Y-130900500D01*
X157298502Y-130900889D01*
X157327400Y-130904145D01*
X157339998Y-130905565D01*
X157340000Y-130905565D01*
X157340004Y-130905565D01*
X157519249Y-130885369D01*
X157519252Y-130885368D01*
X157519255Y-130885368D01*
X157689522Y-130825789D01*
X157842262Y-130729816D01*
X157969816Y-130602262D01*
X158065789Y-130449522D01*
X158125368Y-130279255D01*
X158125369Y-130279249D01*
X158145565Y-130100003D01*
X158145565Y-130099996D01*
X158125369Y-129920750D01*
X158125368Y-129920745D01*
X158091986Y-129825346D01*
X158065789Y-129750478D01*
X158064158Y-129747883D01*
X158064150Y-129747870D01*
X158929500Y-129747870D01*
X158929501Y-129747876D01*
X158935908Y-129807483D01*
X158986202Y-129942328D01*
X158986206Y-129942335D01*
X159072452Y-130057544D01*
X159072455Y-130057547D01*
X159187664Y-130143793D01*
X159187671Y-130143797D01*
X159322517Y-130194091D01*
X159322516Y-130194091D01*
X159329444Y-130194835D01*
X159382127Y-130200500D01*
X161477872Y-130200499D01*
X161537483Y-130194091D01*
X161672331Y-130143796D01*
X161787546Y-130057546D01*
X161800036Y-130040862D01*
X176873452Y-130040862D01*
X176892492Y-130197680D01*
X176923430Y-130279255D01*
X176948510Y-130345385D01*
X177038247Y-130475392D01*
X177156490Y-130580145D01*
X177156492Y-130580146D01*
X177296364Y-130653558D01*
X177449744Y-130691362D01*
X177449745Y-130691362D01*
X177607715Y-130691362D01*
X177761095Y-130653558D01*
X177900970Y-130580145D01*
X178019213Y-130475392D01*
X178108950Y-130345385D01*
X178164967Y-130197680D01*
X178184008Y-130040862D01*
X178164967Y-129884044D01*
X178108950Y-129736339D01*
X178019213Y-129606332D01*
X177900970Y-129501579D01*
X177900968Y-129501578D01*
X177900967Y-129501577D01*
X177761095Y-129428165D01*
X177607716Y-129390362D01*
X177607715Y-129390362D01*
X177449745Y-129390362D01*
X177449744Y-129390362D01*
X177296364Y-129428165D01*
X177156492Y-129501577D01*
X177038246Y-129606333D01*
X176948511Y-129736337D01*
X176948510Y-129736338D01*
X176892492Y-129884043D01*
X176873452Y-130040861D01*
X176873452Y-130040862D01*
X161800036Y-130040862D01*
X161873796Y-129942331D01*
X161924091Y-129807483D01*
X161930500Y-129747873D01*
X161930499Y-125852128D01*
X161924091Y-125792517D01*
X161909828Y-125754277D01*
X161873797Y-125657671D01*
X161873793Y-125657664D01*
X161787547Y-125542455D01*
X161787544Y-125542452D01*
X161672335Y-125456206D01*
X161672328Y-125456202D01*
X161537482Y-125405908D01*
X161537483Y-125405908D01*
X161477883Y-125399501D01*
X161477881Y-125399500D01*
X161477873Y-125399500D01*
X161477864Y-125399500D01*
X159382129Y-125399500D01*
X159382123Y-125399501D01*
X159322516Y-125405908D01*
X159187671Y-125456202D01*
X159187664Y-125456206D01*
X159072455Y-125542452D01*
X159072452Y-125542455D01*
X158986206Y-125657664D01*
X158986202Y-125657671D01*
X158935908Y-125792517D01*
X158929501Y-125852116D01*
X158929501Y-125852123D01*
X158929500Y-125852135D01*
X158929500Y-129747870D01*
X158064150Y-129747870D01*
X158008255Y-129658913D01*
X157969816Y-129597738D01*
X157842262Y-129470184D01*
X157802507Y-129445204D01*
X157689523Y-129374211D01*
X157519254Y-129314631D01*
X157519249Y-129314630D01*
X157340004Y-129294435D01*
X157339998Y-129294435D01*
X157327400Y-129295854D01*
X157298502Y-129299110D01*
X157291564Y-129299500D01*
X155731440Y-129299500D01*
X155664401Y-129279815D01*
X155618646Y-129227011D01*
X155615258Y-129218833D01*
X155573797Y-129107671D01*
X155573796Y-129107669D01*
X155560943Y-129090500D01*
X155511393Y-129024310D01*
X155486977Y-128958847D01*
X155501828Y-128890574D01*
X155511394Y-128875689D01*
X155573796Y-128792331D01*
X155624091Y-128657483D01*
X155630500Y-128597873D01*
X155630500Y-128575997D01*
X155650185Y-128508958D01*
X155702989Y-128463203D01*
X155750602Y-128452058D01*
X155798347Y-128450558D01*
X155800204Y-128450500D01*
X155830925Y-128450500D01*
X155838190Y-128449581D01*
X155844016Y-128449122D01*
X155892569Y-128447597D01*
X155912956Y-128441673D01*
X155931996Y-128437731D01*
X155953058Y-128435071D01*
X155998235Y-128417183D01*
X156003735Y-128415300D01*
X156050398Y-128401744D01*
X156068665Y-128390939D01*
X156086136Y-128382380D01*
X156105871Y-128374568D01*
X156145177Y-128346010D01*
X156150043Y-128342813D01*
X156191865Y-128318081D01*
X156206870Y-128303075D01*
X156221668Y-128290436D01*
X156238837Y-128277963D01*
X156269809Y-128240522D01*
X156273723Y-128236221D01*
X157072003Y-127437941D01*
X157118727Y-127408583D01*
X157227690Y-127370456D01*
X157227693Y-127370453D01*
X157227697Y-127370452D01*
X157370884Y-127280481D01*
X157370885Y-127280480D01*
X157370890Y-127280477D01*
X157490477Y-127160890D01*
X157517250Y-127118282D01*
X157580452Y-127017697D01*
X157580454Y-127017694D01*
X157580454Y-127017692D01*
X157580456Y-127017690D01*
X157636313Y-126858059D01*
X157636313Y-126858058D01*
X157636314Y-126858056D01*
X157655249Y-126690002D01*
X157655249Y-126689997D01*
X157636314Y-126521943D01*
X157580454Y-126362305D01*
X157580452Y-126362302D01*
X157490481Y-126219115D01*
X157490476Y-126219109D01*
X157474049Y-126202682D01*
X157440564Y-126141359D01*
X157445548Y-126071667D01*
X157480026Y-126024776D01*
X157478848Y-126023598D01*
X157499368Y-126003077D01*
X157514168Y-125990436D01*
X157531337Y-125977963D01*
X157562309Y-125940522D01*
X157566213Y-125936231D01*
X159160627Y-124341818D01*
X159221950Y-124308333D01*
X159248308Y-124305499D01*
X159551670Y-124305499D01*
X159551676Y-124305499D01*
X159559655Y-124304684D01*
X159577608Y-124302850D01*
X159652753Y-124295174D01*
X159816516Y-124240908D01*
X159963350Y-124150340D01*
X160085340Y-124028350D01*
X160175908Y-123881516D01*
X160230174Y-123717753D01*
X160240500Y-123616677D01*
X160240499Y-123043324D01*
X160235790Y-122997229D01*
X160230174Y-122942247D01*
X160213101Y-122890725D01*
X160175908Y-122778484D01*
X160085340Y-122631650D01*
X159963350Y-122509660D01*
X159866306Y-122449803D01*
X159816518Y-122419093D01*
X159816513Y-122419091D01*
X159815069Y-122418612D01*
X159652753Y-122364826D01*
X159652751Y-122364825D01*
X159551684Y-122354500D01*
X159162823Y-122354500D01*
X159095784Y-122334815D01*
X159050029Y-122282011D01*
X159040085Y-122212853D01*
X159069110Y-122149297D01*
X159121867Y-122113458D01*
X159229522Y-122075789D01*
X159382262Y-121979816D01*
X159509816Y-121852262D01*
X159605789Y-121699522D01*
X159665368Y-121529255D01*
X159665980Y-121523827D01*
X159685565Y-121350003D01*
X159685565Y-121349996D01*
X159665369Y-121170753D01*
X159665368Y-121170751D01*
X159665368Y-121170745D01*
X159634221Y-121081735D01*
X159630659Y-121011959D01*
X159663580Y-120953103D01*
X160975466Y-119641218D01*
X161036789Y-119607733D01*
X161063147Y-119604899D01*
X161400338Y-119604899D01*
X161400344Y-119604899D01*
X161400352Y-119604898D01*
X161400355Y-119604898D01*
X161454760Y-119599340D01*
X161499708Y-119594749D01*
X161660697Y-119541403D01*
X161805044Y-119452368D01*
X161814668Y-119442743D01*
X161875987Y-119409256D01*
X161945679Y-119414235D01*
X161990034Y-119442739D01*
X161999267Y-119451972D01*
X161999271Y-119451975D01*
X162143507Y-119540942D01*
X162143518Y-119540947D01*
X162304393Y-119594255D01*
X162403683Y-119604399D01*
X162427000Y-119604398D01*
X162427000Y-118879400D01*
X162927000Y-118879400D01*
X162927000Y-119604399D01*
X162950308Y-119604399D01*
X162950322Y-119604398D01*
X163049607Y-119594255D01*
X163210481Y-119540947D01*
X163210492Y-119540942D01*
X163351902Y-119453719D01*
X163419294Y-119435278D01*
X163482096Y-119453719D01*
X163623507Y-119540943D01*
X163623518Y-119540948D01*
X163784393Y-119594256D01*
X163883683Y-119604400D01*
X163907000Y-119604399D01*
X163907000Y-118879401D01*
X163218363Y-118879401D01*
X163218360Y-118879400D01*
X162927000Y-118879400D01*
X162427000Y-118879400D01*
X162427000Y-118379400D01*
X162927000Y-118379400D01*
X163615637Y-118379400D01*
X163615640Y-118379401D01*
X163907000Y-118379401D01*
X163907000Y-118083046D01*
X163906999Y-118083037D01*
X163906999Y-117369400D01*
X162937000Y-117369400D01*
X162937000Y-118073038D01*
X162927000Y-118107093D01*
X162927000Y-118379400D01*
X162427000Y-118379400D01*
X162427000Y-117675762D01*
X162437000Y-117641706D01*
X162437000Y-116993400D01*
X162456685Y-116926361D01*
X162509489Y-116880606D01*
X162561000Y-116869400D01*
X164282999Y-116869400D01*
X164350038Y-116889085D01*
X164395793Y-116941889D01*
X164406999Y-116993400D01*
X164406999Y-117665754D01*
X164407000Y-117665764D01*
X164407000Y-119604400D01*
X164430308Y-119604400D01*
X164430322Y-119604399D01*
X164529607Y-119594256D01*
X164690481Y-119540948D01*
X164690487Y-119540945D01*
X164740402Y-119510157D01*
X164807794Y-119491716D01*
X164874458Y-119512637D01*
X164919228Y-119566279D01*
X164929500Y-119615695D01*
X164929500Y-119712564D01*
X164929110Y-119719502D01*
X164927372Y-119734931D01*
X164924435Y-119760999D01*
X164924435Y-119761003D01*
X164944630Y-119940249D01*
X164944631Y-119940254D01*
X165004211Y-120110523D01*
X165085569Y-120240003D01*
X165100184Y-120263262D01*
X165227738Y-120390816D01*
X165292241Y-120431346D01*
X165374401Y-120482971D01*
X165380478Y-120486789D01*
X165520255Y-120535699D01*
X165550745Y-120546368D01*
X165550750Y-120546369D01*
X165729996Y-120566565D01*
X165730000Y-120566565D01*
X165730004Y-120566565D01*
X165909249Y-120546369D01*
X165909252Y-120546368D01*
X165909255Y-120546368D01*
X166079522Y-120486789D01*
X166232262Y-120390816D01*
X166359816Y-120263262D01*
X166455789Y-120110522D01*
X166515368Y-119940255D01*
X166516460Y-119930566D01*
X166535565Y-119761003D01*
X166535565Y-119760999D01*
X166532628Y-119734931D01*
X166530889Y-119719502D01*
X166530500Y-119712564D01*
X166530500Y-119326218D01*
X166548962Y-119261120D01*
X166594001Y-119188101D01*
X166594000Y-119188101D01*
X166594003Y-119188098D01*
X166647349Y-119027109D01*
X166657500Y-118927746D01*
X166657499Y-118417091D01*
X166677183Y-118350053D01*
X166729987Y-118304298D01*
X166799146Y-118294354D01*
X166862702Y-118323379D01*
X166898541Y-118376137D01*
X166959211Y-118549523D01*
X167041550Y-118680564D01*
X167055184Y-118702262D01*
X167182738Y-118829816D01*
X167225336Y-118856582D01*
X167330929Y-118922931D01*
X167335478Y-118925789D01*
X167403529Y-118949601D01*
X167505745Y-118985368D01*
X167505750Y-118985369D01*
X167684996Y-119005565D01*
X167685000Y-119005565D01*
X167685004Y-119005565D01*
X167864249Y-118985369D01*
X167864252Y-118985368D01*
X167864255Y-118985368D01*
X168034522Y-118925789D01*
X168187262Y-118829816D01*
X168314816Y-118702262D01*
X168328450Y-118680564D01*
X168342297Y-118658527D01*
X168394631Y-118612237D01*
X168447290Y-118600500D01*
X168455164Y-118600500D01*
X168462102Y-118600889D01*
X168491000Y-118604145D01*
X168503598Y-118605565D01*
X168503600Y-118605565D01*
X168503602Y-118605565D01*
X168516199Y-118604145D01*
X168545097Y-118600889D01*
X168552036Y-118600500D01*
X168570500Y-118600500D01*
X168637539Y-118620185D01*
X168683294Y-118672989D01*
X168694500Y-118724500D01*
X168694500Y-118785468D01*
X168704969Y-118872649D01*
X168704971Y-118872657D01*
X168759677Y-119011380D01*
X168759680Y-119011386D01*
X168771603Y-119027109D01*
X168849788Y-119130212D01*
X168968616Y-119220321D01*
X169107348Y-119275030D01*
X169139287Y-119278865D01*
X169203498Y-119306401D01*
X169242631Y-119364284D01*
X169248500Y-119401980D01*
X169248500Y-121148523D01*
X169228815Y-121215562D01*
X169176011Y-121261317D01*
X169139288Y-121271638D01*
X169107468Y-121275459D01*
X168968860Y-121330119D01*
X168850144Y-121420144D01*
X168760119Y-121538860D01*
X168705459Y-121677468D01*
X168705459Y-121677469D01*
X168695000Y-121764565D01*
X168695000Y-122267715D01*
X168675315Y-122334754D01*
X168622511Y-122380509D01*
X168553353Y-122390453D01*
X168505904Y-122373254D01*
X168379340Y-122295189D01*
X168379335Y-122295187D01*
X168379334Y-122295186D01*
X168212797Y-122240001D01*
X168212795Y-122240000D01*
X168110016Y-122229500D01*
X168110009Y-122229500D01*
X167410808Y-122229500D01*
X167343769Y-122209815D01*
X167323127Y-122193181D01*
X166750434Y-121620488D01*
X166740361Y-121607914D01*
X166740174Y-121608070D01*
X166735201Y-121602059D01*
X166682756Y-121552810D01*
X166661035Y-121531089D01*
X166659061Y-121529558D01*
X166655235Y-121526589D01*
X166650798Y-121522799D01*
X166615396Y-121489554D01*
X166615388Y-121489548D01*
X166596792Y-121479325D01*
X166580531Y-121468644D01*
X166563763Y-121455637D01*
X166540180Y-121445432D01*
X166519178Y-121436343D01*
X166513956Y-121433786D01*
X166471368Y-121410373D01*
X166471365Y-121410372D01*
X166450801Y-121405092D01*
X166432396Y-121398790D01*
X166412927Y-121390365D01*
X166412921Y-121390363D01*
X166364951Y-121382766D01*
X166359236Y-121381582D01*
X166342772Y-121377355D01*
X166312180Y-121369500D01*
X166312177Y-121369500D01*
X166290955Y-121369500D01*
X166271555Y-121367973D01*
X166250596Y-121364653D01*
X166250595Y-121364653D01*
X166226786Y-121366903D01*
X166202230Y-121369225D01*
X166196392Y-121369500D01*
X164715504Y-121369500D01*
X164699493Y-121367732D01*
X164699471Y-121367974D01*
X164691704Y-121367240D01*
X164691703Y-121367240D01*
X164619796Y-121369500D01*
X164589075Y-121369500D01*
X164589071Y-121369500D01*
X164589061Y-121369501D01*
X164581793Y-121370419D01*
X164575976Y-121370876D01*
X164527436Y-121372402D01*
X164527425Y-121372404D01*
X164507049Y-121378323D01*
X164488008Y-121382266D01*
X164466953Y-121384926D01*
X164466937Y-121384930D01*
X164421776Y-121402810D01*
X164416250Y-121404702D01*
X164369602Y-121418255D01*
X164351332Y-121429060D01*
X164333863Y-121437618D01*
X164314128Y-121445432D01*
X164314126Y-121445433D01*
X164274839Y-121473977D01*
X164269956Y-121477184D01*
X164228132Y-121501919D01*
X164213126Y-121516926D01*
X164198336Y-121529558D01*
X164181167Y-121542032D01*
X164181165Y-121542034D01*
X164150194Y-121579470D01*
X164146262Y-121583791D01*
X163480483Y-122249569D01*
X163467910Y-122259643D01*
X163468065Y-122259830D01*
X163462059Y-122264798D01*
X163441292Y-122286913D01*
X163412809Y-122317244D01*
X163401949Y-122328104D01*
X163391088Y-122338965D01*
X163391078Y-122338977D01*
X163386587Y-122344765D01*
X163382801Y-122349197D01*
X163349552Y-122384606D01*
X163339322Y-122403213D01*
X163328646Y-122419464D01*
X163315640Y-122436232D01*
X163315636Y-122436238D01*
X163296348Y-122480811D01*
X163293777Y-122486058D01*
X163270372Y-122528630D01*
X163270372Y-122528631D01*
X163265091Y-122549199D01*
X163258791Y-122567601D01*
X163250364Y-122587073D01*
X163242766Y-122635047D01*
X163241581Y-122640770D01*
X163229500Y-122687818D01*
X163229500Y-122709044D01*
X163227973Y-122728444D01*
X163226856Y-122735499D01*
X163224653Y-122749405D01*
X163228551Y-122790634D01*
X163229225Y-122797767D01*
X163229500Y-122803606D01*
X163229500Y-128054494D01*
X163227732Y-128070505D01*
X163227974Y-128070528D01*
X163227240Y-128078294D01*
X163229500Y-128150203D01*
X163229500Y-128180920D01*
X163229501Y-128180940D01*
X163230418Y-128188206D01*
X163230876Y-128194024D01*
X163232402Y-128242567D01*
X163232403Y-128242570D01*
X163238323Y-128262948D01*
X163242268Y-128281996D01*
X163244928Y-128303054D01*
X163244931Y-128303064D01*
X163262813Y-128348230D01*
X163264705Y-128353758D01*
X163278254Y-128400395D01*
X163278255Y-128400397D01*
X163289060Y-128418666D01*
X163297617Y-128436134D01*
X163302156Y-128447597D01*
X163305432Y-128455872D01*
X163333983Y-128495170D01*
X163337188Y-128500049D01*
X163361919Y-128541865D01*
X163361923Y-128541869D01*
X163376925Y-128556871D01*
X163389563Y-128571669D01*
X163402033Y-128588833D01*
X163402036Y-128588836D01*
X163402037Y-128588837D01*
X163439476Y-128619809D01*
X163443776Y-128623722D01*
X163927723Y-129107669D01*
X164389564Y-129569510D01*
X164399635Y-129582080D01*
X164399822Y-129581926D01*
X164404796Y-129587937D01*
X164404798Y-129587940D01*
X164424254Y-129606210D01*
X164457243Y-129637190D01*
X164478967Y-129658913D01*
X164484757Y-129663405D01*
X164489197Y-129667197D01*
X164518498Y-129694711D01*
X164524607Y-129700448D01*
X164524610Y-129700450D01*
X164524612Y-129700451D01*
X164543207Y-129710674D01*
X164559468Y-129721356D01*
X164576232Y-129734359D01*
X164576236Y-129734362D01*
X164617867Y-129752377D01*
X164620811Y-129753651D01*
X164626050Y-129756217D01*
X164668632Y-129779627D01*
X164689204Y-129784908D01*
X164707594Y-129791205D01*
X164727074Y-129799635D01*
X164771221Y-129806626D01*
X164775048Y-129807233D01*
X164780757Y-129808415D01*
X164827823Y-129820500D01*
X164849045Y-129820500D01*
X164868444Y-129822026D01*
X164889405Y-129825347D01*
X164934104Y-129821121D01*
X164937770Y-129820775D01*
X164943608Y-129820500D01*
X166994495Y-129820500D01*
X167010505Y-129822267D01*
X167010528Y-129822026D01*
X167018289Y-129822758D01*
X167018296Y-129822760D01*
X167090203Y-129820500D01*
X167120925Y-129820500D01*
X167128190Y-129819581D01*
X167134016Y-129819122D01*
X167182569Y-129817597D01*
X167202956Y-129811673D01*
X167221996Y-129807731D01*
X167243058Y-129805071D01*
X167288235Y-129787183D01*
X167293735Y-129785300D01*
X167340398Y-129771744D01*
X167358665Y-129760939D01*
X167376136Y-129752380D01*
X167395871Y-129744568D01*
X167435177Y-129716010D01*
X167440043Y-129712813D01*
X167481865Y-129688081D01*
X167496870Y-129673075D01*
X167511668Y-129660436D01*
X167528837Y-129647963D01*
X167559809Y-129610522D01*
X167563723Y-129606221D01*
X167709513Y-129460431D01*
X167722079Y-129450365D01*
X167721925Y-129450178D01*
X167727937Y-129445204D01*
X167727937Y-129445203D01*
X167727940Y-129445202D01*
X167777190Y-129392755D01*
X167798911Y-129371035D01*
X167803401Y-129365245D01*
X167807183Y-129360815D01*
X167840448Y-129325393D01*
X167850674Y-129306790D01*
X167861353Y-129290533D01*
X167874362Y-129273764D01*
X167893663Y-129229159D01*
X167896207Y-129223965D01*
X167919627Y-129181368D01*
X167921352Y-129174651D01*
X167924906Y-129160807D01*
X167931208Y-129142398D01*
X167939635Y-129122926D01*
X167947232Y-129074956D01*
X167948417Y-129069235D01*
X167950478Y-129061208D01*
X167960500Y-129022177D01*
X167960500Y-129000948D01*
X167962027Y-128981548D01*
X167964983Y-128962890D01*
X167965346Y-128960595D01*
X167966567Y-128952887D01*
X167969262Y-128953314D01*
X167986940Y-128899369D01*
X168007922Y-128875902D01*
X168022943Y-128862887D01*
X168117097Y-128754226D01*
X168163217Y-128682460D01*
X168216021Y-128636706D01*
X168267533Y-128625500D01*
X168886242Y-128625500D01*
X168953281Y-128645185D01*
X168999036Y-128697988D01*
X169015095Y-128733153D01*
X169015105Y-128733171D01*
X169092896Y-128854216D01*
X169092911Y-128854237D01*
X169157618Y-128928912D01*
X169187057Y-128962887D01*
X169187060Y-128962890D01*
X169295830Y-129057139D01*
X169347741Y-129090500D01*
X169416778Y-129134868D01*
X169416780Y-129134868D01*
X169416784Y-129134871D01*
X169547700Y-129194658D01*
X169685655Y-129235165D01*
X169828111Y-129255647D01*
X169828114Y-129255647D01*
X170400000Y-129255647D01*
X170471961Y-129250500D01*
X170471963Y-129250499D01*
X170471965Y-129250499D01*
X170610050Y-129209954D01*
X170610050Y-129209953D01*
X170610053Y-129209953D01*
X170731128Y-129132143D01*
X170825377Y-129023373D01*
X170885165Y-128892457D01*
X170905647Y-128750000D01*
X170905647Y-128285763D01*
X170905647Y-127252180D01*
X170925332Y-127185141D01*
X170944764Y-127161787D01*
X170948827Y-127157969D01*
X170948837Y-127157963D01*
X170979809Y-127120522D01*
X170983723Y-127116221D01*
X171339513Y-126760431D01*
X171352079Y-126750365D01*
X171351925Y-126750178D01*
X171357937Y-126745204D01*
X171357937Y-126745203D01*
X171357940Y-126745202D01*
X171407190Y-126692755D01*
X171428911Y-126671035D01*
X171433401Y-126665245D01*
X171437183Y-126660815D01*
X171470448Y-126625393D01*
X171480674Y-126606790D01*
X171491353Y-126590533D01*
X171504362Y-126573764D01*
X171523663Y-126529159D01*
X171526207Y-126523965D01*
X171549627Y-126481368D01*
X171554907Y-126460802D01*
X171561209Y-126442395D01*
X171569635Y-126422926D01*
X171577235Y-126374932D01*
X171578414Y-126369245D01*
X171585883Y-126340157D01*
X171621620Y-126280124D01*
X171624721Y-126277341D01*
X171652943Y-126252887D01*
X171741661Y-126150500D01*
X171747088Y-126144237D01*
X171747090Y-126144233D01*
X171747097Y-126144226D01*
X171824904Y-126023155D01*
X171824907Y-126023147D01*
X171824910Y-126023143D01*
X171850961Y-125966098D01*
X171884632Y-125892370D01*
X171884632Y-125892369D01*
X171884632Y-125892367D01*
X171884814Y-125891970D01*
X171885250Y-125890262D01*
X171925180Y-125754277D01*
X171925400Y-125752752D01*
X171938614Y-125660839D01*
X171945642Y-125611962D01*
X171945642Y-125555603D01*
X171945647Y-125555585D01*
X171945647Y-125303246D01*
X174690136Y-125303246D01*
X174710596Y-125445560D01*
X174710597Y-125445565D01*
X174770323Y-125576343D01*
X174770324Y-125576345D01*
X174804643Y-125618932D01*
X176147359Y-125618932D01*
X176147359Y-124775429D01*
X176647359Y-124775429D01*
X176647359Y-125618932D01*
X177490861Y-125618932D01*
X177490861Y-125618931D01*
X176647359Y-124775429D01*
X176147359Y-124775429D01*
X176147359Y-124276215D01*
X176104771Y-124241896D01*
X175973992Y-124182170D01*
X175973987Y-124182169D01*
X175926062Y-124175279D01*
X175862506Y-124146254D01*
X175824732Y-124087476D01*
X175824732Y-124017606D01*
X175838171Y-123987443D01*
X175911544Y-123868488D01*
X175911547Y-123868481D01*
X175964855Y-123707606D01*
X175974999Y-123608322D01*
X175975000Y-123608309D01*
X175975000Y-123585000D01*
X175250000Y-123585000D01*
X175250000Y-124284999D01*
X175267851Y-124302850D01*
X175274096Y-124304684D01*
X175319851Y-124357488D01*
X175329795Y-124426646D01*
X175300770Y-124490202D01*
X175294738Y-124496680D01*
X174807908Y-124983509D01*
X174807902Y-124983516D01*
X174770324Y-125030147D01*
X174770323Y-125030149D01*
X174710597Y-125160927D01*
X174710596Y-125160932D01*
X174690136Y-125303246D01*
X171945647Y-125303246D01*
X171945647Y-125024443D01*
X171945642Y-125024397D01*
X171945642Y-124968039D01*
X171945642Y-124968038D01*
X171928191Y-124846666D01*
X171925180Y-124825720D01*
X171888889Y-124702128D01*
X171884632Y-124687630D01*
X171884627Y-124687618D01*
X171824910Y-124556856D01*
X171824897Y-124556833D01*
X171747103Y-124435783D01*
X171747098Y-124435776D01*
X171747097Y-124435774D01*
X171747087Y-124435762D01*
X171747085Y-124435759D01*
X171747080Y-124435753D01*
X171747078Y-124435750D01*
X171744440Y-124432225D01*
X171745207Y-124431650D01*
X171718061Y-124372195D01*
X171728012Y-124303037D01*
X171753120Y-124266878D01*
X171785000Y-124234998D01*
X171785000Y-122624000D01*
X171804685Y-122556961D01*
X171857489Y-122511206D01*
X171909000Y-122500000D01*
X172161000Y-122500000D01*
X172228039Y-122519685D01*
X172273794Y-122572489D01*
X172285000Y-122624000D01*
X172285000Y-124235000D01*
X172335434Y-124235000D01*
X172359914Y-124232060D01*
X172428822Y-124243610D01*
X172480547Y-124290581D01*
X172498666Y-124358061D01*
X172497921Y-124369056D01*
X172494435Y-124400001D01*
X172494435Y-124400003D01*
X172514630Y-124579249D01*
X172514631Y-124579254D01*
X172574211Y-124749523D01*
X172637031Y-124849500D01*
X172670184Y-124902262D01*
X172797738Y-125029816D01*
X172950478Y-125125789D01*
X173050897Y-125160927D01*
X173120745Y-125185368D01*
X173120750Y-125185369D01*
X173299996Y-125205565D01*
X173300000Y-125205565D01*
X173300004Y-125205565D01*
X173479249Y-125185369D01*
X173479252Y-125185368D01*
X173479255Y-125185368D01*
X173649522Y-125125789D01*
X173802262Y-125029816D01*
X173929816Y-124902262D01*
X174025789Y-124749522D01*
X174085368Y-124579255D01*
X174085369Y-124579249D01*
X174105565Y-124400003D01*
X174105565Y-124399997D01*
X174086942Y-124234713D01*
X174098996Y-124165891D01*
X174146346Y-124114511D01*
X174213956Y-124096887D01*
X174280362Y-124118614D01*
X174294883Y-124130687D01*
X174297271Y-124132575D01*
X174441507Y-124221542D01*
X174441518Y-124221547D01*
X174602393Y-124274855D01*
X174701683Y-124284999D01*
X174749999Y-124284998D01*
X174750000Y-124284998D01*
X174750000Y-123209000D01*
X174769685Y-123141961D01*
X174822489Y-123096206D01*
X174874000Y-123085000D01*
X175974999Y-123085000D01*
X175974999Y-123061692D01*
X175974998Y-123061677D01*
X175964855Y-122962392D01*
X175911547Y-122801518D01*
X175911542Y-122801507D01*
X175822575Y-122657271D01*
X175822572Y-122657267D01*
X175813339Y-122648034D01*
X175779854Y-122586711D01*
X175784838Y-122517019D01*
X175813343Y-122472668D01*
X175822968Y-122463044D01*
X175912003Y-122318697D01*
X175965349Y-122157708D01*
X175975500Y-122058345D01*
X175975499Y-121511656D01*
X175975074Y-121507500D01*
X175965349Y-121412292D01*
X175965348Y-121412289D01*
X175958083Y-121390365D01*
X175912003Y-121251303D01*
X175911999Y-121251297D01*
X175911998Y-121251294D01*
X175822970Y-121106959D01*
X175822967Y-121106955D01*
X175703044Y-120987032D01*
X175703040Y-120987029D01*
X175558705Y-120898001D01*
X175558699Y-120897998D01*
X175558697Y-120897997D01*
X175497387Y-120877681D01*
X175397709Y-120844651D01*
X175298346Y-120834500D01*
X174701662Y-120834500D01*
X174701644Y-120834501D01*
X174602292Y-120844650D01*
X174602289Y-120844651D01*
X174441305Y-120897996D01*
X174441294Y-120898001D01*
X174296959Y-120987029D01*
X174296955Y-120987032D01*
X174185807Y-121098181D01*
X174124484Y-121131666D01*
X174098126Y-121134500D01*
X173675500Y-121134500D01*
X173608461Y-121114815D01*
X173562706Y-121062011D01*
X173551500Y-121010500D01*
X173551499Y-119401980D01*
X173571184Y-119334941D01*
X173623987Y-119289186D01*
X173660706Y-119278866D01*
X173692652Y-119275030D01*
X173831384Y-119220321D01*
X173950212Y-119130212D01*
X174040321Y-119011384D01*
X174095030Y-118872652D01*
X174105500Y-118785468D01*
X174105500Y-118724500D01*
X174125185Y-118657461D01*
X174177989Y-118611706D01*
X174229500Y-118600500D01*
X174652060Y-118600500D01*
X174719099Y-118620185D01*
X174739741Y-118636819D01*
X174898181Y-118795259D01*
X174931666Y-118856582D01*
X174934500Y-118882940D01*
X174934500Y-119947870D01*
X174934501Y-119947876D01*
X174940908Y-120007483D01*
X174991202Y-120142328D01*
X174991206Y-120142335D01*
X175077452Y-120257544D01*
X175077455Y-120257547D01*
X175192664Y-120343793D01*
X175192671Y-120343797D01*
X175327517Y-120394091D01*
X175327516Y-120394091D01*
X175334444Y-120394835D01*
X175387127Y-120400500D01*
X177182872Y-120400499D01*
X177242483Y-120394091D01*
X177377331Y-120343796D01*
X177492546Y-120257546D01*
X177578796Y-120142331D01*
X177627810Y-120010916D01*
X177669681Y-119954984D01*
X177735145Y-119930566D01*
X177803418Y-119945417D01*
X177831673Y-119966569D01*
X177953599Y-120088495D01*
X178050384Y-120156265D01*
X178147165Y-120224032D01*
X178147167Y-120224033D01*
X178147170Y-120224035D01*
X178361337Y-120323903D01*
X178361343Y-120323904D01*
X178361344Y-120323905D01*
X178375795Y-120327777D01*
X178589592Y-120385063D01*
X178766034Y-120400500D01*
X178824999Y-120405659D01*
X178825000Y-120405659D01*
X178825001Y-120405659D01*
X178883966Y-120400500D01*
X179060408Y-120385063D01*
X179288663Y-120323903D01*
X179502830Y-120224035D01*
X179574378Y-120173936D01*
X179640582Y-120151610D01*
X179708349Y-120168620D01*
X179756163Y-120219568D01*
X179769500Y-120275512D01*
X179769500Y-124519191D01*
X179749815Y-124586230D01*
X179733181Y-124606872D01*
X179423658Y-124916394D01*
X179362335Y-124949879D01*
X179292643Y-124944895D01*
X179236710Y-124903023D01*
X179232883Y-124897614D01*
X179208232Y-124860721D01*
X177405571Y-123058060D01*
X177343628Y-123016672D01*
X177245888Y-122997229D01*
X177148146Y-123016672D01*
X177086202Y-123058061D01*
X176414915Y-123729348D01*
X176373526Y-123791292D01*
X176355579Y-123881516D01*
X176354083Y-123889034D01*
X176373526Y-123986774D01*
X176414914Y-124048717D01*
X178217575Y-125851378D01*
X178254456Y-125876021D01*
X178299261Y-125929632D01*
X178307969Y-125998957D01*
X178277815Y-126061985D01*
X178273248Y-126066804D01*
X178190792Y-126149261D01*
X178129469Y-126182746D01*
X178059777Y-126177762D01*
X178006559Y-126139387D01*
X177990075Y-126118932D01*
X176647359Y-126118932D01*
X176647359Y-127461647D01*
X176667814Y-127478132D01*
X176707662Y-127535525D01*
X176710155Y-127605350D01*
X176677689Y-127662364D01*
X176595233Y-127744821D01*
X176533910Y-127778306D01*
X176464218Y-127773322D01*
X176408284Y-127731451D01*
X176404449Y-127726031D01*
X176379805Y-127689148D01*
X174809589Y-126118932D01*
X175303856Y-126118932D01*
X176147358Y-126962434D01*
X176147359Y-126962433D01*
X176147359Y-126118932D01*
X175303856Y-126118932D01*
X174809589Y-126118932D01*
X174577145Y-125886488D01*
X174561478Y-125876020D01*
X174515201Y-125845099D01*
X174417461Y-125825656D01*
X174319719Y-125845099D01*
X174257775Y-125886488D01*
X173586488Y-126557775D01*
X173545099Y-126619719D01*
X173530571Y-126692755D01*
X173525656Y-126717461D01*
X173545099Y-126815201D01*
X173586487Y-126877144D01*
X175389148Y-128679805D01*
X175451091Y-128721193D01*
X175476807Y-128726308D01*
X175538717Y-128758691D01*
X175540298Y-128760244D01*
X175619564Y-128839510D01*
X175629635Y-128852080D01*
X175629822Y-128851926D01*
X175634796Y-128857937D01*
X175634798Y-128857940D01*
X175654254Y-128876210D01*
X175687243Y-128907190D01*
X175708966Y-128928912D01*
X175714758Y-128933405D01*
X175719198Y-128937198D01*
X175732832Y-128950000D01*
X175754607Y-128970448D01*
X175773198Y-128980668D01*
X175789463Y-128991352D01*
X175806234Y-129004361D01*
X175806237Y-129004363D01*
X175850827Y-129023658D01*
X175856056Y-129026220D01*
X175898632Y-129049627D01*
X175919193Y-129054905D01*
X175937597Y-129061207D01*
X175957074Y-129069636D01*
X175991392Y-129075071D01*
X176005054Y-129077235D01*
X176010764Y-129078417D01*
X176057823Y-129090500D01*
X176079045Y-129090500D01*
X176098442Y-129092026D01*
X176119405Y-129095347D01*
X176167772Y-129090774D01*
X176173609Y-129090500D01*
X176734495Y-129090500D01*
X176750505Y-129092267D01*
X176750528Y-129092026D01*
X176758289Y-129092758D01*
X176758296Y-129092760D01*
X176830203Y-129090500D01*
X176860925Y-129090500D01*
X176868190Y-129089581D01*
X176874016Y-129089122D01*
X176922569Y-129087597D01*
X176942956Y-129081673D01*
X176961996Y-129077731D01*
X176983058Y-129075071D01*
X177028235Y-129057183D01*
X177033735Y-129055300D01*
X177080398Y-129041744D01*
X177098665Y-129030939D01*
X177116136Y-129022380D01*
X177135871Y-129014568D01*
X177175177Y-128986010D01*
X177180043Y-128982813D01*
X177221865Y-128958081D01*
X177236870Y-128943075D01*
X177251668Y-128930436D01*
X177253766Y-128928912D01*
X177268837Y-128917963D01*
X177299809Y-128880522D01*
X177303723Y-128876221D01*
X180593854Y-125586089D01*
X181328225Y-125586089D01*
X181347265Y-125742907D01*
X181397749Y-125876020D01*
X181403283Y-125890612D01*
X181493020Y-126020619D01*
X181611263Y-126125372D01*
X181611265Y-126125373D01*
X181751137Y-126198785D01*
X181904517Y-126236589D01*
X181904518Y-126236589D01*
X182062488Y-126236589D01*
X182215868Y-126198785D01*
X182286515Y-126161706D01*
X182355743Y-126125372D01*
X182473986Y-126020619D01*
X182563723Y-125890612D01*
X182619740Y-125742907D01*
X182638781Y-125586089D01*
X182623011Y-125456206D01*
X182619740Y-125429270D01*
X182587856Y-125345200D01*
X182563723Y-125281566D01*
X182473986Y-125151559D01*
X182355743Y-125046806D01*
X182355741Y-125046805D01*
X182355740Y-125046804D01*
X182215868Y-124973392D01*
X182062489Y-124935589D01*
X182062488Y-124935589D01*
X181904518Y-124935589D01*
X181904517Y-124935589D01*
X181751137Y-124973392D01*
X181611265Y-125046804D01*
X181493019Y-125151560D01*
X181403284Y-125281564D01*
X181403283Y-125281565D01*
X181347265Y-125429270D01*
X181328225Y-125586088D01*
X181328225Y-125586089D01*
X180593854Y-125586089D01*
X180819511Y-125360432D01*
X180832086Y-125350359D01*
X180831931Y-125350172D01*
X180837933Y-125345205D01*
X180837940Y-125345202D01*
X180887205Y-125292739D01*
X180908911Y-125271034D01*
X180913403Y-125265241D01*
X180917193Y-125260805D01*
X180950448Y-125225393D01*
X180960670Y-125206796D01*
X180971355Y-125190531D01*
X180984363Y-125173763D01*
X181003652Y-125129187D01*
X181006224Y-125123936D01*
X181006561Y-125123321D01*
X181029627Y-125081368D01*
X181034904Y-125060808D01*
X181041206Y-125042403D01*
X181049636Y-125022926D01*
X181057235Y-124974945D01*
X181058417Y-124969234D01*
X181070500Y-124922177D01*
X181070500Y-124900955D01*
X181072027Y-124881555D01*
X181075347Y-124860595D01*
X181070775Y-124812230D01*
X181070500Y-124806392D01*
X181070500Y-122549050D01*
X181090185Y-122482011D01*
X181142989Y-122436256D01*
X181212147Y-122426312D01*
X181275703Y-122455337D01*
X181282181Y-122461369D01*
X181318917Y-122498105D01*
X181512421Y-122633600D01*
X181726507Y-122733429D01*
X181726516Y-122733433D01*
X181940000Y-122790634D01*
X181940000Y-121895501D01*
X182047685Y-121944680D01*
X182154237Y-121960000D01*
X182225763Y-121960000D01*
X182332315Y-121944680D01*
X182440000Y-121895501D01*
X182440000Y-122790633D01*
X182653483Y-122733433D01*
X182653492Y-122733429D01*
X182867578Y-122633600D01*
X183061082Y-122498105D01*
X183228105Y-122331082D01*
X183363600Y-122137578D01*
X183463429Y-121923492D01*
X183463432Y-121923486D01*
X183520636Y-121710000D01*
X182623686Y-121710000D01*
X182649493Y-121669844D01*
X182690000Y-121531889D01*
X182690000Y-121388111D01*
X182649493Y-121250156D01*
X182623686Y-121210000D01*
X183520636Y-121210000D01*
X183520635Y-121209999D01*
X183463432Y-120996513D01*
X183463429Y-120996507D01*
X183363600Y-120782422D01*
X183363599Y-120782420D01*
X183228113Y-120588926D01*
X183228108Y-120588920D01*
X183106053Y-120466865D01*
X183072568Y-120405542D01*
X183077552Y-120335850D01*
X183119424Y-120279917D01*
X183150400Y-120263002D01*
X183254879Y-120224035D01*
X183282326Y-120213798D01*
X183282326Y-120213797D01*
X183282331Y-120213796D01*
X183397546Y-120127546D01*
X183483796Y-120012331D01*
X183534091Y-119877483D01*
X183540500Y-119817873D01*
X183540499Y-118022128D01*
X183534091Y-117962517D01*
X183533298Y-117960392D01*
X183483797Y-117827671D01*
X183483793Y-117827664D01*
X183397547Y-117712455D01*
X183397544Y-117712452D01*
X183282335Y-117626206D01*
X183282328Y-117626202D01*
X183147482Y-117575908D01*
X183147483Y-117575908D01*
X183087883Y-117569501D01*
X183087881Y-117569500D01*
X183087873Y-117569500D01*
X183087864Y-117569500D01*
X181292129Y-117569500D01*
X181292123Y-117569501D01*
X181232512Y-117575909D01*
X181224969Y-117577692D01*
X181224307Y-117574893D01*
X181168139Y-117578910D01*
X181106816Y-117545423D01*
X181073333Y-117484099D01*
X181070500Y-117457744D01*
X181070500Y-116343338D01*
X181090185Y-116276299D01*
X181106815Y-116255661D01*
X181296566Y-116065910D01*
X181360738Y-115987137D01*
X181438164Y-115832967D01*
X181438290Y-115832438D01*
X181477950Y-115665100D01*
X181477950Y-115492578D01*
X181472399Y-115469158D01*
X181465629Y-115440593D01*
X181469322Y-115370823D01*
X181510150Y-115314123D01*
X181575151Y-115288498D01*
X181643687Y-115302083D01*
X181671808Y-115322209D01*
X182489040Y-116100635D01*
X183556247Y-117117168D01*
X183558328Y-117119515D01*
X183564642Y-117125468D01*
X183564643Y-117125470D01*
X183585339Y-117144984D01*
X183594935Y-117154032D01*
X183598462Y-117157640D01*
X183646927Y-117211441D01*
X183671706Y-117238949D01*
X183683958Y-117255008D01*
X183738919Y-117340719D01*
X183748400Y-117358552D01*
X183788716Y-117452043D01*
X183795177Y-117471180D01*
X183819781Y-117569982D01*
X183823049Y-117589912D01*
X183828480Y-117656798D01*
X183831020Y-117688094D01*
X183831892Y-117698827D01*
X183832095Y-117703880D01*
X183823869Y-132919412D01*
X183823861Y-132919504D01*
X183823841Y-132970550D01*
X183823540Y-132976625D01*
X183810604Y-133107531D01*
X183805859Y-133131355D01*
X183770309Y-133248467D01*
X183761010Y-133270908D01*
X183703313Y-133378837D01*
X183689818Y-133399034D01*
X183612182Y-133493651D01*
X183595010Y-133510828D01*
X183550363Y-133547486D01*
X183500421Y-133588490D01*
X183480228Y-133601990D01*
X183372314Y-133659721D01*
X183349875Y-133669027D01*
X183232774Y-133704611D01*
X183208953Y-133709363D01*
X183077930Y-133722351D01*
X183071855Y-133722654D01*
X183021436Y-133722689D01*
X183021344Y-133722697D01*
X140408171Y-133759042D01*
X140402086Y-133758748D01*
X140400647Y-133758607D01*
X140270968Y-133745938D01*
X140247118Y-133741212D01*
X140129799Y-133705711D01*
X140107325Y-133696419D01*
X139999192Y-133638704D01*
X139978962Y-133625202D01*
X139884171Y-133547486D01*
X139866967Y-133530297D01*
X139789174Y-133435582D01*
X139775655Y-133415365D01*
X139717844Y-133307284D01*
X139708531Y-133284817D01*
X139672927Y-133167527D01*
X139668179Y-133143675D01*
X139655282Y-133012862D01*
X139654983Y-133006775D01*
X139654983Y-131915000D01*
X151045001Y-131915000D01*
X151045001Y-131938322D01*
X151055144Y-132037607D01*
X151108452Y-132198481D01*
X151108457Y-132198492D01*
X151197424Y-132342728D01*
X151197427Y-132342732D01*
X151317267Y-132462572D01*
X151317271Y-132462575D01*
X151461507Y-132551542D01*
X151461518Y-132551547D01*
X151622393Y-132604855D01*
X151721683Y-132614999D01*
X151769999Y-132614998D01*
X151770000Y-132614998D01*
X151770000Y-131915000D01*
X152270000Y-131915000D01*
X152270000Y-132614999D01*
X152318308Y-132614999D01*
X152318322Y-132614998D01*
X152417607Y-132604855D01*
X152578481Y-132551547D01*
X152578492Y-132551542D01*
X152722728Y-132462575D01*
X152722732Y-132462572D01*
X152842572Y-132342732D01*
X152842575Y-132342728D01*
X152931542Y-132198492D01*
X152931547Y-132198481D01*
X152984855Y-132037606D01*
X152994999Y-131938322D01*
X152995000Y-131938309D01*
X152995000Y-131915000D01*
X152270000Y-131915000D01*
X151770000Y-131915000D01*
X151045001Y-131915000D01*
X139654983Y-131915000D01*
X139654983Y-128053503D01*
X146348633Y-128053503D01*
X146367673Y-128210321D01*
X146408541Y-128318079D01*
X146423691Y-128358026D01*
X146513428Y-128488033D01*
X146631671Y-128592786D01*
X146631673Y-128592787D01*
X146771545Y-128666199D01*
X146924925Y-128704003D01*
X146924926Y-128704003D01*
X147082896Y-128704003D01*
X147236276Y-128666199D01*
X147276314Y-128645185D01*
X147376151Y-128592786D01*
X147494394Y-128488033D01*
X147584131Y-128358026D01*
X147640148Y-128210321D01*
X147659189Y-128053503D01*
X147640148Y-127896685D01*
X147584131Y-127748980D01*
X147494394Y-127618973D01*
X147376151Y-127514220D01*
X147376149Y-127514219D01*
X147376148Y-127514218D01*
X147236276Y-127440806D01*
X147082897Y-127403003D01*
X147082896Y-127403003D01*
X146924926Y-127403003D01*
X146924925Y-127403003D01*
X146771545Y-127440806D01*
X146631673Y-127514218D01*
X146513427Y-127618974D01*
X146423692Y-127748978D01*
X146423691Y-127748979D01*
X146367673Y-127896684D01*
X146348633Y-128053502D01*
X146348633Y-128053503D01*
X139654983Y-128053503D01*
X139654983Y-124447258D01*
X146677791Y-124447258D01*
X146697234Y-124544999D01*
X146738622Y-124606942D01*
X147409912Y-125278232D01*
X147471855Y-125319620D01*
X147550152Y-125335195D01*
X147569595Y-125339063D01*
X147569595Y-125339062D01*
X147569596Y-125339063D01*
X147667336Y-125319620D01*
X147729279Y-125278232D01*
X149531940Y-123475571D01*
X149573328Y-123413628D01*
X149592771Y-123315888D01*
X149590832Y-123306143D01*
X149575352Y-123228323D01*
X149573328Y-123218147D01*
X149531940Y-123156204D01*
X148860650Y-122484914D01*
X148798707Y-122443526D01*
X148700966Y-122424083D01*
X148603225Y-122443526D01*
X148541281Y-122484915D01*
X146738623Y-124287573D01*
X146697234Y-124349517D01*
X146680074Y-124435783D01*
X146677791Y-124447258D01*
X139654983Y-124447258D01*
X139654983Y-123598730D01*
X141893860Y-123598730D01*
X141912900Y-123755548D01*
X141955731Y-123868481D01*
X141968918Y-123903253D01*
X142058655Y-124033260D01*
X142176898Y-124138013D01*
X142176900Y-124138014D01*
X142316772Y-124211426D01*
X142470152Y-124249230D01*
X142470153Y-124249230D01*
X142628123Y-124249230D01*
X142781503Y-124211426D01*
X142810193Y-124196368D01*
X142921378Y-124138013D01*
X143039621Y-124033260D01*
X143129358Y-123903253D01*
X143185375Y-123755548D01*
X143204416Y-123598730D01*
X143188252Y-123465602D01*
X143185375Y-123441911D01*
X143150862Y-123350909D01*
X143129358Y-123294207D01*
X143039621Y-123164200D01*
X142921378Y-123059447D01*
X142921376Y-123059446D01*
X142921375Y-123059445D01*
X142871073Y-123033044D01*
X145013845Y-123033044D01*
X145034305Y-123175358D01*
X145034306Y-123175363D01*
X145094032Y-123306141D01*
X145094033Y-123306143D01*
X145131611Y-123352774D01*
X145131617Y-123352781D01*
X145835645Y-124056809D01*
X145835652Y-124056815D01*
X145882283Y-124094393D01*
X145882285Y-124094394D01*
X146013063Y-124154120D01*
X146013068Y-124154121D01*
X146155382Y-124174581D01*
X146297696Y-124154121D01*
X146297701Y-124154120D01*
X146428479Y-124094394D01*
X146428481Y-124094393D01*
X146471068Y-124060074D01*
X146471068Y-122717359D01*
X146971068Y-122717359D01*
X146971068Y-123560861D01*
X147814570Y-122717359D01*
X146971068Y-122717359D01*
X146471068Y-122717359D01*
X145128352Y-122717359D01*
X145094033Y-122759945D01*
X145094032Y-122759947D01*
X145034306Y-122890725D01*
X145034305Y-122890730D01*
X145013845Y-123033044D01*
X142871073Y-123033044D01*
X142781503Y-122986033D01*
X142628124Y-122948230D01*
X142628123Y-122948230D01*
X142470153Y-122948230D01*
X142470152Y-122948230D01*
X142316772Y-122986033D01*
X142176900Y-123059445D01*
X142058654Y-123164201D01*
X141968919Y-123294205D01*
X141968918Y-123294206D01*
X141912900Y-123441911D01*
X141893860Y-123598729D01*
X141893860Y-123598730D01*
X139654983Y-123598730D01*
X139654983Y-117933905D01*
X139655260Y-117928049D01*
X139655421Y-117926356D01*
X139667226Y-117801853D01*
X139671620Y-117778881D01*
X139704618Y-117665634D01*
X139713250Y-117643899D01*
X139766936Y-117538872D01*
X139779504Y-117519137D01*
X139819270Y-117468059D01*
X139857511Y-117418941D01*
X139861305Y-117414515D01*
X139889468Y-117384651D01*
X139889468Y-117384649D01*
X139891340Y-117382665D01*
X139899093Y-117372626D01*
X143958071Y-112874306D01*
X143958078Y-112874301D01*
X143963484Y-112868310D01*
X143963610Y-112868232D01*
X143998433Y-112829612D01*
X144060016Y-112761313D01*
X144060016Y-112761311D01*
X144063058Y-112757939D01*
X144064666Y-112759389D01*
X144114066Y-112723650D01*
X144183829Y-112719802D01*
X144244598Y-112754282D01*
X144277080Y-112816143D01*
X144279500Y-112840522D01*
X144279500Y-112976668D01*
X144279501Y-112976687D01*
X144289825Y-113077752D01*
X144290236Y-113078991D01*
X144292668Y-113086331D01*
X144293231Y-113088028D01*
X144295633Y-113157856D01*
X144263206Y-113214714D01*
X143757738Y-113720184D01*
X143630186Y-113847735D01*
X143630183Y-113847739D01*
X143607966Y-113883096D01*
X143603941Y-113888769D01*
X143577910Y-113921410D01*
X143559791Y-113959033D01*
X143556427Y-113965120D01*
X143534212Y-114000476D01*
X143534208Y-114000483D01*
X143520416Y-114039895D01*
X143517755Y-114046320D01*
X143499639Y-114083939D01*
X143490344Y-114124659D01*
X143488419Y-114131341D01*
X143475695Y-114167708D01*
X143474632Y-114170745D01*
X143469955Y-114212242D01*
X143468793Y-114219085D01*
X143459500Y-114259805D01*
X143459500Y-115764373D01*
X143439815Y-115831412D01*
X143423181Y-115852054D01*
X143406306Y-115868928D01*
X143406305Y-115868929D01*
X143342137Y-115947698D01*
X143342133Y-115947704D01*
X143264706Y-116101874D01*
X143252834Y-116151965D01*
X143227042Y-116260794D01*
X143224920Y-116269746D01*
X143224920Y-116430920D01*
X143205235Y-116497959D01*
X143152431Y-116543714D01*
X143100920Y-116554920D01*
X142939744Y-116554920D01*
X142813842Y-116584759D01*
X142771874Y-116594706D01*
X142617700Y-116672135D01*
X142538943Y-116736292D01*
X142538925Y-116736308D01*
X142115841Y-117159394D01*
X142115822Y-117159415D01*
X142051667Y-117238168D01*
X142051663Y-117238174D01*
X141974236Y-117392344D01*
X141966431Y-117425278D01*
X141935952Y-117553880D01*
X141934450Y-117560216D01*
X141934450Y-117732735D01*
X141974234Y-117900599D01*
X142002896Y-117957669D01*
X142049721Y-118050908D01*
X142051663Y-118054773D01*
X142115820Y-118133531D01*
X142115833Y-118133546D01*
X142521251Y-118538962D01*
X142521261Y-118538971D01*
X142522948Y-118540345D01*
X142600028Y-118603138D01*
X142708196Y-118657461D01*
X142754200Y-118680565D01*
X142922065Y-118720350D01*
X142922066Y-118720350D01*
X143094584Y-118720350D01*
X143094586Y-118720350D01*
X143096235Y-118719959D01*
X143097405Y-118720020D01*
X143101760Y-118719512D01*
X143101846Y-118720255D01*
X143166005Y-118723648D01*
X143212518Y-118752934D01*
X143277407Y-118817823D01*
X143310892Y-118879146D01*
X143312945Y-118891612D01*
X143313760Y-118898846D01*
X143313762Y-118898855D01*
X143373340Y-119069121D01*
X143448103Y-119188105D01*
X143469314Y-119221862D01*
X143596868Y-119349416D01*
X143749608Y-119445389D01*
X143855985Y-119482612D01*
X143912760Y-119523332D01*
X143938508Y-119588285D01*
X143939030Y-119599653D01*
X143939030Y-120250316D01*
X143937262Y-120266327D01*
X143937504Y-120266350D01*
X143936770Y-120274116D01*
X143936770Y-120274118D01*
X143936952Y-120279917D01*
X143939030Y-120346025D01*
X143939030Y-120376742D01*
X143939031Y-120376762D01*
X143939948Y-120384028D01*
X143940406Y-120389846D01*
X143941932Y-120438389D01*
X143941933Y-120438392D01*
X143947853Y-120458770D01*
X143951798Y-120477818D01*
X143954458Y-120498876D01*
X143954461Y-120498886D01*
X143972343Y-120544052D01*
X143974235Y-120549580D01*
X143987784Y-120596217D01*
X143987785Y-120596219D01*
X143998590Y-120614488D01*
X144007147Y-120631956D01*
X144012756Y-120646122D01*
X144014962Y-120651694D01*
X144043513Y-120690992D01*
X144046718Y-120695871D01*
X144071449Y-120737687D01*
X144071453Y-120737691D01*
X144086455Y-120752693D01*
X144099093Y-120767491D01*
X144111563Y-120784655D01*
X144111566Y-120784658D01*
X144111567Y-120784659D01*
X144149006Y-120815631D01*
X144153306Y-120819544D01*
X144211375Y-120877613D01*
X144263871Y-120930109D01*
X144297356Y-120991432D01*
X144292372Y-121061124D01*
X144263871Y-121105471D01*
X143910196Y-121459146D01*
X143868807Y-121521090D01*
X143851505Y-121608070D01*
X143849364Y-121618831D01*
X143868807Y-121716572D01*
X143910195Y-121778515D01*
X144581485Y-122449805D01*
X144643428Y-122491193D01*
X144712470Y-122504927D01*
X144741168Y-122510636D01*
X144741168Y-122510635D01*
X144741169Y-122510636D01*
X144838909Y-122491193D01*
X144900852Y-122449805D01*
X145133299Y-122217358D01*
X145627565Y-122217358D01*
X145627566Y-122217359D01*
X146471068Y-122217359D01*
X146971068Y-122217359D01*
X148313784Y-122217359D01*
X148348102Y-122174772D01*
X148348103Y-122174770D01*
X148407829Y-122043992D01*
X148407830Y-122043987D01*
X148428290Y-121901673D01*
X148407830Y-121759359D01*
X148407829Y-121759354D01*
X148348103Y-121628576D01*
X148348102Y-121628574D01*
X148310524Y-121581943D01*
X148310518Y-121581936D01*
X147606490Y-120877908D01*
X147606483Y-120877902D01*
X147559852Y-120840324D01*
X147559850Y-120840323D01*
X147429072Y-120780597D01*
X147429067Y-120780596D01*
X147286753Y-120760136D01*
X147144439Y-120780596D01*
X147144434Y-120780597D01*
X147013655Y-120840323D01*
X146971068Y-120874642D01*
X146971068Y-122217359D01*
X146471068Y-122217359D01*
X146471068Y-121373857D01*
X146471067Y-121373856D01*
X145627565Y-122217358D01*
X145133299Y-122217358D01*
X146703513Y-120647144D01*
X146744901Y-120585201D01*
X146764344Y-120487461D01*
X146764210Y-120486789D01*
X146757159Y-120451341D01*
X146744901Y-120389720D01*
X146703513Y-120327777D01*
X146032223Y-119656487D01*
X145970280Y-119615099D01*
X145872539Y-119595656D01*
X145774798Y-119615099D01*
X145712854Y-119656488D01*
X145451711Y-119917631D01*
X145390388Y-119951116D01*
X145320696Y-119946132D01*
X145264763Y-119904260D01*
X145240346Y-119838796D01*
X145240030Y-119829950D01*
X145240030Y-119295501D01*
X145241798Y-119279488D01*
X145241556Y-119279466D01*
X145242288Y-119271710D01*
X145242290Y-119271703D01*
X145240030Y-119199795D01*
X145240030Y-119169075D01*
X145239109Y-119161788D01*
X145238652Y-119155979D01*
X145237127Y-119107430D01*
X145231206Y-119087052D01*
X145227261Y-119068003D01*
X145224601Y-119046942D01*
X145206716Y-119001772D01*
X145204827Y-118996252D01*
X145191273Y-118949599D01*
X145180471Y-118931335D01*
X145171909Y-118913858D01*
X145165969Y-118898855D01*
X145164098Y-118894129D01*
X145135544Y-118854828D01*
X145132340Y-118849950D01*
X145120432Y-118829815D01*
X145107611Y-118808135D01*
X145092605Y-118793129D01*
X145079965Y-118778330D01*
X145067491Y-118761160D01*
X145030058Y-118730194D01*
X145025736Y-118726260D01*
X144920852Y-118621376D01*
X144887367Y-118560053D01*
X144885312Y-118547573D01*
X144884498Y-118540345D01*
X144824919Y-118370078D01*
X144812336Y-118350053D01*
X144780886Y-118300000D01*
X144728946Y-118217338D01*
X144601392Y-118089784D01*
X144571028Y-118070705D01*
X144448651Y-117993810D01*
X144278385Y-117934232D01*
X144278376Y-117934230D01*
X144271142Y-117933415D01*
X144206730Y-117906344D01*
X144197353Y-117897877D01*
X144132464Y-117832988D01*
X144098979Y-117771665D01*
X144099437Y-117722276D01*
X144099042Y-117722230D01*
X144099471Y-117718552D01*
X144099488Y-117716705D01*
X144099880Y-117715056D01*
X144099880Y-117553880D01*
X144119565Y-117486841D01*
X144172369Y-117441086D01*
X144223880Y-117429880D01*
X144260740Y-117429880D01*
X144327779Y-117449565D01*
X144348421Y-117466199D01*
X144758438Y-117876216D01*
X144793796Y-117898433D01*
X144799470Y-117902460D01*
X144832111Y-117928490D01*
X144832114Y-117928492D01*
X144869738Y-117946610D01*
X144875823Y-117949974D01*
X144895783Y-117962516D01*
X144911178Y-117972189D01*
X144950599Y-117985983D01*
X144957007Y-117988638D01*
X144994639Y-118006760D01*
X145035341Y-118016050D01*
X145042028Y-118017976D01*
X145081442Y-118031767D01*
X145081445Y-118031768D01*
X145122941Y-118036443D01*
X145129793Y-118037607D01*
X145170506Y-118046900D01*
X145170508Y-118046900D01*
X147393596Y-118046900D01*
X147412031Y-118045449D01*
X147430469Y-118043998D01*
X147430471Y-118043997D01*
X147430473Y-118043997D01*
X147472568Y-118031767D01*
X147588298Y-117998144D01*
X147729765Y-117914481D01*
X147785695Y-117858551D01*
X147851498Y-117792749D01*
X147853313Y-117794564D01*
X147899799Y-117760982D01*
X147969565Y-117757182D01*
X148028835Y-117790202D01*
X148129109Y-117890476D01*
X148129115Y-117890481D01*
X148272302Y-117980452D01*
X148272305Y-117980454D01*
X148272309Y-117980455D01*
X148272310Y-117980456D01*
X148292804Y-117987627D01*
X148431943Y-118036314D01*
X148599997Y-118055249D01*
X148600000Y-118055249D01*
X148600003Y-118055249D01*
X148768056Y-118036314D01*
X148781051Y-118031767D01*
X148927690Y-117980456D01*
X148927692Y-117980454D01*
X148927694Y-117980454D01*
X148927697Y-117980452D01*
X149070884Y-117890481D01*
X149070885Y-117890480D01*
X149070890Y-117890477D01*
X149190477Y-117770890D01*
X149196703Y-117760982D01*
X149280452Y-117627697D01*
X149280454Y-117627694D01*
X149280454Y-117627692D01*
X149280456Y-117627690D01*
X149336313Y-117468059D01*
X149336313Y-117468058D01*
X149336314Y-117468056D01*
X149355249Y-117300002D01*
X149355249Y-117299997D01*
X149342893Y-117190337D01*
X149354947Y-117121515D01*
X149402296Y-117070135D01*
X149431517Y-117057377D01*
X149463298Y-117048144D01*
X149604765Y-116964481D01*
X149720981Y-116848265D01*
X149804644Y-116706798D01*
X149850498Y-116548969D01*
X149853400Y-116512094D01*
X149853400Y-116080706D01*
X149853376Y-116080406D01*
X149850498Y-116043832D01*
X149850497Y-116043829D01*
X149849073Y-116038928D01*
X149837223Y-115998138D01*
X149837422Y-115928271D01*
X149875363Y-115869601D01*
X149939001Y-115840756D01*
X149942416Y-115840324D01*
X150075146Y-115825369D01*
X150075149Y-115825368D01*
X150075152Y-115825368D01*
X150245419Y-115765789D01*
X150398159Y-115669816D01*
X150525713Y-115542262D01*
X150621686Y-115389522D01*
X150681265Y-115219255D01*
X150683803Y-115196731D01*
X150687400Y-115164811D01*
X150696395Y-115084971D01*
X150696397Y-115084954D01*
X150696397Y-115084953D01*
X150701462Y-115040000D01*
X150696786Y-114998502D01*
X150696397Y-114991564D01*
X150696397Y-114268435D01*
X150696786Y-114261496D01*
X150701462Y-114220000D01*
X150696786Y-114178502D01*
X150696397Y-114171564D01*
X150696397Y-113408435D01*
X150696786Y-113401496D01*
X150701462Y-113360000D01*
X150696786Y-113318502D01*
X150696397Y-113311564D01*
X150696397Y-112345704D01*
X150696397Y-112345703D01*
X150687104Y-112304990D01*
X150685939Y-112298130D01*
X150685900Y-112297781D01*
X150681265Y-112256642D01*
X150672867Y-112232642D01*
X150667473Y-112217225D01*
X150665547Y-112210538D01*
X150656258Y-112169838D01*
X150638141Y-112132217D01*
X150635478Y-112125788D01*
X150621686Y-112086374D01*
X150605233Y-112060191D01*
X150599464Y-112051009D01*
X150596103Y-112044927D01*
X150577988Y-112007309D01*
X150577987Y-112007308D01*
X150551952Y-111974662D01*
X150547925Y-111968986D01*
X150540682Y-111957459D01*
X150525713Y-111933635D01*
X150398159Y-111806081D01*
X149911752Y-111319674D01*
X149879762Y-111287684D01*
X149879759Y-111287682D01*
X149844404Y-111265466D01*
X149838729Y-111261440D01*
X149806089Y-111235410D01*
X149768459Y-111217287D01*
X149762372Y-111213922D01*
X149727025Y-111191712D01*
X149687614Y-111177921D01*
X149681188Y-111175259D01*
X149643561Y-111157139D01*
X149602845Y-111147845D01*
X149596162Y-111145920D01*
X149556758Y-111132132D01*
X149556760Y-111132132D01*
X149530613Y-111129186D01*
X149466199Y-111102117D01*
X149426646Y-111044521D01*
X149420500Y-111005966D01*
X149420500Y-110836207D01*
X149420500Y-110836206D01*
X149411207Y-110795493D01*
X149410042Y-110788633D01*
X149405368Y-110747145D01*
X149405367Y-110747142D01*
X149391576Y-110707728D01*
X149389650Y-110701041D01*
X149380361Y-110660341D01*
X149362244Y-110622720D01*
X149359581Y-110616291D01*
X149345789Y-110576877D01*
X149334577Y-110559035D01*
X149323567Y-110541512D01*
X149320206Y-110535430D01*
X149302091Y-110497812D01*
X149302090Y-110497811D01*
X149276055Y-110465165D01*
X149272028Y-110459489D01*
X149249816Y-110424138D01*
X149122262Y-110296584D01*
X148551966Y-109726288D01*
X148518481Y-109664965D01*
X148515647Y-109638607D01*
X148515647Y-109324443D01*
X148515642Y-109324397D01*
X148515642Y-109268039D01*
X148515642Y-109268038D01*
X148495180Y-109125723D01*
X148495180Y-109125722D01*
X148495180Y-109125720D01*
X148463123Y-109016546D01*
X148454632Y-108987630D01*
X148454627Y-108987618D01*
X148394910Y-108856856D01*
X148394897Y-108856833D01*
X148317103Y-108735783D01*
X148317088Y-108735762D01*
X148222943Y-108627113D01*
X148222940Y-108627110D01*
X148114170Y-108532861D01*
X148078937Y-108510218D01*
X147993221Y-108455131D01*
X147993217Y-108455129D01*
X147993216Y-108455129D01*
X147862300Y-108395342D01*
X147724345Y-108354835D01*
X147724342Y-108354834D01*
X147581889Y-108334353D01*
X147447087Y-108334353D01*
X147380048Y-108314668D01*
X147334293Y-108261864D01*
X147324349Y-108192706D01*
X147353374Y-108129150D01*
X147359406Y-108122672D01*
X148255259Y-107226819D01*
X148316582Y-107193334D01*
X148342940Y-107190500D01*
X150770241Y-107190500D01*
X150837280Y-107210185D01*
G37*
%TD.AperFunction*%
%TA.AperFunction,Conductor*%
G36*
X156989298Y-117936248D02*
G01*
X157020164Y-117956902D01*
X157020987Y-117955862D01*
X157026647Y-117960338D01*
X157026649Y-117960339D01*
X157026650Y-117960340D01*
X157173484Y-118050908D01*
X157337247Y-118105174D01*
X157438323Y-118115500D01*
X157576467Y-118115499D01*
X157643506Y-118135183D01*
X157689261Y-118187987D01*
X157699687Y-118253382D01*
X157694435Y-118299996D01*
X157694435Y-118300003D01*
X157714630Y-118479249D01*
X157714631Y-118479254D01*
X157774211Y-118649523D01*
X157859632Y-118785468D01*
X157870184Y-118802262D01*
X157997738Y-118929816D01*
X158029226Y-118949601D01*
X158127552Y-119011384D01*
X158150478Y-119025789D01*
X158210930Y-119046942D01*
X158320745Y-119085368D01*
X158320750Y-119085369D01*
X158499996Y-119105565D01*
X158500000Y-119105565D01*
X158500004Y-119105565D01*
X158679249Y-119085369D01*
X158679252Y-119085368D01*
X158679255Y-119085368D01*
X158849522Y-119025789D01*
X159002262Y-118929816D01*
X159129816Y-118802262D01*
X159225789Y-118649522D01*
X159285368Y-118479255D01*
X159298563Y-118362140D01*
X159325629Y-118297727D01*
X159334083Y-118288361D01*
X159470629Y-118151815D01*
X159531950Y-118118333D01*
X159558308Y-118115499D01*
X159861670Y-118115499D01*
X159861676Y-118115499D01*
X159962753Y-118105174D01*
X160027303Y-118083783D01*
X160097129Y-118081382D01*
X160157171Y-118117113D01*
X160188364Y-118179633D01*
X160187561Y-118227437D01*
X160186651Y-118231686D01*
X160176500Y-118331047D01*
X160176500Y-118548930D01*
X160156815Y-118615969D01*
X160140181Y-118636611D01*
X158480483Y-120296308D01*
X158467910Y-120306382D01*
X158468065Y-120306569D01*
X158462059Y-120311537D01*
X158450449Y-120323901D01*
X158412809Y-120363983D01*
X158401949Y-120374843D01*
X158391088Y-120385704D01*
X158391078Y-120385716D01*
X158386587Y-120391504D01*
X158382801Y-120395936D01*
X158349552Y-120431345D01*
X158339322Y-120449952D01*
X158328646Y-120466203D01*
X158315640Y-120482971D01*
X158315636Y-120482977D01*
X158296348Y-120527550D01*
X158293777Y-120532797D01*
X158270372Y-120575369D01*
X158270372Y-120575370D01*
X158265091Y-120595938D01*
X158258791Y-120614340D01*
X158250364Y-120633812D01*
X158242766Y-120681786D01*
X158241581Y-120687509D01*
X158229500Y-120734557D01*
X158229500Y-120755783D01*
X158227973Y-120775182D01*
X158224653Y-120796144D01*
X158226866Y-120819555D01*
X158228265Y-120834351D01*
X158214977Y-120902946D01*
X158209809Y-120911993D01*
X158154211Y-121000477D01*
X158154209Y-121000481D01*
X158094633Y-121170737D01*
X158094630Y-121170750D01*
X158074435Y-121349996D01*
X158074435Y-121350003D01*
X158094630Y-121529249D01*
X158094631Y-121529254D01*
X158154211Y-121699523D01*
X158227819Y-121816669D01*
X158250184Y-121852262D01*
X158377738Y-121979816D01*
X158530478Y-122075789D01*
X158700745Y-122135368D01*
X158769232Y-122143084D01*
X158833643Y-122170149D01*
X158873199Y-122227744D01*
X158875338Y-122297581D01*
X158839380Y-122357487D01*
X158794352Y-122384009D01*
X158688492Y-122419088D01*
X158688481Y-122419093D01*
X158541651Y-122509659D01*
X158427327Y-122623983D01*
X158366004Y-122657467D01*
X158296312Y-122652483D01*
X158251965Y-122623982D01*
X158138038Y-122510055D01*
X158138034Y-122510052D01*
X157991311Y-122419551D01*
X157991300Y-122419546D01*
X157827652Y-122365319D01*
X157726654Y-122355000D01*
X157677500Y-122355000D01*
X157677500Y-123456000D01*
X157657815Y-123523039D01*
X157605011Y-123568794D01*
X157553500Y-123580000D01*
X156574390Y-123580000D01*
X156551138Y-123582500D01*
X155840000Y-123582500D01*
X155840000Y-124319999D01*
X155876640Y-124319999D01*
X155876654Y-124319998D01*
X155977652Y-124309680D01*
X156141300Y-124255453D01*
X156141311Y-124255448D01*
X156288034Y-124164947D01*
X156288038Y-124164944D01*
X156409939Y-124043043D01*
X156411876Y-124040594D01*
X156413634Y-124039348D01*
X156415052Y-124037931D01*
X156415294Y-124038173D01*
X156468894Y-124000211D01*
X156538693Y-123997066D01*
X156596831Y-124029814D01*
X156716961Y-124149944D01*
X156716965Y-124149947D01*
X156863688Y-124240448D01*
X156863699Y-124240453D01*
X157027348Y-124294681D01*
X157076711Y-124299724D01*
X157141403Y-124326120D01*
X157181555Y-124383301D01*
X157184418Y-124453112D01*
X157151790Y-124510763D01*
X156849373Y-124813181D01*
X156788050Y-124846666D01*
X156761692Y-124849500D01*
X155754499Y-124849500D01*
X155687460Y-124829815D01*
X155641705Y-124777011D01*
X155630499Y-124725500D01*
X155630499Y-124702129D01*
X155630498Y-124702123D01*
X155628940Y-124687631D01*
X155624091Y-124642517D01*
X155610822Y-124606942D01*
X155573797Y-124507671D01*
X155573793Y-124507664D01*
X155487547Y-124392455D01*
X155389688Y-124319197D01*
X155347818Y-124263263D01*
X155340000Y-124219931D01*
X155340000Y-123206500D01*
X155359685Y-123139461D01*
X155412489Y-123093706D01*
X155464000Y-123082500D01*
X156430610Y-123082500D01*
X156453862Y-123080000D01*
X157177500Y-123080000D01*
X157177500Y-122340792D01*
X157197185Y-122273753D01*
X157235528Y-122235798D01*
X157239519Y-122233289D01*
X157239522Y-122233289D01*
X157392262Y-122137316D01*
X157519816Y-122009762D01*
X157615789Y-121857022D01*
X157675368Y-121686755D01*
X157675369Y-121686749D01*
X157695565Y-121507503D01*
X157695565Y-121507496D01*
X157675369Y-121328250D01*
X157675368Y-121328245D01*
X157651949Y-121261317D01*
X157615789Y-121157978D01*
X157519816Y-121005238D01*
X157392262Y-120877684D01*
X157392259Y-120877681D01*
X157392202Y-120877646D01*
X157392173Y-120877613D01*
X157386816Y-120873341D01*
X157387564Y-120872402D01*
X157345915Y-120825308D01*
X157335272Y-120756254D01*
X157363652Y-120692407D01*
X157370482Y-120684995D01*
X157373216Y-120682262D01*
X157469189Y-120529522D01*
X157528768Y-120359255D01*
X157532751Y-120323905D01*
X157548965Y-120180003D01*
X157548965Y-120179996D01*
X157528769Y-120000750D01*
X157528768Y-120000745D01*
X157516809Y-119966569D01*
X157469189Y-119830478D01*
X157373216Y-119677738D01*
X157245662Y-119550184D01*
X157230963Y-119540948D01*
X157092923Y-119454211D01*
X156922654Y-119394631D01*
X156922650Y-119394630D01*
X156899691Y-119392044D01*
X156835277Y-119364978D01*
X156795722Y-119307383D01*
X156793585Y-119237546D01*
X156808035Y-119203729D01*
X156817678Y-119188097D01*
X156871024Y-119027108D01*
X156881175Y-118927745D01*
X156881174Y-118331056D01*
X156877769Y-118297727D01*
X156871024Y-118231692D01*
X156871023Y-118231689D01*
X156860522Y-118200000D01*
X156823988Y-118089748D01*
X156821587Y-118019923D01*
X156857319Y-117959881D01*
X156919839Y-117928688D01*
X156989298Y-117936248D01*
G37*
%TD.AperFunction*%
%TA.AperFunction,Conductor*%
G36*
X153589465Y-112817005D02*
G01*
X153631452Y-112844598D01*
X154290858Y-113504004D01*
X154324343Y-113565327D01*
X154319359Y-113635019D01*
X154277487Y-113690952D01*
X154244871Y-113706223D01*
X154245568Y-113708091D01*
X154103583Y-113761048D01*
X154097750Y-113764234D01*
X154038326Y-113779400D01*
X153895675Y-113779400D01*
X153895675Y-114456330D01*
X153887857Y-114499663D01*
X153851709Y-114596583D01*
X153851584Y-114596917D01*
X153845175Y-114656527D01*
X153845175Y-114656534D01*
X153845175Y-114656535D01*
X153845175Y-115002269D01*
X153845176Y-115002279D01*
X153852042Y-115066151D01*
X153852042Y-115092657D01*
X153851584Y-115096916D01*
X153851584Y-115096917D01*
X153845175Y-115156527D01*
X153845175Y-115156529D01*
X153845175Y-115156533D01*
X153845175Y-115205400D01*
X153825490Y-115272439D01*
X153772686Y-115318194D01*
X153721175Y-115329400D01*
X153570174Y-115329400D01*
X153503135Y-115309715D01*
X153457380Y-115256911D01*
X153446174Y-115205400D01*
X153446174Y-115156529D01*
X153446174Y-115156528D01*
X153439766Y-115096917D01*
X153439764Y-115096913D01*
X153439307Y-115092655D01*
X153439307Y-115066145D01*
X153439764Y-115061886D01*
X153439766Y-115061883D01*
X153446175Y-115002273D01*
X153446174Y-114656528D01*
X153439766Y-114596917D01*
X153439764Y-114596913D01*
X153439307Y-114592655D01*
X153439307Y-114566145D01*
X153439764Y-114561886D01*
X153439766Y-114561883D01*
X153446175Y-114502273D01*
X153446174Y-114156528D01*
X153439766Y-114096917D01*
X153436852Y-114089105D01*
X153403493Y-113999663D01*
X153395675Y-113956330D01*
X153395675Y-113779400D01*
X153359356Y-113743081D01*
X153361695Y-113740741D01*
X153332381Y-113706911D01*
X153321175Y-113655400D01*
X153321175Y-113647796D01*
X153340181Y-113581824D01*
X153385256Y-113510090D01*
X153441113Y-113350459D01*
X153456768Y-113211518D01*
X153460049Y-113182402D01*
X153460049Y-113182397D01*
X153441113Y-113014340D01*
X153441113Y-113014338D01*
X153426730Y-112973234D01*
X153423168Y-112903455D01*
X153457896Y-112842828D01*
X153519890Y-112810600D01*
X153589465Y-112817005D01*
G37*
%TD.AperFunction*%
%TA.AperFunction,Conductor*%
G36*
X160794855Y-111556546D02*
G01*
X160811575Y-111575842D01*
X160941500Y-111761395D01*
X160941505Y-111761401D01*
X161108599Y-111928495D01*
X161172150Y-111972994D01*
X161302165Y-112064032D01*
X161302167Y-112064033D01*
X161302170Y-112064035D01*
X161516337Y-112163903D01*
X161516343Y-112163904D01*
X161516344Y-112163905D01*
X161538487Y-112169838D01*
X161744592Y-112225063D01*
X161932918Y-112241539D01*
X161979999Y-112245659D01*
X161980000Y-112245659D01*
X161980001Y-112245659D01*
X162070878Y-112237708D01*
X162215408Y-112225063D01*
X162215408Y-112225062D01*
X162220801Y-112224591D01*
X162220997Y-112226839D01*
X162280829Y-112233488D01*
X162335075Y-112277524D01*
X162356903Y-112343896D01*
X162339382Y-112411533D01*
X162320648Y-112435560D01*
X161508208Y-113247999D01*
X161495951Y-113257820D01*
X161496134Y-113258041D01*
X161490123Y-113263013D01*
X161442772Y-113313436D01*
X161421889Y-113334319D01*
X161421877Y-113334332D01*
X161417621Y-113339817D01*
X161413837Y-113344247D01*
X161381937Y-113378218D01*
X161381936Y-113378220D01*
X161372284Y-113395776D01*
X161361610Y-113412026D01*
X161349329Y-113427861D01*
X161349324Y-113427868D01*
X161330815Y-113470638D01*
X161328245Y-113475884D01*
X161305803Y-113516706D01*
X161300822Y-113536107D01*
X161294521Y-113554510D01*
X161286562Y-113572902D01*
X161286561Y-113572905D01*
X161279271Y-113618927D01*
X161278087Y-113624646D01*
X161266501Y-113669772D01*
X161266500Y-113669782D01*
X161266500Y-113689816D01*
X161264973Y-113709213D01*
X161261840Y-113728996D01*
X161264744Y-113759715D01*
X161266225Y-113775383D01*
X161266500Y-113781221D01*
X161266500Y-114653165D01*
X161246815Y-114720204D01*
X161215383Y-114753485D01*
X161165163Y-114789970D01*
X161161943Y-114792158D01*
X161111465Y-114824193D01*
X161111454Y-114824202D01*
X161111310Y-114824357D01*
X161111166Y-114824441D01*
X161105453Y-114829168D01*
X161104689Y-114828245D01*
X161051061Y-114859739D01*
X160981248Y-114856931D01*
X160924035Y-114816826D01*
X160903229Y-114778457D01*
X160890254Y-114739301D01*
X160890248Y-114739288D01*
X160799747Y-114592565D01*
X160677836Y-114470653D01*
X160650522Y-114453805D01*
X160603798Y-114401856D01*
X160592578Y-114332893D01*
X160597915Y-114309264D01*
X160644855Y-114167606D01*
X160654999Y-114068322D01*
X160655000Y-114068309D01*
X160655000Y-114020000D01*
X159579000Y-114020000D01*
X159511961Y-114000315D01*
X159466206Y-113947511D01*
X159455000Y-113896000D01*
X159455000Y-112795000D01*
X159955000Y-112795000D01*
X159955000Y-113520000D01*
X160654999Y-113520000D01*
X160654999Y-113471692D01*
X160654998Y-113471677D01*
X160644855Y-113372392D01*
X160591547Y-113211518D01*
X160591542Y-113211507D01*
X160502575Y-113067271D01*
X160502572Y-113067267D01*
X160382732Y-112947427D01*
X160382728Y-112947424D01*
X160238492Y-112858457D01*
X160238481Y-112858452D01*
X160077606Y-112805144D01*
X159978322Y-112795000D01*
X159955000Y-112795000D01*
X159455000Y-112795000D01*
X159455000Y-112794999D01*
X159431693Y-112795000D01*
X159431674Y-112795001D01*
X159332392Y-112805144D01*
X159171518Y-112858452D01*
X159171507Y-112858457D01*
X159027271Y-112947424D01*
X159027264Y-112947430D01*
X159018028Y-112956665D01*
X158956703Y-112990146D01*
X158887011Y-112985157D01*
X158842672Y-112956659D01*
X158841819Y-112955806D01*
X158808334Y-112894483D01*
X158805500Y-112868125D01*
X158805500Y-112495807D01*
X158825185Y-112428768D01*
X158841815Y-112408130D01*
X159012238Y-112237706D01*
X159073559Y-112204223D01*
X159132006Y-112205613D01*
X159204592Y-112225063D01*
X159392918Y-112241539D01*
X159439999Y-112245659D01*
X159440000Y-112245659D01*
X159440001Y-112245659D01*
X159479234Y-112242226D01*
X159675408Y-112225063D01*
X159903663Y-112163903D01*
X160117830Y-112064035D01*
X160311401Y-111928495D01*
X160478495Y-111761401D01*
X160598161Y-111590500D01*
X160608425Y-111575842D01*
X160663002Y-111532217D01*
X160732500Y-111525023D01*
X160794855Y-111556546D01*
G37*
%TD.AperFunction*%
%TA.AperFunction,Conductor*%
G36*
X165090647Y-113445185D02*
G01*
X165136402Y-113497989D01*
X165146346Y-113567147D01*
X165128601Y-113615473D01*
X165079946Y-113692905D01*
X165079945Y-113692906D01*
X165071095Y-113718199D01*
X165030372Y-113774974D01*
X164965419Y-113800720D01*
X164896857Y-113787263D01*
X164879742Y-113776508D01*
X164859089Y-113761047D01*
X164859086Y-113761045D01*
X164724379Y-113710803D01*
X164724372Y-113710801D01*
X164664844Y-113704400D01*
X164492000Y-113704400D01*
X164492000Y-114054900D01*
X164472315Y-114121939D01*
X164419511Y-114167694D01*
X164368000Y-114178900D01*
X164366000Y-114178900D01*
X164298961Y-114159215D01*
X164253206Y-114106411D01*
X164242000Y-114054900D01*
X164242000Y-113704400D01*
X164069155Y-113704400D01*
X164009627Y-113710801D01*
X164009623Y-113710802D01*
X163874908Y-113761048D01*
X163869075Y-113764234D01*
X163809651Y-113779400D01*
X163681749Y-113779400D01*
X163614710Y-113759715D01*
X163568955Y-113706911D01*
X163559011Y-113637753D01*
X163588036Y-113574197D01*
X163594068Y-113567719D01*
X163699968Y-113461819D01*
X163761291Y-113428334D01*
X163787649Y-113425500D01*
X165023608Y-113425500D01*
X165090647Y-113445185D01*
G37*
%TD.AperFunction*%
%TA.AperFunction,Conductor*%
G36*
X176944492Y-105860657D02*
G01*
X177182425Y-105877672D01*
X177199928Y-105880189D01*
X177426514Y-105929479D01*
X177443488Y-105934463D01*
X177660747Y-106015494D01*
X177676841Y-106022844D01*
X177880355Y-106133970D01*
X177895239Y-106143534D01*
X178080877Y-106282499D01*
X178094240Y-106294078D01*
X178258211Y-106458048D01*
X178269791Y-106471412D01*
X178408756Y-106657046D01*
X178418321Y-106671930D01*
X178529447Y-106875441D01*
X178536797Y-106891534D01*
X178617834Y-107108800D01*
X178622818Y-107125776D01*
X178672106Y-107352352D01*
X178674624Y-107369863D01*
X178691625Y-107607550D01*
X178691783Y-107611975D01*
X178691783Y-111896472D01*
X178691749Y-111896587D01*
X178691783Y-111949377D01*
X178691783Y-111975312D01*
X178691798Y-111975646D01*
X178691836Y-112032320D01*
X178714575Y-112199784D01*
X178759641Y-112362677D01*
X178826207Y-112518010D01*
X178826211Y-112518019D01*
X178913075Y-112662992D01*
X178913076Y-112662994D01*
X179018650Y-112794957D01*
X179059579Y-112833993D01*
X179059822Y-112834247D01*
X179061935Y-112836260D01*
X179061939Y-112836265D01*
X179216019Y-112983029D01*
X179250985Y-113043519D01*
X179247696Y-113113311D01*
X179207197Y-113170246D01*
X179142345Y-113196247D01*
X179130495Y-113196815D01*
X179009666Y-113196815D01*
X178973988Y-113205270D01*
X178904216Y-113201575D01*
X178882273Y-113191344D01*
X178877168Y-113188325D01*
X178834403Y-113169818D01*
X178829157Y-113167248D01*
X178788328Y-113144803D01*
X178788327Y-113144802D01*
X178768928Y-113139822D01*
X178750516Y-113133518D01*
X178732133Y-113125562D01*
X178732127Y-113125560D01*
X178686109Y-113118272D01*
X178680387Y-113117087D01*
X178635256Y-113105500D01*
X178635254Y-113105500D01*
X178615219Y-113105500D01*
X178595821Y-113103973D01*
X178588397Y-113102797D01*
X178576040Y-113100840D01*
X178576039Y-113100840D01*
X178529651Y-113105225D01*
X178523813Y-113105500D01*
X177839609Y-113105500D01*
X177772570Y-113085815D01*
X177751928Y-113069181D01*
X177745670Y-113062923D01*
X177745662Y-113062917D01*
X177604196Y-112979255D01*
X177604193Y-112979254D01*
X177446373Y-112933402D01*
X177446367Y-112933401D01*
X177414771Y-112930915D01*
X177349482Y-112906031D01*
X177308012Y-112849800D01*
X177300500Y-112807297D01*
X177300500Y-112127230D01*
X177320185Y-112060191D01*
X177336819Y-112039549D01*
X177386916Y-111989452D01*
X177442712Y-111933656D01*
X177534814Y-111784334D01*
X177589999Y-111617797D01*
X177600500Y-111515009D01*
X177600499Y-110164992D01*
X177591888Y-110080700D01*
X177589999Y-110062203D01*
X177589998Y-110062200D01*
X177558557Y-109967318D01*
X177534814Y-109895666D01*
X177442712Y-109746344D01*
X177318656Y-109622288D01*
X177216910Y-109559531D01*
X177169336Y-109530187D01*
X177169331Y-109530185D01*
X177167862Y-109529698D01*
X177002797Y-109475001D01*
X177002795Y-109475000D01*
X176900010Y-109464500D01*
X176099998Y-109464500D01*
X176099980Y-109464501D01*
X175997203Y-109475000D01*
X175997200Y-109475001D01*
X175830668Y-109530185D01*
X175830663Y-109530187D01*
X175681342Y-109622289D01*
X175557288Y-109746343D01*
X175557285Y-109746347D01*
X175518184Y-109809740D01*
X175466236Y-109856465D01*
X175397274Y-109867686D01*
X175333192Y-109839843D01*
X175315175Y-109821294D01*
X175300092Y-109802114D01*
X175300090Y-109802112D01*
X175141253Y-109664478D01*
X174959249Y-109559398D01*
X174959245Y-109559396D01*
X174959244Y-109559396D01*
X174760633Y-109490656D01*
X174552602Y-109460746D01*
X174552598Y-109460746D01*
X174342672Y-109470745D01*
X174138421Y-109520296D01*
X174138417Y-109520298D01*
X173947256Y-109607598D01*
X173947251Y-109607601D01*
X173776046Y-109729515D01*
X173776040Y-109729520D01*
X173631014Y-109881620D01*
X173520215Y-110054027D01*
X173467411Y-110099782D01*
X173398253Y-110109725D01*
X173334697Y-110080700D01*
X173296923Y-110021922D01*
X173291900Y-109986987D01*
X173291900Y-107945107D01*
X173291900Y-107945106D01*
X173282607Y-107904393D01*
X173281442Y-107897533D01*
X173276768Y-107856045D01*
X173269866Y-107836320D01*
X173262976Y-107816628D01*
X173261050Y-107809941D01*
X173251760Y-107769239D01*
X173233638Y-107731607D01*
X173230983Y-107725199D01*
X173217189Y-107685778D01*
X173194974Y-107650423D01*
X173191608Y-107644333D01*
X173173492Y-107606714D01*
X173173490Y-107606711D01*
X173147460Y-107574070D01*
X173143433Y-107568396D01*
X173121216Y-107533038D01*
X171660359Y-106072181D01*
X171626874Y-106010858D01*
X171631858Y-105941166D01*
X171673730Y-105885233D01*
X171739194Y-105860816D01*
X171748040Y-105860500D01*
X176898115Y-105860500D01*
X176940072Y-105860500D01*
X176944492Y-105860657D01*
G37*
%TD.AperFunction*%
%TA.AperFunction,Conductor*%
G36*
X171155702Y-107832126D02*
G01*
X171162180Y-107838158D01*
X171654581Y-108330559D01*
X171688066Y-108391882D01*
X171690900Y-108418240D01*
X171690900Y-111545391D01*
X171690901Y-111545400D01*
X171700191Y-111586108D01*
X171701355Y-111592963D01*
X171706032Y-111634459D01*
X171719820Y-111673862D01*
X171721745Y-111680545D01*
X171731039Y-111721261D01*
X171749159Y-111758888D01*
X171751821Y-111765314D01*
X171765612Y-111804725D01*
X171787822Y-111840072D01*
X171791187Y-111846159D01*
X171809310Y-111883789D01*
X171835340Y-111916429D01*
X171839366Y-111922104D01*
X171861582Y-111957459D01*
X171861584Y-111957462D01*
X171868341Y-111964219D01*
X171901826Y-112025542D01*
X171896842Y-112095234D01*
X171854970Y-112151167D01*
X171789506Y-112175584D01*
X171780660Y-112175900D01*
X170511348Y-112175900D01*
X170444309Y-112156215D01*
X170398554Y-112103411D01*
X170388610Y-112034253D01*
X170417635Y-111970697D01*
X170440225Y-111950325D01*
X170452124Y-111941992D01*
X170471401Y-111928495D01*
X170638495Y-111761401D01*
X170774035Y-111567830D01*
X170873903Y-111353663D01*
X170935063Y-111125408D01*
X170955659Y-110890000D01*
X170935063Y-110654592D01*
X170873903Y-110426337D01*
X170774035Y-110212171D01*
X170768730Y-110204595D01*
X170638496Y-110018600D01*
X170587214Y-109967318D01*
X170516567Y-109896671D01*
X170483084Y-109835351D01*
X170488068Y-109765659D01*
X170529939Y-109709725D01*
X170560915Y-109692810D01*
X170692331Y-109643796D01*
X170807546Y-109557546D01*
X170893796Y-109442331D01*
X170944091Y-109307483D01*
X170950500Y-109247873D01*
X170950499Y-107925838D01*
X170970184Y-107858800D01*
X171022987Y-107813045D01*
X171092146Y-107803101D01*
X171155702Y-107832126D01*
G37*
%TD.AperFunction*%
%TA.AperFunction,Conductor*%
G36*
X164770000Y-110454498D02*
G01*
X164662315Y-110405320D01*
X164555763Y-110390000D01*
X164484237Y-110390000D01*
X164377685Y-110405320D01*
X164270000Y-110454498D01*
X164270000Y-108785501D01*
X164377685Y-108834680D01*
X164484237Y-108850000D01*
X164555763Y-108850000D01*
X164662315Y-108834680D01*
X164770000Y-108785501D01*
X164770000Y-110454498D01*
G37*
%TD.AperFunction*%
%TA.AperFunction,Conductor*%
G36*
X165874549Y-109016110D02*
G01*
X165891269Y-109035405D01*
X166021505Y-109221401D01*
X166021506Y-109221402D01*
X166188597Y-109388493D01*
X166188603Y-109388498D01*
X166374158Y-109518425D01*
X166417783Y-109573002D01*
X166424977Y-109642500D01*
X166393454Y-109704855D01*
X166374158Y-109721575D01*
X166188597Y-109851505D01*
X166021508Y-110018594D01*
X165891269Y-110204595D01*
X165836692Y-110248219D01*
X165767193Y-110255412D01*
X165704839Y-110223890D01*
X165688119Y-110204594D01*
X165558113Y-110018926D01*
X165558108Y-110018920D01*
X165391082Y-109851894D01*
X165204968Y-109721575D01*
X165161344Y-109666998D01*
X165154151Y-109597499D01*
X165185673Y-109535145D01*
X165204968Y-109518425D01*
X165391082Y-109388105D01*
X165558105Y-109221082D01*
X165688119Y-109035405D01*
X165742696Y-108991781D01*
X165812195Y-108984588D01*
X165874549Y-109016110D01*
G37*
%TD.AperFunction*%
%TA.AperFunction,Conductor*%
G36*
X168184340Y-109238068D02*
G01*
X168240274Y-109279939D01*
X168257189Y-109310917D01*
X168306202Y-109442328D01*
X168306206Y-109442335D01*
X168392452Y-109557544D01*
X168392455Y-109557547D01*
X168507664Y-109643793D01*
X168507671Y-109643797D01*
X168639081Y-109692810D01*
X168695015Y-109734681D01*
X168719432Y-109800145D01*
X168704580Y-109868418D01*
X168683430Y-109896673D01*
X168561503Y-110018600D01*
X168431575Y-110204158D01*
X168376998Y-110247783D01*
X168307500Y-110254977D01*
X168245145Y-110223454D01*
X168228425Y-110204158D01*
X168098494Y-110018597D01*
X167931402Y-109851506D01*
X167931396Y-109851501D01*
X167745842Y-109721575D01*
X167702217Y-109666998D01*
X167695023Y-109597500D01*
X167726546Y-109535145D01*
X167745842Y-109518425D01*
X167807859Y-109475000D01*
X167931401Y-109388495D01*
X168053329Y-109266566D01*
X168114648Y-109233084D01*
X168184340Y-109238068D01*
G37*
%TD.AperFunction*%
%TD*%
%TA.AperFunction,Conductor*%
%TO.N,+5V*%
G36*
X168024929Y-115510198D02*
G01*
X168051233Y-115521581D01*
X168056469Y-115524145D01*
X168097308Y-115546597D01*
X168109923Y-115549835D01*
X168116705Y-115551577D01*
X168135119Y-115557881D01*
X168153504Y-115565838D01*
X168199557Y-115573132D01*
X168205226Y-115574306D01*
X168250381Y-115585900D01*
X168270416Y-115585900D01*
X168289813Y-115587426D01*
X168309596Y-115590560D01*
X168355984Y-115586175D01*
X168361822Y-115585900D01*
X169346000Y-115585900D01*
X169413039Y-115605585D01*
X169458794Y-115658389D01*
X169470000Y-115709900D01*
X169470000Y-115876000D01*
X169450315Y-115943039D01*
X169397511Y-115988794D01*
X169346000Y-116000000D01*
X167763000Y-116000000D01*
X167763000Y-116687499D01*
X167817136Y-116687499D01*
X167817152Y-116687498D01*
X167915583Y-116677443D01*
X168075072Y-116624593D01*
X168075077Y-116624591D01*
X168218080Y-116536385D01*
X168278819Y-116475647D01*
X168340142Y-116442162D01*
X168409834Y-116447146D01*
X168454181Y-116475647D01*
X168514920Y-116536386D01*
X168514924Y-116536389D01*
X168646213Y-116617370D01*
X168692938Y-116669318D01*
X168704232Y-116737692D01*
X168695000Y-116814571D01*
X168695000Y-117550000D01*
X169621000Y-117550000D01*
X169688039Y-117569685D01*
X169733794Y-117622489D01*
X169745000Y-117674000D01*
X169745000Y-117926000D01*
X169725315Y-117993039D01*
X169672511Y-118038794D01*
X169621000Y-118050000D01*
X168694999Y-118050000D01*
X168683895Y-118061104D01*
X168622572Y-118094588D01*
X168578571Y-118096160D01*
X168570506Y-118095000D01*
X168570500Y-118095000D01*
X168544958Y-118095000D01*
X168544957Y-118095000D01*
X168530807Y-118095396D01*
X168507071Y-118096726D01*
X168500127Y-118096726D01*
X168476397Y-118095396D01*
X168462244Y-118095000D01*
X168462243Y-118095000D01*
X168447290Y-118095000D01*
X168337330Y-118107105D01*
X168337301Y-118107110D01*
X168284670Y-118118840D01*
X168179960Y-118154583D01*
X168059730Y-118233594D01*
X168059724Y-118233598D01*
X168059722Y-118233600D01*
X168059717Y-118233604D01*
X168059715Y-118233606D01*
X168007395Y-118279883D01*
X168007382Y-118279896D01*
X167925275Y-118376626D01*
X167921847Y-118380346D01*
X167879975Y-118422217D01*
X167858267Y-118439529D01*
X167825634Y-118460034D01*
X167800616Y-118472082D01*
X167764245Y-118484809D01*
X167737175Y-118490988D01*
X167703429Y-118494790D01*
X167698885Y-118495302D01*
X167671123Y-118495302D01*
X167632824Y-118490986D01*
X167605758Y-118484809D01*
X167569379Y-118472080D01*
X167544360Y-118460032D01*
X167511731Y-118439529D01*
X167490024Y-118422218D01*
X167462781Y-118394975D01*
X167445468Y-118373265D01*
X167424965Y-118340634D01*
X167412918Y-118315619D01*
X167393662Y-118260590D01*
X167387483Y-118205755D01*
X167400713Y-118088328D01*
X167401874Y-118081503D01*
X167404470Y-118070128D01*
X167410644Y-118015303D01*
X167410641Y-117902139D01*
X167400696Y-117813882D01*
X167400696Y-117786128D01*
X167405012Y-117747812D01*
X167411188Y-117720756D01*
X167417679Y-117702204D01*
X167419815Y-117696103D01*
X167423760Y-117683834D01*
X167429137Y-117665521D01*
X167435762Y-117640629D01*
X167435762Y-117640626D01*
X167435764Y-117640620D01*
X167448955Y-117497345D01*
X167447203Y-117463008D01*
X167445475Y-117429143D01*
X167445449Y-117428132D01*
X167445394Y-117427567D01*
X167445394Y-117427565D01*
X167417685Y-117286378D01*
X167415191Y-117279251D01*
X167409011Y-117252176D01*
X167405812Y-117223777D01*
X167402416Y-117202119D01*
X167396007Y-117170326D01*
X167394133Y-117162742D01*
X167385498Y-117127797D01*
X167325732Y-116996934D01*
X167325729Y-116996929D01*
X167325726Y-116996922D01*
X167292265Y-116944856D01*
X167288853Y-116939547D01*
X167288119Y-116938335D01*
X167235612Y-116877741D01*
X167206586Y-116814186D01*
X167216529Y-116745027D01*
X167241643Y-116708856D01*
X167263000Y-116687499D01*
X167263000Y-115624000D01*
X167282685Y-115556961D01*
X167335489Y-115511206D01*
X167387000Y-115500000D01*
X167975683Y-115500000D01*
X168024929Y-115510198D01*
G37*
%TD.AperFunction*%
%TD*%
M02*
