%TF.GenerationSoftware,KiCad,Pcbnew,7.0.9*%
%TF.CreationDate,2024-03-22T22:57:52+02:00*%
%TF.ProjectId,Micromouse Power,4d696372-6f6d-46f7-9573-6520506f7765,v0.0.0*%
%TF.SameCoordinates,Original*%
%TF.FileFunction,Legend,Bot*%
%TF.FilePolarity,Positive*%
%FSLAX46Y46*%
G04 Gerber Fmt 4.6, Leading zero omitted, Abs format (unit mm)*
G04 Created by KiCad (PCBNEW 7.0.9) date 2024-03-22 22:57:52*
%MOMM*%
%LPD*%
G01*
G04 APERTURE LIST*
G04 Aperture macros list*
%AMRoundRect*
0 Rectangle with rounded corners*
0 $1 Rounding radius*
0 $2 $3 $4 $5 $6 $7 $8 $9 X,Y pos of 4 corners*
0 Add a 4 corners polygon primitive as box body*
4,1,4,$2,$3,$4,$5,$6,$7,$8,$9,$2,$3,0*
0 Add four circle primitives for the rounded corners*
1,1,$1+$1,$2,$3*
1,1,$1+$1,$4,$5*
1,1,$1+$1,$6,$7*
1,1,$1+$1,$8,$9*
0 Add four rect primitives between the rounded corners*
20,1,$1+$1,$2,$3,$4,$5,0*
20,1,$1+$1,$4,$5,$6,$7,0*
20,1,$1+$1,$6,$7,$8,$9,0*
20,1,$1+$1,$8,$9,$2,$3,0*%
G04 Aperture macros list end*
%ADD10C,0.125000*%
%ADD11C,0.200000*%
%ADD12C,0.150000*%
%ADD13C,0.120000*%
%ADD14R,1.700000X1.700000*%
%ADD15O,1.700000X1.700000*%
%ADD16RoundRect,0.250000X0.350000X0.625000X-0.350000X0.625000X-0.350000X-0.625000X0.350000X-0.625000X0*%
%ADD17O,1.200000X1.750000*%
%ADD18C,1.000000*%
G04 APERTURE END LIST*
D10*
X171177287Y-112392261D02*
X171177287Y-113192261D01*
X171177287Y-112430357D02*
X171101097Y-112392261D01*
X171101097Y-112392261D02*
X170948716Y-112392261D01*
X170948716Y-112392261D02*
X170872525Y-112430357D01*
X170872525Y-112430357D02*
X170834430Y-112468452D01*
X170834430Y-112468452D02*
X170796335Y-112544642D01*
X170796335Y-112544642D02*
X170796335Y-112773214D01*
X170796335Y-112773214D02*
X170834430Y-112849404D01*
X170834430Y-112849404D02*
X170872525Y-112887500D01*
X170872525Y-112887500D02*
X170948716Y-112925595D01*
X170948716Y-112925595D02*
X171101097Y-112925595D01*
X171101097Y-112925595D02*
X171177287Y-112887500D01*
X170110620Y-112887500D02*
X170186811Y-112925595D01*
X170186811Y-112925595D02*
X170339192Y-112925595D01*
X170339192Y-112925595D02*
X170415382Y-112887500D01*
X170415382Y-112887500D02*
X170453477Y-112849404D01*
X170453477Y-112849404D02*
X170491573Y-112773214D01*
X170491573Y-112773214D02*
X170491573Y-112544642D01*
X170491573Y-112544642D02*
X170453477Y-112468452D01*
X170453477Y-112468452D02*
X170415382Y-112430357D01*
X170415382Y-112430357D02*
X170339192Y-112392261D01*
X170339192Y-112392261D02*
X170186811Y-112392261D01*
X170186811Y-112392261D02*
X170110620Y-112430357D01*
X169424906Y-112125595D02*
X169577287Y-112125595D01*
X169577287Y-112125595D02*
X169653478Y-112163690D01*
X169653478Y-112163690D02*
X169691573Y-112201785D01*
X169691573Y-112201785D02*
X169767763Y-112316071D01*
X169767763Y-112316071D02*
X169805859Y-112468452D01*
X169805859Y-112468452D02*
X169805859Y-112773214D01*
X169805859Y-112773214D02*
X169767763Y-112849404D01*
X169767763Y-112849404D02*
X169729668Y-112887500D01*
X169729668Y-112887500D02*
X169653478Y-112925595D01*
X169653478Y-112925595D02*
X169501097Y-112925595D01*
X169501097Y-112925595D02*
X169424906Y-112887500D01*
X169424906Y-112887500D02*
X169386811Y-112849404D01*
X169386811Y-112849404D02*
X169348716Y-112773214D01*
X169348716Y-112773214D02*
X169348716Y-112582738D01*
X169348716Y-112582738D02*
X169386811Y-112506547D01*
X169386811Y-112506547D02*
X169424906Y-112468452D01*
X169424906Y-112468452D02*
X169501097Y-112430357D01*
X169501097Y-112430357D02*
X169653478Y-112430357D01*
X169653478Y-112430357D02*
X169729668Y-112468452D01*
X169729668Y-112468452D02*
X169767763Y-112506547D01*
X169767763Y-112506547D02*
X169805859Y-112582738D01*
X168396334Y-112392261D02*
X168396334Y-113192261D01*
X168396334Y-112430357D02*
X168320144Y-112392261D01*
X168320144Y-112392261D02*
X168167763Y-112392261D01*
X168167763Y-112392261D02*
X168091572Y-112430357D01*
X168091572Y-112430357D02*
X168053477Y-112468452D01*
X168053477Y-112468452D02*
X168015382Y-112544642D01*
X168015382Y-112544642D02*
X168015382Y-112773214D01*
X168015382Y-112773214D02*
X168053477Y-112849404D01*
X168053477Y-112849404D02*
X168091572Y-112887500D01*
X168091572Y-112887500D02*
X168167763Y-112925595D01*
X168167763Y-112925595D02*
X168320144Y-112925595D01*
X168320144Y-112925595D02*
X168396334Y-112887500D01*
X167329667Y-112887500D02*
X167405858Y-112925595D01*
X167405858Y-112925595D02*
X167558239Y-112925595D01*
X167558239Y-112925595D02*
X167634429Y-112887500D01*
X167634429Y-112887500D02*
X167672524Y-112849404D01*
X167672524Y-112849404D02*
X167710620Y-112773214D01*
X167710620Y-112773214D02*
X167710620Y-112544642D01*
X167710620Y-112544642D02*
X167672524Y-112468452D01*
X167672524Y-112468452D02*
X167634429Y-112430357D01*
X167634429Y-112430357D02*
X167558239Y-112392261D01*
X167558239Y-112392261D02*
X167405858Y-112392261D01*
X167405858Y-112392261D02*
X167329667Y-112430357D01*
X167063001Y-112125595D02*
X166529667Y-112125595D01*
X166529667Y-112125595D02*
X166872525Y-112925595D01*
X165272524Y-112392261D02*
X165272524Y-113039880D01*
X165272524Y-113039880D02*
X165310619Y-113116071D01*
X165310619Y-113116071D02*
X165348715Y-113154166D01*
X165348715Y-113154166D02*
X165424905Y-113192261D01*
X165424905Y-113192261D02*
X165539191Y-113192261D01*
X165539191Y-113192261D02*
X165615381Y-113154166D01*
X165272524Y-112887500D02*
X165348715Y-112925595D01*
X165348715Y-112925595D02*
X165501096Y-112925595D01*
X165501096Y-112925595D02*
X165577286Y-112887500D01*
X165577286Y-112887500D02*
X165615381Y-112849404D01*
X165615381Y-112849404D02*
X165653477Y-112773214D01*
X165653477Y-112773214D02*
X165653477Y-112544642D01*
X165653477Y-112544642D02*
X165615381Y-112468452D01*
X165615381Y-112468452D02*
X165577286Y-112430357D01*
X165577286Y-112430357D02*
X165501096Y-112392261D01*
X165501096Y-112392261D02*
X165348715Y-112392261D01*
X165348715Y-112392261D02*
X165272524Y-112430357D01*
X164891571Y-112392261D02*
X164891571Y-112925595D01*
X164891571Y-112468452D02*
X164853476Y-112430357D01*
X164853476Y-112430357D02*
X164777286Y-112392261D01*
X164777286Y-112392261D02*
X164663000Y-112392261D01*
X164663000Y-112392261D02*
X164586809Y-112430357D01*
X164586809Y-112430357D02*
X164548714Y-112506547D01*
X164548714Y-112506547D02*
X164548714Y-112925595D01*
X163824904Y-112925595D02*
X163824904Y-112125595D01*
X163824904Y-112887500D02*
X163901095Y-112925595D01*
X163901095Y-112925595D02*
X164053476Y-112925595D01*
X164053476Y-112925595D02*
X164129666Y-112887500D01*
X164129666Y-112887500D02*
X164167761Y-112849404D01*
X164167761Y-112849404D02*
X164205857Y-112773214D01*
X164205857Y-112773214D02*
X164205857Y-112544642D01*
X164205857Y-112544642D02*
X164167761Y-112468452D01*
X164167761Y-112468452D02*
X164129666Y-112430357D01*
X164129666Y-112430357D02*
X164053476Y-112392261D01*
X164053476Y-112392261D02*
X163901095Y-112392261D01*
X163901095Y-112392261D02*
X163824904Y-112430357D01*
X162834427Y-112925595D02*
X162834427Y-112125595D01*
X162834427Y-112430357D02*
X162758237Y-112392261D01*
X162758237Y-112392261D02*
X162605856Y-112392261D01*
X162605856Y-112392261D02*
X162529665Y-112430357D01*
X162529665Y-112430357D02*
X162491570Y-112468452D01*
X162491570Y-112468452D02*
X162453475Y-112544642D01*
X162453475Y-112544642D02*
X162453475Y-112773214D01*
X162453475Y-112773214D02*
X162491570Y-112849404D01*
X162491570Y-112849404D02*
X162529665Y-112887500D01*
X162529665Y-112887500D02*
X162605856Y-112925595D01*
X162605856Y-112925595D02*
X162758237Y-112925595D01*
X162758237Y-112925595D02*
X162834427Y-112887500D01*
X161767760Y-112925595D02*
X161767760Y-112506547D01*
X161767760Y-112506547D02*
X161805855Y-112430357D01*
X161805855Y-112430357D02*
X161882046Y-112392261D01*
X161882046Y-112392261D02*
X162034427Y-112392261D01*
X162034427Y-112392261D02*
X162110617Y-112430357D01*
X161767760Y-112887500D02*
X161843951Y-112925595D01*
X161843951Y-112925595D02*
X162034427Y-112925595D01*
X162034427Y-112925595D02*
X162110617Y-112887500D01*
X162110617Y-112887500D02*
X162148713Y-112811309D01*
X162148713Y-112811309D02*
X162148713Y-112735119D01*
X162148713Y-112735119D02*
X162110617Y-112658928D01*
X162110617Y-112658928D02*
X162034427Y-112620833D01*
X162034427Y-112620833D02*
X161843951Y-112620833D01*
X161843951Y-112620833D02*
X161767760Y-112582738D01*
X161501093Y-112392261D02*
X161196331Y-112392261D01*
X161386807Y-112125595D02*
X161386807Y-112811309D01*
X161386807Y-112811309D02*
X161348712Y-112887500D01*
X161348712Y-112887500D02*
X161272522Y-112925595D01*
X161272522Y-112925595D02*
X161196331Y-112925595D01*
X161043950Y-112392261D02*
X160739188Y-112392261D01*
X160929664Y-112125595D02*
X160929664Y-112811309D01*
X160929664Y-112811309D02*
X160891569Y-112887500D01*
X160891569Y-112887500D02*
X160815379Y-112925595D01*
X160815379Y-112925595D02*
X160739188Y-112925595D01*
X159520140Y-112925595D02*
X159520140Y-112506547D01*
X159520140Y-112506547D02*
X159558235Y-112430357D01*
X159558235Y-112430357D02*
X159634426Y-112392261D01*
X159634426Y-112392261D02*
X159786807Y-112392261D01*
X159786807Y-112392261D02*
X159862997Y-112430357D01*
X159520140Y-112887500D02*
X159596331Y-112925595D01*
X159596331Y-112925595D02*
X159786807Y-112925595D01*
X159786807Y-112925595D02*
X159862997Y-112887500D01*
X159862997Y-112887500D02*
X159901093Y-112811309D01*
X159901093Y-112811309D02*
X159901093Y-112735119D01*
X159901093Y-112735119D02*
X159862997Y-112658928D01*
X159862997Y-112658928D02*
X159786807Y-112620833D01*
X159786807Y-112620833D02*
X159596331Y-112620833D01*
X159596331Y-112620833D02*
X159520140Y-112582738D01*
X158796330Y-112925595D02*
X158796330Y-112125595D01*
X158796330Y-112887500D02*
X158872521Y-112925595D01*
X158872521Y-112925595D02*
X159024902Y-112925595D01*
X159024902Y-112925595D02*
X159101092Y-112887500D01*
X159101092Y-112887500D02*
X159139187Y-112849404D01*
X159139187Y-112849404D02*
X159177283Y-112773214D01*
X159177283Y-112773214D02*
X159177283Y-112544642D01*
X159177283Y-112544642D02*
X159139187Y-112468452D01*
X159139187Y-112468452D02*
X159101092Y-112430357D01*
X159101092Y-112430357D02*
X159024902Y-112392261D01*
X159024902Y-112392261D02*
X158872521Y-112392261D01*
X158872521Y-112392261D02*
X158796330Y-112430357D01*
X158072520Y-112887500D02*
X158148711Y-112925595D01*
X158148711Y-112925595D02*
X158301092Y-112925595D01*
X158301092Y-112925595D02*
X158377282Y-112887500D01*
X158377282Y-112887500D02*
X158415377Y-112849404D01*
X158415377Y-112849404D02*
X158453473Y-112773214D01*
X158453473Y-112773214D02*
X158453473Y-112544642D01*
X158453473Y-112544642D02*
X158415377Y-112468452D01*
X158415377Y-112468452D02*
X158377282Y-112430357D01*
X158377282Y-112430357D02*
X158301092Y-112392261D01*
X158301092Y-112392261D02*
X158148711Y-112392261D01*
X158148711Y-112392261D02*
X158072520Y-112430357D01*
X156739187Y-112125595D02*
X157120139Y-112125595D01*
X157120139Y-112125595D02*
X157158235Y-112506547D01*
X157158235Y-112506547D02*
X157120139Y-112468452D01*
X157120139Y-112468452D02*
X157043949Y-112430357D01*
X157043949Y-112430357D02*
X156853473Y-112430357D01*
X156853473Y-112430357D02*
X156777282Y-112468452D01*
X156777282Y-112468452D02*
X156739187Y-112506547D01*
X156739187Y-112506547D02*
X156701092Y-112582738D01*
X156701092Y-112582738D02*
X156701092Y-112773214D01*
X156701092Y-112773214D02*
X156739187Y-112849404D01*
X156739187Y-112849404D02*
X156777282Y-112887500D01*
X156777282Y-112887500D02*
X156853473Y-112925595D01*
X156853473Y-112925595D02*
X157043949Y-112925595D01*
X157043949Y-112925595D02*
X157120139Y-112887500D01*
X157120139Y-112887500D02*
X157158235Y-112849404D01*
X156434425Y-112392261D02*
X156243949Y-112925595D01*
X156243949Y-112925595D02*
X156053472Y-112392261D01*
X155139186Y-112392261D02*
X155139186Y-113192261D01*
X155139186Y-112430357D02*
X155062996Y-112392261D01*
X155062996Y-112392261D02*
X154910615Y-112392261D01*
X154910615Y-112392261D02*
X154834424Y-112430357D01*
X154834424Y-112430357D02*
X154796329Y-112468452D01*
X154796329Y-112468452D02*
X154758234Y-112544642D01*
X154758234Y-112544642D02*
X154758234Y-112773214D01*
X154758234Y-112773214D02*
X154796329Y-112849404D01*
X154796329Y-112849404D02*
X154834424Y-112887500D01*
X154834424Y-112887500D02*
X154910615Y-112925595D01*
X154910615Y-112925595D02*
X155062996Y-112925595D01*
X155062996Y-112925595D02*
X155139186Y-112887500D01*
X154072519Y-112887500D02*
X154148710Y-112925595D01*
X154148710Y-112925595D02*
X154301091Y-112925595D01*
X154301091Y-112925595D02*
X154377281Y-112887500D01*
X154377281Y-112887500D02*
X154415376Y-112849404D01*
X154415376Y-112849404D02*
X154453472Y-112773214D01*
X154453472Y-112773214D02*
X154453472Y-112544642D01*
X154453472Y-112544642D02*
X154415376Y-112468452D01*
X154415376Y-112468452D02*
X154377281Y-112430357D01*
X154377281Y-112430357D02*
X154301091Y-112392261D01*
X154301091Y-112392261D02*
X154148710Y-112392261D01*
X154148710Y-112392261D02*
X154072519Y-112430357D01*
X153615377Y-112468452D02*
X153691567Y-112430357D01*
X153691567Y-112430357D02*
X153729662Y-112392261D01*
X153729662Y-112392261D02*
X153767758Y-112316071D01*
X153767758Y-112316071D02*
X153767758Y-112277976D01*
X153767758Y-112277976D02*
X153729662Y-112201785D01*
X153729662Y-112201785D02*
X153691567Y-112163690D01*
X153691567Y-112163690D02*
X153615377Y-112125595D01*
X153615377Y-112125595D02*
X153462996Y-112125595D01*
X153462996Y-112125595D02*
X153386805Y-112163690D01*
X153386805Y-112163690D02*
X153348710Y-112201785D01*
X153348710Y-112201785D02*
X153310615Y-112277976D01*
X153310615Y-112277976D02*
X153310615Y-112316071D01*
X153310615Y-112316071D02*
X153348710Y-112392261D01*
X153348710Y-112392261D02*
X153386805Y-112430357D01*
X153386805Y-112430357D02*
X153462996Y-112468452D01*
X153462996Y-112468452D02*
X153615377Y-112468452D01*
X153615377Y-112468452D02*
X153691567Y-112506547D01*
X153691567Y-112506547D02*
X153729662Y-112544642D01*
X153729662Y-112544642D02*
X153767758Y-112620833D01*
X153767758Y-112620833D02*
X153767758Y-112773214D01*
X153767758Y-112773214D02*
X153729662Y-112849404D01*
X153729662Y-112849404D02*
X153691567Y-112887500D01*
X153691567Y-112887500D02*
X153615377Y-112925595D01*
X153615377Y-112925595D02*
X153462996Y-112925595D01*
X153462996Y-112925595D02*
X153386805Y-112887500D01*
X153386805Y-112887500D02*
X153348710Y-112849404D01*
X153348710Y-112849404D02*
X153310615Y-112773214D01*
X153310615Y-112773214D02*
X153310615Y-112620833D01*
X153310615Y-112620833D02*
X153348710Y-112544642D01*
X153348710Y-112544642D02*
X153386805Y-112506547D01*
X153386805Y-112506547D02*
X153462996Y-112468452D01*
X152358233Y-112392261D02*
X152358233Y-113192261D01*
X152358233Y-112430357D02*
X152282043Y-112392261D01*
X152282043Y-112392261D02*
X152129662Y-112392261D01*
X152129662Y-112392261D02*
X152053471Y-112430357D01*
X152053471Y-112430357D02*
X152015376Y-112468452D01*
X152015376Y-112468452D02*
X151977281Y-112544642D01*
X151977281Y-112544642D02*
X151977281Y-112773214D01*
X151977281Y-112773214D02*
X152015376Y-112849404D01*
X152015376Y-112849404D02*
X152053471Y-112887500D01*
X152053471Y-112887500D02*
X152129662Y-112925595D01*
X152129662Y-112925595D02*
X152282043Y-112925595D01*
X152282043Y-112925595D02*
X152358233Y-112887500D01*
X151291566Y-112887500D02*
X151367757Y-112925595D01*
X151367757Y-112925595D02*
X151520138Y-112925595D01*
X151520138Y-112925595D02*
X151596328Y-112887500D01*
X151596328Y-112887500D02*
X151634423Y-112849404D01*
X151634423Y-112849404D02*
X151672519Y-112773214D01*
X151672519Y-112773214D02*
X151672519Y-112544642D01*
X151672519Y-112544642D02*
X151634423Y-112468452D01*
X151634423Y-112468452D02*
X151596328Y-112430357D01*
X151596328Y-112430357D02*
X151520138Y-112392261D01*
X151520138Y-112392261D02*
X151367757Y-112392261D01*
X151367757Y-112392261D02*
X151291566Y-112430357D01*
X150910614Y-112925595D02*
X150758233Y-112925595D01*
X150758233Y-112925595D02*
X150682043Y-112887500D01*
X150682043Y-112887500D02*
X150643947Y-112849404D01*
X150643947Y-112849404D02*
X150567757Y-112735119D01*
X150567757Y-112735119D02*
X150529662Y-112582738D01*
X150529662Y-112582738D02*
X150529662Y-112277976D01*
X150529662Y-112277976D02*
X150567757Y-112201785D01*
X150567757Y-112201785D02*
X150605852Y-112163690D01*
X150605852Y-112163690D02*
X150682043Y-112125595D01*
X150682043Y-112125595D02*
X150834424Y-112125595D01*
X150834424Y-112125595D02*
X150910614Y-112163690D01*
X150910614Y-112163690D02*
X150948709Y-112201785D01*
X150948709Y-112201785D02*
X150986805Y-112277976D01*
X150986805Y-112277976D02*
X150986805Y-112468452D01*
X150986805Y-112468452D02*
X150948709Y-112544642D01*
X150948709Y-112544642D02*
X150910614Y-112582738D01*
X150910614Y-112582738D02*
X150834424Y-112620833D01*
X150834424Y-112620833D02*
X150682043Y-112620833D01*
X150682043Y-112620833D02*
X150605852Y-112582738D01*
X150605852Y-112582738D02*
X150567757Y-112544642D01*
X150567757Y-112544642D02*
X150529662Y-112468452D01*
X171685287Y-106965595D02*
X171685287Y-106432261D01*
X171685287Y-106508452D02*
X171647192Y-106470357D01*
X171647192Y-106470357D02*
X171571002Y-106432261D01*
X171571002Y-106432261D02*
X171456716Y-106432261D01*
X171456716Y-106432261D02*
X171380525Y-106470357D01*
X171380525Y-106470357D02*
X171342430Y-106546547D01*
X171342430Y-106546547D02*
X171342430Y-106965595D01*
X171342430Y-106546547D02*
X171304335Y-106470357D01*
X171304335Y-106470357D02*
X171228144Y-106432261D01*
X171228144Y-106432261D02*
X171113859Y-106432261D01*
X171113859Y-106432261D02*
X171037668Y-106470357D01*
X171037668Y-106470357D02*
X170999573Y-106546547D01*
X170999573Y-106546547D02*
X170999573Y-106965595D01*
X170656716Y-106241785D02*
X170618620Y-106203690D01*
X170618620Y-106203690D02*
X170542430Y-106165595D01*
X170542430Y-106165595D02*
X170351954Y-106165595D01*
X170351954Y-106165595D02*
X170275763Y-106203690D01*
X170275763Y-106203690D02*
X170237668Y-106241785D01*
X170237668Y-106241785D02*
X170199573Y-106317976D01*
X170199573Y-106317976D02*
X170199573Y-106394166D01*
X170199573Y-106394166D02*
X170237668Y-106508452D01*
X170237668Y-106508452D02*
X170694811Y-106965595D01*
X170694811Y-106965595D02*
X170199573Y-106965595D01*
X169513858Y-106965595D02*
X169513858Y-106546547D01*
X169513858Y-106546547D02*
X169551953Y-106470357D01*
X169551953Y-106470357D02*
X169628144Y-106432261D01*
X169628144Y-106432261D02*
X169780525Y-106432261D01*
X169780525Y-106432261D02*
X169856715Y-106470357D01*
X169513858Y-106927500D02*
X169590049Y-106965595D01*
X169590049Y-106965595D02*
X169780525Y-106965595D01*
X169780525Y-106965595D02*
X169856715Y-106927500D01*
X169856715Y-106927500D02*
X169894811Y-106851309D01*
X169894811Y-106851309D02*
X169894811Y-106775119D01*
X169894811Y-106775119D02*
X169856715Y-106698928D01*
X169856715Y-106698928D02*
X169780525Y-106660833D01*
X169780525Y-106660833D02*
X169590049Y-106660833D01*
X169590049Y-106660833D02*
X169513858Y-106622738D01*
X168523381Y-106965595D02*
X168523381Y-106432261D01*
X168523381Y-106508452D02*
X168485286Y-106470357D01*
X168485286Y-106470357D02*
X168409096Y-106432261D01*
X168409096Y-106432261D02*
X168294810Y-106432261D01*
X168294810Y-106432261D02*
X168218619Y-106470357D01*
X168218619Y-106470357D02*
X168180524Y-106546547D01*
X168180524Y-106546547D02*
X168180524Y-106965595D01*
X168180524Y-106546547D02*
X168142429Y-106470357D01*
X168142429Y-106470357D02*
X168066238Y-106432261D01*
X168066238Y-106432261D02*
X167951953Y-106432261D01*
X167951953Y-106432261D02*
X167875762Y-106470357D01*
X167875762Y-106470357D02*
X167837667Y-106546547D01*
X167837667Y-106546547D02*
X167837667Y-106965595D01*
X167494810Y-106241785D02*
X167456714Y-106203690D01*
X167456714Y-106203690D02*
X167380524Y-106165595D01*
X167380524Y-106165595D02*
X167190048Y-106165595D01*
X167190048Y-106165595D02*
X167113857Y-106203690D01*
X167113857Y-106203690D02*
X167075762Y-106241785D01*
X167075762Y-106241785D02*
X167037667Y-106317976D01*
X167037667Y-106317976D02*
X167037667Y-106394166D01*
X167037667Y-106394166D02*
X167075762Y-106508452D01*
X167075762Y-106508452D02*
X167532905Y-106965595D01*
X167532905Y-106965595D02*
X167037667Y-106965595D01*
X166694809Y-106965595D02*
X166694809Y-106165595D01*
X166694809Y-106470357D02*
X166618619Y-106432261D01*
X166618619Y-106432261D02*
X166466238Y-106432261D01*
X166466238Y-106432261D02*
X166390047Y-106470357D01*
X166390047Y-106470357D02*
X166351952Y-106508452D01*
X166351952Y-106508452D02*
X166313857Y-106584642D01*
X166313857Y-106584642D02*
X166313857Y-106813214D01*
X166313857Y-106813214D02*
X166351952Y-106889404D01*
X166351952Y-106889404D02*
X166390047Y-106927500D01*
X166390047Y-106927500D02*
X166466238Y-106965595D01*
X166466238Y-106965595D02*
X166618619Y-106965595D01*
X166618619Y-106965595D02*
X166694809Y-106927500D01*
X165018618Y-106432261D02*
X165018618Y-107079880D01*
X165018618Y-107079880D02*
X165056713Y-107156071D01*
X165056713Y-107156071D02*
X165094809Y-107194166D01*
X165094809Y-107194166D02*
X165170999Y-107232261D01*
X165170999Y-107232261D02*
X165285285Y-107232261D01*
X165285285Y-107232261D02*
X165361475Y-107194166D01*
X165018618Y-106927500D02*
X165094809Y-106965595D01*
X165094809Y-106965595D02*
X165247190Y-106965595D01*
X165247190Y-106965595D02*
X165323380Y-106927500D01*
X165323380Y-106927500D02*
X165361475Y-106889404D01*
X165361475Y-106889404D02*
X165399571Y-106813214D01*
X165399571Y-106813214D02*
X165399571Y-106584642D01*
X165399571Y-106584642D02*
X165361475Y-106508452D01*
X165361475Y-106508452D02*
X165323380Y-106470357D01*
X165323380Y-106470357D02*
X165247190Y-106432261D01*
X165247190Y-106432261D02*
X165094809Y-106432261D01*
X165094809Y-106432261D02*
X165018618Y-106470357D01*
X164637665Y-106432261D02*
X164637665Y-106965595D01*
X164637665Y-106508452D02*
X164599570Y-106470357D01*
X164599570Y-106470357D02*
X164523380Y-106432261D01*
X164523380Y-106432261D02*
X164409094Y-106432261D01*
X164409094Y-106432261D02*
X164332903Y-106470357D01*
X164332903Y-106470357D02*
X164294808Y-106546547D01*
X164294808Y-106546547D02*
X164294808Y-106965595D01*
X163570998Y-106965595D02*
X163570998Y-106165595D01*
X163570998Y-106927500D02*
X163647189Y-106965595D01*
X163647189Y-106965595D02*
X163799570Y-106965595D01*
X163799570Y-106965595D02*
X163875760Y-106927500D01*
X163875760Y-106927500D02*
X163913855Y-106889404D01*
X163913855Y-106889404D02*
X163951951Y-106813214D01*
X163951951Y-106813214D02*
X163951951Y-106584642D01*
X163951951Y-106584642D02*
X163913855Y-106508452D01*
X163913855Y-106508452D02*
X163875760Y-106470357D01*
X163875760Y-106470357D02*
X163799570Y-106432261D01*
X163799570Y-106432261D02*
X163647189Y-106432261D01*
X163647189Y-106432261D02*
X163570998Y-106470357D01*
X162580521Y-106965595D02*
X162580521Y-106165595D01*
X162580521Y-106470357D02*
X162504331Y-106432261D01*
X162504331Y-106432261D02*
X162351950Y-106432261D01*
X162351950Y-106432261D02*
X162275759Y-106470357D01*
X162275759Y-106470357D02*
X162237664Y-106508452D01*
X162237664Y-106508452D02*
X162199569Y-106584642D01*
X162199569Y-106584642D02*
X162199569Y-106813214D01*
X162199569Y-106813214D02*
X162237664Y-106889404D01*
X162237664Y-106889404D02*
X162275759Y-106927500D01*
X162275759Y-106927500D02*
X162351950Y-106965595D01*
X162351950Y-106965595D02*
X162504331Y-106965595D01*
X162504331Y-106965595D02*
X162580521Y-106927500D01*
X161513854Y-106965595D02*
X161513854Y-106546547D01*
X161513854Y-106546547D02*
X161551949Y-106470357D01*
X161551949Y-106470357D02*
X161628140Y-106432261D01*
X161628140Y-106432261D02*
X161780521Y-106432261D01*
X161780521Y-106432261D02*
X161856711Y-106470357D01*
X161513854Y-106927500D02*
X161590045Y-106965595D01*
X161590045Y-106965595D02*
X161780521Y-106965595D01*
X161780521Y-106965595D02*
X161856711Y-106927500D01*
X161856711Y-106927500D02*
X161894807Y-106851309D01*
X161894807Y-106851309D02*
X161894807Y-106775119D01*
X161894807Y-106775119D02*
X161856711Y-106698928D01*
X161856711Y-106698928D02*
X161780521Y-106660833D01*
X161780521Y-106660833D02*
X161590045Y-106660833D01*
X161590045Y-106660833D02*
X161513854Y-106622738D01*
X161247187Y-106432261D02*
X160942425Y-106432261D01*
X161132901Y-106165595D02*
X161132901Y-106851309D01*
X161132901Y-106851309D02*
X161094806Y-106927500D01*
X161094806Y-106927500D02*
X161018616Y-106965595D01*
X161018616Y-106965595D02*
X160942425Y-106965595D01*
X160066234Y-106432261D02*
X160066234Y-107232261D01*
X160066234Y-106470357D02*
X159990044Y-106432261D01*
X159990044Y-106432261D02*
X159837663Y-106432261D01*
X159837663Y-106432261D02*
X159761472Y-106470357D01*
X159761472Y-106470357D02*
X159723377Y-106508452D01*
X159723377Y-106508452D02*
X159685282Y-106584642D01*
X159685282Y-106584642D02*
X159685282Y-106813214D01*
X159685282Y-106813214D02*
X159723377Y-106889404D01*
X159723377Y-106889404D02*
X159761472Y-106927500D01*
X159761472Y-106927500D02*
X159837663Y-106965595D01*
X159837663Y-106965595D02*
X159990044Y-106965595D01*
X159990044Y-106965595D02*
X160066234Y-106927500D01*
X158999567Y-106965595D02*
X158999567Y-106165595D01*
X158999567Y-106927500D02*
X159075758Y-106965595D01*
X159075758Y-106965595D02*
X159228139Y-106965595D01*
X159228139Y-106965595D02*
X159304329Y-106927500D01*
X159304329Y-106927500D02*
X159342424Y-106889404D01*
X159342424Y-106889404D02*
X159380520Y-106813214D01*
X159380520Y-106813214D02*
X159380520Y-106584642D01*
X159380520Y-106584642D02*
X159342424Y-106508452D01*
X159342424Y-106508452D02*
X159304329Y-106470357D01*
X159304329Y-106470357D02*
X159228139Y-106432261D01*
X159228139Y-106432261D02*
X159075758Y-106432261D01*
X159075758Y-106432261D02*
X158999567Y-106470357D01*
X158694805Y-106165595D02*
X158161471Y-106165595D01*
X158161471Y-106165595D02*
X158504329Y-106965595D01*
X156866233Y-106165595D02*
X157247185Y-106165595D01*
X157247185Y-106165595D02*
X157285281Y-106546547D01*
X157285281Y-106546547D02*
X157247185Y-106508452D01*
X157247185Y-106508452D02*
X157170995Y-106470357D01*
X157170995Y-106470357D02*
X156980519Y-106470357D01*
X156980519Y-106470357D02*
X156904328Y-106508452D01*
X156904328Y-106508452D02*
X156866233Y-106546547D01*
X156866233Y-106546547D02*
X156828138Y-106622738D01*
X156828138Y-106622738D02*
X156828138Y-106813214D01*
X156828138Y-106813214D02*
X156866233Y-106889404D01*
X156866233Y-106889404D02*
X156904328Y-106927500D01*
X156904328Y-106927500D02*
X156980519Y-106965595D01*
X156980519Y-106965595D02*
X157170995Y-106965595D01*
X157170995Y-106965595D02*
X157247185Y-106927500D01*
X157247185Y-106927500D02*
X157285281Y-106889404D01*
X156561471Y-106432261D02*
X156370995Y-106965595D01*
X156370995Y-106965595D02*
X156180518Y-106432261D01*
X155266232Y-106965595D02*
X155266232Y-106432261D01*
X155266232Y-106508452D02*
X155228137Y-106470357D01*
X155228137Y-106470357D02*
X155151947Y-106432261D01*
X155151947Y-106432261D02*
X155037661Y-106432261D01*
X155037661Y-106432261D02*
X154961470Y-106470357D01*
X154961470Y-106470357D02*
X154923375Y-106546547D01*
X154923375Y-106546547D02*
X154923375Y-106965595D01*
X154923375Y-106546547D02*
X154885280Y-106470357D01*
X154885280Y-106470357D02*
X154809089Y-106432261D01*
X154809089Y-106432261D02*
X154694804Y-106432261D01*
X154694804Y-106432261D02*
X154618613Y-106470357D01*
X154618613Y-106470357D02*
X154580518Y-106546547D01*
X154580518Y-106546547D02*
X154580518Y-106965595D01*
X153780518Y-106965595D02*
X154237661Y-106965595D01*
X154009089Y-106965595D02*
X154009089Y-106165595D01*
X154009089Y-106165595D02*
X154085280Y-106279880D01*
X154085280Y-106279880D02*
X154161470Y-106356071D01*
X154161470Y-106356071D02*
X154237661Y-106394166D01*
X153094803Y-106965595D02*
X153094803Y-106546547D01*
X153094803Y-106546547D02*
X153132898Y-106470357D01*
X153132898Y-106470357D02*
X153209089Y-106432261D01*
X153209089Y-106432261D02*
X153361470Y-106432261D01*
X153361470Y-106432261D02*
X153437660Y-106470357D01*
X153094803Y-106927500D02*
X153170994Y-106965595D01*
X153170994Y-106965595D02*
X153361470Y-106965595D01*
X153361470Y-106965595D02*
X153437660Y-106927500D01*
X153437660Y-106927500D02*
X153475756Y-106851309D01*
X153475756Y-106851309D02*
X153475756Y-106775119D01*
X153475756Y-106775119D02*
X153437660Y-106698928D01*
X153437660Y-106698928D02*
X153361470Y-106660833D01*
X153361470Y-106660833D02*
X153170994Y-106660833D01*
X153170994Y-106660833D02*
X153094803Y-106622738D01*
X152104326Y-106965595D02*
X152104326Y-106432261D01*
X152104326Y-106508452D02*
X152066231Y-106470357D01*
X152066231Y-106470357D02*
X151990041Y-106432261D01*
X151990041Y-106432261D02*
X151875755Y-106432261D01*
X151875755Y-106432261D02*
X151799564Y-106470357D01*
X151799564Y-106470357D02*
X151761469Y-106546547D01*
X151761469Y-106546547D02*
X151761469Y-106965595D01*
X151761469Y-106546547D02*
X151723374Y-106470357D01*
X151723374Y-106470357D02*
X151647183Y-106432261D01*
X151647183Y-106432261D02*
X151532898Y-106432261D01*
X151532898Y-106432261D02*
X151456707Y-106470357D01*
X151456707Y-106470357D02*
X151418612Y-106546547D01*
X151418612Y-106546547D02*
X151418612Y-106965595D01*
X150618612Y-106965595D02*
X151075755Y-106965595D01*
X150847183Y-106965595D02*
X150847183Y-106165595D01*
X150847183Y-106165595D02*
X150923374Y-106279880D01*
X150923374Y-106279880D02*
X150999564Y-106356071D01*
X150999564Y-106356071D02*
X151075755Y-106394166D01*
X150275754Y-106965595D02*
X150275754Y-106165595D01*
X150275754Y-106470357D02*
X150199564Y-106432261D01*
X150199564Y-106432261D02*
X150047183Y-106432261D01*
X150047183Y-106432261D02*
X149970992Y-106470357D01*
X149970992Y-106470357D02*
X149932897Y-106508452D01*
X149932897Y-106508452D02*
X149894802Y-106584642D01*
X149894802Y-106584642D02*
X149894802Y-106813214D01*
X149894802Y-106813214D02*
X149932897Y-106889404D01*
X149932897Y-106889404D02*
X149970992Y-106927500D01*
X149970992Y-106927500D02*
X150047183Y-106965595D01*
X150047183Y-106965595D02*
X150199564Y-106965595D01*
X150199564Y-106965595D02*
X150275754Y-106927500D01*
D11*
X174139673Y-107343733D02*
X174901578Y-107343733D01*
X176139673Y-107343733D02*
X176901578Y-107343733D01*
X176520625Y-106962780D02*
X176520625Y-107724685D01*
D12*
X179396190Y-124564200D02*
X179281904Y-124602295D01*
X179281904Y-124602295D02*
X179091428Y-124602295D01*
X179091428Y-124602295D02*
X179015237Y-124564200D01*
X179015237Y-124564200D02*
X178977142Y-124526104D01*
X178977142Y-124526104D02*
X178939047Y-124449914D01*
X178939047Y-124449914D02*
X178939047Y-124373723D01*
X178939047Y-124373723D02*
X178977142Y-124297533D01*
X178977142Y-124297533D02*
X179015237Y-124259438D01*
X179015237Y-124259438D02*
X179091428Y-124221342D01*
X179091428Y-124221342D02*
X179243809Y-124183247D01*
X179243809Y-124183247D02*
X179319999Y-124145152D01*
X179319999Y-124145152D02*
X179358094Y-124107057D01*
X179358094Y-124107057D02*
X179396190Y-124030866D01*
X179396190Y-124030866D02*
X179396190Y-123954676D01*
X179396190Y-123954676D02*
X179358094Y-123878485D01*
X179358094Y-123878485D02*
X179319999Y-123840390D01*
X179319999Y-123840390D02*
X179243809Y-123802295D01*
X179243809Y-123802295D02*
X179053332Y-123802295D01*
X179053332Y-123802295D02*
X178939047Y-123840390D01*
X178710475Y-123802295D02*
X178253332Y-123802295D01*
X178481904Y-124602295D02*
X178481904Y-123802295D01*
X177719999Y-124183247D02*
X177605713Y-124221342D01*
X177605713Y-124221342D02*
X177567618Y-124259438D01*
X177567618Y-124259438D02*
X177529522Y-124335628D01*
X177529522Y-124335628D02*
X177529522Y-124449914D01*
X177529522Y-124449914D02*
X177567618Y-124526104D01*
X177567618Y-124526104D02*
X177605713Y-124564200D01*
X177605713Y-124564200D02*
X177681903Y-124602295D01*
X177681903Y-124602295D02*
X177986665Y-124602295D01*
X177986665Y-124602295D02*
X177986665Y-123802295D01*
X177986665Y-123802295D02*
X177719999Y-123802295D01*
X177719999Y-123802295D02*
X177643808Y-123840390D01*
X177643808Y-123840390D02*
X177605713Y-123878485D01*
X177605713Y-123878485D02*
X177567618Y-123954676D01*
X177567618Y-123954676D02*
X177567618Y-124030866D01*
X177567618Y-124030866D02*
X177605713Y-124107057D01*
X177605713Y-124107057D02*
X177643808Y-124145152D01*
X177643808Y-124145152D02*
X177719999Y-124183247D01*
X177719999Y-124183247D02*
X177986665Y-124183247D01*
X177034284Y-124221342D02*
X177034284Y-124602295D01*
X177300951Y-123802295D02*
X177034284Y-124221342D01*
X177034284Y-124221342D02*
X176767618Y-123802295D01*
X162417142Y-119972295D02*
X162798094Y-119972295D01*
X162798094Y-119972295D02*
X162836190Y-120353247D01*
X162836190Y-120353247D02*
X162798094Y-120315152D01*
X162798094Y-120315152D02*
X162721904Y-120277057D01*
X162721904Y-120277057D02*
X162531428Y-120277057D01*
X162531428Y-120277057D02*
X162455237Y-120315152D01*
X162455237Y-120315152D02*
X162417142Y-120353247D01*
X162417142Y-120353247D02*
X162379047Y-120429438D01*
X162379047Y-120429438D02*
X162379047Y-120619914D01*
X162379047Y-120619914D02*
X162417142Y-120696104D01*
X162417142Y-120696104D02*
X162455237Y-120734200D01*
X162455237Y-120734200D02*
X162531428Y-120772295D01*
X162531428Y-120772295D02*
X162721904Y-120772295D01*
X162721904Y-120772295D02*
X162798094Y-120734200D01*
X162798094Y-120734200D02*
X162836190Y-120696104D01*
X162150475Y-119972295D02*
X161883808Y-120772295D01*
X161883808Y-120772295D02*
X161617142Y-119972295D01*
X161540952Y-120848485D02*
X160931428Y-120848485D01*
X160740951Y-119972295D02*
X160740951Y-120619914D01*
X160740951Y-120619914D02*
X160702856Y-120696104D01*
X160702856Y-120696104D02*
X160664761Y-120734200D01*
X160664761Y-120734200D02*
X160588570Y-120772295D01*
X160588570Y-120772295D02*
X160436189Y-120772295D01*
X160436189Y-120772295D02*
X160359999Y-120734200D01*
X160359999Y-120734200D02*
X160321904Y-120696104D01*
X160321904Y-120696104D02*
X160283808Y-120619914D01*
X160283808Y-120619914D02*
X160283808Y-119972295D01*
X159940952Y-120734200D02*
X159826666Y-120772295D01*
X159826666Y-120772295D02*
X159636190Y-120772295D01*
X159636190Y-120772295D02*
X159559999Y-120734200D01*
X159559999Y-120734200D02*
X159521904Y-120696104D01*
X159521904Y-120696104D02*
X159483809Y-120619914D01*
X159483809Y-120619914D02*
X159483809Y-120543723D01*
X159483809Y-120543723D02*
X159521904Y-120467533D01*
X159521904Y-120467533D02*
X159559999Y-120429438D01*
X159559999Y-120429438D02*
X159636190Y-120391342D01*
X159636190Y-120391342D02*
X159788571Y-120353247D01*
X159788571Y-120353247D02*
X159864761Y-120315152D01*
X159864761Y-120315152D02*
X159902856Y-120277057D01*
X159902856Y-120277057D02*
X159940952Y-120200866D01*
X159940952Y-120200866D02*
X159940952Y-120124676D01*
X159940952Y-120124676D02*
X159902856Y-120048485D01*
X159902856Y-120048485D02*
X159864761Y-120010390D01*
X159864761Y-120010390D02*
X159788571Y-119972295D01*
X159788571Y-119972295D02*
X159598094Y-119972295D01*
X159598094Y-119972295D02*
X159483809Y-120010390D01*
X158874285Y-120353247D02*
X158759999Y-120391342D01*
X158759999Y-120391342D02*
X158721904Y-120429438D01*
X158721904Y-120429438D02*
X158683808Y-120505628D01*
X158683808Y-120505628D02*
X158683808Y-120619914D01*
X158683808Y-120619914D02*
X158721904Y-120696104D01*
X158721904Y-120696104D02*
X158759999Y-120734200D01*
X158759999Y-120734200D02*
X158836189Y-120772295D01*
X158836189Y-120772295D02*
X159140951Y-120772295D01*
X159140951Y-120772295D02*
X159140951Y-119972295D01*
X159140951Y-119972295D02*
X158874285Y-119972295D01*
X158874285Y-119972295D02*
X158798094Y-120010390D01*
X158798094Y-120010390D02*
X158759999Y-120048485D01*
X158759999Y-120048485D02*
X158721904Y-120124676D01*
X158721904Y-120124676D02*
X158721904Y-120200866D01*
X158721904Y-120200866D02*
X158759999Y-120277057D01*
X158759999Y-120277057D02*
X158798094Y-120315152D01*
X158798094Y-120315152D02*
X158874285Y-120353247D01*
X158874285Y-120353247D02*
X159140951Y-120353247D01*
X163140476Y-127182295D02*
X162645238Y-127182295D01*
X162645238Y-127182295D02*
X162911904Y-127487057D01*
X162911904Y-127487057D02*
X162797619Y-127487057D01*
X162797619Y-127487057D02*
X162721428Y-127525152D01*
X162721428Y-127525152D02*
X162683333Y-127563247D01*
X162683333Y-127563247D02*
X162645238Y-127639438D01*
X162645238Y-127639438D02*
X162645238Y-127829914D01*
X162645238Y-127829914D02*
X162683333Y-127906104D01*
X162683333Y-127906104D02*
X162721428Y-127944200D01*
X162721428Y-127944200D02*
X162797619Y-127982295D01*
X162797619Y-127982295D02*
X163026190Y-127982295D01*
X163026190Y-127982295D02*
X163102381Y-127944200D01*
X163102381Y-127944200D02*
X163140476Y-127906104D01*
X162416666Y-127182295D02*
X162149999Y-127982295D01*
X162149999Y-127982295D02*
X161883333Y-127182295D01*
X161692857Y-127182295D02*
X161197619Y-127182295D01*
X161197619Y-127182295D02*
X161464285Y-127487057D01*
X161464285Y-127487057D02*
X161350000Y-127487057D01*
X161350000Y-127487057D02*
X161273809Y-127525152D01*
X161273809Y-127525152D02*
X161235714Y-127563247D01*
X161235714Y-127563247D02*
X161197619Y-127639438D01*
X161197619Y-127639438D02*
X161197619Y-127829914D01*
X161197619Y-127829914D02*
X161235714Y-127906104D01*
X161235714Y-127906104D02*
X161273809Y-127944200D01*
X161273809Y-127944200D02*
X161350000Y-127982295D01*
X161350000Y-127982295D02*
X161578571Y-127982295D01*
X161578571Y-127982295D02*
X161654762Y-127944200D01*
X161654762Y-127944200D02*
X161692857Y-127906104D01*
X166027618Y-115882295D02*
X166027618Y-115082295D01*
X166027618Y-115082295D02*
X165760952Y-115653723D01*
X165760952Y-115653723D02*
X165494285Y-115082295D01*
X165494285Y-115082295D02*
X165494285Y-115882295D01*
X165151428Y-115158485D02*
X165113332Y-115120390D01*
X165113332Y-115120390D02*
X165037142Y-115082295D01*
X165037142Y-115082295D02*
X164846666Y-115082295D01*
X164846666Y-115082295D02*
X164770475Y-115120390D01*
X164770475Y-115120390D02*
X164732380Y-115158485D01*
X164732380Y-115158485D02*
X164694285Y-115234676D01*
X164694285Y-115234676D02*
X164694285Y-115310866D01*
X164694285Y-115310866D02*
X164732380Y-115425152D01*
X164732380Y-115425152D02*
X165189523Y-115882295D01*
X165189523Y-115882295D02*
X164694285Y-115882295D01*
X164084761Y-115463247D02*
X163970475Y-115501342D01*
X163970475Y-115501342D02*
X163932380Y-115539438D01*
X163932380Y-115539438D02*
X163894284Y-115615628D01*
X163894284Y-115615628D02*
X163894284Y-115729914D01*
X163894284Y-115729914D02*
X163932380Y-115806104D01*
X163932380Y-115806104D02*
X163970475Y-115844200D01*
X163970475Y-115844200D02*
X164046665Y-115882295D01*
X164046665Y-115882295D02*
X164351427Y-115882295D01*
X164351427Y-115882295D02*
X164351427Y-115082295D01*
X164351427Y-115082295D02*
X164084761Y-115082295D01*
X164084761Y-115082295D02*
X164008570Y-115120390D01*
X164008570Y-115120390D02*
X163970475Y-115158485D01*
X163970475Y-115158485D02*
X163932380Y-115234676D01*
X163932380Y-115234676D02*
X163932380Y-115310866D01*
X163932380Y-115310866D02*
X163970475Y-115387057D01*
X163970475Y-115387057D02*
X164008570Y-115425152D01*
X164008570Y-115425152D02*
X164084761Y-115463247D01*
X164084761Y-115463247D02*
X164351427Y-115463247D01*
X160120475Y-115812295D02*
X160120475Y-115012295D01*
X160120475Y-115012295D02*
X159853809Y-115583723D01*
X159853809Y-115583723D02*
X159587142Y-115012295D01*
X159587142Y-115012295D02*
X159587142Y-115812295D01*
X159244285Y-115088485D02*
X159206189Y-115050390D01*
X159206189Y-115050390D02*
X159129999Y-115012295D01*
X159129999Y-115012295D02*
X158939523Y-115012295D01*
X158939523Y-115012295D02*
X158863332Y-115050390D01*
X158863332Y-115050390D02*
X158825237Y-115088485D01*
X158825237Y-115088485D02*
X158787142Y-115164676D01*
X158787142Y-115164676D02*
X158787142Y-115240866D01*
X158787142Y-115240866D02*
X158825237Y-115355152D01*
X158825237Y-115355152D02*
X159282380Y-115812295D01*
X159282380Y-115812295D02*
X158787142Y-115812295D01*
X158482380Y-115583723D02*
X158101427Y-115583723D01*
X158558570Y-115812295D02*
X158291903Y-115012295D01*
X158291903Y-115012295D02*
X158025237Y-115812295D01*
X150918095Y-120563247D02*
X150803809Y-120601342D01*
X150803809Y-120601342D02*
X150765714Y-120639438D01*
X150765714Y-120639438D02*
X150727618Y-120715628D01*
X150727618Y-120715628D02*
X150727618Y-120829914D01*
X150727618Y-120829914D02*
X150765714Y-120906104D01*
X150765714Y-120906104D02*
X150803809Y-120944200D01*
X150803809Y-120944200D02*
X150879999Y-120982295D01*
X150879999Y-120982295D02*
X151184761Y-120982295D01*
X151184761Y-120982295D02*
X151184761Y-120182295D01*
X151184761Y-120182295D02*
X150918095Y-120182295D01*
X150918095Y-120182295D02*
X150841904Y-120220390D01*
X150841904Y-120220390D02*
X150803809Y-120258485D01*
X150803809Y-120258485D02*
X150765714Y-120334676D01*
X150765714Y-120334676D02*
X150765714Y-120410866D01*
X150765714Y-120410866D02*
X150803809Y-120487057D01*
X150803809Y-120487057D02*
X150841904Y-120525152D01*
X150841904Y-120525152D02*
X150918095Y-120563247D01*
X150918095Y-120563247D02*
X151184761Y-120563247D01*
X150422857Y-120753723D02*
X150041904Y-120753723D01*
X150499047Y-120982295D02*
X150232380Y-120182295D01*
X150232380Y-120182295D02*
X149965714Y-120982295D01*
X149813333Y-120182295D02*
X149356190Y-120182295D01*
X149584762Y-120982295D02*
X149584762Y-120182295D01*
X149203809Y-120182295D02*
X148746666Y-120182295D01*
X148975238Y-120982295D02*
X148975238Y-120182295D01*
X148670476Y-121058485D02*
X148060952Y-121058485D01*
X147908571Y-120944200D02*
X147794285Y-120982295D01*
X147794285Y-120982295D02*
X147603809Y-120982295D01*
X147603809Y-120982295D02*
X147527618Y-120944200D01*
X147527618Y-120944200D02*
X147489523Y-120906104D01*
X147489523Y-120906104D02*
X147451428Y-120829914D01*
X147451428Y-120829914D02*
X147451428Y-120753723D01*
X147451428Y-120753723D02*
X147489523Y-120677533D01*
X147489523Y-120677533D02*
X147527618Y-120639438D01*
X147527618Y-120639438D02*
X147603809Y-120601342D01*
X147603809Y-120601342D02*
X147756190Y-120563247D01*
X147756190Y-120563247D02*
X147832380Y-120525152D01*
X147832380Y-120525152D02*
X147870475Y-120487057D01*
X147870475Y-120487057D02*
X147908571Y-120410866D01*
X147908571Y-120410866D02*
X147908571Y-120334676D01*
X147908571Y-120334676D02*
X147870475Y-120258485D01*
X147870475Y-120258485D02*
X147832380Y-120220390D01*
X147832380Y-120220390D02*
X147756190Y-120182295D01*
X147756190Y-120182295D02*
X147565713Y-120182295D01*
X147565713Y-120182295D02*
X147451428Y-120220390D01*
X147184761Y-120182295D02*
X146994285Y-120982295D01*
X146994285Y-120982295D02*
X146841904Y-120410866D01*
X146841904Y-120410866D02*
X146689523Y-120982295D01*
X146689523Y-120982295D02*
X146499047Y-120182295D01*
X153422857Y-116103247D02*
X153308571Y-116141342D01*
X153308571Y-116141342D02*
X153270476Y-116179438D01*
X153270476Y-116179438D02*
X153232380Y-116255628D01*
X153232380Y-116255628D02*
X153232380Y-116369914D01*
X153232380Y-116369914D02*
X153270476Y-116446104D01*
X153270476Y-116446104D02*
X153308571Y-116484200D01*
X153308571Y-116484200D02*
X153384761Y-116522295D01*
X153384761Y-116522295D02*
X153689523Y-116522295D01*
X153689523Y-116522295D02*
X153689523Y-115722295D01*
X153689523Y-115722295D02*
X153422857Y-115722295D01*
X153422857Y-115722295D02*
X153346666Y-115760390D01*
X153346666Y-115760390D02*
X153308571Y-115798485D01*
X153308571Y-115798485D02*
X153270476Y-115874676D01*
X153270476Y-115874676D02*
X153270476Y-115950866D01*
X153270476Y-115950866D02*
X153308571Y-116027057D01*
X153308571Y-116027057D02*
X153346666Y-116065152D01*
X153346666Y-116065152D02*
X153422857Y-116103247D01*
X153422857Y-116103247D02*
X153689523Y-116103247D01*
X152927619Y-116293723D02*
X152546666Y-116293723D01*
X153003809Y-116522295D02*
X152737142Y-115722295D01*
X152737142Y-115722295D02*
X152470476Y-116522295D01*
X152318095Y-115722295D02*
X151860952Y-115722295D01*
X152089524Y-116522295D02*
X152089524Y-115722295D01*
X151708571Y-115722295D02*
X151251428Y-115722295D01*
X151480000Y-116522295D02*
X151480000Y-115722295D01*
X151175238Y-116598485D02*
X150565714Y-116598485D01*
X150413333Y-116293723D02*
X150032380Y-116293723D01*
X150489523Y-116522295D02*
X150222856Y-115722295D01*
X150222856Y-115722295D02*
X149956190Y-116522295D01*
X149689523Y-116522295D02*
X149689523Y-115722295D01*
X149689523Y-115722295D02*
X149499047Y-115722295D01*
X149499047Y-115722295D02*
X149384761Y-115760390D01*
X149384761Y-115760390D02*
X149308571Y-115836580D01*
X149308571Y-115836580D02*
X149270476Y-115912771D01*
X149270476Y-115912771D02*
X149232380Y-116065152D01*
X149232380Y-116065152D02*
X149232380Y-116179438D01*
X149232380Y-116179438D02*
X149270476Y-116331819D01*
X149270476Y-116331819D02*
X149308571Y-116408009D01*
X149308571Y-116408009D02*
X149384761Y-116484200D01*
X149384761Y-116484200D02*
X149499047Y-116522295D01*
X149499047Y-116522295D02*
X149689523Y-116522295D01*
X148432380Y-116446104D02*
X148470476Y-116484200D01*
X148470476Y-116484200D02*
X148584761Y-116522295D01*
X148584761Y-116522295D02*
X148660952Y-116522295D01*
X148660952Y-116522295D02*
X148775238Y-116484200D01*
X148775238Y-116484200D02*
X148851428Y-116408009D01*
X148851428Y-116408009D02*
X148889523Y-116331819D01*
X148889523Y-116331819D02*
X148927619Y-116179438D01*
X148927619Y-116179438D02*
X148927619Y-116065152D01*
X148927619Y-116065152D02*
X148889523Y-115912771D01*
X148889523Y-115912771D02*
X148851428Y-115836580D01*
X148851428Y-115836580D02*
X148775238Y-115760390D01*
X148775238Y-115760390D02*
X148660952Y-115722295D01*
X148660952Y-115722295D02*
X148584761Y-115722295D01*
X148584761Y-115722295D02*
X148470476Y-115760390D01*
X148470476Y-115760390D02*
X148432380Y-115798485D01*
X147490475Y-110932295D02*
X147490475Y-110132295D01*
X147490475Y-110132295D02*
X147223809Y-110703723D01*
X147223809Y-110703723D02*
X146957142Y-110132295D01*
X146957142Y-110132295D02*
X146957142Y-110932295D01*
X146157142Y-110932295D02*
X146614285Y-110932295D01*
X146385713Y-110932295D02*
X146385713Y-110132295D01*
X146385713Y-110132295D02*
X146461904Y-110246580D01*
X146461904Y-110246580D02*
X146538094Y-110322771D01*
X146538094Y-110322771D02*
X146614285Y-110360866D01*
X145852380Y-110703723D02*
X145471427Y-110703723D01*
X145928570Y-110932295D02*
X145661903Y-110132295D01*
X145661903Y-110132295D02*
X145395237Y-110932295D01*
X172798570Y-128102295D02*
X172798570Y-127302295D01*
X172798570Y-127302295D02*
X172493808Y-127302295D01*
X172493808Y-127302295D02*
X172417618Y-127340390D01*
X172417618Y-127340390D02*
X172379523Y-127378485D01*
X172379523Y-127378485D02*
X172341427Y-127454676D01*
X172341427Y-127454676D02*
X172341427Y-127568961D01*
X172341427Y-127568961D02*
X172379523Y-127645152D01*
X172379523Y-127645152D02*
X172417618Y-127683247D01*
X172417618Y-127683247D02*
X172493808Y-127721342D01*
X172493808Y-127721342D02*
X172798570Y-127721342D01*
X171541427Y-128102295D02*
X171808094Y-127721342D01*
X171998570Y-128102295D02*
X171998570Y-127302295D01*
X171998570Y-127302295D02*
X171693808Y-127302295D01*
X171693808Y-127302295D02*
X171617618Y-127340390D01*
X171617618Y-127340390D02*
X171579523Y-127378485D01*
X171579523Y-127378485D02*
X171541427Y-127454676D01*
X171541427Y-127454676D02*
X171541427Y-127568961D01*
X171541427Y-127568961D02*
X171579523Y-127645152D01*
X171579523Y-127645152D02*
X171617618Y-127683247D01*
X171617618Y-127683247D02*
X171693808Y-127721342D01*
X171693808Y-127721342D02*
X171998570Y-127721342D01*
X171046189Y-127302295D02*
X170893808Y-127302295D01*
X170893808Y-127302295D02*
X170817618Y-127340390D01*
X170817618Y-127340390D02*
X170741427Y-127416580D01*
X170741427Y-127416580D02*
X170703332Y-127568961D01*
X170703332Y-127568961D02*
X170703332Y-127835628D01*
X170703332Y-127835628D02*
X170741427Y-127988009D01*
X170741427Y-127988009D02*
X170817618Y-128064200D01*
X170817618Y-128064200D02*
X170893808Y-128102295D01*
X170893808Y-128102295D02*
X171046189Y-128102295D01*
X171046189Y-128102295D02*
X171122380Y-128064200D01*
X171122380Y-128064200D02*
X171198570Y-127988009D01*
X171198570Y-127988009D02*
X171236666Y-127835628D01*
X171236666Y-127835628D02*
X171236666Y-127568961D01*
X171236666Y-127568961D02*
X171198570Y-127416580D01*
X171198570Y-127416580D02*
X171122380Y-127340390D01*
X171122380Y-127340390D02*
X171046189Y-127302295D01*
X169941428Y-127340390D02*
X170017618Y-127302295D01*
X170017618Y-127302295D02*
X170131904Y-127302295D01*
X170131904Y-127302295D02*
X170246190Y-127340390D01*
X170246190Y-127340390D02*
X170322380Y-127416580D01*
X170322380Y-127416580D02*
X170360475Y-127492771D01*
X170360475Y-127492771D02*
X170398571Y-127645152D01*
X170398571Y-127645152D02*
X170398571Y-127759438D01*
X170398571Y-127759438D02*
X170360475Y-127911819D01*
X170360475Y-127911819D02*
X170322380Y-127988009D01*
X170322380Y-127988009D02*
X170246190Y-128064200D01*
X170246190Y-128064200D02*
X170131904Y-128102295D01*
X170131904Y-128102295D02*
X170055713Y-128102295D01*
X170055713Y-128102295D02*
X169941428Y-128064200D01*
X169941428Y-128064200D02*
X169903332Y-128026104D01*
X169903332Y-128026104D02*
X169903332Y-127759438D01*
X169903332Y-127759438D02*
X170055713Y-127759438D01*
X176701427Y-126166104D02*
X176739523Y-126204200D01*
X176739523Y-126204200D02*
X176853808Y-126242295D01*
X176853808Y-126242295D02*
X176929999Y-126242295D01*
X176929999Y-126242295D02*
X177044285Y-126204200D01*
X177044285Y-126204200D02*
X177120475Y-126128009D01*
X177120475Y-126128009D02*
X177158570Y-126051819D01*
X177158570Y-126051819D02*
X177196666Y-125899438D01*
X177196666Y-125899438D02*
X177196666Y-125785152D01*
X177196666Y-125785152D02*
X177158570Y-125632771D01*
X177158570Y-125632771D02*
X177120475Y-125556580D01*
X177120475Y-125556580D02*
X177044285Y-125480390D01*
X177044285Y-125480390D02*
X176929999Y-125442295D01*
X176929999Y-125442295D02*
X176853808Y-125442295D01*
X176853808Y-125442295D02*
X176739523Y-125480390D01*
X176739523Y-125480390D02*
X176701427Y-125518485D01*
X176358570Y-126242295D02*
X176358570Y-125442295D01*
X176358570Y-125823247D02*
X175901427Y-125823247D01*
X175901427Y-126242295D02*
X175901427Y-125442295D01*
X175063332Y-126242295D02*
X175329999Y-125861342D01*
X175520475Y-126242295D02*
X175520475Y-125442295D01*
X175520475Y-125442295D02*
X175215713Y-125442295D01*
X175215713Y-125442295D02*
X175139523Y-125480390D01*
X175139523Y-125480390D02*
X175101428Y-125518485D01*
X175101428Y-125518485D02*
X175063332Y-125594676D01*
X175063332Y-125594676D02*
X175063332Y-125708961D01*
X175063332Y-125708961D02*
X175101428Y-125785152D01*
X175101428Y-125785152D02*
X175139523Y-125823247D01*
X175139523Y-125823247D02*
X175215713Y-125861342D01*
X175215713Y-125861342D02*
X175520475Y-125861342D01*
X174301428Y-125480390D02*
X174377618Y-125442295D01*
X174377618Y-125442295D02*
X174491904Y-125442295D01*
X174491904Y-125442295D02*
X174606190Y-125480390D01*
X174606190Y-125480390D02*
X174682380Y-125556580D01*
X174682380Y-125556580D02*
X174720475Y-125632771D01*
X174720475Y-125632771D02*
X174758571Y-125785152D01*
X174758571Y-125785152D02*
X174758571Y-125899438D01*
X174758571Y-125899438D02*
X174720475Y-126051819D01*
X174720475Y-126051819D02*
X174682380Y-126128009D01*
X174682380Y-126128009D02*
X174606190Y-126204200D01*
X174606190Y-126204200D02*
X174491904Y-126242295D01*
X174491904Y-126242295D02*
X174415713Y-126242295D01*
X174415713Y-126242295D02*
X174301428Y-126204200D01*
X174301428Y-126204200D02*
X174263332Y-126166104D01*
X174263332Y-126166104D02*
X174263332Y-125899438D01*
X174263332Y-125899438D02*
X174415713Y-125899438D01*
X147757618Y-108712295D02*
X147757618Y-107912295D01*
X147757618Y-107912295D02*
X147490952Y-108483723D01*
X147490952Y-108483723D02*
X147224285Y-107912295D01*
X147224285Y-107912295D02*
X147224285Y-108712295D01*
X146424285Y-108712295D02*
X146881428Y-108712295D01*
X146652856Y-108712295D02*
X146652856Y-107912295D01*
X146652856Y-107912295D02*
X146729047Y-108026580D01*
X146729047Y-108026580D02*
X146805237Y-108102771D01*
X146805237Y-108102771D02*
X146881428Y-108140866D01*
X145814761Y-108293247D02*
X145700475Y-108331342D01*
X145700475Y-108331342D02*
X145662380Y-108369438D01*
X145662380Y-108369438D02*
X145624284Y-108445628D01*
X145624284Y-108445628D02*
X145624284Y-108559914D01*
X145624284Y-108559914D02*
X145662380Y-108636104D01*
X145662380Y-108636104D02*
X145700475Y-108674200D01*
X145700475Y-108674200D02*
X145776665Y-108712295D01*
X145776665Y-108712295D02*
X146081427Y-108712295D01*
X146081427Y-108712295D02*
X146081427Y-107912295D01*
X146081427Y-107912295D02*
X145814761Y-107912295D01*
X145814761Y-107912295D02*
X145738570Y-107950390D01*
X145738570Y-107950390D02*
X145700475Y-107988485D01*
X145700475Y-107988485D02*
X145662380Y-108064676D01*
X145662380Y-108064676D02*
X145662380Y-108140866D01*
X145662380Y-108140866D02*
X145700475Y-108217057D01*
X145700475Y-108217057D02*
X145738570Y-108255152D01*
X145738570Y-108255152D02*
X145814761Y-108293247D01*
X145814761Y-108293247D02*
X146081427Y-108293247D01*
%TO.C,G\u002A\u002A\u002A*%
G36*
X156785134Y-132181402D02*
G01*
X156781748Y-132218537D01*
X156771813Y-132255827D01*
X156755131Y-132295179D01*
X156741764Y-132320307D01*
X156720629Y-132352688D01*
X156695266Y-132383596D01*
X156664048Y-132415179D01*
X156644387Y-132432839D01*
X156617567Y-132453575D01*
X156590282Y-132470230D01*
X156559955Y-132484519D01*
X156551069Y-132487772D01*
X156522607Y-132493742D01*
X156490286Y-132495153D01*
X156456102Y-132492009D01*
X156422051Y-132484313D01*
X156421101Y-132484029D01*
X156405487Y-132479462D01*
X156395353Y-132477095D01*
X156388622Y-132476832D01*
X156383214Y-132478577D01*
X156377051Y-132482233D01*
X156375308Y-132483354D01*
X156367862Y-132488646D01*
X156364839Y-132491700D01*
X156365086Y-132493532D01*
X156368392Y-132502537D01*
X156374595Y-132515024D01*
X156382471Y-132528662D01*
X156390796Y-132541120D01*
X156393639Y-132545092D01*
X156413561Y-132579553D01*
X156429660Y-132619499D01*
X156441810Y-132663497D01*
X156449887Y-132710115D01*
X156453767Y-132757921D01*
X156453324Y-132805484D01*
X156448435Y-132851370D01*
X156438974Y-132894148D01*
X156424818Y-132932385D01*
X156419952Y-132941851D01*
X156400174Y-132969468D01*
X156373946Y-132994232D01*
X156342228Y-133015566D01*
X156305982Y-133032893D01*
X156266168Y-133045635D01*
X156223747Y-133053215D01*
X156205648Y-133054780D01*
X156152842Y-133054184D01*
X156101641Y-133045807D01*
X156052375Y-133029721D01*
X156005377Y-133005998D01*
X155975915Y-132988277D01*
X155899377Y-132984775D01*
X155881828Y-132983913D01*
X155840375Y-132981227D01*
X155805317Y-132977768D01*
X155775499Y-132973296D01*
X155749764Y-132967573D01*
X155726956Y-132960359D01*
X155705920Y-132951415D01*
X155685500Y-132940502D01*
X155679383Y-132936459D01*
X155665019Y-132925115D01*
X155646924Y-132909222D01*
X155626058Y-132889739D01*
X155603379Y-132867625D01*
X155579845Y-132843840D01*
X155556416Y-132819343D01*
X155534050Y-132795095D01*
X155513705Y-132772053D01*
X155496341Y-132751179D01*
X155488160Y-132740885D01*
X155459859Y-132704345D01*
X155432908Y-132667910D01*
X155406719Y-132630659D01*
X155380703Y-132591671D01*
X155354273Y-132550025D01*
X155326840Y-132504801D01*
X155297815Y-132455078D01*
X155266611Y-132399935D01*
X155232638Y-132338451D01*
X155230258Y-132334105D01*
X155204019Y-132286498D01*
X155181071Y-132245511D01*
X155161126Y-132210667D01*
X155143894Y-132181484D01*
X155129088Y-132157482D01*
X155116418Y-132138183D01*
X155105597Y-132123105D01*
X155096335Y-132111770D01*
X155086015Y-132101122D01*
X155072807Y-132089388D01*
X155056600Y-132076676D01*
X155036931Y-132062700D01*
X155013337Y-132047171D01*
X154985356Y-132029805D01*
X154952524Y-132010313D01*
X154914379Y-131988408D01*
X154870458Y-131963805D01*
X154820298Y-131936215D01*
X154763438Y-131905352D01*
X154756023Y-131901347D01*
X154716852Y-131880153D01*
X154683529Y-131862011D01*
X154655026Y-131846307D01*
X154630310Y-131832429D01*
X154608353Y-131819765D01*
X154588124Y-131807702D01*
X154568592Y-131795628D01*
X154548728Y-131782930D01*
X154527502Y-131768997D01*
X154503882Y-131753215D01*
X154476839Y-131734971D01*
X154435741Y-131707477D01*
X154372515Y-131666526D01*
X154314747Y-131630927D01*
X154262235Y-131600568D01*
X154214778Y-131575340D01*
X154172174Y-131555132D01*
X154134222Y-131539833D01*
X154100719Y-131529335D01*
X154084013Y-131524824D01*
X154060089Y-131518048D01*
X154032752Y-131510067D01*
X154004222Y-131501528D01*
X153976719Y-131493081D01*
X153967952Y-131490334D01*
X153943914Y-131482716D01*
X153914601Y-131473333D01*
X153880692Y-131462409D01*
X153842864Y-131450166D01*
X153801795Y-131436827D01*
X153758163Y-131422616D01*
X153712648Y-131407754D01*
X153665925Y-131392465D01*
X153618675Y-131376972D01*
X153571575Y-131361498D01*
X153525303Y-131346265D01*
X153480536Y-131331497D01*
X153437954Y-131317416D01*
X153398235Y-131304245D01*
X153362055Y-131292208D01*
X153330094Y-131281527D01*
X153303030Y-131272425D01*
X153281540Y-131265124D01*
X153266303Y-131259849D01*
X153257997Y-131256821D01*
X153229478Y-131244802D01*
X153184821Y-131223780D01*
X153134816Y-131198031D01*
X153079885Y-131167831D01*
X153020454Y-131133458D01*
X152956945Y-131095189D01*
X152889783Y-131053300D01*
X152819391Y-131008070D01*
X152746193Y-130959774D01*
X152670613Y-130908690D01*
X152593074Y-130855095D01*
X152514001Y-130799267D01*
X152433817Y-130741481D01*
X152352947Y-130682016D01*
X152271813Y-130621148D01*
X152190839Y-130559154D01*
X152185447Y-130554985D01*
X152109245Y-130496801D01*
X152032158Y-130439219D01*
X151954762Y-130382627D01*
X151877635Y-130327410D01*
X151801354Y-130273957D01*
X151726496Y-130222652D01*
X151653639Y-130173884D01*
X151583360Y-130128040D01*
X151516236Y-130085504D01*
X151452845Y-130046666D01*
X151393763Y-130011911D01*
X151339569Y-129981626D01*
X151290839Y-129956198D01*
X151273021Y-129947386D01*
X151256502Y-129939712D01*
X151241925Y-129933963D01*
X151227869Y-129929897D01*
X151212915Y-129927272D01*
X151195643Y-129925845D01*
X151174633Y-129925376D01*
X151148466Y-129925621D01*
X151115722Y-129926338D01*
X151097182Y-129926904D01*
X151065095Y-129928244D01*
X151028018Y-129930115D01*
X150987702Y-129932417D01*
X150945898Y-129935048D01*
X150904360Y-129937907D01*
X150864839Y-129940891D01*
X150839182Y-129942902D01*
X150787187Y-129946737D01*
X150741913Y-129949637D01*
X150702511Y-129951576D01*
X150668133Y-129952527D01*
X150637929Y-129952462D01*
X150611051Y-129951357D01*
X150586650Y-129949182D01*
X150563878Y-129945912D01*
X150541884Y-129941520D01*
X150519821Y-129935979D01*
X150496839Y-129929262D01*
X150471090Y-129920365D01*
X150438526Y-129906866D01*
X150406551Y-129891440D01*
X150377582Y-129875267D01*
X150354033Y-129859527D01*
X150342745Y-129850099D01*
X150323761Y-129831121D01*
X150305289Y-129809369D01*
X150289749Y-129787552D01*
X150285720Y-129784426D01*
X150275817Y-129778577D01*
X150261670Y-129771006D01*
X150244839Y-129762580D01*
X150225761Y-129752806D01*
X150185104Y-129728488D01*
X150146585Y-129700823D01*
X150110989Y-129670631D01*
X150079101Y-129638736D01*
X150051705Y-129605958D01*
X150029586Y-129573121D01*
X150013527Y-129541045D01*
X150004314Y-129510552D01*
X150003390Y-129504961D01*
X150001316Y-129477809D01*
X150001840Y-129444874D01*
X150004743Y-129407509D01*
X150005286Y-129403172D01*
X150201466Y-129403172D01*
X150203137Y-129420585D01*
X150212080Y-129453759D01*
X150228590Y-129484715D01*
X150252796Y-129513736D01*
X150256101Y-129516929D01*
X150268090Y-129527171D01*
X150281401Y-129537029D01*
X150294753Y-129545760D01*
X150306865Y-129552618D01*
X150316456Y-129556861D01*
X150322246Y-129557742D01*
X150322954Y-129554518D01*
X150321247Y-129547619D01*
X150319367Y-129535124D01*
X150317859Y-129520179D01*
X150317401Y-129513077D01*
X150317481Y-129500903D01*
X150319420Y-129494178D01*
X150323612Y-129493123D01*
X150330455Y-129497963D01*
X150340343Y-129508921D01*
X150353672Y-129526220D01*
X150370839Y-129550084D01*
X150379303Y-129561847D01*
X150405509Y-129595756D01*
X150432462Y-129627219D01*
X150459065Y-129655064D01*
X150484223Y-129678124D01*
X150506839Y-129695227D01*
X150510208Y-129697368D01*
X150526839Y-129706920D01*
X150546444Y-129717040D01*
X150565462Y-129725868D01*
X150580323Y-129732099D01*
X150601710Y-129740235D01*
X150622582Y-129746891D01*
X150643784Y-129752121D01*
X150666164Y-129755980D01*
X150690566Y-129758523D01*
X150717837Y-129759803D01*
X150748824Y-129759876D01*
X150784371Y-129758796D01*
X150825325Y-129756618D01*
X150872533Y-129753396D01*
X150926839Y-129749185D01*
X150940492Y-129748101D01*
X150995678Y-129744059D01*
X151050367Y-129740562D01*
X151102698Y-129737714D01*
X151150809Y-129735618D01*
X151192839Y-129734378D01*
X151302839Y-129732149D01*
X151339541Y-129744488D01*
X151347188Y-129747151D01*
X151382120Y-129761148D01*
X151422664Y-129779951D01*
X151468403Y-129803293D01*
X151518924Y-129830902D01*
X151573809Y-129862511D01*
X151632645Y-129897850D01*
X151695015Y-129936650D01*
X151760503Y-129978641D01*
X151828695Y-130023555D01*
X151899176Y-130071122D01*
X151971528Y-130121073D01*
X152045338Y-130173139D01*
X152120190Y-130227050D01*
X152195667Y-130282538D01*
X152271356Y-130339333D01*
X152346839Y-130397166D01*
X152414176Y-130448974D01*
X152519180Y-130528380D01*
X152620685Y-130603409D01*
X152718464Y-130673907D01*
X152812287Y-130739720D01*
X152901929Y-130800695D01*
X152987159Y-130856676D01*
X153067752Y-130907511D01*
X153143479Y-130953046D01*
X153214113Y-130993125D01*
X153279425Y-131027596D01*
X153360010Y-131068311D01*
X153697425Y-131180510D01*
X153715324Y-131186460D01*
X153781315Y-131208372D01*
X153840396Y-131227936D01*
X153893102Y-131245322D01*
X153939966Y-131260699D01*
X153981523Y-131274236D01*
X154018306Y-131286102D01*
X154050851Y-131296466D01*
X154079690Y-131305498D01*
X154105359Y-131313366D01*
X154128392Y-131320241D01*
X154149322Y-131326290D01*
X154168684Y-131331683D01*
X154187011Y-131336589D01*
X154204839Y-131341177D01*
X154219780Y-131345167D01*
X154242628Y-131351919D01*
X154264025Y-131358916D01*
X154280794Y-131365156D01*
X154308506Y-131377426D01*
X154348397Y-131397269D01*
X154393393Y-131421729D01*
X154442945Y-131450485D01*
X154496505Y-131483219D01*
X154553527Y-131519610D01*
X154613463Y-131559340D01*
X154621394Y-131564679D01*
X154654630Y-131586811D01*
X154685920Y-131607264D01*
X154714492Y-131625558D01*
X154739578Y-131641209D01*
X154760407Y-131653737D01*
X154776210Y-131662659D01*
X154786216Y-131667493D01*
X154787455Y-131667443D01*
X154786987Y-131662466D01*
X154782168Y-131650831D01*
X154773008Y-131632569D01*
X154761262Y-131608836D01*
X154749102Y-131580398D01*
X154740142Y-131554528D01*
X154734833Y-131532562D01*
X154733626Y-131515838D01*
X154734044Y-131511676D01*
X154735971Y-131502740D01*
X154738463Y-131499179D01*
X154740618Y-131501477D01*
X154745323Y-131509854D01*
X154751567Y-131522928D01*
X154758584Y-131539179D01*
X154760949Y-131544785D01*
X154769962Y-131564909D01*
X154781182Y-131588688D01*
X154793409Y-131613610D01*
X154805441Y-131637162D01*
X154835800Y-131695146D01*
X154897320Y-131728513D01*
X154914141Y-131737615D01*
X154932680Y-131747591D01*
X154947915Y-131755727D01*
X154958606Y-131761361D01*
X154963510Y-131763832D01*
X154963884Y-131763918D01*
X154964750Y-131760445D01*
X154962904Y-131750600D01*
X154958510Y-131735328D01*
X154954858Y-131722048D01*
X154951428Y-131704774D01*
X154949368Y-131688310D01*
X154948810Y-131674397D01*
X154949892Y-131664773D01*
X154952747Y-131661179D01*
X154954626Y-131661548D01*
X154960470Y-131667189D01*
X154966717Y-131679871D01*
X154973497Y-131699900D01*
X154980939Y-131727582D01*
X154985189Y-131743658D01*
X154990705Y-131761542D01*
X154995725Y-131774630D01*
X154999717Y-131781397D01*
X155001560Y-131782915D01*
X155010398Y-131788891D01*
X155023418Y-131796779D01*
X155038519Y-131805286D01*
X155040332Y-131806269D01*
X155054785Y-131813810D01*
X155063424Y-131817544D01*
X155067181Y-131817781D01*
X155066985Y-131814834D01*
X155066168Y-131812761D01*
X155062002Y-131799455D01*
X155057488Y-131781714D01*
X155053258Y-131762387D01*
X155049947Y-131744325D01*
X155048189Y-131730378D01*
X155048276Y-131717896D01*
X155050750Y-131711342D01*
X155055214Y-131712015D01*
X155061164Y-131719806D01*
X155068093Y-131734610D01*
X155073123Y-131749160D01*
X155078136Y-131766987D01*
X155082541Y-131785638D01*
X155085885Y-131802999D01*
X155087716Y-131816960D01*
X155087579Y-131825408D01*
X155088835Y-131829041D01*
X155095842Y-131835797D01*
X155109235Y-131845438D01*
X155129415Y-131858277D01*
X155132068Y-131859901D01*
X155147999Y-131869506D01*
X155160952Y-131877067D01*
X155169656Y-131881855D01*
X155172839Y-131883144D01*
X155172706Y-131882606D01*
X155169957Y-131877107D01*
X155164777Y-131868275D01*
X155157914Y-131855157D01*
X155150360Y-131835498D01*
X155144193Y-131813732D01*
X155139665Y-131791453D01*
X155137024Y-131770255D01*
X155136523Y-131751734D01*
X155138410Y-131737483D01*
X155142936Y-131729098D01*
X155146750Y-131726512D01*
X155150771Y-131725776D01*
X155150934Y-131726029D01*
X155152487Y-131731642D01*
X155154690Y-131742744D01*
X155157122Y-131757248D01*
X155158457Y-131764996D01*
X155162524Y-131784768D01*
X155167733Y-131806977D01*
X155173287Y-131828122D01*
X155173911Y-131830350D01*
X155179770Y-131852176D01*
X155183247Y-131867574D01*
X155184479Y-131877610D01*
X155183606Y-131883353D01*
X155180765Y-131885870D01*
X155181727Y-131888187D01*
X155187972Y-131894323D01*
X155198575Y-131903255D01*
X155212421Y-131913991D01*
X155222297Y-131921578D01*
X155236401Y-131933303D01*
X155249753Y-131945787D01*
X155262793Y-131959666D01*
X155275963Y-131975574D01*
X155289703Y-131994149D01*
X155304455Y-132016025D01*
X155320658Y-132041839D01*
X155338755Y-132072225D01*
X155359185Y-132107820D01*
X155382390Y-132149259D01*
X155408810Y-132197179D01*
X155419861Y-132217283D01*
X155450209Y-132271939D01*
X155477757Y-132320579D01*
X155503044Y-132364074D01*
X155526610Y-132403295D01*
X155548996Y-132439112D01*
X155570742Y-132472395D01*
X155592389Y-132504016D01*
X155614475Y-132534844D01*
X155637542Y-132565750D01*
X155660692Y-132595587D01*
X155696188Y-132638559D01*
X155732719Y-132679124D01*
X155772913Y-132720280D01*
X155780145Y-132727387D01*
X155797750Y-132743941D01*
X155813718Y-132757195D01*
X155829253Y-132767572D01*
X155845560Y-132775492D01*
X155863844Y-132781376D01*
X155885310Y-132785646D01*
X155911161Y-132788724D01*
X155942603Y-132791029D01*
X155980839Y-132792984D01*
X155995605Y-132793697D01*
X156027389Y-132795672D01*
X156053235Y-132798208D01*
X156074612Y-132801647D01*
X156092991Y-132806334D01*
X156109841Y-132812612D01*
X156126634Y-132820824D01*
X156144839Y-132831315D01*
X156148239Y-132833334D01*
X156165182Y-132842501D01*
X156181768Y-132850258D01*
X156194839Y-132855103D01*
X156229197Y-132861782D01*
X156268085Y-132862766D01*
X156305318Y-132856922D01*
X156309249Y-132855736D01*
X156315209Y-132852557D01*
X156319427Y-132847190D01*
X156322197Y-132838475D01*
X156323818Y-132825250D01*
X156324585Y-132806352D01*
X156324795Y-132780620D01*
X156324774Y-132775669D01*
X156322636Y-132735659D01*
X156317219Y-132698270D01*
X156308832Y-132664781D01*
X156297787Y-132636472D01*
X156284396Y-132614620D01*
X156272586Y-132597778D01*
X156255966Y-132566138D01*
X156242461Y-132530334D01*
X156232551Y-132492356D01*
X156226715Y-132454198D01*
X156225433Y-132417852D01*
X156229185Y-132385310D01*
X156229786Y-132382671D01*
X156240068Y-132356519D01*
X156257206Y-132333976D01*
X156280826Y-132315281D01*
X156310555Y-132300672D01*
X156346017Y-132290388D01*
X156386839Y-132284669D01*
X156400722Y-132283547D01*
X156419926Y-132281845D01*
X156436128Y-132280243D01*
X156446839Y-132278977D01*
X156456358Y-132278562D01*
X156473781Y-132280936D01*
X156496839Y-132287002D01*
X156500533Y-132288109D01*
X156519744Y-132293556D01*
X156538528Y-132298452D01*
X156553289Y-132301850D01*
X156563586Y-132303748D01*
X156573751Y-132304355D01*
X156582395Y-132302187D01*
X156593142Y-132296782D01*
X156601078Y-132291616D01*
X156618192Y-132275173D01*
X156633435Y-132253691D01*
X156645698Y-132229213D01*
X156653869Y-132203784D01*
X156656839Y-132179450D01*
X156655826Y-132164766D01*
X156649712Y-132136224D01*
X156638472Y-132103826D01*
X156622571Y-132068563D01*
X156602476Y-132031428D01*
X156578653Y-131993413D01*
X156551569Y-131955510D01*
X156541418Y-131942543D01*
X156519889Y-131917329D01*
X156499101Y-131895917D01*
X156480118Y-131879361D01*
X156464005Y-131868717D01*
X156457796Y-131865945D01*
X156438405Y-131860751D01*
X156413279Y-131858109D01*
X156381953Y-131858008D01*
X156343961Y-131860441D01*
X156298839Y-131865397D01*
X156261886Y-131869590D01*
X156223711Y-131872819D01*
X156188190Y-131874706D01*
X156156073Y-131875270D01*
X156128112Y-131874533D01*
X156105056Y-131872517D01*
X156087659Y-131869242D01*
X156076669Y-131864731D01*
X156072839Y-131859003D01*
X156073902Y-131856449D01*
X156081599Y-131851570D01*
X156096042Y-131846990D01*
X156116407Y-131843011D01*
X156133975Y-131840283D01*
X156102001Y-131825254D01*
X156089423Y-131819215D01*
X156073364Y-131811067D01*
X156056556Y-131801966D01*
X156038016Y-131791332D01*
X156016759Y-131778582D01*
X155991800Y-131763136D01*
X155962155Y-131744413D01*
X155926839Y-131721831D01*
X155888916Y-131697730D01*
X155855256Y-131676965D01*
X155826349Y-131659957D01*
X155801307Y-131646244D01*
X155779245Y-131635363D01*
X155759274Y-131626854D01*
X155740508Y-131620252D01*
X155722061Y-131615096D01*
X155718687Y-131614299D01*
X155703674Y-131611099D01*
X155682225Y-131606861D01*
X155655434Y-131601786D01*
X155624397Y-131596077D01*
X155590206Y-131589935D01*
X155553955Y-131583563D01*
X155516739Y-131577163D01*
X155469146Y-131569023D01*
X155423695Y-131561110D01*
X155384843Y-131554150D01*
X155351906Y-131547993D01*
X155324200Y-131542493D01*
X155301042Y-131537502D01*
X155281747Y-131532870D01*
X155265632Y-131528451D01*
X155252014Y-131524095D01*
X155240207Y-131519656D01*
X155229529Y-131514985D01*
X155222549Y-131511631D01*
X155206014Y-131502995D01*
X155187966Y-131492578D01*
X155167885Y-131480014D01*
X155145252Y-131464937D01*
X155119550Y-131446980D01*
X155090260Y-131425777D01*
X155056862Y-131400961D01*
X155018839Y-131372166D01*
X154975671Y-131339026D01*
X154926839Y-131301175D01*
X154885911Y-131269459D01*
X154801127Y-131204656D01*
X154721793Y-131145314D01*
X154647747Y-131091323D01*
X154578825Y-131042569D01*
X154514864Y-130998942D01*
X154455703Y-130960329D01*
X154401178Y-130926618D01*
X154351127Y-130897697D01*
X154305386Y-130873453D01*
X154287693Y-130864699D01*
X154234100Y-130839572D01*
X154172957Y-130812725D01*
X154104439Y-130784222D01*
X154028725Y-130754126D01*
X153945992Y-130722499D01*
X153856419Y-130689406D01*
X153760181Y-130654907D01*
X153657457Y-130619068D01*
X153548424Y-130581951D01*
X153433260Y-130543618D01*
X153312142Y-130504134D01*
X153185248Y-130463561D01*
X153052754Y-130421962D01*
X152914839Y-130379400D01*
X152907099Y-130377029D01*
X152868392Y-130365102D01*
X152836127Y-130354985D01*
X152809259Y-130346306D01*
X152786742Y-130338687D01*
X152767531Y-130331756D01*
X152750581Y-130325136D01*
X152734846Y-130318454D01*
X152719281Y-130311334D01*
X152702839Y-130303402D01*
X152678338Y-130290930D01*
X152646685Y-130273554D01*
X152613679Y-130254001D01*
X152578981Y-130232012D01*
X152542253Y-130207325D01*
X152503157Y-130179681D01*
X152461354Y-130148821D01*
X152416504Y-130114483D01*
X152368271Y-130076407D01*
X152316314Y-130034335D01*
X152260296Y-129988005D01*
X152199879Y-129937158D01*
X152134722Y-129881533D01*
X152064489Y-129820870D01*
X151988839Y-129754909D01*
X151947722Y-129718951D01*
X151886555Y-129665630D01*
X151830635Y-129617128D01*
X151779544Y-129573104D01*
X151732865Y-129533215D01*
X151690180Y-129497120D01*
X151651070Y-129464476D01*
X151615120Y-129434941D01*
X151581911Y-129408174D01*
X151551026Y-129383834D01*
X151522047Y-129361577D01*
X151494556Y-129341062D01*
X151468136Y-129321947D01*
X151442370Y-129303890D01*
X151416839Y-129286550D01*
X151375537Y-129259768D01*
X151338351Y-129237625D01*
X151304775Y-129219982D01*
X151273723Y-129206315D01*
X151244109Y-129196096D01*
X151214848Y-129188801D01*
X151200338Y-129185712D01*
X151187596Y-129182257D01*
X151178724Y-129178250D01*
X151171492Y-129172625D01*
X151163675Y-129164317D01*
X151144436Y-129141516D01*
X151116694Y-129105678D01*
X151085736Y-129062707D01*
X151051615Y-129012682D01*
X151014389Y-128955688D01*
X150974111Y-128891805D01*
X150930839Y-128821116D01*
X150915388Y-128795696D01*
X150894091Y-128761557D01*
X150875322Y-128733166D01*
X150858269Y-128709760D01*
X150842122Y-128690574D01*
X150826069Y-128674843D01*
X150809300Y-128661803D01*
X150791004Y-128650690D01*
X150770369Y-128640738D01*
X150746584Y-128631184D01*
X150718839Y-128621263D01*
X150684957Y-128610051D01*
X150651913Y-128600490D01*
X150623400Y-128594032D01*
X150598045Y-128590372D01*
X150574479Y-128589207D01*
X150560350Y-128589677D01*
X150526171Y-128594072D01*
X150492236Y-128602422D01*
X150462250Y-128613910D01*
X150459153Y-128615422D01*
X150449823Y-128620912D01*
X150442667Y-128627687D01*
X150435910Y-128637768D01*
X150427777Y-128653179D01*
X150426152Y-128656479D01*
X150416739Y-128677724D01*
X150407211Y-128702315D01*
X150398268Y-128728133D01*
X150390610Y-128753059D01*
X150384938Y-128774974D01*
X150381952Y-128791761D01*
X150381447Y-128800735D01*
X150383133Y-128819356D01*
X150388704Y-128841761D01*
X150394278Y-128857876D01*
X150403915Y-128881014D01*
X150415432Y-128905264D01*
X150427724Y-128928452D01*
X150439688Y-128948402D01*
X150450220Y-128962940D01*
X150463627Y-128978702D01*
X150490317Y-128969940D01*
X150503007Y-128966113D01*
X150524285Y-128961763D01*
X150539920Y-128961747D01*
X150549535Y-128966038D01*
X150552752Y-128974606D01*
X150551502Y-128982820D01*
X150545326Y-128998672D01*
X150535000Y-129016273D01*
X150521662Y-129033470D01*
X150507787Y-129047158D01*
X150491784Y-129058777D01*
X150472820Y-129068490D01*
X150449886Y-129076657D01*
X150421975Y-129083634D01*
X150388079Y-129089780D01*
X150347192Y-129095453D01*
X150344939Y-129095735D01*
X150324877Y-129098430D01*
X150307276Y-129101104D01*
X150293964Y-129103460D01*
X150286772Y-129105204D01*
X150285264Y-129105984D01*
X150277982Y-129113585D01*
X150269266Y-129127412D01*
X150259684Y-129146274D01*
X150249805Y-129168983D01*
X150240196Y-129194347D01*
X150231425Y-129221179D01*
X150226038Y-129240142D01*
X150217292Y-129276050D01*
X150210142Y-129312245D01*
X150204908Y-129346790D01*
X150201910Y-129377745D01*
X150201466Y-129403172D01*
X150005286Y-129403172D01*
X150009807Y-129367067D01*
X150016813Y-129324901D01*
X150025543Y-129282367D01*
X150035779Y-129240817D01*
X150047302Y-129201605D01*
X150059894Y-129166085D01*
X150068960Y-129144322D01*
X150091517Y-129099754D01*
X150116535Y-129062532D01*
X150143937Y-129032744D01*
X150173646Y-129010481D01*
X150205586Y-128995832D01*
X150207867Y-128994745D01*
X150209449Y-128991808D01*
X150208896Y-128985880D01*
X150206003Y-128975454D01*
X150200563Y-128959023D01*
X150194637Y-128940196D01*
X150186181Y-128904851D01*
X150182049Y-128872681D01*
X150182493Y-128845289D01*
X150184369Y-128832718D01*
X150189535Y-128807938D01*
X150196800Y-128779483D01*
X150205523Y-128749624D01*
X150215068Y-128720633D01*
X150224795Y-128694781D01*
X150229685Y-128683139D01*
X150252698Y-128636344D01*
X150278388Y-128596439D01*
X150307166Y-128562763D01*
X150315708Y-128554344D01*
X150329114Y-128542469D01*
X150342934Y-128532471D01*
X150359505Y-128522736D01*
X150381166Y-128511647D01*
X150390485Y-128507128D01*
X150425002Y-128491976D01*
X150457181Y-128480945D01*
X150489566Y-128473409D01*
X150524700Y-128468741D01*
X150565126Y-128466314D01*
X150578793Y-128465906D01*
X150604528Y-128465702D01*
X150627224Y-128466648D01*
X150648626Y-128469042D01*
X150670483Y-128473184D01*
X150694538Y-128479374D01*
X150722539Y-128487910D01*
X150756231Y-128499094D01*
X150777903Y-128506592D01*
X150808862Y-128518035D01*
X150834518Y-128528717D01*
X150856417Y-128539352D01*
X150876103Y-128550655D01*
X150895121Y-128563340D01*
X150900558Y-128567231D01*
X150910440Y-128574620D01*
X150919644Y-128582171D01*
X150928572Y-128590440D01*
X150937625Y-128599983D01*
X150947205Y-128611359D01*
X150957712Y-128625124D01*
X150969549Y-128641836D01*
X150983116Y-128662051D01*
X150998815Y-128686326D01*
X151017047Y-128715220D01*
X151038214Y-128749288D01*
X151062717Y-128789089D01*
X151090957Y-128835179D01*
X151093673Y-128839608D01*
X151114718Y-128873376D01*
X151136522Y-128907486D01*
X151158279Y-128940735D01*
X151179184Y-128971918D01*
X151198430Y-128999832D01*
X151215211Y-129023270D01*
X151228721Y-129041030D01*
X151237819Y-129052172D01*
X151246260Y-129060967D01*
X151254739Y-129066759D01*
X151265821Y-129071235D01*
X151282071Y-129076078D01*
X151312740Y-129086566D01*
X151349496Y-129102505D01*
X151390220Y-129123043D01*
X151434013Y-129147675D01*
X151479979Y-129175897D01*
X151527220Y-129207201D01*
X151574839Y-129241083D01*
X151594526Y-129255760D01*
X151636424Y-129287966D01*
X151683056Y-129324998D01*
X151734584Y-129366986D01*
X151791166Y-129414064D01*
X151852963Y-129466364D01*
X151920134Y-129524018D01*
X151992839Y-129587159D01*
X152019109Y-129610086D01*
X152074230Y-129658158D01*
X152123968Y-129701474D01*
X152168753Y-129740400D01*
X152209017Y-129775303D01*
X152245191Y-129806550D01*
X152277706Y-129834506D01*
X152306994Y-129859539D01*
X152333485Y-129882015D01*
X152357611Y-129902300D01*
X152379802Y-129920761D01*
X152400491Y-129937764D01*
X152420108Y-129953676D01*
X152439084Y-129968863D01*
X152457851Y-129983692D01*
X152476839Y-129998529D01*
X152540618Y-130046789D01*
X152609069Y-130095278D01*
X152673350Y-130137101D01*
X152733426Y-130172239D01*
X152789267Y-130200671D01*
X152840839Y-130222377D01*
X152845170Y-130223926D01*
X152859569Y-130228783D01*
X152880356Y-130235555D01*
X152906665Y-130243970D01*
X152937634Y-130253757D01*
X152972399Y-130264643D01*
X153010098Y-130276356D01*
X153049865Y-130288623D01*
X153090839Y-130301174D01*
X153190180Y-130331609D01*
X153291392Y-130362903D01*
X153385831Y-130392433D01*
X153473993Y-130420364D01*
X153556374Y-130446863D01*
X153633471Y-130472094D01*
X153705779Y-130496224D01*
X153773794Y-130519418D01*
X153838013Y-130541842D01*
X153898930Y-130563661D01*
X153957043Y-130585042D01*
X154012848Y-130606149D01*
X154066839Y-130627149D01*
X154110553Y-130644564D01*
X154175240Y-130671158D01*
X154234291Y-130696648D01*
X154288982Y-130721687D01*
X154340584Y-130746929D01*
X154390371Y-130773026D01*
X154439617Y-130800633D01*
X154489594Y-130830402D01*
X154541578Y-130862987D01*
X154596839Y-130899041D01*
X154612876Y-130909704D01*
X154639265Y-130927418D01*
X154664826Y-130944829D01*
X154690151Y-130962375D01*
X154715834Y-130980493D01*
X154742467Y-130999621D01*
X154770644Y-131020196D01*
X154800957Y-131042656D01*
X154833999Y-131067439D01*
X154870363Y-131094981D01*
X154910642Y-131125721D01*
X154955429Y-131160096D01*
X155005317Y-131198543D01*
X155060898Y-131241501D01*
X155069787Y-131248373D01*
X155111352Y-131280323D01*
X155147464Y-131307689D01*
X155178743Y-131330866D01*
X155205810Y-131350252D01*
X155229285Y-131366244D01*
X155249790Y-131379237D01*
X155267944Y-131389629D01*
X155284370Y-131397816D01*
X155299687Y-131404195D01*
X155314517Y-131409162D01*
X155329480Y-131413114D01*
X155335956Y-131414555D01*
X155353689Y-131418143D01*
X155376812Y-131422514D01*
X155403668Y-131427363D01*
X155432596Y-131432390D01*
X155461938Y-131437290D01*
X155469271Y-131438488D01*
X155528792Y-131448245D01*
X155581241Y-131456991D01*
X155627359Y-131464965D01*
X155667885Y-131472408D01*
X155703560Y-131479559D01*
X155735124Y-131486659D01*
X155763317Y-131493946D01*
X155788879Y-131501661D01*
X155812550Y-131510044D01*
X155835071Y-131519334D01*
X155857181Y-131529771D01*
X155879622Y-131541595D01*
X155903133Y-131555045D01*
X155928453Y-131570362D01*
X155956325Y-131587786D01*
X155987487Y-131607555D01*
X156034214Y-131636766D01*
X156081454Y-131665086D01*
X156123771Y-131689080D01*
X156160840Y-131708573D01*
X156192339Y-131723387D01*
X156217942Y-131733346D01*
X156245044Y-131742327D01*
X156311401Y-131735178D01*
X156353039Y-131731554D01*
X156401578Y-131730116D01*
X156444029Y-131732477D01*
X156480970Y-131738705D01*
X156512977Y-131748871D01*
X156540629Y-131763045D01*
X156561592Y-131778139D01*
X156589845Y-131803458D01*
X156618851Y-131834354D01*
X156647798Y-131869637D01*
X156675876Y-131908116D01*
X156702273Y-131948602D01*
X156726180Y-131989904D01*
X156746785Y-132030834D01*
X156763277Y-132070199D01*
X156774847Y-132106812D01*
X156782171Y-132142517D01*
X156784985Y-132179450D01*
X156785134Y-132181402D01*
G37*
G36*
X152478420Y-130844500D02*
G01*
X152485870Y-130848203D01*
X152497724Y-130855361D01*
X152512876Y-130865186D01*
X152530215Y-130876895D01*
X152548635Y-130889699D01*
X152567027Y-130902815D01*
X152584282Y-130915454D01*
X152599293Y-130926832D01*
X152610951Y-130936163D01*
X152618147Y-130942660D01*
X152619775Y-130945537D01*
X152619065Y-130945840D01*
X152611452Y-130947908D01*
X152597514Y-130950976D01*
X152578533Y-130954803D01*
X152555791Y-130959148D01*
X152530568Y-130963770D01*
X152504148Y-130968428D01*
X152477811Y-130972882D01*
X152452839Y-130976891D01*
X152426128Y-130980952D01*
X152391669Y-130985930D01*
X152355634Y-130990832D01*
X152317384Y-130995729D01*
X152276279Y-131000692D01*
X152231679Y-131005792D01*
X152182943Y-131011101D01*
X152129432Y-131016689D01*
X152070506Y-131022626D01*
X152005526Y-131028985D01*
X151933850Y-131035837D01*
X151854839Y-131043251D01*
X151781271Y-131050168D01*
X151705910Y-131057425D01*
X151637418Y-131064233D01*
X151575211Y-131070664D01*
X151518701Y-131076791D01*
X151467303Y-131082685D01*
X151420432Y-131088419D01*
X151377501Y-131094063D01*
X151337924Y-131099690D01*
X151301116Y-131105372D01*
X151266491Y-131111181D01*
X151233463Y-131117189D01*
X151201446Y-131123468D01*
X151195011Y-131124788D01*
X151138352Y-131137667D01*
X151087367Y-131151602D01*
X151042521Y-131166424D01*
X151004278Y-131181966D01*
X150973103Y-131198060D01*
X150949461Y-131214538D01*
X150947094Y-131216528D01*
X150939274Y-131222674D01*
X150932365Y-131226415D01*
X150924140Y-131228348D01*
X150912370Y-131229070D01*
X150894828Y-131229179D01*
X150870255Y-131228467D01*
X150835150Y-131225684D01*
X150793904Y-131220757D01*
X150746268Y-131213646D01*
X150691992Y-131204311D01*
X150630828Y-131192710D01*
X150562527Y-131178804D01*
X150486839Y-131162550D01*
X150449250Y-131154417D01*
X150412339Y-131146924D01*
X150381098Y-131141481D01*
X150354407Y-131138157D01*
X150331145Y-131137020D01*
X150310192Y-131138138D01*
X150290427Y-131141579D01*
X150270730Y-131147412D01*
X150249980Y-131155704D01*
X150227057Y-131166523D01*
X150200839Y-131179938D01*
X150184079Y-131188801D01*
X150153191Y-131206023D01*
X150127938Y-131221638D01*
X150107071Y-131236505D01*
X150089340Y-131251482D01*
X150073497Y-131267426D01*
X150063003Y-131279824D01*
X150048092Y-131300677D01*
X150034911Y-131322763D01*
X150024391Y-131344310D01*
X150017462Y-131363546D01*
X150015055Y-131378700D01*
X150016573Y-131389962D01*
X150021881Y-131408583D01*
X150030264Y-131430894D01*
X150040954Y-131455266D01*
X150053184Y-131480071D01*
X150066187Y-131503680D01*
X150079195Y-131524465D01*
X150091441Y-131540797D01*
X150099515Y-131548867D01*
X150119623Y-131563326D01*
X150145560Y-131577008D01*
X150175928Y-131589304D01*
X150209329Y-131599607D01*
X150244363Y-131607307D01*
X150250151Y-131608313D01*
X150264893Y-131610799D01*
X150275819Y-131612529D01*
X150280899Y-131613179D01*
X150283328Y-131610610D01*
X150287842Y-131602381D01*
X150293134Y-131590453D01*
X150293707Y-131589060D01*
X150303224Y-131570070D01*
X150313974Y-131554890D01*
X150324854Y-131544824D01*
X150334761Y-131541179D01*
X150335231Y-131541189D01*
X150343737Y-131545360D01*
X150351103Y-131556241D01*
X150356897Y-131572636D01*
X150360691Y-131593348D01*
X150362053Y-131617179D01*
X150362040Y-131620598D01*
X150361474Y-131636178D01*
X150359730Y-131650474D01*
X150356345Y-131664440D01*
X150350855Y-131679028D01*
X150342797Y-131695188D01*
X150331706Y-131713873D01*
X150317119Y-131736035D01*
X150298571Y-131762627D01*
X150275599Y-131794599D01*
X150274608Y-131795974D01*
X150262928Y-131813501D01*
X150255495Y-131827416D01*
X150252913Y-131836599D01*
X150252924Y-131837077D01*
X150255023Y-131847752D01*
X150260225Y-131863548D01*
X150267795Y-131882711D01*
X150277000Y-131903485D01*
X150287104Y-131924114D01*
X150297373Y-131942843D01*
X150312214Y-131967267D01*
X150337834Y-132005803D01*
X150363467Y-132040042D01*
X150388547Y-132069345D01*
X150412512Y-132093072D01*
X150434797Y-132110585D01*
X150454839Y-132121246D01*
X150457164Y-132122096D01*
X150490764Y-132130360D01*
X150526525Y-132132589D01*
X150561934Y-132128821D01*
X150594475Y-132119096D01*
X150610110Y-132112540D01*
X150592475Y-132102562D01*
X150585358Y-132098348D01*
X150570244Y-132087740D01*
X150560373Y-132078123D01*
X150556839Y-132070481D01*
X150557227Y-132068946D01*
X150562933Y-132066008D01*
X150575626Y-132065440D01*
X150595522Y-132067243D01*
X150622839Y-132071422D01*
X150643123Y-132074412D01*
X150674273Y-132077573D01*
X150707416Y-132079596D01*
X150740577Y-132080443D01*
X150771779Y-132080070D01*
X150799046Y-132078439D01*
X150820403Y-132075508D01*
X150861667Y-132064570D01*
X150910595Y-132045100D01*
X150957274Y-132019606D01*
X151000006Y-131989038D01*
X151037094Y-131954345D01*
X151041265Y-131949693D01*
X151051735Y-131937558D01*
X151065969Y-131920710D01*
X151083182Y-131900092D01*
X151102589Y-131876646D01*
X151123403Y-131851315D01*
X151144839Y-131825041D01*
X151158007Y-131808859D01*
X151199522Y-131758089D01*
X151236612Y-131713181D01*
X151269620Y-131673758D01*
X151298892Y-131639446D01*
X151324771Y-131609871D01*
X151347602Y-131584658D01*
X151367729Y-131563432D01*
X151385497Y-131545818D01*
X151401249Y-131531443D01*
X151415330Y-131519931D01*
X151428084Y-131510908D01*
X151439856Y-131503998D01*
X151450446Y-131498650D01*
X151485031Y-131483210D01*
X151526854Y-131466984D01*
X151575400Y-131450095D01*
X151630152Y-131432671D01*
X151690592Y-131414834D01*
X151756204Y-131396712D01*
X151826470Y-131378428D01*
X151900874Y-131360108D01*
X151978899Y-131341877D01*
X152060028Y-131323860D01*
X152143745Y-131306183D01*
X152229531Y-131288970D01*
X152316870Y-131272347D01*
X152405246Y-131256439D01*
X152494141Y-131241370D01*
X152583039Y-131227267D01*
X152609406Y-131223190D01*
X152660236Y-131215152D01*
X152716013Y-131206138D01*
X152774885Y-131196455D01*
X152835003Y-131186407D01*
X152894514Y-131176301D01*
X152951569Y-131166441D01*
X152956838Y-131166141D01*
X152963659Y-131167431D01*
X152972789Y-131170879D01*
X152985358Y-131176989D01*
X153002495Y-131186262D01*
X153025332Y-131199199D01*
X153058678Y-131218036D01*
X153116693Y-131249395D01*
X153170504Y-131276592D01*
X153219465Y-131299305D01*
X153262930Y-131317213D01*
X153263091Y-131317275D01*
X153270156Y-131320801D01*
X153271908Y-131323444D01*
X153270804Y-131323952D01*
X153263054Y-131326129D01*
X153248778Y-131329562D01*
X153228900Y-131334059D01*
X153204341Y-131339425D01*
X153176024Y-131345466D01*
X153144871Y-131351989D01*
X153111803Y-131358799D01*
X153077744Y-131365703D01*
X153043616Y-131372507D01*
X153010340Y-131379018D01*
X152978839Y-131385040D01*
X152920545Y-131395942D01*
X152867850Y-131405584D01*
X152818786Y-131414301D01*
X152771254Y-131422453D01*
X152723153Y-131430402D01*
X152672381Y-131438506D01*
X152616839Y-131447127D01*
X152497283Y-131466274D01*
X152367845Y-131488813D01*
X152241141Y-131512762D01*
X152118046Y-131537935D01*
X151999438Y-131564145D01*
X151886195Y-131591204D01*
X151779192Y-131618926D01*
X151679308Y-131647124D01*
X151644423Y-131657641D01*
X151600075Y-131671776D01*
X151562811Y-131684665D01*
X151532890Y-131696220D01*
X151510567Y-131706350D01*
X151506916Y-131708320D01*
X151496523Y-131715034D01*
X151484739Y-131724259D01*
X151471216Y-131736379D01*
X151455605Y-131751775D01*
X151437558Y-131770831D01*
X151416726Y-131793932D01*
X151392760Y-131821459D01*
X151365314Y-131853796D01*
X151334038Y-131891326D01*
X151298583Y-131934433D01*
X151258602Y-131983499D01*
X151246822Y-131997977D01*
X151212545Y-132039663D01*
X151182293Y-132075658D01*
X151155521Y-132106536D01*
X151131686Y-132132871D01*
X151110243Y-132155234D01*
X151090648Y-132174199D01*
X151072358Y-132190340D01*
X151054830Y-132204228D01*
X151037518Y-132216438D01*
X151008569Y-132234656D01*
X150959020Y-132260995D01*
X150910658Y-132280577D01*
X150863970Y-132293252D01*
X150819442Y-132298867D01*
X150777560Y-132297272D01*
X150761492Y-132295309D01*
X150749467Y-132294539D01*
X150740278Y-132295419D01*
X150731294Y-132298221D01*
X150719883Y-132303215D01*
X150703713Y-132309626D01*
X150679756Y-132317312D01*
X150652127Y-132324841D01*
X150623106Y-132331640D01*
X150594974Y-132337139D01*
X150570009Y-132340767D01*
X150547543Y-132342488D01*
X150518961Y-132343204D01*
X150488915Y-132342737D01*
X150459759Y-132341172D01*
X150433849Y-132338595D01*
X150413540Y-132335091D01*
X150401590Y-132332042D01*
X150381227Y-132325211D01*
X150362960Y-132316222D01*
X150345088Y-132303997D01*
X150325910Y-132287459D01*
X150303725Y-132265530D01*
X150283418Y-132243923D01*
X150245019Y-132198895D01*
X150210449Y-132152651D01*
X150180058Y-132105909D01*
X150154190Y-132059382D01*
X150133194Y-132013789D01*
X150117416Y-131969843D01*
X150107202Y-131928263D01*
X150102901Y-131889763D01*
X150104858Y-131855060D01*
X150107562Y-131841264D01*
X150111541Y-131826337D01*
X150115525Y-131815853D01*
X150118393Y-131809864D01*
X150119527Y-131804242D01*
X150116459Y-131801718D01*
X150115399Y-131801356D01*
X150100216Y-131794959D01*
X150081233Y-131785408D01*
X150060672Y-131773985D01*
X150040754Y-131761972D01*
X150023701Y-131750649D01*
X150011734Y-131741300D01*
X149992810Y-131721377D01*
X149971065Y-131692666D01*
X149949750Y-131658934D01*
X149929634Y-131621731D01*
X149911486Y-131582605D01*
X149896076Y-131543105D01*
X149884174Y-131504780D01*
X149876548Y-131469179D01*
X149875286Y-131459881D01*
X149873888Y-131425705D01*
X149877749Y-131390053D01*
X149887055Y-131350823D01*
X149887615Y-131348909D01*
X149906604Y-131297451D01*
X149932205Y-131248178D01*
X149963533Y-131202390D01*
X149999701Y-131161389D01*
X150039824Y-131126475D01*
X150044365Y-131123148D01*
X150065946Y-131108808D01*
X150092445Y-131092903D01*
X150121942Y-131076446D01*
X150152515Y-131060452D01*
X150182246Y-131045933D01*
X150209212Y-131033901D01*
X150231494Y-131025371D01*
X150234518Y-131024379D01*
X150278800Y-131013403D01*
X150324186Y-131008284D01*
X150367811Y-131009359D01*
X150374026Y-131010133D01*
X150390528Y-131012728D01*
X150412420Y-131016607D01*
X150438142Y-131021479D01*
X150466136Y-131027054D01*
X150494839Y-131033040D01*
X150526365Y-131039747D01*
X150590788Y-131053267D01*
X150647928Y-131064972D01*
X150698120Y-131074921D01*
X150741700Y-131083176D01*
X150779004Y-131089798D01*
X150810367Y-131094846D01*
X150836124Y-131098381D01*
X150856612Y-131100465D01*
X150872166Y-131101157D01*
X150879816Y-131100663D01*
X150894993Y-131096519D01*
X150912967Y-131087421D01*
X150931979Y-131076912D01*
X150969040Y-131059431D01*
X151011124Y-131043112D01*
X151058654Y-131027843D01*
X151112054Y-131013517D01*
X151171749Y-131000023D01*
X151238162Y-130987252D01*
X151311718Y-130975093D01*
X151392839Y-130963439D01*
X151396934Y-130962890D01*
X151430899Y-130958490D01*
X151467392Y-130954033D01*
X151507096Y-130949448D01*
X151550689Y-130944664D01*
X151598854Y-130939608D01*
X151652270Y-130934209D01*
X151711619Y-130928395D01*
X151777582Y-130922095D01*
X151850839Y-130915237D01*
X151907028Y-130910000D01*
X151975443Y-130903548D01*
X152037017Y-130897640D01*
X152092398Y-130892204D01*
X152142233Y-130887168D01*
X152187167Y-130882463D01*
X152227849Y-130878016D01*
X152264924Y-130873756D01*
X152299039Y-130869613D01*
X152330841Y-130865515D01*
X152360978Y-130861392D01*
X152390095Y-130857171D01*
X152418839Y-130852782D01*
X152422144Y-130852267D01*
X152441753Y-130849245D01*
X152458532Y-130846721D01*
X152470791Y-130844944D01*
X152476839Y-130844166D01*
X152478420Y-130844500D01*
G37*
G36*
X156599084Y-129118364D02*
G01*
X156628787Y-129119614D01*
X156657165Y-129121474D01*
X156682442Y-129123892D01*
X156702839Y-129126817D01*
X156761836Y-129139182D01*
X156816070Y-129154314D01*
X156863397Y-129171992D01*
X156904236Y-129192464D01*
X156939007Y-129215973D01*
X156968129Y-129242765D01*
X156992022Y-129273086D01*
X157011103Y-129307181D01*
X157022084Y-129332537D01*
X157030398Y-129356620D01*
X157036259Y-129381021D01*
X157040024Y-129407646D01*
X157042052Y-129438397D01*
X157042701Y-129475179D01*
X157042706Y-129480273D01*
X157042507Y-129508224D01*
X157041830Y-129529913D01*
X157040569Y-129546835D01*
X157038620Y-129560483D01*
X157035878Y-129572352D01*
X157028773Y-129594761D01*
X157014819Y-129625419D01*
X156996475Y-129651640D01*
X156972539Y-129675015D01*
X156941813Y-129697138D01*
X156941133Y-129697572D01*
X156923412Y-129708972D01*
X156911273Y-129717209D01*
X156903561Y-129723341D01*
X156899123Y-129728429D01*
X156896804Y-129733532D01*
X156895452Y-129739709D01*
X156894755Y-129744348D01*
X156895453Y-129750328D01*
X156900258Y-129754486D01*
X156910912Y-129758994D01*
X156920460Y-129762090D01*
X156937343Y-129766286D01*
X156954396Y-129769401D01*
X156958151Y-129769953D01*
X156981144Y-129774438D01*
X157003058Y-129781052D01*
X157026394Y-129790672D01*
X157053657Y-129804176D01*
X157085592Y-129822593D01*
X157124777Y-129850002D01*
X157161027Y-129880706D01*
X157193371Y-129913693D01*
X157220833Y-129947948D01*
X157242442Y-129982457D01*
X157257223Y-130016206D01*
X157260009Y-130025378D01*
X157266112Y-130062417D01*
X157264841Y-130101337D01*
X157256321Y-130141484D01*
X157240676Y-130182202D01*
X157218030Y-130222838D01*
X157216551Y-130225106D01*
X157186381Y-130264423D01*
X157151160Y-130298896D01*
X157111935Y-130327747D01*
X157069756Y-130350201D01*
X157025672Y-130365477D01*
X157023430Y-130366059D01*
X157007881Y-130370563D01*
X156994899Y-130375062D01*
X156987098Y-130378663D01*
X156986464Y-130379115D01*
X156980114Y-130384460D01*
X156969225Y-130394250D01*
X156954809Y-130407554D01*
X156937878Y-130423440D01*
X156919441Y-130440978D01*
X156890747Y-130467771D01*
X156861582Y-130493034D01*
X156835198Y-130513280D01*
X156810484Y-130529216D01*
X156786325Y-130541553D01*
X156761610Y-130550998D01*
X156735224Y-130558261D01*
X156734905Y-130558333D01*
X156721943Y-130560163D01*
X156702308Y-130561548D01*
X156677271Y-130562497D01*
X156648101Y-130563023D01*
X156616067Y-130563135D01*
X156582439Y-130562845D01*
X156548488Y-130562163D01*
X156515483Y-130561100D01*
X156484693Y-130559666D01*
X156457389Y-130557873D01*
X156434839Y-130555730D01*
X156406964Y-130552318D01*
X156363162Y-130546292D01*
X156319710Y-130539405D01*
X156275471Y-130531425D01*
X156229309Y-130522118D01*
X156180090Y-130511252D01*
X156126677Y-130498591D01*
X156067933Y-130483904D01*
X156002725Y-130466957D01*
X155957778Y-130455140D01*
X155913414Y-130443626D01*
X155875366Y-130434010D01*
X155842890Y-130426178D01*
X155815241Y-130420014D01*
X155791676Y-130415405D01*
X155771450Y-130412236D01*
X155753821Y-130410393D01*
X155738043Y-130409760D01*
X155723373Y-130410223D01*
X155709066Y-130411668D01*
X155694379Y-130413980D01*
X155678568Y-130417045D01*
X155674866Y-130417816D01*
X155648121Y-130423990D01*
X155615988Y-130432357D01*
X155578117Y-130443021D01*
X155534157Y-130456085D01*
X155483759Y-130471653D01*
X155426573Y-130489830D01*
X155362248Y-130510717D01*
X155341532Y-130517491D01*
X155296800Y-130531994D01*
X155258097Y-130544317D01*
X155224343Y-130554768D01*
X155194459Y-130563655D01*
X155167364Y-130571286D01*
X155141978Y-130577969D01*
X155117221Y-130584012D01*
X155092014Y-130589723D01*
X155065276Y-130595410D01*
X155031749Y-130602583D01*
X154979158Y-130614650D01*
X154926580Y-130627631D01*
X154875329Y-130641163D01*
X154826720Y-130654884D01*
X154782068Y-130668430D01*
X154742685Y-130681438D01*
X154709888Y-130693545D01*
X154704505Y-130695781D01*
X154685066Y-130704892D01*
X154663942Y-130715974D01*
X154644839Y-130727116D01*
X154637062Y-130731941D01*
X154616016Y-130744775D01*
X154593369Y-130758352D01*
X154572839Y-130770434D01*
X154559718Y-130778059D01*
X154546710Y-130785624D01*
X154537777Y-130790827D01*
X154534340Y-130792842D01*
X154532693Y-130792016D01*
X154525252Y-130787819D01*
X154512872Y-130780667D01*
X154496707Y-130771230D01*
X154477916Y-130760179D01*
X154473684Y-130757695D01*
X154448260Y-130743188D01*
X154420338Y-130727815D01*
X154393022Y-130713262D01*
X154369415Y-130701215D01*
X154360972Y-130697019D01*
X154343556Y-130688179D01*
X154329559Y-130680818D01*
X154320238Y-130675606D01*
X154316855Y-130673215D01*
X154318023Y-130672170D01*
X154324933Y-130667802D01*
X154337007Y-130660775D01*
X154353048Y-130651779D01*
X154371855Y-130641507D01*
X154403970Y-130624028D01*
X154452377Y-130597098D01*
X154497450Y-130571304D01*
X154537886Y-130547399D01*
X154572379Y-130526131D01*
X154582619Y-130519759D01*
X154609245Y-130504432D01*
X154636574Y-130490721D01*
X154666392Y-130477831D01*
X154700485Y-130464969D01*
X154740639Y-130451341D01*
X154761889Y-130444676D01*
X154796436Y-130434561D01*
X154835973Y-130423628D01*
X154878852Y-130412301D01*
X154923425Y-130401004D01*
X154968046Y-130390160D01*
X155011067Y-130380194D01*
X155050839Y-130371529D01*
X155067499Y-130367953D01*
X155096891Y-130361231D01*
X155124800Y-130354357D01*
X155150320Y-130347597D01*
X155172548Y-130341214D01*
X155190579Y-130335475D01*
X155203507Y-130330645D01*
X155210429Y-130326988D01*
X155210439Y-130324770D01*
X155205761Y-130323172D01*
X155194359Y-130319515D01*
X155178736Y-130314638D01*
X155160839Y-130309154D01*
X155152414Y-130306509D01*
X155126014Y-130297099D01*
X155102026Y-130286919D01*
X155081790Y-130276630D01*
X155066649Y-130266893D01*
X155057943Y-130258372D01*
X155054309Y-130251227D01*
X155054036Y-130246648D01*
X155057823Y-130246971D01*
X155067635Y-130249762D01*
X155081849Y-130254611D01*
X155098897Y-130261015D01*
X155103525Y-130262792D01*
X155124972Y-130270491D01*
X155150585Y-130279071D01*
X155177547Y-130287606D01*
X155203037Y-130295172D01*
X155264598Y-130312681D01*
X155329719Y-130290928D01*
X155346616Y-130285277D01*
X155366627Y-130278562D01*
X155383146Y-130272996D01*
X155394807Y-130269037D01*
X155400244Y-130267148D01*
X155400655Y-130266292D01*
X155396745Y-130262433D01*
X155387512Y-130256480D01*
X155374244Y-130249315D01*
X155368373Y-130246290D01*
X155349220Y-130235288D01*
X155334183Y-130224836D01*
X155324358Y-130215760D01*
X155320839Y-130208891D01*
X155320873Y-130207995D01*
X155323213Y-130203522D01*
X155329602Y-130202631D01*
X155340557Y-130205501D01*
X155356593Y-130212313D01*
X155378226Y-130223244D01*
X155405972Y-130238475D01*
X155437105Y-130256004D01*
X155476578Y-130243706D01*
X155516051Y-130231407D01*
X155487445Y-130215892D01*
X155480525Y-130212058D01*
X155462626Y-130201433D01*
X155446362Y-130190848D01*
X155433080Y-130181253D01*
X155424124Y-130173600D01*
X155420839Y-130168838D01*
X155423249Y-130165654D01*
X155431262Y-130165387D01*
X155443595Y-130168256D01*
X155458901Y-130173712D01*
X155475830Y-130181207D01*
X155493036Y-130190190D01*
X155509170Y-130200114D01*
X155522886Y-130210427D01*
X155538933Y-130224170D01*
X155588886Y-130211162D01*
X155595714Y-130209375D01*
X155613719Y-130204486D01*
X155625008Y-130200986D01*
X155630409Y-130198531D01*
X155630744Y-130196780D01*
X155626839Y-130195389D01*
X155622017Y-130194217D01*
X155596984Y-130186334D01*
X155572548Y-130175936D01*
X155549896Y-130163795D01*
X155530212Y-130150685D01*
X155514685Y-130137379D01*
X155504498Y-130124649D01*
X155500839Y-130113268D01*
X155501026Y-130109746D01*
X155502794Y-130106201D01*
X155507384Y-130106689D01*
X155515948Y-130111520D01*
X155529636Y-130121003D01*
X155539381Y-130127526D01*
X155556045Y-130137776D01*
X155575360Y-130148972D01*
X155594827Y-130159635D01*
X155607609Y-130166614D01*
X155624311Y-130176651D01*
X155635355Y-130184640D01*
X155639899Y-130190014D01*
X155640085Y-130190677D01*
X155643936Y-130195605D01*
X155652359Y-130195480D01*
X155675294Y-130191204D01*
X155696880Y-130188043D01*
X155717882Y-130186113D01*
X155739126Y-130185519D01*
X155761436Y-130186363D01*
X155785640Y-130188750D01*
X155812562Y-130192784D01*
X155843027Y-130198568D01*
X155877863Y-130206205D01*
X155917893Y-130215800D01*
X155963943Y-130227456D01*
X156016839Y-130241278D01*
X156021549Y-130242520D01*
X156091441Y-130260692D01*
X156154635Y-130276548D01*
X156211991Y-130290230D01*
X156264366Y-130301879D01*
X156312619Y-130311638D01*
X156357607Y-130319648D01*
X156400189Y-130326051D01*
X156441224Y-130330991D01*
X156481568Y-130334607D01*
X156522081Y-130337044D01*
X156563621Y-130338442D01*
X156607045Y-130338943D01*
X156711250Y-130339179D01*
X156742006Y-130323979D01*
X156742746Y-130323612D01*
X156754685Y-130317189D01*
X156766361Y-130309706D01*
X156778943Y-130300229D01*
X156793598Y-130287823D01*
X156811494Y-130271552D01*
X156833800Y-130250481D01*
X156849022Y-130236057D01*
X156875794Y-130211504D01*
X156898642Y-130191965D01*
X156918504Y-130176809D01*
X156936317Y-130165406D01*
X156953019Y-130157123D01*
X156969547Y-130151329D01*
X156986839Y-130147392D01*
X157010049Y-130140672D01*
X157037745Y-130126991D01*
X157064908Y-130108115D01*
X157089788Y-130085282D01*
X157110635Y-130059733D01*
X157125812Y-130037697D01*
X157117262Y-130023862D01*
X157112479Y-130017172D01*
X157100367Y-130003349D01*
X157084292Y-129987229D01*
X157065825Y-129970288D01*
X157046533Y-129954002D01*
X157027985Y-129939847D01*
X156992848Y-129917853D01*
X156957106Y-129901948D01*
X156922839Y-129893432D01*
X156918129Y-129892723D01*
X156872644Y-129881626D01*
X156828782Y-129863467D01*
X156788173Y-129839050D01*
X156752448Y-129809183D01*
X156739318Y-129795745D01*
X156727507Y-129781864D01*
X156719372Y-129769290D01*
X156713448Y-129756028D01*
X156710896Y-129748473D01*
X156706878Y-129732068D01*
X156704997Y-129717069D01*
X156705436Y-129705520D01*
X156708378Y-129699464D01*
X156709388Y-129698297D01*
X156712179Y-129691018D01*
X156714514Y-129679955D01*
X156717560Y-129666435D01*
X156727775Y-129640781D01*
X156743341Y-129614174D01*
X156763238Y-129588526D01*
X156766805Y-129584456D01*
X156778482Y-129570576D01*
X156788443Y-129557964D01*
X156794839Y-129548934D01*
X156795445Y-129548011D01*
X156804798Y-129538293D01*
X156820823Y-129526183D01*
X156842839Y-129512202D01*
X156867407Y-129496982D01*
X156887558Y-129482571D01*
X156901649Y-129469299D01*
X156910353Y-129456122D01*
X156914344Y-129441996D01*
X156914295Y-129425878D01*
X156910879Y-129406724D01*
X156910794Y-129406360D01*
X156902875Y-129380805D01*
X156891829Y-129356508D01*
X156878847Y-129335710D01*
X156865122Y-129320657D01*
X156849816Y-129309633D01*
X156821997Y-129294677D01*
X156788395Y-129281014D01*
X156750299Y-129268988D01*
X156708994Y-129258944D01*
X156665769Y-129251225D01*
X156621910Y-129246175D01*
X156578705Y-129244138D01*
X156566159Y-129244045D01*
X156547655Y-129244188D01*
X156534321Y-129244939D01*
X156524310Y-129246530D01*
X156515776Y-129249195D01*
X156506870Y-129253164D01*
X156505176Y-129254008D01*
X156488231Y-129264856D01*
X156469352Y-129281175D01*
X156448132Y-129303388D01*
X156424162Y-129331916D01*
X156397036Y-129367184D01*
X156386057Y-129381825D01*
X156357552Y-129418636D01*
X156331338Y-129450691D01*
X156307873Y-129477463D01*
X156287609Y-129498425D01*
X156271003Y-129513052D01*
X156268126Y-129515214D01*
X156254719Y-129523729D01*
X156243466Y-129528477D01*
X156235722Y-129529035D01*
X156232839Y-129524980D01*
X156234290Y-129519167D01*
X156239317Y-129508145D01*
X156246696Y-129495161D01*
X156255124Y-129482692D01*
X156264464Y-129470205D01*
X156236209Y-129481703D01*
X156227991Y-129484952D01*
X156211053Y-129491108D01*
X156191409Y-129497551D01*
X156168209Y-129504525D01*
X156140602Y-129512270D01*
X156107739Y-129521030D01*
X156068768Y-129531048D01*
X156022839Y-129542566D01*
X155984431Y-129552268D01*
X155948598Y-129561772D01*
X155918672Y-129570348D01*
X155893637Y-129578344D01*
X155872478Y-129586109D01*
X155854181Y-129593991D01*
X155837732Y-129602338D01*
X155822115Y-129611500D01*
X155816765Y-129614999D01*
X155803647Y-129624055D01*
X155785482Y-129636944D01*
X155763092Y-129653070D01*
X155737299Y-129671836D01*
X155708926Y-129692645D01*
X155678794Y-129714902D01*
X155647725Y-129738010D01*
X155628909Y-129752029D01*
X155597863Y-129775051D01*
X155568031Y-129797044D01*
X155540277Y-129817379D01*
X155515465Y-129835426D01*
X155494457Y-129850555D01*
X155478119Y-129862137D01*
X155467312Y-129869543D01*
X155459919Y-129874340D01*
X155445991Y-129882867D01*
X155431933Y-129890606D01*
X155417143Y-129897702D01*
X155401024Y-129904301D01*
X155382975Y-129910552D01*
X155362398Y-129916599D01*
X155338693Y-129922589D01*
X155311260Y-129928669D01*
X155279502Y-129934985D01*
X155242818Y-129941684D01*
X155200609Y-129948911D01*
X155152275Y-129956815D01*
X155097219Y-129965540D01*
X155034839Y-129975234D01*
X154972549Y-129984929D01*
X154904885Y-129995687D01*
X154843592Y-130005726D01*
X154787817Y-130015206D01*
X154736710Y-130024288D01*
X154689419Y-130033130D01*
X154645094Y-130041893D01*
X154602882Y-130050737D01*
X154561932Y-130059821D01*
X154521394Y-130069306D01*
X154480415Y-130079351D01*
X154464915Y-130083272D01*
X154424137Y-130094060D01*
X154384798Y-130105262D01*
X154346194Y-130117163D01*
X154307622Y-130130050D01*
X154268376Y-130144210D01*
X154227754Y-130159930D01*
X154185050Y-130177496D01*
X154139560Y-130197195D01*
X154090580Y-130219314D01*
X154037406Y-130244138D01*
X153979334Y-130271956D01*
X153915659Y-130303053D01*
X153845677Y-130337716D01*
X153668514Y-130425952D01*
X153584677Y-130398842D01*
X153573481Y-130395201D01*
X153550233Y-130387497D01*
X153530256Y-130380681D01*
X153514639Y-130375137D01*
X153504471Y-130371246D01*
X153500839Y-130369392D01*
X153501157Y-130368907D01*
X153506635Y-130365106D01*
X153518375Y-130358223D01*
X153535677Y-130348616D01*
X153557843Y-130336645D01*
X153584175Y-130322668D01*
X153613972Y-130307044D01*
X153646537Y-130290133D01*
X153681171Y-130272294D01*
X153717174Y-130253886D01*
X153753848Y-130235267D01*
X153790493Y-130216796D01*
X153826412Y-130198834D01*
X153860905Y-130181738D01*
X153893273Y-130165868D01*
X153922817Y-130151583D01*
X153948839Y-130139242D01*
X153984922Y-130122499D01*
X154042424Y-130096549D01*
X154097778Y-130072619D01*
X154151659Y-130050526D01*
X154204740Y-130030087D01*
X154257697Y-130011119D01*
X154311203Y-129993440D01*
X154365933Y-129976865D01*
X154422561Y-129961213D01*
X154481762Y-129946300D01*
X154544209Y-129931943D01*
X154610578Y-129917959D01*
X154681542Y-129904165D01*
X154757776Y-129890379D01*
X154839954Y-129876416D01*
X154928750Y-129862095D01*
X155024839Y-129847232D01*
X155039816Y-129844950D01*
X155098649Y-129835854D01*
X155150216Y-129827631D01*
X155195058Y-129820170D01*
X155233717Y-129813357D01*
X155266736Y-129807082D01*
X155294655Y-129801231D01*
X155318018Y-129795693D01*
X155337365Y-129790355D01*
X155353238Y-129785106D01*
X155366179Y-129779833D01*
X155376731Y-129774425D01*
X155387134Y-129768106D01*
X155400684Y-129759224D01*
X155417262Y-129747763D01*
X155437411Y-129733331D01*
X155461674Y-129715532D01*
X155490595Y-129693971D01*
X155524718Y-129668255D01*
X155564585Y-129637987D01*
X155571141Y-129632996D01*
X155613422Y-129600890D01*
X155650343Y-129573148D01*
X155682766Y-129549326D01*
X155711552Y-129528977D01*
X155737562Y-129511658D01*
X155761658Y-129496921D01*
X155784701Y-129484323D01*
X155807551Y-129473417D01*
X155831070Y-129463759D01*
X155856119Y-129454902D01*
X155883560Y-129446402D01*
X155914252Y-129437813D01*
X155949059Y-129428691D01*
X155988839Y-129418588D01*
X156007611Y-129413822D01*
X156056097Y-129401175D01*
X156097866Y-129389694D01*
X156133759Y-129379112D01*
X156164616Y-129369163D01*
X156191279Y-129359580D01*
X156214589Y-129350097D01*
X156235386Y-129340448D01*
X156236006Y-129340140D01*
X156249919Y-129333057D01*
X156260361Y-129326872D01*
X156268953Y-129320101D01*
X156277316Y-129311259D01*
X156287070Y-129298862D01*
X156299836Y-129281427D01*
X156300287Y-129280805D01*
X156315512Y-129261119D01*
X156334197Y-129238789D01*
X156354014Y-129216514D01*
X156372639Y-129196990D01*
X156393661Y-129176992D01*
X156420207Y-129155400D01*
X156445754Y-129139451D01*
X156471772Y-129128265D01*
X156499730Y-129120964D01*
X156502569Y-129120476D01*
X156519799Y-129118778D01*
X156542813Y-129117894D01*
X156569834Y-129117773D01*
X156599084Y-129118364D01*
G37*
G36*
X153899998Y-130457705D02*
G01*
X153905355Y-130458890D01*
X153909596Y-130461917D01*
X153906153Y-130465849D01*
X153895181Y-130470564D01*
X153876839Y-130475936D01*
X153870012Y-130477692D01*
X153855808Y-130481325D01*
X153845645Y-130483897D01*
X153841376Y-130484936D01*
X153840066Y-130484855D01*
X153833046Y-130482886D01*
X153822951Y-130479223D01*
X153812442Y-130474930D01*
X153804184Y-130471073D01*
X153800839Y-130468718D01*
X153800871Y-130468607D01*
X153805173Y-130467081D01*
X153815457Y-130465195D01*
X153829886Y-130463151D01*
X153846626Y-130461154D01*
X153863843Y-130459406D01*
X153879700Y-130458113D01*
X153892364Y-130457478D01*
X153899998Y-130457705D01*
G37*
G36*
X156668839Y-129433847D02*
G01*
X156667126Y-129439001D01*
X156662418Y-129449695D01*
X156655436Y-129464350D01*
X156646906Y-129481395D01*
X156631579Y-129514105D01*
X156619362Y-129548400D01*
X156613309Y-129578699D01*
X156613329Y-129605486D01*
X156619333Y-129629246D01*
X156620553Y-129632904D01*
X156623215Y-129648448D01*
X156624182Y-129668013D01*
X156623511Y-129688733D01*
X156621257Y-129707743D01*
X156617480Y-129722179D01*
X156612961Y-129730158D01*
X156606728Y-129733509D01*
X156600526Y-129729799D01*
X156595018Y-129719505D01*
X156590871Y-129703105D01*
X156590259Y-129699831D01*
X156587273Y-129686596D01*
X156582968Y-129669572D01*
X156578054Y-129651614D01*
X156571760Y-129623571D01*
X156569077Y-129584045D01*
X156574121Y-129546418D01*
X156586867Y-129510830D01*
X156607293Y-129477423D01*
X156612550Y-129470739D01*
X156625229Y-129456643D01*
X156638036Y-129444702D01*
X156649885Y-129435684D01*
X156659692Y-129430357D01*
X156666372Y-129429489D01*
X156668839Y-129433847D01*
G37*
G36*
X156052724Y-128370148D02*
G01*
X156052098Y-128400563D01*
X156049546Y-128431882D01*
X156045220Y-128461591D01*
X156039275Y-128487179D01*
X156032609Y-128507893D01*
X156009584Y-128563148D01*
X155979493Y-128617399D01*
X155943004Y-128669533D01*
X155900784Y-128718434D01*
X155862285Y-128758694D01*
X155879340Y-128800936D01*
X155887707Y-128822703D01*
X155904448Y-128875768D01*
X155915164Y-128926410D01*
X155919780Y-128974009D01*
X155919039Y-128994906D01*
X155918221Y-129017948D01*
X155910412Y-129057607D01*
X155903008Y-129078660D01*
X155884054Y-129114829D01*
X155881844Y-129117662D01*
X155858911Y-129147065D01*
X155828483Y-129174476D01*
X155793672Y-129196166D01*
X155755380Y-129211241D01*
X155734794Y-129215356D01*
X155707149Y-129217545D01*
X155676874Y-129217293D01*
X155646574Y-129214631D01*
X155618857Y-129209592D01*
X155613713Y-129208350D01*
X155599949Y-129205140D01*
X155590275Y-129203054D01*
X155586527Y-129202494D01*
X155585143Y-129206142D01*
X155581744Y-129215326D01*
X155577084Y-129228011D01*
X155566805Y-129251243D01*
X155550974Y-129278444D01*
X155531725Y-129305498D01*
X155510156Y-129331206D01*
X155487368Y-129354369D01*
X155464457Y-129373788D01*
X155442524Y-129388262D01*
X155422667Y-129396592D01*
X155422471Y-129396642D01*
X155413369Y-129398327D01*
X155397894Y-129400532D01*
X155377588Y-129403092D01*
X155353991Y-129405844D01*
X155328642Y-129408623D01*
X155303084Y-129411265D01*
X155278855Y-129413606D01*
X155257497Y-129415481D01*
X155240551Y-129416727D01*
X155229556Y-129417179D01*
X155204158Y-129413628D01*
X155179479Y-129403181D01*
X155157959Y-129386972D01*
X155141092Y-129366135D01*
X155130376Y-129341809D01*
X155127221Y-129331171D01*
X155123459Y-129322546D01*
X155117903Y-129315716D01*
X155108876Y-129308692D01*
X155094702Y-129299483D01*
X155071139Y-129282946D01*
X155041372Y-129255327D01*
X155018521Y-129224176D01*
X155002188Y-129188910D01*
X154991972Y-129148941D01*
X154990104Y-129138806D01*
X154987406Y-129128279D01*
X154984562Y-129123566D01*
X154981007Y-129123344D01*
X154971044Y-129126936D01*
X154949802Y-129133769D01*
X154922885Y-129141754D01*
X154891601Y-129150545D01*
X154857257Y-129159800D01*
X154821161Y-129169174D01*
X154784622Y-129178326D01*
X154748946Y-129186910D01*
X154715441Y-129194583D01*
X154685415Y-129201002D01*
X154670028Y-129203953D01*
X154619296Y-129213683D01*
X154480675Y-129235384D01*
X154339390Y-129251195D01*
X154196953Y-129261027D01*
X154054875Y-129264793D01*
X153914667Y-129262404D01*
X153777839Y-129253773D01*
X153772352Y-129253302D01*
X153758302Y-129252185D01*
X153748514Y-129251545D01*
X153744839Y-129251508D01*
X153744700Y-129252442D01*
X153743533Y-129259382D01*
X153741440Y-129271561D01*
X153738729Y-129287169D01*
X153737439Y-129294258D01*
X153730743Y-129322576D01*
X153722261Y-129344932D01*
X153711245Y-129362961D01*
X153696946Y-129378296D01*
X153693806Y-129381029D01*
X153687594Y-129385808D01*
X153680226Y-129390438D01*
X153670786Y-129395313D01*
X153658359Y-129400828D01*
X153642031Y-129407377D01*
X153620886Y-129415355D01*
X153594011Y-129425157D01*
X153560489Y-129437179D01*
X153442839Y-129479179D01*
X153400839Y-129478752D01*
X153384218Y-129478237D01*
X153348295Y-129474704D01*
X153308839Y-129467513D01*
X153265557Y-129458169D01*
X153224717Y-129449409D01*
X153190338Y-129442130D01*
X153161713Y-129436207D01*
X153138132Y-129431515D01*
X153118889Y-129427928D01*
X153103274Y-129425321D01*
X153090579Y-129423569D01*
X153080097Y-129422547D01*
X153071118Y-129422130D01*
X153062935Y-129422192D01*
X153054839Y-129422609D01*
X153054154Y-129422655D01*
X153044885Y-129423479D01*
X153034682Y-129424813D01*
X153022788Y-129426830D01*
X153008451Y-129429704D01*
X152990914Y-129433611D01*
X152969424Y-129438722D01*
X152943227Y-129445213D01*
X152911566Y-129453257D01*
X152873689Y-129463029D01*
X152828839Y-129474701D01*
X152811515Y-129479158D01*
X152786034Y-129485503D01*
X152762042Y-129491252D01*
X152741617Y-129495911D01*
X152726839Y-129498984D01*
X152714313Y-129500841D01*
X152688797Y-129502911D01*
X152658309Y-129503873D01*
X152624665Y-129503771D01*
X152589681Y-129502647D01*
X152555171Y-129500544D01*
X152522952Y-129497503D01*
X152494839Y-129493567D01*
X152456442Y-129486294D01*
X152399624Y-129472479D01*
X152350310Y-129456304D01*
X152308540Y-129437786D01*
X152274354Y-129416941D01*
X152247793Y-129393784D01*
X152243203Y-129388725D01*
X152230180Y-129372211D01*
X152218929Y-129353923D01*
X152209167Y-129332975D01*
X152200612Y-129308475D01*
X152192984Y-129279534D01*
X152186001Y-129245264D01*
X152179380Y-129204776D01*
X152172840Y-129157179D01*
X152169625Y-129132649D01*
X152165149Y-129101133D01*
X152160790Y-129074567D01*
X152156179Y-129051138D01*
X152150948Y-129029032D01*
X152144727Y-129006436D01*
X152137150Y-128981537D01*
X152130766Y-128961015D01*
X152120162Y-128925801D01*
X152109903Y-128890111D01*
X152099591Y-128852474D01*
X152088828Y-128811420D01*
X152077214Y-128765478D01*
X152064350Y-128713179D01*
X152063313Y-128708931D01*
X152055791Y-128678658D01*
X152048421Y-128649907D01*
X152041540Y-128623930D01*
X152035486Y-128601982D01*
X152030597Y-128585314D01*
X152027208Y-128575179D01*
X152016667Y-128543828D01*
X152007135Y-128497311D01*
X152004498Y-128457395D01*
X152254146Y-128457395D01*
X152255044Y-128476179D01*
X152257698Y-128512106D01*
X152262113Y-128551186D01*
X152268151Y-128586380D01*
X152276212Y-128619938D01*
X152286697Y-128654108D01*
X152315990Y-128748372D01*
X152340577Y-128843915D01*
X152358845Y-128935798D01*
X152370687Y-129023543D01*
X152374662Y-129058315D01*
X152382429Y-129108314D01*
X152391891Y-129151412D01*
X152402985Y-129187414D01*
X152415645Y-129216123D01*
X152429808Y-129237343D01*
X152445408Y-129250878D01*
X152450955Y-129253736D01*
X152457255Y-129255677D01*
X152465695Y-129256755D01*
X152477737Y-129257067D01*
X152494843Y-129256714D01*
X152518473Y-129255792D01*
X152524392Y-129255513D01*
X152548736Y-129254045D01*
X152578163Y-129251897D01*
X152610462Y-129249248D01*
X152643424Y-129246276D01*
X152674839Y-129243159D01*
X152690952Y-129241475D01*
X152741942Y-129236170D01*
X152785971Y-129231648D01*
X152823810Y-129227845D01*
X152856227Y-129224699D01*
X152883994Y-129222147D01*
X152907881Y-129220127D01*
X152928657Y-129218575D01*
X152947093Y-129217430D01*
X152963959Y-129216629D01*
X152980026Y-129216108D01*
X152996062Y-129215805D01*
X153012839Y-129215659D01*
X153022485Y-129215612D01*
X153044032Y-129215598D01*
X153061744Y-129215888D01*
X153077287Y-129216670D01*
X153092330Y-129218130D01*
X153108539Y-129220455D01*
X153127582Y-129223833D01*
X153151127Y-129228450D01*
X153180839Y-129234492D01*
X153192593Y-129236873D01*
X153222240Y-129242707D01*
X153251297Y-129248203D01*
X153277955Y-129253033D01*
X153300406Y-129256863D01*
X153316839Y-129259365D01*
X153328896Y-129260904D01*
X153347851Y-129263004D01*
X153364020Y-129264428D01*
X153374839Y-129264928D01*
X153382519Y-129264283D01*
X153399151Y-129261427D01*
X153421719Y-129256512D01*
X153449249Y-129249779D01*
X153480763Y-129241470D01*
X153515285Y-129231828D01*
X153551839Y-129221093D01*
X153608839Y-129203953D01*
X153608839Y-129180802D01*
X153608462Y-129171121D01*
X153606818Y-129160186D01*
X153604258Y-129154819D01*
X153601661Y-129154019D01*
X153591976Y-129152223D01*
X153576713Y-129149953D01*
X153557322Y-129147418D01*
X153535258Y-129144828D01*
X153528180Y-129144037D01*
X153498382Y-129140647D01*
X153465184Y-129136795D01*
X153432148Y-129132896D01*
X153402839Y-129129368D01*
X153376117Y-129126367D01*
X153342940Y-129123280D01*
X153310069Y-129120842D01*
X153278777Y-129119109D01*
X153250336Y-129118136D01*
X153226018Y-129117979D01*
X153207095Y-129118692D01*
X153194839Y-129120332D01*
X153194608Y-129120390D01*
X153184352Y-129123127D01*
X153168601Y-129127519D01*
X153149459Y-129132972D01*
X153129032Y-129138893D01*
X153110208Y-129144293D01*
X153066311Y-129155842D01*
X153027184Y-129164358D01*
X152991070Y-129170145D01*
X152956207Y-129173504D01*
X152920839Y-129174739D01*
X152911836Y-129174802D01*
X152891176Y-129174785D01*
X152875658Y-129174258D01*
X152863172Y-129172929D01*
X152851612Y-129170510D01*
X152838871Y-129166708D01*
X152822839Y-129161234D01*
X152811258Y-129156916D01*
X152790305Y-129148350D01*
X152765922Y-129137751D01*
X152740269Y-129126063D01*
X152715506Y-129114234D01*
X152648173Y-129081179D01*
X152613126Y-129081179D01*
X152610187Y-129081173D01*
X152591591Y-129080549D01*
X152579077Y-129078207D01*
X152570968Y-129073178D01*
X152565588Y-129064492D01*
X152561259Y-129051179D01*
X152558045Y-129036053D01*
X152556697Y-129016469D01*
X152558466Y-128994858D01*
X152563549Y-128969981D01*
X152572144Y-128940600D01*
X152584447Y-128905475D01*
X152587549Y-128896856D01*
X152593955Y-128876687D01*
X152599010Y-128856262D01*
X152602875Y-128834292D01*
X152605713Y-128809488D01*
X152607687Y-128780561D01*
X152608959Y-128746221D01*
X152609691Y-128705179D01*
X152609802Y-128693261D01*
X152609757Y-128671321D01*
X152609194Y-128655161D01*
X152607986Y-128643249D01*
X152606006Y-128634048D01*
X152603126Y-128626025D01*
X152594813Y-128612189D01*
X152581809Y-128601764D01*
X152563978Y-128595934D01*
X152540604Y-128594474D01*
X152510974Y-128597159D01*
X152504521Y-128598036D01*
X152485616Y-128599835D01*
X152470832Y-128599587D01*
X152457352Y-128597301D01*
X152453839Y-128596402D01*
X152443058Y-128592479D01*
X152433545Y-128586406D01*
X152424011Y-128576972D01*
X152413169Y-128562966D01*
X152399728Y-128543179D01*
X152391728Y-128532050D01*
X152377940Y-128514992D01*
X152361983Y-128496867D01*
X152345932Y-128480107D01*
X152333565Y-128467945D01*
X152321896Y-128457044D01*
X152312968Y-128449960D01*
X152305187Y-128445646D01*
X152296958Y-128443052D01*
X152286689Y-128441130D01*
X152275806Y-128439429D01*
X152264240Y-128437829D01*
X152257759Y-128437202D01*
X152257749Y-128437202D01*
X152255418Y-128439060D01*
X152254244Y-128445407D01*
X152254146Y-128457395D01*
X152004498Y-128457395D01*
X152003823Y-128447179D01*
X152003876Y-128433405D01*
X152004370Y-128414084D01*
X152005261Y-128397724D01*
X152006440Y-128386843D01*
X152009318Y-128370508D01*
X151917863Y-128304265D01*
X151916427Y-128303224D01*
X151892019Y-128285337D01*
X151869208Y-128268269D01*
X151848977Y-128252783D01*
X151832311Y-128239642D01*
X151820196Y-128229610D01*
X151813615Y-128223451D01*
X151813558Y-128223386D01*
X151806549Y-128215212D01*
X151800905Y-128207691D01*
X151796466Y-128199862D01*
X151793073Y-128190764D01*
X151790565Y-128179435D01*
X151788782Y-128164914D01*
X151787565Y-128146239D01*
X151786754Y-128122450D01*
X151786188Y-128092583D01*
X151785708Y-128055678D01*
X151785573Y-128043107D01*
X151785387Y-128002604D01*
X151785623Y-127967138D01*
X151786267Y-127937447D01*
X151787305Y-127914272D01*
X151788723Y-127898349D01*
X151791042Y-127884015D01*
X151797133Y-127856516D01*
X151806220Y-127823326D01*
X151818417Y-127784063D01*
X151833840Y-127738348D01*
X151852602Y-127685797D01*
X151854817Y-127679718D01*
X151863093Y-127656825D01*
X151870243Y-127636773D01*
X151875857Y-127620730D01*
X151879526Y-127609861D01*
X151880839Y-127605333D01*
X151878363Y-127604515D01*
X151870025Y-127605210D01*
X151857839Y-127607544D01*
X151845209Y-127610264D01*
X151804028Y-127617193D01*
X151757044Y-127622722D01*
X151705804Y-127626813D01*
X151651855Y-127629426D01*
X151596744Y-127630525D01*
X151542017Y-127630069D01*
X151489222Y-127628022D01*
X151439905Y-127624345D01*
X151395614Y-127618999D01*
X151387210Y-127617713D01*
X151345805Y-127610424D01*
X151311510Y-127602380D01*
X151283576Y-127593150D01*
X151261254Y-127582304D01*
X151243795Y-127569412D01*
X151230449Y-127554044D01*
X151220468Y-127535768D01*
X151213103Y-127514156D01*
X151211310Y-127507795D01*
X151207915Y-127500459D01*
X151202276Y-127497610D01*
X151191685Y-127497091D01*
X151185798Y-127496778D01*
X151163699Y-127491069D01*
X151142676Y-127479218D01*
X151124719Y-127462586D01*
X151111817Y-127442532D01*
X151107700Y-127436569D01*
X151101548Y-127435120D01*
X151094851Y-127436782D01*
X151082804Y-127439003D01*
X151068051Y-127441290D01*
X151064474Y-127441750D01*
X151035610Y-127442900D01*
X151002162Y-127440624D01*
X150966255Y-127435303D01*
X150930014Y-127427316D01*
X150895563Y-127417046D01*
X150865025Y-127404874D01*
X150851702Y-127397711D01*
X150829185Y-127382790D01*
X150803410Y-127363146D01*
X150775380Y-127339689D01*
X150746097Y-127313330D01*
X150716563Y-127284981D01*
X150687780Y-127255552D01*
X150660751Y-127225955D01*
X150636477Y-127197101D01*
X150629269Y-127188019D01*
X150572757Y-127110435D01*
X150523053Y-127029893D01*
X150479970Y-126945947D01*
X150443317Y-126858149D01*
X150412906Y-126766053D01*
X150388549Y-126669211D01*
X150370055Y-126567179D01*
X150369439Y-126562940D01*
X150367424Y-126546937D01*
X150365852Y-126529940D01*
X150364677Y-126510780D01*
X150363853Y-126488292D01*
X150363332Y-126461307D01*
X150363071Y-126428658D01*
X150363060Y-126419721D01*
X150664076Y-126419721D01*
X150665014Y-126465676D01*
X150667117Y-126511181D01*
X150670389Y-126554820D01*
X150674836Y-126595179D01*
X150682265Y-126644614D01*
X150701148Y-126735482D01*
X150726165Y-126821276D01*
X150757358Y-126902086D01*
X150794767Y-126978003D01*
X150838436Y-127049117D01*
X150888406Y-127115519D01*
X150944719Y-127177299D01*
X150946084Y-127178659D01*
X150970011Y-127201530D01*
X150995702Y-127224480D01*
X151021370Y-127246010D01*
X151045230Y-127264620D01*
X151065497Y-127278807D01*
X151076155Y-127285650D01*
X151117108Y-127255172D01*
X151140233Y-127238530D01*
X151162996Y-127223557D01*
X151181474Y-127213086D01*
X151195130Y-127207416D01*
X151203425Y-127206850D01*
X151209896Y-127212816D01*
X151215908Y-127226757D01*
X151220781Y-127248276D01*
X151224460Y-127277185D01*
X151225688Y-127289442D01*
X151227451Y-127304582D01*
X151229007Y-127315288D01*
X151230120Y-127319792D01*
X151232114Y-127319194D01*
X151238466Y-127313501D01*
X151248237Y-127302958D01*
X151260661Y-127288519D01*
X151274969Y-127271135D01*
X151290397Y-127251758D01*
X151306178Y-127231340D01*
X151321546Y-127210834D01*
X151335733Y-127191192D01*
X151347974Y-127173366D01*
X151359894Y-127155735D01*
X151382314Y-127124941D01*
X151403232Y-127100040D01*
X151423723Y-127080044D01*
X151444864Y-127063961D01*
X151467732Y-127050801D01*
X151493402Y-127039574D01*
X151501508Y-127035974D01*
X151506237Y-127031492D01*
X151508790Y-127023820D01*
X151510584Y-127010565D01*
X151510772Y-127008792D01*
X151511362Y-126988783D01*
X151508978Y-126967104D01*
X151503324Y-126941976D01*
X151494104Y-126911620D01*
X151492833Y-126907719D01*
X151488044Y-126890984D01*
X151485117Y-126875329D01*
X151483616Y-126857734D01*
X151483106Y-126835179D01*
X151483107Y-126820924D01*
X151483597Y-126804677D01*
X151484910Y-126793248D01*
X151487309Y-126784724D01*
X151491056Y-126777192D01*
X151492747Y-126774500D01*
X151499813Y-126765982D01*
X151506056Y-126761898D01*
X151508312Y-126761803D01*
X151510683Y-126763800D01*
X151512055Y-126769610D01*
X151512687Y-126780626D01*
X151512839Y-126798245D01*
X151515362Y-126836213D01*
X151522536Y-126874457D01*
X151533670Y-126909073D01*
X151539339Y-126922967D01*
X151549925Y-126889073D01*
X151563468Y-126853875D01*
X151582898Y-126818930D01*
X151606084Y-126789814D01*
X151615361Y-126780977D01*
X151630086Y-126769339D01*
X151644976Y-126759834D01*
X151658765Y-126753053D01*
X151670183Y-126749588D01*
X151677964Y-126750029D01*
X151680839Y-126754967D01*
X151680611Y-126756139D01*
X151677023Y-126763388D01*
X151669986Y-126774436D01*
X151660671Y-126787401D01*
X151650203Y-126801837D01*
X151632265Y-126830683D01*
X151617806Y-126860868D01*
X151606198Y-126894042D01*
X151596816Y-126931856D01*
X151589031Y-126975961D01*
X151588109Y-126981927D01*
X151581973Y-127014269D01*
X151574679Y-127039661D01*
X151565718Y-127058991D01*
X151554578Y-127073146D01*
X151540751Y-127083013D01*
X151523725Y-127089479D01*
X151507648Y-127094637D01*
X151481148Y-127107585D01*
X151456568Y-127126032D01*
X151432913Y-127150788D01*
X151409188Y-127182662D01*
X151387996Y-127214067D01*
X151372418Y-127308217D01*
X151369668Y-127324981D01*
X151365543Y-127350726D01*
X151362012Y-127373492D01*
X151359262Y-127392052D01*
X151357476Y-127405178D01*
X151356839Y-127411644D01*
X151356952Y-127413709D01*
X151358726Y-127418041D01*
X151363814Y-127421780D01*
X151373692Y-127425791D01*
X151389839Y-127430936D01*
X151430243Y-127442174D01*
X151485629Y-127455020D01*
X151544460Y-127466205D01*
X151604237Y-127475262D01*
X151662460Y-127481725D01*
X151667150Y-127482133D01*
X151693991Y-127484022D01*
X151716414Y-127484569D01*
X151737425Y-127483769D01*
X151760032Y-127481621D01*
X151810747Y-127474631D01*
X151880391Y-127460862D01*
X151948115Y-127442158D01*
X152015999Y-127417920D01*
X152086122Y-127387548D01*
X152101609Y-127380679D01*
X152121155Y-127373376D01*
X152136039Y-127369623D01*
X152145515Y-127369589D01*
X152148839Y-127373441D01*
X152146783Y-127381111D01*
X152140883Y-127392248D01*
X152132828Y-127403179D01*
X152132501Y-127403574D01*
X152129944Y-127408490D01*
X152127441Y-127417063D01*
X152124840Y-127430156D01*
X152121990Y-127448632D01*
X152118740Y-127473352D01*
X152114939Y-127505179D01*
X152110002Y-127546775D01*
X152103716Y-127596014D01*
X152097604Y-127638962D01*
X152091478Y-127676585D01*
X152085151Y-127709851D01*
X152078435Y-127739727D01*
X152071141Y-127767180D01*
X152063083Y-127793179D01*
X152054072Y-127818689D01*
X152044386Y-127845817D01*
X152031280Y-127886671D01*
X152019791Y-127927481D01*
X152010262Y-127966802D01*
X152003032Y-128003186D01*
X151998445Y-128035186D01*
X151996839Y-128061357D01*
X151997058Y-128070413D01*
X151998211Y-128078709D01*
X152001000Y-128087153D01*
X152006122Y-128097373D01*
X152014277Y-128110996D01*
X152026166Y-128129652D01*
X152029399Y-128134671D01*
X152049728Y-128166176D01*
X152066227Y-128191620D01*
X152079306Y-128211600D01*
X152089375Y-128226716D01*
X152096848Y-128237565D01*
X152102133Y-128244748D01*
X152105642Y-128248862D01*
X152107787Y-128250507D01*
X152108978Y-128250280D01*
X152110413Y-128245984D01*
X152113015Y-128234992D01*
X152116459Y-128218656D01*
X152120470Y-128198283D01*
X152124773Y-128175179D01*
X152126743Y-128164324D01*
X152135186Y-128118239D01*
X152142488Y-128079329D01*
X152148801Y-128047009D01*
X152154280Y-128020690D01*
X152159076Y-127999786D01*
X152163343Y-127983709D01*
X152167234Y-127971872D01*
X152170902Y-127963688D01*
X152174499Y-127958569D01*
X152178180Y-127955928D01*
X152182097Y-127955179D01*
X152187202Y-127957799D01*
X152194328Y-127967426D01*
X152202223Y-127983252D01*
X152210581Y-128004353D01*
X152219096Y-128029805D01*
X152227464Y-128058682D01*
X152235379Y-128090061D01*
X152242535Y-128123018D01*
X152248628Y-128156627D01*
X152250157Y-128166479D01*
X152253985Y-128195141D01*
X152257381Y-128226122D01*
X152260220Y-128257717D01*
X152262374Y-128288222D01*
X152263717Y-128315931D01*
X152264121Y-128339139D01*
X152263461Y-128356141D01*
X152262484Y-128366463D01*
X152262433Y-128374934D01*
X152264888Y-128380120D01*
X152271199Y-128383144D01*
X152282716Y-128385129D01*
X152300791Y-128387201D01*
X152308893Y-128388392D01*
X152323947Y-128391761D01*
X152335440Y-128395731D01*
X152337027Y-128396573D01*
X152347090Y-128403894D01*
X152360728Y-128415920D01*
X152376751Y-128431402D01*
X152393966Y-128449089D01*
X152411183Y-128467731D01*
X152427211Y-128486080D01*
X152440857Y-128502884D01*
X152450930Y-128516893D01*
X152469621Y-128545788D01*
X152500230Y-128542483D01*
X152504830Y-128542006D01*
X152542845Y-128539903D01*
X152574593Y-128541975D01*
X152600711Y-128548447D01*
X152621833Y-128559549D01*
X152638596Y-128575505D01*
X152651636Y-128596544D01*
X152652860Y-128599029D01*
X152659823Y-128610964D01*
X152668788Y-128622256D01*
X152681283Y-128634632D01*
X152698839Y-128649818D01*
X152713337Y-128662282D01*
X152738436Y-128685465D01*
X152762859Y-128709849D01*
X152785178Y-128733930D01*
X152803965Y-128756203D01*
X152817793Y-128775164D01*
X152826791Y-128787897D01*
X152835526Y-128798306D01*
X152842076Y-128804091D01*
X152846522Y-128806383D01*
X152863875Y-128813430D01*
X152888158Y-128821421D01*
X152918649Y-128830187D01*
X152954626Y-128839558D01*
X152995369Y-128849364D01*
X153040155Y-128859436D01*
X153088263Y-128869603D01*
X153138972Y-128879696D01*
X153191560Y-128889545D01*
X153245305Y-128898981D01*
X153295530Y-128907317D01*
X153459955Y-128931925D01*
X153621305Y-128951771D01*
X153781973Y-128967094D01*
X153944353Y-128978133D01*
X154110839Y-128985125D01*
X154123402Y-128985499D01*
X154158703Y-128986534D01*
X154188020Y-128987330D01*
X154212883Y-128987885D01*
X154234823Y-128988198D01*
X154255373Y-128988270D01*
X154276062Y-128988098D01*
X154298422Y-128987682D01*
X154323985Y-128987021D01*
X154354280Y-128986114D01*
X154390839Y-128984961D01*
X154442138Y-128983024D01*
X154573230Y-128975114D01*
X154698238Y-128963160D01*
X154816872Y-128947193D01*
X154823315Y-128946045D01*
X155163813Y-128946045D01*
X155166084Y-129032612D01*
X155166431Y-129044901D01*
X155167745Y-129078558D01*
X155169556Y-129106211D01*
X155172056Y-129129368D01*
X155175435Y-129149538D01*
X155179883Y-129168230D01*
X155185591Y-129186952D01*
X155186453Y-129189438D01*
X155191082Y-129198634D01*
X155198368Y-129205000D01*
X155210855Y-129210952D01*
X155223022Y-129216073D01*
X155232931Y-129221303D01*
X155238671Y-129227091D01*
X155242042Y-129235414D01*
X155244846Y-129248248D01*
X155246861Y-129258152D01*
X155249532Y-129270515D01*
X155251385Y-129278179D01*
X155253194Y-129281845D01*
X155258109Y-129284649D01*
X155258167Y-129284643D01*
X155274995Y-129282818D01*
X155294646Y-129280777D01*
X155315322Y-129278696D01*
X155335229Y-129276749D01*
X155352568Y-129275113D01*
X155365544Y-129273963D01*
X155372361Y-129273476D01*
X155377136Y-129272153D01*
X155387696Y-129265415D01*
X155400528Y-129254203D01*
X155414333Y-129239902D01*
X155427810Y-129223898D01*
X155439658Y-129207574D01*
X155448579Y-129192315D01*
X155456341Y-129174211D01*
X155463496Y-129147300D01*
X155466097Y-129117662D01*
X155464452Y-129083179D01*
X155462601Y-129066831D01*
X155454146Y-129018095D01*
X155441721Y-128970653D01*
X155425880Y-128926135D01*
X155407175Y-128886166D01*
X155386156Y-128852374D01*
X155384664Y-128850328D01*
X155528910Y-128850328D01*
X155529367Y-128853018D01*
X155531786Y-128862424D01*
X155535810Y-128876375D01*
X155540905Y-128892966D01*
X155553923Y-128940110D01*
X155562138Y-128985389D01*
X155564839Y-129026972D01*
X155564839Y-129059882D01*
X155623839Y-129074533D01*
X155633304Y-129076844D01*
X155654308Y-129081691D01*
X155672706Y-129085566D01*
X155686787Y-129088121D01*
X155694839Y-129089006D01*
X155697007Y-129088939D01*
X155720404Y-129084144D01*
X155742726Y-129072726D01*
X155762143Y-129055894D01*
X155776822Y-129034859D01*
X155782065Y-129022108D01*
X155787050Y-128994906D01*
X155786280Y-128962529D01*
X155779785Y-128925192D01*
X155767594Y-128883112D01*
X155749736Y-128836503D01*
X155747707Y-128831770D01*
X155738934Y-128812219D01*
X155729019Y-128791255D01*
X155718607Y-128770116D01*
X155708339Y-128750043D01*
X155698860Y-128732273D01*
X155690811Y-128718047D01*
X155684837Y-128708602D01*
X155681579Y-128705179D01*
X155681465Y-128705193D01*
X155677478Y-128708466D01*
X155670201Y-128716362D01*
X155661122Y-128727275D01*
X155655372Y-128734235D01*
X155637171Y-128754293D01*
X155615893Y-128775654D01*
X155593548Y-128796422D01*
X155572144Y-128814703D01*
X155553691Y-128828600D01*
X155551717Y-128829957D01*
X155540128Y-128838611D01*
X155531973Y-128845887D01*
X155528910Y-128850328D01*
X155384664Y-128850328D01*
X155372445Y-128833570D01*
X155356113Y-128849420D01*
X155355780Y-128849742D01*
X155336116Y-128865974D01*
X155310555Y-128883008D01*
X155280955Y-128899859D01*
X155249174Y-128915540D01*
X155217070Y-128929066D01*
X155186501Y-128939449D01*
X155163813Y-128946045D01*
X154823315Y-128946045D01*
X154928839Y-128927244D01*
X154930863Y-128926835D01*
X154968928Y-128918994D01*
X155000025Y-128912229D01*
X155025029Y-128906282D01*
X155044814Y-128900893D01*
X155060255Y-128895803D01*
X155072229Y-128890753D01*
X155081610Y-128885484D01*
X155089272Y-128879736D01*
X155090871Y-128878391D01*
X155113452Y-128862638D01*
X155142827Y-128846785D01*
X155177902Y-128831245D01*
X155217585Y-128816428D01*
X155260783Y-128802745D01*
X155306402Y-128790608D01*
X155353349Y-128780427D01*
X155357575Y-128777571D01*
X155366356Y-128769643D01*
X155378578Y-128757624D01*
X155393262Y-128742481D01*
X155409425Y-128725179D01*
X155424572Y-128708837D01*
X155445199Y-128687535D01*
X155463740Y-128670204D01*
X155481597Y-128655977D01*
X155500169Y-128643983D01*
X155520856Y-128633354D01*
X155545059Y-128623222D01*
X155574179Y-128612717D01*
X155609614Y-128600970D01*
X155635812Y-128592411D01*
X155667710Y-128581675D01*
X155693759Y-128572389D01*
X155715045Y-128564095D01*
X155732650Y-128556339D01*
X155747660Y-128548664D01*
X155761156Y-128540615D01*
X155774225Y-128531735D01*
X155775951Y-128530491D01*
X155798400Y-128512712D01*
X155820778Y-128492287D01*
X155842326Y-128470188D01*
X155862284Y-128447384D01*
X155879889Y-128424843D01*
X155894382Y-128403535D01*
X155905002Y-128384430D01*
X155910988Y-128368496D01*
X155911580Y-128356703D01*
X155907813Y-128346955D01*
X155897114Y-128330597D01*
X155881975Y-128314330D01*
X155864118Y-128300202D01*
X155845001Y-128288748D01*
X155823170Y-128279089D01*
X155799279Y-128272440D01*
X155771390Y-128268280D01*
X155737568Y-128266087D01*
X155722596Y-128265707D01*
X155695496Y-128265980D01*
X155667613Y-128267613D01*
X155638096Y-128270758D01*
X155606097Y-128275567D01*
X155570768Y-128282189D01*
X155531258Y-128290776D01*
X155486719Y-128301479D01*
X155436302Y-128314450D01*
X155379158Y-128329838D01*
X155378063Y-128330138D01*
X155329019Y-128343483D01*
X155286660Y-128354785D01*
X155250012Y-128364237D01*
X155218102Y-128372037D01*
X155189956Y-128378378D01*
X155164601Y-128383457D01*
X155141062Y-128387469D01*
X155118365Y-128390608D01*
X155095538Y-128393071D01*
X155071607Y-128395053D01*
X155045597Y-128396749D01*
X155018579Y-128397909D01*
X154966318Y-128398090D01*
X154912748Y-128395901D01*
X154860894Y-128391495D01*
X154813784Y-128385027D01*
X154809757Y-128384333D01*
X154751327Y-128372483D01*
X154693914Y-128357303D01*
X154636620Y-128338410D01*
X154578544Y-128315420D01*
X154518788Y-128287952D01*
X154456453Y-128255620D01*
X154390638Y-128218043D01*
X154320444Y-128174836D01*
X154307815Y-128166878D01*
X154286050Y-128153413D01*
X154265443Y-128140946D01*
X154247845Y-128130593D01*
X154235112Y-128123469D01*
X154223598Y-128117552D01*
X154212653Y-128112957D01*
X154202083Y-128110444D01*
X154189097Y-128109391D01*
X154170905Y-128109179D01*
X154167340Y-128109160D01*
X154120254Y-128105984D01*
X154068900Y-128097657D01*
X154014588Y-128084621D01*
X153958627Y-128067323D01*
X153902326Y-128046206D01*
X153846994Y-128021716D01*
X153793940Y-127994295D01*
X153744472Y-127964390D01*
X153719224Y-127946280D01*
X153693219Y-127924685D01*
X153668700Y-127901552D01*
X153647033Y-127878258D01*
X153629583Y-127856178D01*
X153617716Y-127836688D01*
X153609580Y-127818440D01*
X153598180Y-127788526D01*
X153587038Y-127754775D01*
X153576917Y-127719541D01*
X153568580Y-127685179D01*
X153565066Y-127667521D01*
X153562306Y-127648954D01*
X153560547Y-127629225D01*
X153559591Y-127606059D01*
X153559242Y-127577179D01*
X153559537Y-127548980D01*
X153561309Y-127518168D01*
X153565026Y-127491767D01*
X153571095Y-127467810D01*
X153579924Y-127444330D01*
X153591921Y-127419359D01*
X153592935Y-127417433D01*
X153615038Y-127384208D01*
X153642868Y-127355864D01*
X153675673Y-127332633D01*
X153712699Y-127314747D01*
X153753196Y-127302438D01*
X153796411Y-127295937D01*
X153841591Y-127295477D01*
X153887985Y-127301290D01*
X153934839Y-127313607D01*
X153937785Y-127314604D01*
X153983052Y-127333199D01*
X154027119Y-127357157D01*
X154069148Y-127385652D01*
X154108301Y-127417859D01*
X154143740Y-127452955D01*
X154174628Y-127490113D01*
X154200125Y-127528510D01*
X154219394Y-127567320D01*
X154231597Y-127605718D01*
X154233786Y-127618293D01*
X154236236Y-127642217D01*
X154237762Y-127670804D01*
X154238362Y-127702096D01*
X154238039Y-127734136D01*
X154236792Y-127764968D01*
X154234622Y-127792635D01*
X154231530Y-127815179D01*
X154222904Y-127855746D01*
X154207262Y-127908749D01*
X154187697Y-127955413D01*
X154163993Y-127996224D01*
X154135936Y-128031670D01*
X154120758Y-128048162D01*
X154133299Y-128050670D01*
X154136369Y-128051148D01*
X154148484Y-128052187D01*
X154164887Y-128052908D01*
X154182933Y-128053179D01*
X154189282Y-128053188D01*
X154204645Y-128053535D01*
X154216389Y-128054877D01*
X154227195Y-128057881D01*
X154239747Y-128063217D01*
X154256727Y-128071551D01*
X154267979Y-128077094D01*
X154281350Y-128083402D01*
X154290677Y-128087453D01*
X154294423Y-128088551D01*
X154294443Y-128088519D01*
X154296192Y-128084140D01*
X154300029Y-128073788D01*
X154305402Y-128058966D01*
X154311761Y-128041179D01*
X154314221Y-128034362D01*
X154322712Y-128011761D01*
X154332928Y-127985545D01*
X154343797Y-127958442D01*
X154354246Y-127933179D01*
X154359473Y-127920686D01*
X154374396Y-127883441D01*
X154385742Y-127851768D01*
X154393692Y-127824543D01*
X154398423Y-127800640D01*
X154400114Y-127778936D01*
X154398943Y-127758306D01*
X154395088Y-127737625D01*
X154388728Y-127715769D01*
X154382936Y-127699480D01*
X154367854Y-127663169D01*
X154348986Y-127623509D01*
X154327326Y-127582277D01*
X154303871Y-127541251D01*
X154279615Y-127502208D01*
X154255554Y-127466925D01*
X154232685Y-127437179D01*
X154228997Y-127432827D01*
X154216563Y-127418748D01*
X154200815Y-127401480D01*
X154183397Y-127382813D01*
X154165951Y-127364537D01*
X154150220Y-127347951D01*
X154135348Y-127331131D01*
X154125856Y-127318517D01*
X154121381Y-127309523D01*
X154121560Y-127303561D01*
X154126028Y-127300043D01*
X154135000Y-127299945D01*
X154149129Y-127304712D01*
X154166994Y-127314003D01*
X154187514Y-127327337D01*
X154196998Y-127334481D01*
X154215433Y-127349986D01*
X154236041Y-127368840D01*
X154257433Y-127389636D01*
X154278216Y-127410971D01*
X154296998Y-127431437D01*
X154312387Y-127449630D01*
X154322991Y-127464144D01*
X154338839Y-127489109D01*
X154368839Y-127489120D01*
X154398987Y-127487930D01*
X154448557Y-127481735D01*
X154502409Y-127470459D01*
X154559615Y-127454345D01*
X154619245Y-127433631D01*
X154680371Y-127408557D01*
X154731163Y-127384756D01*
X154805744Y-127344552D01*
X154876560Y-127299982D01*
X154942915Y-127251603D01*
X155004114Y-127199975D01*
X155059462Y-127145656D01*
X155108265Y-127089204D01*
X155149828Y-127031179D01*
X155160389Y-127014054D01*
X155189120Y-126959367D01*
X155214886Y-126897511D01*
X155237609Y-126828711D01*
X155257212Y-126753192D01*
X155273617Y-126671179D01*
X155276410Y-126654165D01*
X155278700Y-126637307D01*
X155280366Y-126620282D01*
X155281499Y-126601522D01*
X155282192Y-126579463D01*
X155282539Y-126552537D01*
X155282632Y-126519179D01*
X155282620Y-126504058D01*
X155282473Y-126474959D01*
X155282091Y-126451846D01*
X155281382Y-126433322D01*
X155280258Y-126417990D01*
X155278629Y-126404453D01*
X155276403Y-126391315D01*
X155273492Y-126377179D01*
X155270965Y-126365982D01*
X155250854Y-126296299D01*
X155223748Y-126229510D01*
X155189509Y-126165406D01*
X155147996Y-126103775D01*
X155099070Y-126044406D01*
X155042591Y-125987088D01*
X154978420Y-125931610D01*
X154957568Y-125915198D01*
X154874906Y-125856139D01*
X154789152Y-125804070D01*
X154700679Y-125759133D01*
X154609860Y-125721470D01*
X154517069Y-125691223D01*
X154422678Y-125668535D01*
X154327061Y-125653547D01*
X154230591Y-125646403D01*
X154158343Y-125644033D01*
X154100591Y-125667063D01*
X154095445Y-125669126D01*
X154026187Y-125699131D01*
X153960305Y-125731820D01*
X153898375Y-125766776D01*
X153840971Y-125803580D01*
X153788667Y-125841815D01*
X153742038Y-125881064D01*
X153701658Y-125920907D01*
X153668102Y-125960927D01*
X153641944Y-126000706D01*
X153637216Y-126009761D01*
X153626392Y-126034831D01*
X153615063Y-126066399D01*
X153603485Y-126103470D01*
X153591913Y-126145048D01*
X153580603Y-126190138D01*
X153569811Y-126237743D01*
X153559792Y-126286867D01*
X153550803Y-126336515D01*
X153543099Y-126385690D01*
X153542705Y-126388448D01*
X153533273Y-126466489D01*
X153527531Y-126541343D01*
X153525464Y-126612352D01*
X153527056Y-126678855D01*
X153532294Y-126740193D01*
X153541161Y-126795706D01*
X153553642Y-126844735D01*
X153562907Y-126874291D01*
X153603847Y-126887241D01*
X153604928Y-126887584D01*
X153643571Y-126901915D01*
X153683776Y-126920414D01*
X153724211Y-126942209D01*
X153763545Y-126966430D01*
X153800444Y-126992204D01*
X153833577Y-127018658D01*
X153861613Y-127044921D01*
X153883218Y-127070121D01*
X153885572Y-127073379D01*
X153895849Y-127090017D01*
X153899998Y-127101886D01*
X153898363Y-127108863D01*
X153891287Y-127110824D01*
X153879112Y-127107645D01*
X153862182Y-127099204D01*
X153840839Y-127085376D01*
X153819240Y-127070212D01*
X153771644Y-127037705D01*
X153728788Y-127009989D01*
X153689807Y-126986686D01*
X153653837Y-126967416D01*
X153620013Y-126951801D01*
X153587471Y-126939461D01*
X153555347Y-126930019D01*
X153522777Y-126923093D01*
X153488896Y-126918307D01*
X153452839Y-126915281D01*
X153410839Y-126912731D01*
X153446678Y-126929119D01*
X153460309Y-126935602D01*
X153479983Y-126946008D01*
X153495322Y-126955507D01*
X153505287Y-126963431D01*
X153508839Y-126969113D01*
X153507463Y-126972177D01*
X153499144Y-126975137D01*
X153483318Y-126975459D01*
X153460013Y-126973140D01*
X153459947Y-126973131D01*
X153429254Y-126968219D01*
X153398838Y-126961617D01*
X153366857Y-126952820D01*
X153331471Y-126941323D01*
X153290839Y-126926618D01*
X153249296Y-126911562D01*
X153193699Y-126893522D01*
X153142925Y-126879880D01*
X153095998Y-126870449D01*
X153051944Y-126865046D01*
X153009788Y-126863487D01*
X152968555Y-126865586D01*
X152944053Y-126868545D01*
X152910962Y-126875003D01*
X152878508Y-126884597D01*
X152845445Y-126897846D01*
X152810529Y-126915265D01*
X152772514Y-126937374D01*
X152730156Y-126964690D01*
X152716015Y-126974054D01*
X152693826Y-126988389D01*
X152672639Y-127001687D01*
X152654321Y-127012786D01*
X152640733Y-127020520D01*
X152618013Y-127031611D01*
X152591478Y-127042019D01*
X152566689Y-127049123D01*
X152544884Y-127052654D01*
X152527298Y-127052341D01*
X152515169Y-127047914D01*
X152515081Y-127047849D01*
X152510062Y-127042729D01*
X152509450Y-127037321D01*
X152513834Y-127031052D01*
X152523801Y-127023346D01*
X152539940Y-127013628D01*
X152562839Y-127001322D01*
X152569376Y-126997886D01*
X152588439Y-126987502D01*
X152605202Y-126977860D01*
X152618050Y-126969911D01*
X152625365Y-126964604D01*
X152631594Y-126956174D01*
X152639117Y-126940733D01*
X152646933Y-126920168D01*
X152654548Y-126895928D01*
X152661468Y-126869461D01*
X152667197Y-126842214D01*
X152667775Y-126838905D01*
X152671006Y-126814019D01*
X152673500Y-126783535D01*
X152675204Y-126749501D01*
X152676065Y-126713965D01*
X152676029Y-126678973D01*
X152675041Y-126646575D01*
X152673049Y-126618817D01*
X152667408Y-126572134D01*
X152649983Y-126474883D01*
X152625145Y-126377978D01*
X152593248Y-126282318D01*
X152554648Y-126188806D01*
X152509698Y-126098343D01*
X152458753Y-126011830D01*
X152402167Y-125930170D01*
X152388938Y-125913220D01*
X152365538Y-125885335D01*
X152339182Y-125855865D01*
X152311403Y-125826420D01*
X152283735Y-125798611D01*
X152257709Y-125774049D01*
X152234859Y-125754344D01*
X152190267Y-125720770D01*
X152130519Y-125681584D01*
X152065764Y-125644623D01*
X151997623Y-125610740D01*
X151927718Y-125580791D01*
X151857670Y-125555630D01*
X151842601Y-125550900D01*
X151811636Y-125541871D01*
X151778610Y-125532995D01*
X151744911Y-125524588D01*
X151711925Y-125516962D01*
X151681038Y-125510433D01*
X151653637Y-125505316D01*
X151631109Y-125501923D01*
X151614839Y-125500571D01*
X151606289Y-125500883D01*
X151584549Y-125503988D01*
X151557106Y-125510114D01*
X151524938Y-125518922D01*
X151489022Y-125530074D01*
X151450337Y-125543230D01*
X151409861Y-125558050D01*
X151368571Y-125574197D01*
X151327445Y-125591330D01*
X151287461Y-125609112D01*
X151249597Y-125627203D01*
X151186595Y-125660090D01*
X151105119Y-125707841D01*
X151029908Y-125758278D01*
X150961149Y-125811203D01*
X150899028Y-125866418D01*
X150843734Y-125923724D01*
X150795453Y-125982923D01*
X150754373Y-126043816D01*
X150720680Y-126106207D01*
X150694562Y-126169895D01*
X150676206Y-126234684D01*
X150671854Y-126259686D01*
X150668190Y-126293296D01*
X150665669Y-126332115D01*
X150664296Y-126374729D01*
X150664076Y-126419721D01*
X150363060Y-126419721D01*
X150363021Y-126389179D01*
X150363167Y-126353825D01*
X150363785Y-126312623D01*
X150365030Y-126276800D01*
X150367062Y-126244862D01*
X150370037Y-126215315D01*
X150374115Y-126186667D01*
X150379452Y-126157423D01*
X150386207Y-126126092D01*
X150394538Y-126091179D01*
X150407359Y-126043227D01*
X150435993Y-125956862D01*
X150470393Y-125876037D01*
X150510558Y-125800755D01*
X150556483Y-125731019D01*
X150608167Y-125666833D01*
X150665608Y-125608200D01*
X150728803Y-125555123D01*
X150797748Y-125507605D01*
X150872443Y-125465650D01*
X150938356Y-125434845D01*
X151011551Y-125406520D01*
X151086374Y-125383840D01*
X151163814Y-125366586D01*
X151244860Y-125354543D01*
X151330501Y-125347494D01*
X151421726Y-125345221D01*
X151456463Y-125345534D01*
X151537757Y-125348919D01*
X151615453Y-125356296D01*
X151691940Y-125368001D01*
X151769605Y-125384371D01*
X151850839Y-125405743D01*
X151909453Y-125423976D01*
X151994288Y-125455452D01*
X152077281Y-125492150D01*
X152156983Y-125533360D01*
X152231946Y-125578371D01*
X152300719Y-125626472D01*
X152314341Y-125637204D01*
X152340278Y-125659247D01*
X152368653Y-125684974D01*
X152397827Y-125712809D01*
X152426164Y-125741173D01*
X152452024Y-125768489D01*
X152473771Y-125793179D01*
X152479981Y-125800648D01*
X152541124Y-125880697D01*
X152597366Y-125966459D01*
X152648298Y-126057084D01*
X152693509Y-126151719D01*
X152732589Y-126249514D01*
X152765129Y-126349618D01*
X152790717Y-126451179D01*
X152792709Y-126460515D01*
X152802010Y-126507526D01*
X152808996Y-126550321D01*
X152814016Y-126591687D01*
X152817421Y-126634415D01*
X152819559Y-126681293D01*
X152821969Y-126755408D01*
X152848404Y-126746817D01*
X152863048Y-126742290D01*
X152891863Y-126734958D01*
X152921114Y-126729905D01*
X152952658Y-126726922D01*
X152988355Y-126725798D01*
X153030062Y-126726325D01*
X153035363Y-126726480D01*
X153066210Y-126727658D01*
X153091480Y-126729260D01*
X153113274Y-126731495D01*
X153133693Y-126734571D01*
X153154839Y-126738697D01*
X153157215Y-126739208D01*
X153179411Y-126744441D01*
X153205188Y-126751139D01*
X153232269Y-126758656D01*
X153258378Y-126766342D01*
X153281238Y-126773549D01*
X153298574Y-126779630D01*
X153300092Y-126778974D01*
X153300079Y-126772887D01*
X153297521Y-126760311D01*
X153292333Y-126740726D01*
X153285973Y-126717192D01*
X153266642Y-126630252D01*
X153253566Y-126542949D01*
X153246653Y-126455864D01*
X153245808Y-126369583D01*
X153250939Y-126284688D01*
X153261951Y-126201764D01*
X153278752Y-126121393D01*
X153301249Y-126044159D01*
X153329347Y-125970646D01*
X153362954Y-125901438D01*
X153401977Y-125837117D01*
X153446321Y-125778268D01*
X153452800Y-125770677D01*
X153488608Y-125732917D01*
X153527543Y-125698903D01*
X153570577Y-125667990D01*
X153618680Y-125639534D01*
X153672824Y-125612892D01*
X153733980Y-125587418D01*
X153738144Y-125585819D01*
X153827970Y-125555699D01*
X153921031Y-125532514D01*
X154016525Y-125516312D01*
X154113652Y-125507141D01*
X154211612Y-125505048D01*
X154309602Y-125510081D01*
X154406823Y-125522287D01*
X154502474Y-125541714D01*
X154562216Y-125557705D01*
X154659170Y-125589814D01*
X154753856Y-125628791D01*
X154845539Y-125674226D01*
X154933486Y-125725712D01*
X155016962Y-125782838D01*
X155095234Y-125845196D01*
X155167568Y-125912377D01*
X155210765Y-125958390D01*
X155263245Y-126023137D01*
X155308297Y-126090265D01*
X155345949Y-126159898D01*
X155376232Y-126232160D01*
X155399175Y-126307175D01*
X155414807Y-126385067D01*
X155423159Y-126465961D01*
X155424260Y-126549981D01*
X155418140Y-126637252D01*
X155404827Y-126727896D01*
X155384353Y-126822040D01*
X155371687Y-126869483D01*
X155350026Y-126938037D01*
X155325516Y-127000766D01*
X155297489Y-127058878D01*
X155265276Y-127113582D01*
X155228210Y-127166084D01*
X155185620Y-127217595D01*
X155136839Y-127269321D01*
X155103542Y-127301722D01*
X155060489Y-127340290D01*
X155016476Y-127375669D01*
X154968839Y-127410086D01*
X154915086Y-127445269D01*
X154841591Y-127487963D01*
X154766281Y-127525937D01*
X154690493Y-127558577D01*
X154615566Y-127585269D01*
X154542839Y-127605400D01*
X154530660Y-127608261D01*
X154516082Y-127611723D01*
X154505938Y-127614182D01*
X154501907Y-127615232D01*
X154501944Y-127615862D01*
X154503819Y-127621940D01*
X154507775Y-127633048D01*
X154513200Y-127647445D01*
X154523263Y-127675380D01*
X154532519Y-127707179D01*
X154538459Y-127737687D01*
X154540987Y-127767924D01*
X154540002Y-127798908D01*
X154535406Y-127831661D01*
X154527100Y-127867202D01*
X154514986Y-127906549D01*
X154498963Y-127950723D01*
X154478934Y-128000744D01*
X154478854Y-128000936D01*
X154469553Y-128023513D01*
X154461213Y-128043972D01*
X154454364Y-128060995D01*
X154449536Y-128073266D01*
X154447258Y-128079471D01*
X154447045Y-128080276D01*
X154447265Y-128084229D01*
X154450414Y-128088571D01*
X154457529Y-128094138D01*
X154469644Y-128101769D01*
X154487795Y-128112304D01*
X154566520Y-128153971D01*
X154647887Y-128190043D01*
X154728479Y-128218488D01*
X154808645Y-128239429D01*
X154888735Y-128252989D01*
X154890597Y-128253212D01*
X154915065Y-128255241D01*
X154945079Y-128256481D01*
X154978424Y-128256948D01*
X155012886Y-128256657D01*
X155046252Y-128255627D01*
X155076308Y-128253873D01*
X155100839Y-128251411D01*
X155115665Y-128249245D01*
X155145403Y-128243948D01*
X155179359Y-128236746D01*
X155218364Y-128227445D01*
X155263247Y-128215853D01*
X155314839Y-128201777D01*
X155372216Y-128186051D01*
X155427147Y-128171636D01*
X155476227Y-128159551D01*
X155520332Y-128149625D01*
X155560336Y-128141684D01*
X155597114Y-128135556D01*
X155631540Y-128131067D01*
X155664490Y-128128045D01*
X155696839Y-128126317D01*
X155724585Y-128125705D01*
X155764673Y-128126574D01*
X155800246Y-128129941D01*
X155833279Y-128136026D01*
X155865750Y-128145048D01*
X155890324Y-128154154D01*
X155929160Y-128173862D01*
X155964136Y-128198366D01*
X155994429Y-128226843D01*
X156019218Y-128258475D01*
X156037680Y-128292441D01*
X156048994Y-128327921D01*
X156051270Y-128343148D01*
X156052000Y-128356703D01*
X156052724Y-128370148D01*
G37*
G36*
X156400117Y-132093483D02*
G01*
X156416973Y-132095131D01*
X156431249Y-132097907D01*
X156441141Y-132101414D01*
X156444839Y-132105255D01*
X156442387Y-132107596D01*
X156434047Y-132111393D01*
X156421839Y-132115361D01*
X156395784Y-132122953D01*
X156359970Y-132134978D01*
X156330755Y-132147263D01*
X156307287Y-132160308D01*
X156288716Y-132174614D01*
X156274188Y-132190684D01*
X156262855Y-132209018D01*
X156259480Y-132215219D01*
X156247905Y-132231385D01*
X156232391Y-132245943D01*
X156211056Y-132260774D01*
X156209303Y-132261863D01*
X156193290Y-132270474D01*
X156182760Y-132273311D01*
X156177751Y-132270455D01*
X156178300Y-132261988D01*
X156184446Y-132247994D01*
X156196226Y-132228553D01*
X156197935Y-132225958D01*
X156209039Y-132208930D01*
X156219992Y-132191889D01*
X156228649Y-132178169D01*
X156229911Y-132176164D01*
X156252991Y-132147201D01*
X156281208Y-132124073D01*
X156313898Y-132107131D01*
X156350396Y-132096723D01*
X156390036Y-132093201D01*
X156400117Y-132093483D01*
G37*
G36*
X153503128Y-130609727D02*
G01*
X153520038Y-130615971D01*
X153541687Y-130626276D01*
X153567142Y-130640155D01*
X153595469Y-130657118D01*
X153625735Y-130676677D01*
X153641845Y-130687582D01*
X153672486Y-130709014D01*
X153701300Y-130730043D01*
X153727592Y-130750104D01*
X153750664Y-130768629D01*
X153769822Y-130785051D01*
X153784367Y-130798803D01*
X153793605Y-130809317D01*
X153796839Y-130816028D01*
X153796802Y-130817163D01*
X153796051Y-130819681D01*
X153793852Y-130820559D01*
X153789571Y-130819418D01*
X153782579Y-130815880D01*
X153772244Y-130809569D01*
X153757933Y-130800105D01*
X153739017Y-130787112D01*
X153714863Y-130770211D01*
X153684839Y-130749025D01*
X153680307Y-130745830D01*
X153652981Y-130726921D01*
X153623656Y-130707130D01*
X153594446Y-130687857D01*
X153567469Y-130670501D01*
X153544839Y-130656460D01*
X153536550Y-130651425D01*
X153513032Y-130636608D01*
X153496404Y-130625095D01*
X153486454Y-130616684D01*
X153482972Y-130611171D01*
X153485749Y-130608355D01*
X153494574Y-130608032D01*
X153503128Y-130609727D01*
G37*
G36*
X153275493Y-130544334D02*
G01*
X153296148Y-130549137D01*
X153319706Y-130560210D01*
X153345052Y-130576919D01*
X153371071Y-130598633D01*
X153379422Y-130606519D01*
X153396566Y-130623706D01*
X153412782Y-130641165D01*
X153427093Y-130657740D01*
X153438524Y-130672278D01*
X153446098Y-130683624D01*
X153448839Y-130690624D01*
X153448355Y-130693897D01*
X153445241Y-130697179D01*
X153441820Y-130695035D01*
X153433348Y-130688279D01*
X153420922Y-130677745D01*
X153405549Y-130664292D01*
X153388241Y-130648777D01*
X153381139Y-130642366D01*
X153353743Y-130618270D01*
X153330407Y-130598990D01*
X153310014Y-130583673D01*
X153291443Y-130571469D01*
X153273578Y-130561527D01*
X153271190Y-130560273D01*
X153261122Y-130553345D01*
X153258484Y-130547971D01*
X153263217Y-130544759D01*
X153275261Y-130544317D01*
X153275493Y-130544334D01*
G37*
G36*
X153027223Y-130478044D02*
G01*
X153040070Y-130480052D01*
X153054519Y-130484428D01*
X153072239Y-130491803D01*
X153094975Y-130502817D01*
X153111996Y-130511875D01*
X153132176Y-130523816D01*
X153149936Y-130535601D01*
X153164091Y-130546381D01*
X153173455Y-130555303D01*
X153176839Y-130561518D01*
X153175359Y-130564388D01*
X153170305Y-130564677D01*
X153160998Y-130562019D01*
X153146760Y-130556168D01*
X153126912Y-130546878D01*
X153100776Y-130533903D01*
X153085621Y-130526304D01*
X153064597Y-130515936D01*
X153045892Y-130506905D01*
X153031106Y-130499981D01*
X153021839Y-130495935D01*
X153018462Y-130494508D01*
X153008509Y-130488503D01*
X153004839Y-130482716D01*
X153005004Y-130480988D01*
X153007466Y-130478187D01*
X153014279Y-130477330D01*
X153027223Y-130478044D01*
G37*
G36*
X152856806Y-130419670D02*
G01*
X152863113Y-130421297D01*
X152877798Y-130426209D01*
X152895281Y-130433035D01*
X152914095Y-130441089D01*
X152932775Y-130449687D01*
X152949855Y-130458143D01*
X152963869Y-130465771D01*
X152973353Y-130471887D01*
X152976839Y-130475804D01*
X152976521Y-130477847D01*
X152973319Y-130480440D01*
X152965796Y-130480557D01*
X152952880Y-130478130D01*
X152933499Y-130473092D01*
X152924438Y-130470304D01*
X152907395Y-130464073D01*
X152889112Y-130456481D01*
X152871341Y-130448344D01*
X152855836Y-130440479D01*
X152844348Y-130433705D01*
X152838630Y-130428839D01*
X152837897Y-130427161D01*
X152839762Y-130422185D01*
X152846791Y-130419322D01*
X152856806Y-130419670D01*
G37*
G36*
X152364374Y-128676205D02*
G01*
X152376524Y-128684868D01*
X152390815Y-128698179D01*
X152407928Y-128717240D01*
X152422333Y-128737293D01*
X152434849Y-128760097D01*
X152447080Y-128788223D01*
X152450283Y-128795952D01*
X152458297Y-128814081D01*
X152467792Y-128834506D01*
X152477337Y-128854106D01*
X152483659Y-128867064D01*
X152490476Y-128881970D01*
X152495122Y-128893293D01*
X152496839Y-128899276D01*
X152496738Y-128900434D01*
X152494809Y-128908895D01*
X152490841Y-128922797D01*
X152485370Y-128940511D01*
X152478929Y-128960406D01*
X152472055Y-128980851D01*
X152465284Y-129000215D01*
X152459150Y-129016868D01*
X152454189Y-129029179D01*
X152449520Y-129038904D01*
X152443088Y-129049913D01*
X152437919Y-129056193D01*
X152437566Y-129056456D01*
X152431599Y-129059067D01*
X152427949Y-129056253D01*
X152426639Y-129047648D01*
X152427696Y-129032889D01*
X152431143Y-129011612D01*
X152437007Y-128983452D01*
X152445310Y-128948045D01*
X152456786Y-128900912D01*
X152439160Y-128865817D01*
X152436659Y-128860768D01*
X152426754Y-128839770D01*
X152417023Y-128817829D01*
X152409255Y-128798950D01*
X152404464Y-128787509D01*
X152395088Y-128767488D01*
X152384067Y-128745830D01*
X152372908Y-128725574D01*
X152363666Y-128709182D01*
X152355962Y-128694707D01*
X152350753Y-128683984D01*
X152348839Y-128678574D01*
X152349864Y-128674394D01*
X152355207Y-128672582D01*
X152364374Y-128676205D01*
G37*
G36*
X154175818Y-128190135D02*
G01*
X154196368Y-128192562D01*
X154218764Y-128196770D01*
X154241377Y-128202605D01*
X154274105Y-128213563D01*
X154315685Y-128230290D01*
X154359022Y-128250320D01*
X154402528Y-128272784D01*
X154444616Y-128296814D01*
X154483699Y-128321540D01*
X154518188Y-128346093D01*
X154546496Y-128369605D01*
X154547625Y-128370644D01*
X154557744Y-128380396D01*
X154562865Y-128386960D01*
X154564004Y-128392166D01*
X154562175Y-128397844D01*
X154561965Y-128398284D01*
X154554134Y-128407172D01*
X154539982Y-128416685D01*
X154520988Y-128426084D01*
X154498627Y-128434635D01*
X154474379Y-128441599D01*
X154465419Y-128443666D01*
X154448706Y-128446789D01*
X154432610Y-128448412D01*
X154414274Y-128448757D01*
X154390839Y-128448044D01*
X154373401Y-128447537D01*
X154352298Y-128447516D01*
X154333897Y-128448110D01*
X154320839Y-128449272D01*
X154308952Y-128450449D01*
X154287653Y-128451164D01*
X154261556Y-128450992D01*
X154232443Y-128449999D01*
X154202098Y-128448251D01*
X154172302Y-128445815D01*
X154144839Y-128442755D01*
X154133206Y-128441246D01*
X154106162Y-128437773D01*
X154078062Y-128434202D01*
X154053398Y-128431104D01*
X154038640Y-128429159D01*
X154021511Y-128426307D01*
X154008848Y-128423046D01*
X153998532Y-128418783D01*
X153988447Y-128412927D01*
X153974530Y-128402746D01*
X153952484Y-128381991D01*
X153932828Y-128358175D01*
X153918133Y-128334178D01*
X153912053Y-128318892D01*
X153907376Y-128298262D01*
X153906226Y-128278333D01*
X153908687Y-128261222D01*
X153914839Y-128249046D01*
X153924994Y-128240348D01*
X153939132Y-128233780D01*
X153957195Y-128230095D01*
X153979765Y-128229311D01*
X154007424Y-128231446D01*
X154040755Y-128236516D01*
X154080342Y-128244541D01*
X154126766Y-128255538D01*
X154134068Y-128257363D01*
X154154167Y-128262416D01*
X154171422Y-128266794D01*
X154184193Y-128270081D01*
X154190839Y-128271857D01*
X154191633Y-128270661D01*
X154187713Y-128265012D01*
X154179509Y-128255767D01*
X154167839Y-128243920D01*
X154152989Y-128228765D01*
X154142639Y-128216170D01*
X154137804Y-128206644D01*
X154138034Y-128199274D01*
X154142880Y-128193145D01*
X154146769Y-128191255D01*
X154158742Y-128189647D01*
X154175818Y-128190135D01*
G37*
G36*
X153006873Y-127351464D02*
G01*
X153050297Y-127360554D01*
X153100765Y-127374608D01*
X153147590Y-127389909D01*
X153189284Y-127405955D01*
X153225132Y-127422449D01*
X153254421Y-127439089D01*
X153276437Y-127455576D01*
X153280092Y-127458945D01*
X153288574Y-127467767D01*
X153296313Y-127477851D01*
X153304288Y-127490716D01*
X153313477Y-127507883D01*
X153324857Y-127530875D01*
X153333478Y-127549047D01*
X153358387Y-127606494D01*
X153380075Y-127664271D01*
X153398311Y-127721421D01*
X153412863Y-127776986D01*
X153423500Y-127830010D01*
X153429991Y-127879535D01*
X153432105Y-127924605D01*
X153429609Y-127964262D01*
X153420270Y-128010046D01*
X153403432Y-128058044D01*
X153380251Y-128103453D01*
X153351415Y-128145134D01*
X153317612Y-128181946D01*
X153279533Y-128212748D01*
X153245189Y-128232956D01*
X153203159Y-128251168D01*
X153158269Y-128264829D01*
X153112906Y-128273074D01*
X153077852Y-128275638D01*
X153023662Y-128274486D01*
X152966804Y-128267775D01*
X152908885Y-128255716D01*
X152851512Y-128238524D01*
X152811496Y-128223047D01*
X152758817Y-128196874D01*
X152712819Y-128166361D01*
X152673428Y-128131428D01*
X152640572Y-128091996D01*
X152614176Y-128047986D01*
X152594169Y-127999320D01*
X152580477Y-127945917D01*
X152578558Y-127929788D01*
X152577586Y-127906877D01*
X152577617Y-127879627D01*
X152578591Y-127849874D01*
X152580446Y-127819451D01*
X152583121Y-127790191D01*
X152586555Y-127763930D01*
X152594481Y-127718802D01*
X152607156Y-127661455D01*
X152621969Y-127608166D01*
X152638662Y-127559588D01*
X152656982Y-127516375D01*
X152676671Y-127479180D01*
X152697473Y-127448656D01*
X152719134Y-127425456D01*
X152720951Y-127423908D01*
X152738484Y-127411710D01*
X152762040Y-127398809D01*
X152790024Y-127386010D01*
X152820839Y-127374119D01*
X152839667Y-127367775D01*
X152884220Y-127355576D01*
X152925697Y-127348865D01*
X152965960Y-127347531D01*
X153006873Y-127351464D01*
G37*
G36*
X152966890Y-127125921D02*
G01*
X152969588Y-127128426D01*
X152982625Y-127142341D01*
X152988678Y-127152535D01*
X152987976Y-127158719D01*
X152980748Y-127160603D01*
X152967222Y-127157898D01*
X152947628Y-127150313D01*
X152937358Y-127146005D01*
X152926332Y-127142784D01*
X152921881Y-127144054D01*
X152920876Y-127146198D01*
X152916072Y-127154070D01*
X152909073Y-127164222D01*
X152905739Y-127168627D01*
X152899486Y-127175106D01*
X152891675Y-127179930D01*
X152880221Y-127184227D01*
X152863040Y-127189125D01*
X152828281Y-127198466D01*
X152840121Y-127210306D01*
X152851961Y-127222146D01*
X152908770Y-127201484D01*
X152918183Y-127198090D01*
X152947489Y-127187931D01*
X152973841Y-127179405D01*
X152996340Y-127172767D01*
X153014086Y-127168270D01*
X153026177Y-127166170D01*
X153031715Y-127166721D01*
X153032766Y-127168331D01*
X153030822Y-127174697D01*
X153021268Y-127183412D01*
X153004100Y-127194479D01*
X152979310Y-127207902D01*
X152946892Y-127223686D01*
X152906839Y-127241834D01*
X152900876Y-127244434D01*
X152881695Y-127252437D01*
X152864870Y-127258933D01*
X152852039Y-127263313D01*
X152844839Y-127264964D01*
X152842309Y-127264748D01*
X152834555Y-127261281D01*
X152824432Y-127252941D01*
X152810839Y-127238883D01*
X152786839Y-127212583D01*
X152755920Y-127226965D01*
X152750687Y-127229372D01*
X152728652Y-127238681D01*
X152713100Y-127243608D01*
X152703879Y-127244189D01*
X152700839Y-127240463D01*
X152701122Y-127238611D01*
X152706135Y-127230508D01*
X152717573Y-127219213D01*
X152735646Y-127204534D01*
X152760566Y-127186280D01*
X152760407Y-127185135D01*
X152756526Y-127179679D01*
X152749198Y-127171549D01*
X152736104Y-127158039D01*
X152705680Y-127172095D01*
X152685479Y-127180721D01*
X152665945Y-127187170D01*
X152652572Y-127189312D01*
X152645608Y-127187478D01*
X152645303Y-127182002D01*
X152651907Y-127173214D01*
X152665669Y-127161448D01*
X152686839Y-127147034D01*
X152687759Y-127146459D01*
X152699613Y-127139003D01*
X152700857Y-127138213D01*
X152772273Y-127138213D01*
X152785556Y-127152652D01*
X152790158Y-127157685D01*
X152796395Y-127164643D01*
X152798839Y-127167587D01*
X152799382Y-127167537D01*
X152805032Y-127165947D01*
X152814839Y-127162835D01*
X152821582Y-127160684D01*
X152837176Y-127155939D01*
X152853001Y-127151342D01*
X152865205Y-127147269D01*
X152875537Y-127141245D01*
X152882440Y-127132778D01*
X152883416Y-127131041D01*
X152886732Y-127122521D01*
X152886279Y-127117526D01*
X152882934Y-127114832D01*
X152873412Y-127107850D01*
X152861992Y-127100008D01*
X152850769Y-127092693D01*
X152841841Y-127087288D01*
X152837305Y-127085179D01*
X152835870Y-127085760D01*
X152830178Y-127090853D01*
X152822878Y-127099484D01*
X152817816Y-127105248D01*
X152805537Y-127116354D01*
X152792120Y-127126002D01*
X152772273Y-127138213D01*
X152700857Y-127138213D01*
X152708343Y-127133457D01*
X152712117Y-127130982D01*
X152712145Y-127130705D01*
X152709629Y-127126043D01*
X152703598Y-127116977D01*
X152695117Y-127105127D01*
X152690598Y-127098705D01*
X152681930Y-127083932D01*
X152677398Y-127072022D01*
X152677327Y-127064072D01*
X152682043Y-127061179D01*
X152684183Y-127061919D01*
X152691901Y-127066748D01*
X152703122Y-127075082D01*
X152716228Y-127085755D01*
X152718194Y-127087421D01*
X152731136Y-127098184D01*
X152739799Y-127104546D01*
X152745747Y-127107260D01*
X152750547Y-127107079D01*
X152755767Y-127104755D01*
X152763201Y-127099875D01*
X152774539Y-127091016D01*
X152786582Y-127080539D01*
X152806839Y-127061899D01*
X152781839Y-127039203D01*
X152776841Y-127034591D01*
X152764135Y-127021694D01*
X152758111Y-127013177D01*
X152758750Y-127009058D01*
X152766032Y-127009354D01*
X152779937Y-127014081D01*
X152800444Y-127023258D01*
X152829822Y-127037337D01*
X152847779Y-127022258D01*
X152856626Y-127014874D01*
X152869439Y-127004526D01*
X152878574Y-126997870D01*
X152885539Y-126993851D01*
X152891839Y-126991416D01*
X152896118Y-126990574D01*
X152900584Y-126992950D01*
X152899564Y-127000481D01*
X152893151Y-127012812D01*
X152881444Y-127029592D01*
X152862048Y-127055165D01*
X152886444Y-127070026D01*
X152910839Y-127084886D01*
X152918062Y-127076032D01*
X152918532Y-127075457D01*
X152932456Y-127058506D01*
X152942440Y-127046807D01*
X152949507Y-127039393D01*
X152954685Y-127035295D01*
X152958998Y-127033546D01*
X152963472Y-127033179D01*
X152968672Y-127033483D01*
X152972095Y-127036310D01*
X152971056Y-127044179D01*
X152968309Y-127052659D01*
X152963083Y-127065918D01*
X152956673Y-127080519D01*
X152944941Y-127105860D01*
X152963170Y-127122521D01*
X152966890Y-127125921D01*
G37*
G36*
X154075267Y-126084585D02*
G01*
X154074608Y-126090186D01*
X154073342Y-126106932D01*
X154072839Y-126123459D01*
X154072910Y-126130182D01*
X154073817Y-126139653D01*
X154076421Y-126144198D01*
X154081526Y-126145900D01*
X154085837Y-126146877D01*
X154091037Y-126151248D01*
X154089443Y-126158916D01*
X154081047Y-126170330D01*
X154077011Y-126175243D01*
X154070602Y-126187073D01*
X154068839Y-126200783D01*
X154068866Y-126205148D01*
X154069645Y-126213201D01*
X154072521Y-126215796D01*
X154078839Y-126214821D01*
X154085331Y-126214426D01*
X154088763Y-126218852D01*
X154086583Y-126228891D01*
X154078791Y-126244587D01*
X154077045Y-126247679D01*
X154076964Y-126247822D01*
X154074303Y-126253113D01*
X154072297Y-126258776D01*
X154070854Y-126265900D01*
X154069882Y-126275576D01*
X154069287Y-126288893D01*
X154068976Y-126306940D01*
X154068858Y-126330808D01*
X154068839Y-126361587D01*
X154068756Y-126383540D01*
X154068436Y-126408628D01*
X154067910Y-126430009D01*
X154067214Y-126446610D01*
X154066385Y-126457357D01*
X154065459Y-126461179D01*
X154062504Y-126460575D01*
X154055209Y-126453702D01*
X154048451Y-126439617D01*
X154042409Y-126418884D01*
X154037261Y-126392064D01*
X154033188Y-126359722D01*
X154032029Y-126348642D01*
X154030257Y-126333674D01*
X154028738Y-126323104D01*
X154027710Y-126318716D01*
X154027225Y-126318868D01*
X154022777Y-126323080D01*
X154014567Y-126332077D01*
X154003544Y-126344797D01*
X153990660Y-126360173D01*
X153955159Y-126403179D01*
X153956317Y-126463215D01*
X153956461Y-126472379D01*
X153956531Y-126493748D01*
X153956240Y-126512336D01*
X153955624Y-126526404D01*
X153954724Y-126534215D01*
X153951247Y-126541746D01*
X153946202Y-126545179D01*
X153942262Y-126543632D01*
X153936301Y-126535115D01*
X153930437Y-126519033D01*
X153924623Y-126495240D01*
X153918808Y-126463592D01*
X153916257Y-126448005D01*
X153893548Y-126470137D01*
X153888425Y-126475046D01*
X153872251Y-126489222D01*
X153859576Y-126498104D01*
X153851102Y-126501179D01*
X153849318Y-126500113D01*
X153848985Y-126493981D01*
X153851809Y-126484279D01*
X153857307Y-126473179D01*
X153860684Y-126467891D01*
X153868985Y-126455722D01*
X153879680Y-126440629D01*
X153891292Y-126424719D01*
X153916839Y-126390259D01*
X153916839Y-126336088D01*
X153954991Y-126336088D01*
X153955060Y-126340276D01*
X153955214Y-126340273D01*
X153958686Y-126336963D01*
X153965694Y-126329157D01*
X153974953Y-126318276D01*
X153985890Y-126305462D01*
X153999693Y-126289870D01*
X154011730Y-126276830D01*
X154014702Y-126273708D01*
X154022967Y-126264320D01*
X154027147Y-126256690D01*
X154028440Y-126247679D01*
X154028047Y-126234148D01*
X154026839Y-126209815D01*
X153992839Y-126230907D01*
X153958839Y-126251999D01*
X153956629Y-126295589D01*
X153955918Y-126310440D01*
X153955296Y-126325585D01*
X153954991Y-126336088D01*
X153916839Y-126336088D01*
X153916839Y-126335719D01*
X153916826Y-126329707D01*
X153916593Y-126310651D01*
X153916115Y-126295244D01*
X153915449Y-126284937D01*
X153914653Y-126281179D01*
X153913481Y-126281587D01*
X153906674Y-126285004D01*
X153895425Y-126291140D01*
X153881424Y-126299084D01*
X153878878Y-126300542D01*
X153857248Y-126312079D01*
X153837573Y-126321138D01*
X153821415Y-126327058D01*
X153810337Y-126329179D01*
X153809214Y-126329118D01*
X153804957Y-126325939D01*
X153805910Y-126318998D01*
X153811524Y-126309777D01*
X153821249Y-126299756D01*
X153829844Y-126292938D01*
X153844084Y-126282474D01*
X153861163Y-126270484D01*
X153879018Y-126258444D01*
X153920378Y-126231179D01*
X153921326Y-126191120D01*
X153957718Y-126191120D01*
X153958210Y-126201181D01*
X153959360Y-126204737D01*
X153961554Y-126203855D01*
X153969468Y-126199799D01*
X153981154Y-126193430D01*
X153994703Y-126185824D01*
X154008208Y-126178055D01*
X154019761Y-126171201D01*
X154027452Y-126166337D01*
X154028761Y-126164182D01*
X154031054Y-126155061D01*
X154033149Y-126140504D01*
X154034776Y-126122137D01*
X154037487Y-126081096D01*
X154002163Y-126093682D01*
X153993715Y-126096736D01*
X153979360Y-126102147D01*
X153968918Y-126106384D01*
X153964211Y-126108724D01*
X153963005Y-126113156D01*
X153961545Y-126124006D01*
X153960059Y-126139570D01*
X153958731Y-126158179D01*
X153957901Y-126176021D01*
X153957718Y-126191120D01*
X153921326Y-126191120D01*
X153921609Y-126179179D01*
X153921693Y-126175549D01*
X153922076Y-126156502D01*
X153922294Y-126140845D01*
X153922332Y-126130114D01*
X153922172Y-126125844D01*
X153919948Y-126125695D01*
X153912119Y-126128513D01*
X153900247Y-126134116D01*
X153885948Y-126141679D01*
X153870836Y-126150378D01*
X153856525Y-126159387D01*
X153852160Y-126162225D01*
X153839565Y-126169666D01*
X153829872Y-126174297D01*
X153824895Y-126175213D01*
X153822230Y-126170955D01*
X153820839Y-126162169D01*
X153821475Y-126158276D01*
X153827547Y-126147152D01*
X153839021Y-126134186D01*
X153854639Y-126120532D01*
X153873139Y-126107345D01*
X153893263Y-126095781D01*
X153923687Y-126080405D01*
X153928172Y-126031650D01*
X153930530Y-126008967D01*
X153933902Y-125985641D01*
X153937664Y-125969532D01*
X153941927Y-125960193D01*
X153946803Y-125957179D01*
X153948775Y-125957431D01*
X153952201Y-125960033D01*
X153954778Y-125966329D01*
X153956735Y-125977396D01*
X153958298Y-125994309D01*
X153959696Y-126018146D01*
X153960790Y-126036229D01*
X153962059Y-126051253D01*
X153963332Y-126061397D01*
X153964450Y-126065103D01*
X153966247Y-126064654D01*
X153974304Y-126062046D01*
X153987092Y-126057635D01*
X154002839Y-126052025D01*
X154038839Y-126039022D01*
X154047293Y-125980108D01*
X154048545Y-125971583D01*
X154053966Y-125939342D01*
X154059387Y-125914863D01*
X154064869Y-125897952D01*
X154070471Y-125888415D01*
X154076252Y-125886060D01*
X154077048Y-125886276D01*
X154079240Y-125888050D01*
X154080777Y-125892292D01*
X154081754Y-125900107D01*
X154082266Y-125912602D01*
X154082409Y-125930883D01*
X154082276Y-125956056D01*
X154081713Y-126024743D01*
X154106276Y-126015558D01*
X154130839Y-126006373D01*
X154138954Y-125974776D01*
X154141832Y-125963665D01*
X154146207Y-125947781D01*
X154149662Y-125937691D01*
X154152818Y-125932095D01*
X154156295Y-125929691D01*
X154160714Y-125929179D01*
X154162836Y-125929287D01*
X154166089Y-125930837D01*
X154167895Y-125935518D01*
X154168673Y-125944951D01*
X154168839Y-125960760D01*
X154168839Y-125992341D01*
X154210723Y-125978760D01*
X154212130Y-125978305D01*
X154238373Y-125970510D01*
X154257809Y-125966207D01*
X154270355Y-125965387D01*
X154275930Y-125968044D01*
X154274452Y-125974170D01*
X154265839Y-125983758D01*
X154261822Y-125986868D01*
X154251142Y-125993636D01*
X154236698Y-126001887D01*
X154220268Y-126010699D01*
X154203631Y-126019154D01*
X154188565Y-126026332D01*
X154176849Y-126031314D01*
X154170262Y-126033179D01*
X154169669Y-126033355D01*
X154167059Y-126038732D01*
X154164790Y-126050835D01*
X154162875Y-126068619D01*
X154161330Y-126091037D01*
X154160168Y-126117044D01*
X154159402Y-126145593D01*
X154159047Y-126175638D01*
X154159116Y-126206134D01*
X154159624Y-126236034D01*
X154160585Y-126264292D01*
X154162012Y-126289862D01*
X154163920Y-126311699D01*
X154166321Y-126328755D01*
X154168020Y-126338309D01*
X154170389Y-126355110D01*
X154170680Y-126365577D01*
X154168953Y-126370665D01*
X154162892Y-126372973D01*
X154155340Y-126368811D01*
X154147357Y-126358595D01*
X154139514Y-126343264D01*
X154132383Y-126323756D01*
X154126536Y-126301010D01*
X154126364Y-126300170D01*
X154123272Y-126278937D01*
X154121084Y-126251254D01*
X154119833Y-126218555D01*
X154119552Y-126182274D01*
X154120274Y-126143845D01*
X154122031Y-126104702D01*
X154125223Y-126050225D01*
X154101459Y-126058550D01*
X154097243Y-126060034D01*
X154085996Y-126064458D01*
X154079870Y-126068747D01*
X154076936Y-126074817D01*
X154075863Y-126081096D01*
X154075267Y-126084585D01*
G37*
G36*
X151259214Y-125926077D02*
G01*
X151247589Y-125935841D01*
X151254824Y-125962567D01*
X151254965Y-125963093D01*
X151258195Y-125976661D01*
X151259867Y-125986936D01*
X151259621Y-125991730D01*
X151259389Y-125991950D01*
X151253273Y-125992578D01*
X151244838Y-125985946D01*
X151234428Y-125972322D01*
X151222783Y-125954741D01*
X151192811Y-125976960D01*
X151162839Y-125999179D01*
X151175749Y-126031179D01*
X151177404Y-126035403D01*
X151183150Y-126052197D01*
X151187195Y-126067407D01*
X151188749Y-126078179D01*
X151188714Y-126081218D01*
X151187123Y-126090373D01*
X151182865Y-126093179D01*
X151180873Y-126092644D01*
X151173659Y-126086781D01*
X151164128Y-126075376D01*
X151153187Y-126059590D01*
X151141743Y-126040582D01*
X151131270Y-126021986D01*
X151098726Y-126039582D01*
X151094892Y-126041629D01*
X151075629Y-126050931D01*
X151061139Y-126056125D01*
X151052013Y-126057044D01*
X151048839Y-126053525D01*
X151050800Y-126050454D01*
X151057609Y-126042884D01*
X151068142Y-126032251D01*
X151081198Y-126019810D01*
X151085838Y-126015472D01*
X151098991Y-126002622D01*
X151106900Y-125993619D01*
X151110314Y-125987515D01*
X151109981Y-125983361D01*
X151109747Y-125982962D01*
X151106940Y-125980772D01*
X151102165Y-125981967D01*
X151094084Y-125987188D01*
X151081358Y-125997076D01*
X151073251Y-126003225D01*
X151058895Y-126012186D01*
X151047341Y-126016845D01*
X151039640Y-126016854D01*
X151036839Y-126011864D01*
X151037882Y-126007985D01*
X151043065Y-125998061D01*
X151051595Y-125984850D01*
X151062352Y-125970045D01*
X151074215Y-125955341D01*
X151074911Y-125954527D01*
X151139143Y-125954527D01*
X151141130Y-125957932D01*
X151146267Y-125960909D01*
X151149529Y-125959494D01*
X151157637Y-125954188D01*
X151168346Y-125946301D01*
X151179832Y-125937275D01*
X151190271Y-125928555D01*
X151197839Y-125921584D01*
X151200712Y-125917807D01*
X151199409Y-125914564D01*
X151194911Y-125907685D01*
X151192282Y-125904510D01*
X151188616Y-125902825D01*
X151183282Y-125905260D01*
X151174038Y-125912314D01*
X151163756Y-125920822D01*
X151148584Y-125935311D01*
X151140336Y-125946599D01*
X151139143Y-125954527D01*
X151074911Y-125954527D01*
X151087754Y-125939504D01*
X151076427Y-125914260D01*
X151070924Y-125901303D01*
X151064060Y-125883472D01*
X151058970Y-125868371D01*
X151054917Y-125852735D01*
X151053028Y-125838421D01*
X151054614Y-125830712D01*
X151059319Y-125829463D01*
X151066785Y-125834527D01*
X151076656Y-125845758D01*
X151088576Y-125863008D01*
X151102187Y-125886131D01*
X151108682Y-125897424D01*
X151114046Y-125905802D01*
X151116839Y-125908957D01*
X151117635Y-125908543D01*
X151123165Y-125904220D01*
X151132516Y-125896206D01*
X151144207Y-125885757D01*
X151169574Y-125862683D01*
X151159619Y-125838931D01*
X151153606Y-125823664D01*
X151147287Y-125805782D01*
X151141935Y-125788849D01*
X151138226Y-125775020D01*
X151136839Y-125766452D01*
X151138182Y-125763473D01*
X151144466Y-125761179D01*
X151145371Y-125761285D01*
X151152249Y-125765911D01*
X151162219Y-125777491D01*
X151175416Y-125796179D01*
X151182821Y-125807304D01*
X151191225Y-125819964D01*
X151197102Y-125828862D01*
X151199496Y-125832551D01*
X151202062Y-125831511D01*
X151210074Y-125826865D01*
X151222182Y-125819319D01*
X151237010Y-125809708D01*
X151248745Y-125802167D01*
X151269316Y-125790050D01*
X151285837Y-125781886D01*
X151297571Y-125778017D01*
X151303780Y-125778786D01*
X151304690Y-125780522D01*
X151302498Y-125787982D01*
X151293781Y-125799817D01*
X151278508Y-125816065D01*
X151256647Y-125836766D01*
X151217997Y-125871997D01*
X151223946Y-125883588D01*
X151224274Y-125884226D01*
X151228570Y-125892359D01*
X151230907Y-125896385D01*
X151232667Y-125895792D01*
X151239908Y-125891800D01*
X151251375Y-125884868D01*
X151265602Y-125875863D01*
X151276878Y-125868677D01*
X151303212Y-125852807D01*
X151324054Y-125841801D01*
X151339839Y-125835422D01*
X151341759Y-125834873D01*
X151347434Y-125835040D01*
X151348839Y-125840825D01*
X151348702Y-125841863D01*
X151345723Y-125847328D01*
X151338533Y-125855685D01*
X151326710Y-125867338D01*
X151309830Y-125882686D01*
X151287472Y-125902132D01*
X151268974Y-125917807D01*
X151259214Y-125926077D01*
G37*
D13*
%TO.C,TP1*%
X177500000Y-122660000D02*
G75*
G03*
X177500000Y-122660000I-700000J0D01*
G01*
%TO.C,TP10*%
X160923200Y-118694200D02*
G75*
G03*
X160923200Y-118694200I-700000J0D01*
G01*
%TO.C,TP9*%
X162980000Y-129030000D02*
G75*
G03*
X162980000Y-129030000I-700000J0D01*
G01*
%TO.C,TP5*%
X164680000Y-113870000D02*
G75*
G03*
X164680000Y-113870000I-700000J0D01*
G01*
%TO.C,TP4*%
X162100000Y-115400000D02*
G75*
G03*
X162100000Y-115400000I-700000J0D01*
G01*
%TO.C,TP12*%
X149800000Y-118800000D02*
G75*
G03*
X149800000Y-118800000I-700000J0D01*
G01*
%TO.C,TP8*%
X156190000Y-116610000D02*
G75*
G03*
X156190000Y-116610000I-700000J0D01*
G01*
%TO.C,TP6*%
X149990000Y-110610000D02*
G75*
G03*
X149990000Y-110610000I-700000J0D01*
G01*
%TO.C,TP3*%
X169000000Y-127700000D02*
G75*
G03*
X169000000Y-127700000I-700000J0D01*
G01*
%TO.C,TP2*%
X176030000Y-124270000D02*
G75*
G03*
X176030000Y-124270000I-700000J0D01*
G01*
%TO.C,TP7*%
X150010000Y-108305600D02*
G75*
G03*
X150010000Y-108305600I-700000J0D01*
G01*
%TD*%
%LPC*%
D14*
%TO.C,JP6*%
X182190000Y-118920000D03*
D15*
X182190000Y-121460000D03*
%TD*%
D16*
%TO.C,J1*%
X176555400Y-110845600D03*
D17*
X174555400Y-110845600D03*
%TD*%
D15*
%TO.C,JP4*%
X178825000Y-119050000D03*
D14*
X176285000Y-119050000D03*
%TD*%
%TO.C,J2*%
X169600000Y-108350000D03*
D15*
X169600000Y-110890000D03*
X167060000Y-108350000D03*
X167060000Y-110890000D03*
X164520000Y-108350000D03*
X164520000Y-110890000D03*
X161980000Y-108350000D03*
X161980000Y-110890000D03*
X159440000Y-108350000D03*
X159440000Y-110890000D03*
X156900000Y-108350000D03*
X156900000Y-110890000D03*
X154360000Y-108350000D03*
X154360000Y-110890000D03*
X151820000Y-108350000D03*
X151820000Y-110890000D03*
%TD*%
D18*
%TO.C,TP1*%
X176800000Y-122660000D03*
%TD*%
%TO.C,TP10*%
X160223200Y-118694200D03*
%TD*%
%TO.C,TP9*%
X162280000Y-129030000D03*
%TD*%
%TO.C,TP5*%
X163980000Y-113870000D03*
%TD*%
%TO.C,TP4*%
X161400000Y-115400000D03*
%TD*%
%TO.C,TP12*%
X149100000Y-118800000D03*
%TD*%
%TO.C,TP8*%
X155490000Y-116610000D03*
%TD*%
%TO.C,TP6*%
X149290000Y-110610000D03*
%TD*%
%TO.C,TP3*%
X168300000Y-127700000D03*
%TD*%
%TO.C,TP2*%
X175330000Y-124270000D03*
%TD*%
%TO.C,TP7*%
X149310000Y-108305600D03*
%TD*%
%LPD*%
M02*
