%TF.GenerationSoftware,KiCad,Pcbnew,7.0.9*%
%TF.CreationDate,2024-03-24T18:40:07+02:00*%
%TF.ProjectId,Micromouse Power,4d696372-6f6d-46f7-9573-6520506f7765,v0.0.0*%
%TF.SameCoordinates,Original*%
%TF.FileFunction,Copper,L2,Bot*%
%TF.FilePolarity,Positive*%
%FSLAX46Y46*%
G04 Gerber Fmt 4.6, Leading zero omitted, Abs format (unit mm)*
G04 Created by KiCad (PCBNEW 7.0.9) date 2024-03-24 18:40:07*
%MOMM*%
%LPD*%
G01*
G04 APERTURE LIST*
G04 Aperture macros list*
%AMRoundRect*
0 Rectangle with rounded corners*
0 $1 Rounding radius*
0 $2 $3 $4 $5 $6 $7 $8 $9 X,Y pos of 4 corners*
0 Add a 4 corners polygon primitive as box body*
4,1,4,$2,$3,$4,$5,$6,$7,$8,$9,$2,$3,0*
0 Add four circle primitives for the rounded corners*
1,1,$1+$1,$2,$3*
1,1,$1+$1,$4,$5*
1,1,$1+$1,$6,$7*
1,1,$1+$1,$8,$9*
0 Add four rect primitives between the rounded corners*
20,1,$1+$1,$2,$3,$4,$5,0*
20,1,$1+$1,$4,$5,$6,$7,0*
20,1,$1+$1,$6,$7,$8,$9,0*
20,1,$1+$1,$8,$9,$2,$3,0*%
G04 Aperture macros list end*
%TA.AperFunction,ComponentPad*%
%ADD10R,1.700000X1.700000*%
%TD*%
%TA.AperFunction,ComponentPad*%
%ADD11O,1.700000X1.700000*%
%TD*%
%TA.AperFunction,ComponentPad*%
%ADD12RoundRect,0.250000X0.350000X0.625000X-0.350000X0.625000X-0.350000X-0.625000X0.350000X-0.625000X0*%
%TD*%
%TA.AperFunction,ComponentPad*%
%ADD13O,1.200000X1.750000*%
%TD*%
%TA.AperFunction,SMDPad,CuDef*%
%ADD14C,1.000000*%
%TD*%
%TA.AperFunction,SMDPad,CuDef*%
%ADD15R,1.500000X1.000000*%
%TD*%
%TA.AperFunction,ViaPad*%
%ADD16C,0.600000*%
%TD*%
%TA.AperFunction,ViaPad*%
%ADD17C,0.500000*%
%TD*%
%TA.AperFunction,Conductor*%
%ADD18C,0.600000*%
%TD*%
%TA.AperFunction,Conductor*%
%ADD19C,0.250000*%
%TD*%
%TA.AperFunction,Conductor*%
%ADD20C,0.300000*%
%TD*%
G04 APERTURE END LIST*
%TA.AperFunction,EtchedComponent*%
%TO.C,JP7*%
G36*
X157190000Y-123630000D02*
G01*
X156590000Y-123630000D01*
X156590000Y-123130000D01*
X157190000Y-123130000D01*
X157190000Y-123630000D01*
G37*
%TD.AperFunction*%
%TD*%
D10*
%TO.P,JP6,1,A*%
%TO.N,Net-(J1-Pin_2)*%
X182190000Y-118920000D03*
D11*
%TO.P,JP6,2,B*%
%TO.N,GND*%
X182190000Y-121460000D03*
%TD*%
D12*
%TO.P,J1,1,Pin_1*%
%TO.N,+BATT*%
X176500000Y-110840000D03*
D13*
%TO.P,J1,2,Pin_2*%
%TO.N,Net-(J1-Pin_2)*%
X174500000Y-110840000D03*
%TD*%
D10*
%TO.P,JP4,1,A*%
%TO.N,Net-(JP4-A)*%
X176285000Y-119050000D03*
D11*
%TO.P,JP4,2,B*%
%TO.N,BATT*%
X178825000Y-119050000D03*
%TD*%
D10*
%TO.P,J2,1,Pin_1*%
%TO.N,/Motor2_A*%
X169600000Y-108350000D03*
D11*
%TO.P,J2,2,Pin_2*%
%TO.N,/PC6*%
X169600000Y-110890000D03*
%TO.P,J2,3,Pin_3*%
%TO.N,/Motor2_B*%
X167060000Y-108350000D03*
%TO.P,J2,4,Pin_4*%
%TO.N,/PC7*%
X167060000Y-110890000D03*
%TO.P,J2,5,Pin_5*%
%TO.N,GND*%
X164520000Y-108350000D03*
%TO.P,J2,6,Pin_6*%
X164520000Y-110890000D03*
%TO.P,J2,7,Pin_7*%
%TO.N,BATT_SWITCHED*%
X161980000Y-108350000D03*
%TO.P,J2,8,Pin_8*%
X161980000Y-110890000D03*
%TO.P,J2,9,Pin_9*%
%TO.N,/PD7*%
X159440000Y-108350000D03*
%TO.P,J2,10,Pin_10*%
%TO.N,/BATT_ADC*%
X159440000Y-110890000D03*
%TO.P,J2,11,Pin_11*%
%TO.N,+5V*%
X156900000Y-108350000D03*
%TO.P,J2,12,Pin_12*%
X156900000Y-110890000D03*
%TO.P,J2,13,Pin_13*%
%TO.N,/Motor1_A*%
X154360000Y-108350000D03*
%TO.P,J2,14,Pin_14*%
%TO.N,/PC8*%
X154360000Y-110890000D03*
%TO.P,J2,15,Pin_15*%
%TO.N,/Motor1_B*%
X151820000Y-108350000D03*
%TO.P,J2,16,Pin_16*%
%TO.N,/PC9*%
X151820000Y-110890000D03*
%TD*%
D14*
%TO.P,TP1,1,1*%
%TO.N,Net-(U2-~{STDBY})*%
X176800000Y-122660000D03*
%TD*%
D15*
%TO.P,JP7,1,A*%
%TO.N,Net-(JP7-A)*%
X156890000Y-122730000D03*
%TO.P,JP7,2,C*%
%TO.N,VCC*%
X156890000Y-124030000D03*
%TO.P,JP7,3,B*%
%TO.N,+3V3*%
X156890000Y-125330000D03*
%TD*%
D14*
%TO.P,TP10,1,1*%
%TO.N,+5V*%
X160223200Y-118694200D03*
%TD*%
%TO.P,TP5,1,1*%
%TO.N,/Motor2_B*%
X163980000Y-113870000D03*
%TD*%
%TO.P,TP4,1,1*%
%TO.N,/Motor2_A*%
X161400000Y-115400000D03*
%TD*%
%TO.P,TP12,1,1*%
%TO.N,Net-(Q2-D)*%
X149100000Y-118800000D03*
%TD*%
%TO.P,TP8,1,1*%
%TO.N,/BATT_ADC*%
X155490000Y-116610000D03*
%TD*%
%TO.P,TP6,1,1*%
%TO.N,/Motor1_A*%
X149290000Y-110610000D03*
%TD*%
%TO.P,TP3,1,1*%
%TO.N,/PROG*%
X168300000Y-127700000D03*
%TD*%
%TO.P,TP2,1,1*%
%TO.N,Net-(U2-~{CHRG})*%
X175330000Y-124270000D03*
%TD*%
%TO.P,TP7,1,1*%
%TO.N,/Motor1_B*%
X149310000Y-108305600D03*
%TD*%
D16*
%TO.N,BATT_SWITCHED*%
X165730000Y-119761000D03*
X155940000Y-120180000D03*
X157340000Y-130100000D03*
X149895897Y-115040000D03*
X149895897Y-113360000D03*
X156743400Y-120180000D03*
X155140000Y-120180000D03*
X149895897Y-114220000D03*
D17*
%TO.N,GND*%
X166260000Y-132930000D03*
X151300000Y-132920000D03*
X146370000Y-132910000D03*
X160380000Y-123536666D03*
X163420000Y-114710000D03*
X161330000Y-132920000D03*
X148370000Y-132910000D03*
X152400000Y-120620000D03*
X182080000Y-116610000D03*
X163830000Y-121440000D03*
X149370000Y-132910000D03*
X162900000Y-123566666D03*
X160860000Y-113130000D03*
X171390000Y-108720000D03*
X177370000Y-120860000D03*
X158240000Y-132900000D03*
X176920000Y-108590000D03*
X172200000Y-132910000D03*
X147370000Y-132910000D03*
X154300000Y-132920000D03*
X162900000Y-121440000D03*
X161170000Y-112460000D03*
X150960000Y-114460000D03*
X158600000Y-119300000D03*
X178160000Y-121550000D03*
X182740000Y-117200000D03*
X159240000Y-132900000D03*
X160380000Y-124600000D03*
X154300000Y-113500000D03*
X157190000Y-128350000D03*
X157240000Y-132900000D03*
X163420000Y-115490000D03*
X143300000Y-119570000D03*
X178210000Y-120870000D03*
X145520000Y-118970000D03*
X152300000Y-132920000D03*
X150970000Y-113520000D03*
X170260000Y-132930000D03*
X160400000Y-112160000D03*
X176150000Y-106807000D03*
X173940000Y-108590000D03*
X173200000Y-132910000D03*
X157540000Y-131160000D03*
X171380000Y-109700000D03*
X153650000Y-115510000D03*
X156240000Y-132900000D03*
X168260000Y-132930000D03*
X155300000Y-132920000D03*
X153650000Y-114640000D03*
X153300000Y-132920000D03*
X172466000Y-126238000D03*
X179100000Y-120870000D03*
X163330000Y-132920000D03*
X157707820Y-127762664D03*
X174630000Y-106807000D03*
X150370000Y-132910000D03*
X160380000Y-121410000D03*
X179130000Y-121540000D03*
X175200000Y-132910000D03*
X161317500Y-114001833D03*
X162900000Y-124630000D03*
X171200000Y-132910000D03*
X173050000Y-125840000D03*
X174650000Y-108590000D03*
X175370000Y-108590000D03*
X176170000Y-108590000D03*
X175640000Y-120830000D03*
X174200000Y-132910000D03*
X175350000Y-106807000D03*
X162330000Y-132920000D03*
X177700000Y-106807000D03*
X169260000Y-132930000D03*
X156818537Y-131169155D03*
X162900000Y-122503333D03*
X176900000Y-106807000D03*
X167260000Y-132930000D03*
X153644600Y-113461800D03*
X160380000Y-122473333D03*
X173920000Y-106807000D03*
X160240000Y-132900000D03*
X164330000Y-132920000D03*
X177440000Y-121570000D03*
X165330000Y-132920000D03*
X177720000Y-108590000D03*
X176470000Y-120810000D03*
X157900000Y-119300000D03*
X173220000Y-106807000D03*
X171380000Y-110730000D03*
%TO.N,+3V3*%
X156900000Y-126690000D03*
D16*
%TO.N,+5V*%
X168503600Y-117800000D03*
X173300000Y-124400000D03*
X167685000Y-118200000D03*
X167700000Y-117200000D03*
%TO.N,/BATT_ADC*%
X158500000Y-118300000D03*
D17*
%TO.N,/Motor2_A*%
X166068626Y-114699429D03*
%TO.N,/Motor2_B*%
X165760400Y-114020600D03*
%TO.N,/PC8*%
X152704800Y-113182400D03*
%TO.N,/PROG*%
X167610000Y-125330000D03*
D16*
%TO.N,Net-(U2-~{STDBY})*%
X173050200Y-114909600D03*
%TO.N,Net-(U2-~{CHRG})*%
X171500800Y-114884200D03*
%TO.N,Net-(Q2-G)*%
X144099130Y-118719600D03*
X145490000Y-115346400D03*
D17*
%TO.N,Net-(Q2-D)*%
X148600000Y-117300000D03*
D16*
%TO.N,VCC*%
X151360675Y-120240000D03*
X158880000Y-121350000D03*
%TO.N,Net-(JP7-A)*%
X156890000Y-121507500D03*
%TD*%
D18*
%TO.N,BATT_SWITCHED*%
X161410000Y-120180000D02*
X160700000Y-120180000D01*
X165311000Y-120180000D02*
X160700000Y-120180000D01*
X161530000Y-125910000D02*
X161530000Y-120300000D01*
X157340000Y-130100000D02*
X161530000Y-125910000D01*
X157556200Y-120180000D02*
X154370000Y-120180000D01*
X147345400Y-107543600D02*
X148339000Y-106550000D01*
X148339000Y-106550000D02*
X160180000Y-106550000D01*
X160700000Y-120180000D02*
X157556200Y-120180000D01*
X149895897Y-115705897D02*
X149895897Y-113360000D01*
X149895897Y-113360000D02*
X149895897Y-113335897D01*
X160180000Y-106550000D02*
X161980000Y-108350000D01*
X149895897Y-113335897D02*
X147345400Y-110785400D01*
X165730000Y-119761000D02*
X165311000Y-120180000D01*
X161530000Y-120300000D02*
X161410000Y-120180000D01*
X147345400Y-110785400D02*
X147345400Y-107543600D01*
X154370000Y-120180000D02*
X149895897Y-115705897D01*
D19*
%TO.N,GND*%
X153670000Y-116870000D02*
X156100000Y-119300000D01*
X153670000Y-115457501D02*
X153670000Y-116870000D01*
X156100000Y-119300000D02*
X157900000Y-119300000D01*
D18*
X164520000Y-108350000D02*
X164520000Y-106800000D01*
D19*
X158600000Y-119300000D02*
X157900000Y-119300000D01*
D20*
%TO.N,+3V3*%
X156900000Y-126690000D02*
X156870000Y-126690000D01*
X156900000Y-125340000D02*
X156890000Y-125330000D01*
X156900000Y-126690000D02*
X156900000Y-125340000D01*
D18*
%TO.N,+5V*%
X167700000Y-117200000D02*
X167600000Y-117100000D01*
X172400000Y-124400000D02*
X173300000Y-124400000D01*
X159700000Y-117100000D02*
X156900000Y-114300000D01*
X167685000Y-118200000D02*
X167685000Y-119685000D01*
D20*
X160223200Y-118694200D02*
X160223200Y-116976800D01*
D18*
X156900000Y-110890000D02*
X156900000Y-108350000D01*
X167685000Y-119685000D02*
X172400000Y-124400000D01*
X156900000Y-114300000D02*
X156900000Y-110890000D01*
X167600000Y-117100000D02*
X159700000Y-117100000D01*
D20*
%TO.N,/BATT_ADC*%
X157180000Y-118300000D02*
X155570000Y-116690000D01*
X158500000Y-118300000D02*
X157180000Y-118300000D01*
%TO.N,/Motor2_A*%
X166497000Y-113538000D02*
X168325800Y-111709200D01*
D19*
X161400000Y-115300000D02*
X161400000Y-115400000D01*
D20*
X161400000Y-115400000D02*
X162200000Y-116200000D01*
X166497000Y-114271055D02*
X166497000Y-113538000D01*
X168325800Y-109624200D02*
X169600000Y-108350000D01*
X168325800Y-111709200D02*
X168325800Y-109624200D01*
X164568055Y-116200000D02*
X166068626Y-114699429D01*
X162200000Y-116200000D02*
X164568055Y-116200000D01*
X166068626Y-114699429D02*
X166497000Y-114271055D01*
%TO.N,/Motor2_B*%
X165760400Y-114020600D02*
X165760400Y-109649600D01*
X165760400Y-109649600D02*
X167060000Y-108350000D01*
D19*
X164550000Y-113300000D02*
X165744400Y-113300000D01*
X163980000Y-113870000D02*
X164550000Y-113300000D01*
%TO.N,/Motor1_A*%
X153070000Y-109640000D02*
X154360000Y-108350000D01*
X149450000Y-110450000D02*
X150260000Y-109640000D01*
X150260000Y-109640000D02*
X153070000Y-109640000D01*
%TO.N,/PC8*%
X152704800Y-112545200D02*
X154360000Y-110890000D01*
X152704800Y-113182400D02*
X152704800Y-112545200D01*
%TO.N,/Motor1_B*%
X149301200Y-108305600D02*
X151775600Y-108305600D01*
X151775600Y-108305600D02*
X151820000Y-108350000D01*
%TO.N,/PROG*%
X168300000Y-127600000D02*
X168300000Y-126020000D01*
X168300000Y-126020000D02*
X167610000Y-125330000D01*
%TO.N,Net-(U2-~{STDBY})*%
X176800000Y-122660000D02*
X175960000Y-122660000D01*
X175960000Y-122660000D02*
X173050200Y-119750200D01*
X173050200Y-119750200D02*
X173050200Y-114909600D01*
%TO.N,Net-(U2-~{CHRG})*%
X171500800Y-114884200D02*
X171500800Y-120360800D01*
X175330000Y-124190000D02*
X175330000Y-124270000D01*
X171500800Y-120360800D02*
X175330000Y-124190000D01*
D20*
%TO.N,Net-(Q2-G)*%
X145490000Y-115346400D02*
X145490000Y-117328730D01*
X145490000Y-117328730D02*
X144099130Y-118719600D01*
D19*
%TO.N,Net-(Q2-D)*%
X149100000Y-118700000D02*
X149100000Y-117800000D01*
X149100000Y-117800000D02*
X148600000Y-117300000D01*
D18*
%TO.N,Net-(J1-Pin_2)*%
X182190000Y-118920000D02*
X174500000Y-111230000D01*
X174500000Y-111230000D02*
X174500000Y-110840000D01*
D20*
%TO.N,VCC*%
X151360675Y-120240000D02*
X151360675Y-121220000D01*
X154170675Y-124030000D02*
X156890000Y-124030000D01*
X157940000Y-124030000D02*
X156890000Y-124030000D01*
X158880000Y-123090000D02*
X157940000Y-124030000D01*
X151360675Y-121220000D02*
X154170675Y-124030000D01*
X158880000Y-121350000D02*
X158880000Y-123090000D01*
%TO.N,Net-(JP7-A)*%
X156890000Y-121507500D02*
X156890000Y-122730000D01*
%TD*%
%TA.AperFunction,Conductor*%
%TO.N,GND*%
G36*
X147664099Y-105880185D02*
G01*
X147709854Y-105932989D01*
X147719798Y-106002147D01*
X147690773Y-106065703D01*
X147684741Y-106072181D01*
X146715586Y-107041335D01*
X146715583Y-107041339D01*
X146693366Y-107076696D01*
X146689341Y-107082369D01*
X146663310Y-107115010D01*
X146645191Y-107152633D01*
X146641827Y-107158720D01*
X146619612Y-107194076D01*
X146619608Y-107194083D01*
X146605816Y-107233495D01*
X146603155Y-107239920D01*
X146585039Y-107277539D01*
X146575744Y-107318259D01*
X146573819Y-107324941D01*
X146560032Y-107364344D01*
X146555355Y-107405835D01*
X146554191Y-107412689D01*
X146544900Y-107453406D01*
X146544900Y-110875591D01*
X146544901Y-110875600D01*
X146554191Y-110916308D01*
X146555355Y-110923163D01*
X146560032Y-110964659D01*
X146573820Y-111004062D01*
X146575745Y-111010745D01*
X146585039Y-111051461D01*
X146603159Y-111089088D01*
X146605821Y-111095514D01*
X146619612Y-111134925D01*
X146641822Y-111170272D01*
X146645187Y-111176359D01*
X146663310Y-111213989D01*
X146689340Y-111246629D01*
X146693366Y-111252304D01*
X146715582Y-111287659D01*
X146715584Y-111287662D01*
X149059078Y-113631156D01*
X149092563Y-113692479D01*
X149095397Y-113718837D01*
X149095397Y-114171564D01*
X149095007Y-114178502D01*
X149090332Y-114220000D01*
X149095007Y-114261496D01*
X149095397Y-114268435D01*
X149095397Y-114991564D01*
X149095007Y-114998502D01*
X149090332Y-115040000D01*
X149095007Y-115081496D01*
X149095397Y-115088435D01*
X149095397Y-115796088D01*
X149095398Y-115796097D01*
X149104688Y-115836805D01*
X149105852Y-115843660D01*
X149110529Y-115885156D01*
X149124317Y-115924559D01*
X149126242Y-115931242D01*
X149135536Y-115971958D01*
X149153656Y-116009585D01*
X149156318Y-116016011D01*
X149170109Y-116055422D01*
X149192319Y-116090769D01*
X149195684Y-116096856D01*
X149213807Y-116134486D01*
X149239837Y-116167126D01*
X149243863Y-116172801D01*
X149266079Y-116208156D01*
X149266081Y-116208159D01*
X149298071Y-116240149D01*
X153740184Y-120682262D01*
X153867738Y-120809816D01*
X153903089Y-120832028D01*
X153908765Y-120836055D01*
X153941411Y-120862090D01*
X153941412Y-120862091D01*
X153962548Y-120872269D01*
X153979035Y-120880208D01*
X153985112Y-120883567D01*
X154002635Y-120894577D01*
X154020477Y-120905789D01*
X154059891Y-120919581D01*
X154066320Y-120922244D01*
X154103941Y-120940361D01*
X154144641Y-120949650D01*
X154151328Y-120951576D01*
X154190742Y-120965367D01*
X154190745Y-120965368D01*
X154232241Y-120970043D01*
X154239093Y-120971207D01*
X154279806Y-120980500D01*
X154325046Y-120980500D01*
X155091564Y-120980500D01*
X155098502Y-120980889D01*
X155127400Y-120984145D01*
X155139998Y-120985565D01*
X155140000Y-120985565D01*
X155140002Y-120985565D01*
X155152599Y-120984145D01*
X155181497Y-120980889D01*
X155188436Y-120980500D01*
X155891564Y-120980500D01*
X155898502Y-120980889D01*
X155927400Y-120984145D01*
X155939998Y-120985565D01*
X155940000Y-120985565D01*
X155940002Y-120985565D01*
X155952599Y-120984145D01*
X155981497Y-120980889D01*
X155988436Y-120980500D01*
X156052334Y-120980500D01*
X156119373Y-121000185D01*
X156165128Y-121052989D01*
X156175072Y-121122147D01*
X156166190Y-121151292D01*
X156166511Y-121151405D01*
X156104631Y-121328245D01*
X156104630Y-121328250D01*
X156084435Y-121507496D01*
X156084435Y-121507503D01*
X156096196Y-121611888D01*
X156084141Y-121680710D01*
X156036792Y-121732089D01*
X156016310Y-121741953D01*
X155897669Y-121786203D01*
X155897664Y-121786206D01*
X155782455Y-121872452D01*
X155782452Y-121872455D01*
X155696206Y-121987664D01*
X155696202Y-121987671D01*
X155645908Y-122122517D01*
X155639501Y-122182116D01*
X155639500Y-122182135D01*
X155639501Y-123255500D01*
X155619817Y-123322539D01*
X155567013Y-123368294D01*
X155515501Y-123379500D01*
X154491483Y-123379500D01*
X154424444Y-123359815D01*
X154403802Y-123343181D01*
X152047494Y-120986873D01*
X152014009Y-120925550D01*
X152011175Y-120899192D01*
X152011175Y-120745067D01*
X152030182Y-120679094D01*
X152086463Y-120589524D01*
X152086464Y-120589522D01*
X152146043Y-120419255D01*
X152147094Y-120409930D01*
X152166240Y-120240003D01*
X152166240Y-120239996D01*
X152146044Y-120060750D01*
X152146043Y-120060745D01*
X152120012Y-119986352D01*
X152086464Y-119890478D01*
X152069989Y-119864259D01*
X152040838Y-119817864D01*
X151990491Y-119737738D01*
X151862937Y-119610184D01*
X151838463Y-119594806D01*
X151710198Y-119514211D01*
X151539929Y-119454631D01*
X151539924Y-119454630D01*
X151360679Y-119434435D01*
X151360671Y-119434435D01*
X151181425Y-119454630D01*
X151181420Y-119454631D01*
X151011151Y-119514211D01*
X150858412Y-119610184D01*
X150730859Y-119737737D01*
X150634886Y-119890476D01*
X150575306Y-120060745D01*
X150575305Y-120060750D01*
X150555110Y-120239996D01*
X150555110Y-120240003D01*
X150575305Y-120419249D01*
X150575306Y-120419254D01*
X150634886Y-120589524D01*
X150691168Y-120679094D01*
X150710175Y-120745067D01*
X150710175Y-121134494D01*
X150708407Y-121150505D01*
X150708649Y-121150528D01*
X150707915Y-121158294D01*
X150710175Y-121230203D01*
X150710175Y-121260920D01*
X150710176Y-121260940D01*
X150711093Y-121268206D01*
X150711551Y-121274024D01*
X150713077Y-121322567D01*
X150713078Y-121322570D01*
X150718998Y-121342948D01*
X150722943Y-121361996D01*
X150725603Y-121383054D01*
X150725606Y-121383064D01*
X150743488Y-121428230D01*
X150745380Y-121433758D01*
X150758929Y-121480395D01*
X150758930Y-121480397D01*
X150769735Y-121498666D01*
X150778292Y-121516134D01*
X150783485Y-121529249D01*
X150786107Y-121535872D01*
X150814658Y-121575170D01*
X150817863Y-121580049D01*
X150842594Y-121621865D01*
X150842598Y-121621869D01*
X150857600Y-121636871D01*
X150870238Y-121651669D01*
X150882708Y-121668833D01*
X150882711Y-121668836D01*
X150882712Y-121668837D01*
X150920151Y-121699809D01*
X150924451Y-121703722D01*
X152329970Y-123109241D01*
X153650239Y-124429510D01*
X153660310Y-124442080D01*
X153660497Y-124441926D01*
X153665471Y-124447937D01*
X153665473Y-124447940D01*
X153689532Y-124470533D01*
X153717918Y-124497190D01*
X153739642Y-124518913D01*
X153745432Y-124523405D01*
X153749872Y-124527197D01*
X153779173Y-124554711D01*
X153785282Y-124560448D01*
X153785285Y-124560450D01*
X153785287Y-124560451D01*
X153803882Y-124570674D01*
X153820143Y-124581356D01*
X153836038Y-124593685D01*
X153836911Y-124594362D01*
X153878542Y-124612377D01*
X153881486Y-124613651D01*
X153886725Y-124616217D01*
X153929307Y-124639627D01*
X153949879Y-124644908D01*
X153968269Y-124651205D01*
X153987749Y-124659635D01*
X154035725Y-124667233D01*
X154041422Y-124668413D01*
X154088498Y-124680500D01*
X154109726Y-124680500D01*
X154129123Y-124682026D01*
X154150078Y-124685345D01*
X154150079Y-124685346D01*
X154150079Y-124685345D01*
X154150080Y-124685346D01*
X154198436Y-124680775D01*
X154204274Y-124680500D01*
X155515500Y-124680500D01*
X155582539Y-124700185D01*
X155628294Y-124752989D01*
X155639500Y-124804500D01*
X155639500Y-125877870D01*
X155639501Y-125877876D01*
X155645908Y-125937483D01*
X155696202Y-126072328D01*
X155696206Y-126072335D01*
X155782452Y-126187544D01*
X155782455Y-126187547D01*
X155897664Y-126273793D01*
X155897671Y-126273797D01*
X155942618Y-126290561D01*
X156032517Y-126324091D01*
X156070243Y-126328147D01*
X156134789Y-126354882D01*
X156174639Y-126412274D01*
X156177134Y-126482099D01*
X156174027Y-126492389D01*
X156163686Y-126521942D01*
X156144751Y-126689997D01*
X156144751Y-126690002D01*
X156163685Y-126858056D01*
X156219545Y-127017694D01*
X156219547Y-127017697D01*
X156309518Y-127160884D01*
X156309523Y-127160890D01*
X156429109Y-127280476D01*
X156429115Y-127280481D01*
X156572302Y-127370452D01*
X156572305Y-127370454D01*
X156572309Y-127370455D01*
X156572310Y-127370456D01*
X156644913Y-127395860D01*
X156731943Y-127426314D01*
X156899997Y-127445249D01*
X156900000Y-127445249D01*
X156900003Y-127445249D01*
X157068056Y-127426314D01*
X157068059Y-127426313D01*
X157227690Y-127370456D01*
X157227692Y-127370454D01*
X157227694Y-127370454D01*
X157227697Y-127370452D01*
X157370884Y-127280481D01*
X157370885Y-127280480D01*
X157370890Y-127280477D01*
X157490477Y-127160890D01*
X157490481Y-127160884D01*
X157580452Y-127017697D01*
X157580454Y-127017694D01*
X157580454Y-127017692D01*
X157580456Y-127017690D01*
X157636313Y-126858059D01*
X157636313Y-126858058D01*
X157636314Y-126858056D01*
X157655249Y-126690002D01*
X157655249Y-126689997D01*
X157636313Y-126521943D01*
X157636313Y-126521942D01*
X157636313Y-126521941D01*
X157625247Y-126490318D01*
X157621685Y-126420543D01*
X157656413Y-126359914D01*
X157718405Y-126327686D01*
X157729036Y-126326074D01*
X157747483Y-126324091D01*
X157882328Y-126273797D01*
X157882327Y-126273797D01*
X157882331Y-126273796D01*
X157997546Y-126187546D01*
X158083796Y-126072331D01*
X158134091Y-125937483D01*
X158140500Y-125877873D01*
X158140499Y-124782128D01*
X158137411Y-124753398D01*
X158149816Y-124684639D01*
X158197426Y-124633501D01*
X158197574Y-124633414D01*
X158200398Y-124631744D01*
X158218665Y-124620939D01*
X158236136Y-124612380D01*
X158255871Y-124604568D01*
X158295177Y-124576010D01*
X158300043Y-124572813D01*
X158341865Y-124548081D01*
X158356870Y-124533075D01*
X158371668Y-124520436D01*
X158388837Y-124507963D01*
X158419809Y-124470522D01*
X158423723Y-124466221D01*
X159279511Y-123610432D01*
X159292086Y-123600359D01*
X159291931Y-123600172D01*
X159297933Y-123595205D01*
X159297940Y-123595202D01*
X159347205Y-123542739D01*
X159368911Y-123521034D01*
X159373403Y-123515241D01*
X159377193Y-123510805D01*
X159391178Y-123495913D01*
X159410448Y-123475393D01*
X159420670Y-123456796D01*
X159431355Y-123440531D01*
X159444363Y-123423763D01*
X159463652Y-123379187D01*
X159466224Y-123373936D01*
X159483132Y-123343181D01*
X159489627Y-123331368D01*
X159494904Y-123310808D01*
X159501206Y-123292403D01*
X159509636Y-123272926D01*
X159517235Y-123224945D01*
X159518417Y-123219234D01*
X159530500Y-123172177D01*
X159530500Y-123150955D01*
X159532027Y-123131555D01*
X159532254Y-123130120D01*
X159535347Y-123110595D01*
X159530775Y-123062226D01*
X159530500Y-123056388D01*
X159530500Y-121855067D01*
X159549507Y-121789094D01*
X159605788Y-121699524D01*
X159610256Y-121686755D01*
X159665368Y-121529255D01*
X159667819Y-121507502D01*
X159685565Y-121350003D01*
X159685565Y-121349996D01*
X159665369Y-121170750D01*
X159665366Y-121170739D01*
X159656519Y-121145453D01*
X159652958Y-121075675D01*
X159687687Y-121015048D01*
X159749681Y-120982821D01*
X159773561Y-120980500D01*
X160605500Y-120980500D01*
X160672539Y-121000185D01*
X160718294Y-121052989D01*
X160729500Y-121104500D01*
X160729500Y-125527060D01*
X160709815Y-125594099D01*
X160693181Y-125614741D01*
X156710186Y-129597735D01*
X156710183Y-129597739D01*
X156687966Y-129633096D01*
X156683941Y-129638769D01*
X156657910Y-129671410D01*
X156639791Y-129709033D01*
X156636427Y-129715120D01*
X156614212Y-129750476D01*
X156614208Y-129750483D01*
X156600416Y-129789895D01*
X156597755Y-129796320D01*
X156579639Y-129833939D01*
X156570344Y-129874659D01*
X156568419Y-129881341D01*
X156554632Y-129920744D01*
X156549955Y-129962235D01*
X156548791Y-129969089D01*
X156539500Y-130009806D01*
X156539500Y-130051564D01*
X156539110Y-130058502D01*
X156534435Y-130100000D01*
X156539110Y-130141496D01*
X156539500Y-130148435D01*
X156539500Y-130190191D01*
X156539501Y-130190200D01*
X156548791Y-130230908D01*
X156549955Y-130237763D01*
X156554632Y-130279259D01*
X156568420Y-130318662D01*
X156570345Y-130325345D01*
X156579639Y-130366061D01*
X156597759Y-130403688D01*
X156600421Y-130410114D01*
X156614212Y-130449525D01*
X156614213Y-130449526D01*
X156624317Y-130465607D01*
X156636426Y-130484878D01*
X156639788Y-130490960D01*
X156657909Y-130528587D01*
X156676297Y-130551645D01*
X156683938Y-130561226D01*
X156687964Y-130566900D01*
X156710182Y-130602259D01*
X156710184Y-130602262D01*
X156739710Y-130631788D01*
X156744347Y-130636976D01*
X156770376Y-130669616D01*
X156770378Y-130669617D01*
X156770380Y-130669620D01*
X156803022Y-130695651D01*
X156808210Y-130700288D01*
X156837738Y-130729816D01*
X156873103Y-130752037D01*
X156878762Y-130756052D01*
X156911413Y-130782091D01*
X156949035Y-130800208D01*
X156955112Y-130803567D01*
X156972635Y-130814577D01*
X156990477Y-130825789D01*
X157029891Y-130839581D01*
X157036320Y-130842244D01*
X157073941Y-130860361D01*
X157114641Y-130869650D01*
X157121328Y-130871576D01*
X157160742Y-130885367D01*
X157160745Y-130885368D01*
X157202241Y-130890043D01*
X157209093Y-130891207D01*
X157249806Y-130900500D01*
X157291564Y-130900500D01*
X157298502Y-130900889D01*
X157327400Y-130904145D01*
X157339998Y-130905565D01*
X157340000Y-130905565D01*
X157340002Y-130905565D01*
X157352599Y-130904145D01*
X157381497Y-130900889D01*
X157388436Y-130900500D01*
X157430194Y-130900500D01*
X157470905Y-130891208D01*
X157477760Y-130890043D01*
X157519255Y-130885368D01*
X157558680Y-130871571D01*
X157565321Y-130869658D01*
X157606061Y-130860360D01*
X157643693Y-130842236D01*
X157650105Y-130839580D01*
X157689522Y-130825789D01*
X157724889Y-130803565D01*
X157730961Y-130800209D01*
X157768587Y-130782091D01*
X157801236Y-130756052D01*
X157806895Y-130752037D01*
X157842262Y-130729816D01*
X157969816Y-130602262D01*
X158531216Y-130040862D01*
X176873452Y-130040862D01*
X176892492Y-130197680D01*
X176938375Y-130318662D01*
X176948510Y-130345385D01*
X177038247Y-130475392D01*
X177156490Y-130580145D01*
X177156492Y-130580146D01*
X177296364Y-130653558D01*
X177449744Y-130691362D01*
X177449745Y-130691362D01*
X177607715Y-130691362D01*
X177761095Y-130653558D01*
X177797873Y-130634255D01*
X177900970Y-130580145D01*
X178019213Y-130475392D01*
X178108950Y-130345385D01*
X178164967Y-130197680D01*
X178184008Y-130040862D01*
X178164967Y-129884044D01*
X178162692Y-129878046D01*
X178114311Y-129750476D01*
X178108950Y-129736339D01*
X178019213Y-129606332D01*
X177900970Y-129501579D01*
X177900968Y-129501578D01*
X177900967Y-129501577D01*
X177761095Y-129428165D01*
X177607716Y-129390362D01*
X177607715Y-129390362D01*
X177449745Y-129390362D01*
X177449744Y-129390362D01*
X177296364Y-129428165D01*
X177156492Y-129501577D01*
X177038246Y-129606333D01*
X176948511Y-129736337D01*
X176948510Y-129736338D01*
X176892492Y-129884043D01*
X176873452Y-130040861D01*
X176873452Y-130040862D01*
X158531216Y-130040862D01*
X162127826Y-126444252D01*
X162159816Y-126412262D01*
X162182043Y-126376886D01*
X162186051Y-126371239D01*
X162212092Y-126338586D01*
X162230213Y-126300955D01*
X162233570Y-126294881D01*
X162255789Y-126259522D01*
X162269581Y-126220107D01*
X162272244Y-126213679D01*
X162290360Y-126176061D01*
X162299658Y-126135321D01*
X162301571Y-126128680D01*
X162315368Y-126089255D01*
X162320043Y-126047760D01*
X162321208Y-126040905D01*
X162325838Y-126020619D01*
X162330500Y-126000194D01*
X162330500Y-125819806D01*
X162330500Y-125330002D01*
X166854751Y-125330002D01*
X166873685Y-125498056D01*
X166929545Y-125657694D01*
X166929547Y-125657697D01*
X167019518Y-125800884D01*
X167019523Y-125800890D01*
X167139109Y-125920476D01*
X167139115Y-125920481D01*
X167282302Y-126010452D01*
X167282307Y-126010455D01*
X167282310Y-126010456D01*
X167441941Y-126066313D01*
X167441944Y-126066313D01*
X167445656Y-126067612D01*
X167492383Y-126096973D01*
X167638181Y-126242771D01*
X167671666Y-126304094D01*
X167674500Y-126330452D01*
X167674500Y-126860397D01*
X167654815Y-126927436D01*
X167629166Y-126956249D01*
X167589114Y-126989118D01*
X167464090Y-127141460D01*
X167464086Y-127141467D01*
X167371188Y-127315266D01*
X167313975Y-127503870D01*
X167294659Y-127700000D01*
X167313975Y-127896129D01*
X167371188Y-128084733D01*
X167464086Y-128258532D01*
X167464090Y-128258539D01*
X167589116Y-128410883D01*
X167741460Y-128535909D01*
X167741467Y-128535913D01*
X167915266Y-128628811D01*
X167915269Y-128628811D01*
X167915273Y-128628814D01*
X168103868Y-128686024D01*
X168300000Y-128705341D01*
X168496132Y-128686024D01*
X168684727Y-128628814D01*
X168858538Y-128535910D01*
X169010883Y-128410883D01*
X169135910Y-128258538D01*
X169228814Y-128084727D01*
X169286024Y-127896132D01*
X169305341Y-127700000D01*
X169286024Y-127503868D01*
X169228814Y-127315273D01*
X169228811Y-127315269D01*
X169228811Y-127315266D01*
X169135913Y-127141467D01*
X169135909Y-127141460D01*
X169010885Y-126989118D01*
X168970834Y-126956249D01*
X168931500Y-126898503D01*
X168925500Y-126860397D01*
X168925500Y-126102737D01*
X168927224Y-126087123D01*
X168926938Y-126087096D01*
X168927672Y-126079333D01*
X168925500Y-126010202D01*
X168925500Y-125980651D01*
X168925500Y-125980650D01*
X168924629Y-125973759D01*
X168924172Y-125967945D01*
X168922709Y-125921374D01*
X168922709Y-125921372D01*
X168917120Y-125902137D01*
X168913174Y-125883084D01*
X168912517Y-125877883D01*
X168910664Y-125863208D01*
X168893501Y-125819859D01*
X168891614Y-125814346D01*
X168878617Y-125769610D01*
X168878616Y-125769608D01*
X168868421Y-125752369D01*
X168859860Y-125734893D01*
X168852486Y-125716269D01*
X168852486Y-125716267D01*
X168842474Y-125702488D01*
X168825083Y-125678550D01*
X168821900Y-125673705D01*
X168798170Y-125633579D01*
X168798165Y-125633573D01*
X168784005Y-125619413D01*
X168771370Y-125604620D01*
X168759593Y-125588412D01*
X168756785Y-125586089D01*
X181328225Y-125586089D01*
X181347265Y-125742907D01*
X181400428Y-125883084D01*
X181403283Y-125890612D01*
X181493020Y-126020619D01*
X181611263Y-126125372D01*
X181611265Y-126125373D01*
X181751137Y-126198785D01*
X181904517Y-126236589D01*
X181904518Y-126236589D01*
X182062488Y-126236589D01*
X182215868Y-126198785D01*
X182237282Y-126187546D01*
X182355743Y-126125372D01*
X182473986Y-126020619D01*
X182563723Y-125890612D01*
X182619740Y-125742907D01*
X182638781Y-125586089D01*
X182634980Y-125554780D01*
X182619740Y-125429270D01*
X182582092Y-125330002D01*
X182563723Y-125281566D01*
X182473986Y-125151559D01*
X182355743Y-125046806D01*
X182355741Y-125046805D01*
X182355740Y-125046804D01*
X182215868Y-124973392D01*
X182062489Y-124935589D01*
X182062488Y-124935589D01*
X181904518Y-124935589D01*
X181904517Y-124935589D01*
X181751137Y-124973392D01*
X181611265Y-125046804D01*
X181493019Y-125151560D01*
X181403284Y-125281564D01*
X181403283Y-125281565D01*
X181347265Y-125429270D01*
X181328225Y-125586088D01*
X181328225Y-125586089D01*
X168756785Y-125586089D01*
X168723693Y-125558713D01*
X168719381Y-125554790D01*
X168376973Y-125212382D01*
X168347612Y-125165655D01*
X168346313Y-125161943D01*
X168346313Y-125161941D01*
X168290456Y-125002310D01*
X168290455Y-125002307D01*
X168290452Y-125002302D01*
X168200481Y-124859115D01*
X168200476Y-124859109D01*
X168080890Y-124739523D01*
X168080884Y-124739518D01*
X167937697Y-124649547D01*
X167937694Y-124649545D01*
X167778056Y-124593685D01*
X167610003Y-124574751D01*
X167609997Y-124574751D01*
X167441943Y-124593685D01*
X167282305Y-124649545D01*
X167282302Y-124649547D01*
X167139115Y-124739518D01*
X167139109Y-124739523D01*
X167019523Y-124859109D01*
X167019518Y-124859115D01*
X166929547Y-125002302D01*
X166929545Y-125002305D01*
X166873685Y-125161943D01*
X166854751Y-125329997D01*
X166854751Y-125330002D01*
X162330500Y-125330002D01*
X162330500Y-121104500D01*
X162350185Y-121037461D01*
X162402989Y-120991706D01*
X162454500Y-120980500D01*
X165401194Y-120980500D01*
X165441905Y-120971208D01*
X165448760Y-120970043D01*
X165490255Y-120965368D01*
X165529680Y-120951571D01*
X165536321Y-120949658D01*
X165577061Y-120940360D01*
X165614693Y-120922236D01*
X165621105Y-120919580D01*
X165660522Y-120905789D01*
X165695889Y-120883565D01*
X165701961Y-120880209D01*
X165739587Y-120862091D01*
X165772236Y-120836052D01*
X165777895Y-120832037D01*
X165813262Y-120809816D01*
X165940816Y-120682262D01*
X166327826Y-120295252D01*
X166359816Y-120263262D01*
X166382037Y-120227895D01*
X166386052Y-120222236D01*
X166412091Y-120189587D01*
X166430215Y-120151949D01*
X166433564Y-120145891D01*
X166455789Y-120110522D01*
X166469581Y-120071103D01*
X166472242Y-120064681D01*
X166479145Y-120050347D01*
X166490359Y-120027061D01*
X166499652Y-119986342D01*
X166501574Y-119979675D01*
X166515368Y-119940255D01*
X166520044Y-119898747D01*
X166521204Y-119891919D01*
X166530500Y-119851195D01*
X166530500Y-119809435D01*
X166530889Y-119802496D01*
X166535565Y-119761000D01*
X166530889Y-119719502D01*
X166530500Y-119712564D01*
X166530500Y-119670806D01*
X166530499Y-119670803D01*
X166521208Y-119630095D01*
X166520042Y-119623233D01*
X166518572Y-119610184D01*
X166515368Y-119581745D01*
X166501576Y-119542332D01*
X166499649Y-119535644D01*
X166494757Y-119514211D01*
X166490359Y-119494939D01*
X166472242Y-119457319D01*
X166469582Y-119450899D01*
X166455789Y-119411478D01*
X166433567Y-119376112D01*
X166430204Y-119370028D01*
X166425286Y-119359815D01*
X166412091Y-119332414D01*
X166386051Y-119299762D01*
X166382041Y-119294109D01*
X166359816Y-119258738D01*
X166330287Y-119229209D01*
X166325650Y-119224021D01*
X166323928Y-119221862D01*
X166299620Y-119191380D01*
X166291277Y-119184727D01*
X166266976Y-119165347D01*
X166261789Y-119160711D01*
X166232262Y-119131184D01*
X166232259Y-119131182D01*
X166196899Y-119108963D01*
X166191224Y-119104937D01*
X166185934Y-119100718D01*
X166158586Y-119078909D01*
X166158584Y-119078908D01*
X166158583Y-119078907D01*
X166138265Y-119069123D01*
X166120962Y-119060790D01*
X166114888Y-119057433D01*
X166079522Y-119035211D01*
X166040102Y-119021417D01*
X166033675Y-119018755D01*
X165996060Y-119000640D01*
X165996053Y-119000638D01*
X165955352Y-118991349D01*
X165948675Y-118989425D01*
X165909255Y-118975632D01*
X165909254Y-118975631D01*
X165909252Y-118975631D01*
X165867757Y-118970955D01*
X165860899Y-118969790D01*
X165820199Y-118960500D01*
X165820194Y-118960500D01*
X165778436Y-118960500D01*
X165771497Y-118960110D01*
X165742599Y-118956854D01*
X165730002Y-118955435D01*
X165729998Y-118955435D01*
X165717400Y-118956854D01*
X165688502Y-118960110D01*
X165681564Y-118960500D01*
X165639805Y-118960500D01*
X165639803Y-118960500D01*
X165639797Y-118960501D01*
X165599098Y-118969790D01*
X165592242Y-118970955D01*
X165550743Y-118975632D01*
X165511328Y-118989423D01*
X165504646Y-118991348D01*
X165463940Y-119000640D01*
X165426326Y-119018753D01*
X165419901Y-119021414D01*
X165380482Y-119035209D01*
X165380474Y-119035213D01*
X165345117Y-119057428D01*
X165339032Y-119060791D01*
X165301413Y-119078908D01*
X165301411Y-119078909D01*
X165268769Y-119104941D01*
X165263096Y-119108966D01*
X165227739Y-119131183D01*
X165227735Y-119131186D01*
X165015741Y-119343181D01*
X164954418Y-119376666D01*
X164928060Y-119379500D01*
X161198236Y-119379500D01*
X161131197Y-119359815D01*
X161085442Y-119307011D01*
X161075498Y-119237853D01*
X161088878Y-119197047D01*
X161138111Y-119104937D01*
X161152014Y-119078927D01*
X161209224Y-118890332D01*
X161228541Y-118694200D01*
X161209224Y-118498068D01*
X161152014Y-118309473D01*
X161152011Y-118309469D01*
X161152011Y-118309466D01*
X161059113Y-118135667D01*
X161059109Y-118135661D01*
X161032440Y-118103164D01*
X161005128Y-118038854D01*
X161016919Y-117969987D01*
X161064072Y-117918427D01*
X161128294Y-117900500D01*
X166774424Y-117900500D01*
X166841463Y-117920185D01*
X166887218Y-117972989D01*
X166897644Y-118038383D01*
X166881846Y-118178599D01*
X166879435Y-118200000D01*
X166884110Y-118241496D01*
X166884500Y-118248435D01*
X166884500Y-119775191D01*
X166884501Y-119775200D01*
X166893791Y-119815908D01*
X166894955Y-119822763D01*
X166899632Y-119864259D01*
X166913420Y-119903662D01*
X166915345Y-119910345D01*
X166924639Y-119951061D01*
X166942759Y-119988688D01*
X166945420Y-119995113D01*
X166947337Y-120000590D01*
X166959212Y-120034525D01*
X166981422Y-120069872D01*
X166984787Y-120075959D01*
X167002910Y-120113589D01*
X167028940Y-120146229D01*
X167032966Y-120151904D01*
X167055182Y-120187259D01*
X167055184Y-120187262D01*
X171897739Y-125029817D01*
X171907501Y-125035951D01*
X171933095Y-125052032D01*
X171938755Y-125056048D01*
X171971413Y-125082092D01*
X172009054Y-125100218D01*
X172015116Y-125103569D01*
X172041637Y-125120233D01*
X172050474Y-125125787D01*
X172050475Y-125125787D01*
X172050478Y-125125789D01*
X172089881Y-125139576D01*
X172096310Y-125142239D01*
X172112161Y-125149872D01*
X172133939Y-125160360D01*
X172174655Y-125169653D01*
X172181328Y-125171576D01*
X172208862Y-125181210D01*
X172220745Y-125185368D01*
X172262241Y-125190043D01*
X172269093Y-125191207D01*
X172309806Y-125200500D01*
X172355046Y-125200500D01*
X173251564Y-125200500D01*
X173258502Y-125200889D01*
X173287400Y-125204145D01*
X173299998Y-125205565D01*
X173300000Y-125205565D01*
X173300003Y-125205565D01*
X173359918Y-125198814D01*
X173479247Y-125185369D01*
X173479248Y-125185368D01*
X173479255Y-125185368D01*
X173649522Y-125125789D01*
X173802262Y-125029816D01*
X173929816Y-124902262D01*
X174025789Y-124749522D01*
X174085368Y-124579255D01*
X174085806Y-124575373D01*
X174097798Y-124468932D01*
X174124864Y-124404517D01*
X174182458Y-124364962D01*
X174252295Y-124362823D01*
X174312202Y-124398781D01*
X174342556Y-124460202D01*
X174342787Y-124460157D01*
X174342957Y-124461012D01*
X174343158Y-124461419D01*
X174343423Y-124463356D01*
X174343973Y-124466122D01*
X174343975Y-124466131D01*
X174343976Y-124466132D01*
X174398572Y-124646111D01*
X174401188Y-124654733D01*
X174494086Y-124828532D01*
X174494090Y-124828539D01*
X174619116Y-124980883D01*
X174771460Y-125105909D01*
X174771467Y-125105913D01*
X174945266Y-125198811D01*
X174945269Y-125198811D01*
X174945273Y-125198814D01*
X175133868Y-125256024D01*
X175330000Y-125275341D01*
X175526132Y-125256024D01*
X175714727Y-125198814D01*
X175731139Y-125190042D01*
X175888532Y-125105913D01*
X175888538Y-125105910D01*
X176040883Y-124980883D01*
X176165910Y-124828538D01*
X176213492Y-124739518D01*
X176258811Y-124654733D01*
X176258811Y-124654732D01*
X176258814Y-124654727D01*
X176316024Y-124466132D01*
X176335341Y-124270000D01*
X176316024Y-124073868D01*
X176258814Y-123885273D01*
X176197298Y-123770184D01*
X176167088Y-123713665D01*
X176152846Y-123645263D01*
X176177846Y-123580019D01*
X176234151Y-123538648D01*
X176303884Y-123534286D01*
X176334899Y-123545854D01*
X176415266Y-123588811D01*
X176415269Y-123588811D01*
X176415273Y-123588814D01*
X176603868Y-123646024D01*
X176800000Y-123665341D01*
X176996132Y-123646024D01*
X177184727Y-123588814D01*
X177201182Y-123580019D01*
X177358532Y-123495913D01*
X177358538Y-123495910D01*
X177510883Y-123370883D01*
X177635910Y-123218538D01*
X177728814Y-123044727D01*
X177786024Y-122856132D01*
X177805341Y-122660000D01*
X177786024Y-122463868D01*
X177728814Y-122275273D01*
X177728811Y-122275269D01*
X177728811Y-122275266D01*
X177635913Y-122101467D01*
X177635909Y-122101460D01*
X177510883Y-121949116D01*
X177358539Y-121824090D01*
X177358532Y-121824086D01*
X177184733Y-121731188D01*
X177184727Y-121731186D01*
X177058997Y-121693046D01*
X176996129Y-121673975D01*
X176800000Y-121654659D01*
X176603870Y-121673975D01*
X176415266Y-121731188D01*
X176241465Y-121824087D01*
X176241463Y-121824088D01*
X176200480Y-121857721D01*
X176136170Y-121885033D01*
X176067302Y-121873239D01*
X176034137Y-121849547D01*
X174893933Y-120709343D01*
X174132461Y-119947870D01*
X174934500Y-119947870D01*
X174934501Y-119947876D01*
X174940908Y-120007483D01*
X174991202Y-120142328D01*
X174991206Y-120142335D01*
X175077452Y-120257544D01*
X175077455Y-120257547D01*
X175192664Y-120343793D01*
X175192671Y-120343797D01*
X175327517Y-120394091D01*
X175327516Y-120394091D01*
X175334444Y-120394835D01*
X175387127Y-120400500D01*
X177182872Y-120400499D01*
X177242483Y-120394091D01*
X177377331Y-120343796D01*
X177492546Y-120257546D01*
X177578796Y-120142331D01*
X177627810Y-120010916D01*
X177669681Y-119954984D01*
X177735145Y-119930566D01*
X177803418Y-119945417D01*
X177831673Y-119966569D01*
X177953599Y-120088495D01*
X178036052Y-120146229D01*
X178147165Y-120224032D01*
X178147167Y-120224033D01*
X178147170Y-120224035D01*
X178361337Y-120323903D01*
X178589592Y-120385063D01*
X178766034Y-120400500D01*
X178824999Y-120405659D01*
X178825000Y-120405659D01*
X178825001Y-120405659D01*
X178883966Y-120400500D01*
X179060408Y-120385063D01*
X179288663Y-120323903D01*
X179502830Y-120224035D01*
X179696401Y-120088495D01*
X179863495Y-119921401D01*
X179999035Y-119727830D01*
X180098903Y-119513663D01*
X180160063Y-119285408D01*
X180180659Y-119050000D01*
X180160063Y-118814592D01*
X180103600Y-118603868D01*
X180098905Y-118586344D01*
X180098904Y-118586343D01*
X180098903Y-118586337D01*
X179999035Y-118372171D01*
X179997570Y-118370078D01*
X179863494Y-118178597D01*
X179696402Y-118011506D01*
X179696395Y-118011501D01*
X179502834Y-117875967D01*
X179502830Y-117875965D01*
X179467165Y-117859334D01*
X179288663Y-117776097D01*
X179288659Y-117776096D01*
X179288655Y-117776094D01*
X179060413Y-117714938D01*
X179060403Y-117714936D01*
X178825001Y-117694341D01*
X178824999Y-117694341D01*
X178589596Y-117714936D01*
X178589586Y-117714938D01*
X178361344Y-117776094D01*
X178361337Y-117776096D01*
X178361337Y-117776097D01*
X178348483Y-117782091D01*
X178147171Y-117875964D01*
X178147169Y-117875965D01*
X177953600Y-118011503D01*
X177831673Y-118133430D01*
X177770350Y-118166914D01*
X177700658Y-118161930D01*
X177644725Y-118120058D01*
X177627810Y-118089081D01*
X177578797Y-117957671D01*
X177578793Y-117957664D01*
X177492547Y-117842455D01*
X177492544Y-117842452D01*
X177377335Y-117756206D01*
X177377328Y-117756202D01*
X177242482Y-117705908D01*
X177242483Y-117705908D01*
X177182883Y-117699501D01*
X177182881Y-117699500D01*
X177182873Y-117699500D01*
X177182864Y-117699500D01*
X175387129Y-117699500D01*
X175387123Y-117699501D01*
X175327516Y-117705908D01*
X175192671Y-117756202D01*
X175192664Y-117756206D01*
X175077455Y-117842452D01*
X175077452Y-117842455D01*
X174991206Y-117957664D01*
X174991202Y-117957671D01*
X174940908Y-118092517D01*
X174934501Y-118152116D01*
X174934500Y-118152135D01*
X174934500Y-119947870D01*
X174132461Y-119947870D01*
X173712019Y-119527428D01*
X173678534Y-119466105D01*
X173675700Y-119439747D01*
X173675700Y-115454454D01*
X173694707Y-115388481D01*
X173700109Y-115379885D01*
X173756647Y-115289905D01*
X173775988Y-115259124D01*
X173784877Y-115233722D01*
X173835568Y-115088855D01*
X173835569Y-115088849D01*
X173855765Y-114909603D01*
X173855765Y-114909596D01*
X173835569Y-114730350D01*
X173835568Y-114730345D01*
X173791645Y-114604821D01*
X173775989Y-114560078D01*
X173752033Y-114521953D01*
X173693337Y-114428538D01*
X173680016Y-114407338D01*
X173552462Y-114279784D01*
X173494387Y-114243293D01*
X173399723Y-114183811D01*
X173229454Y-114124231D01*
X173229449Y-114124230D01*
X173050204Y-114104035D01*
X173050196Y-114104035D01*
X172870950Y-114124230D01*
X172870945Y-114124231D01*
X172700676Y-114183811D01*
X172547937Y-114279784D01*
X172420384Y-114407337D01*
X172420380Y-114407342D01*
X172388471Y-114458124D01*
X172336136Y-114504414D01*
X172267082Y-114515061D01*
X172203234Y-114486685D01*
X172178487Y-114458124D01*
X172130616Y-114381938D01*
X172003062Y-114254384D01*
X171976120Y-114237455D01*
X171850323Y-114158411D01*
X171680054Y-114098831D01*
X171680049Y-114098830D01*
X171500804Y-114078635D01*
X171500796Y-114078635D01*
X171321550Y-114098830D01*
X171321545Y-114098831D01*
X171151276Y-114158411D01*
X170998537Y-114254384D01*
X170870984Y-114381937D01*
X170775011Y-114534676D01*
X170715431Y-114704945D01*
X170715430Y-114704950D01*
X170695235Y-114884196D01*
X170695235Y-114884203D01*
X170715430Y-115063449D01*
X170715431Y-115063454D01*
X170775011Y-115233724D01*
X170856293Y-115363081D01*
X170875300Y-115429054D01*
X170875300Y-120278055D01*
X170873575Y-120293672D01*
X170873861Y-120293699D01*
X170873126Y-120301465D01*
X170875300Y-120370614D01*
X170875300Y-120400143D01*
X170875301Y-120400160D01*
X170876168Y-120407031D01*
X170876626Y-120412850D01*
X170878090Y-120459424D01*
X170878091Y-120459427D01*
X170883680Y-120478667D01*
X170887624Y-120497711D01*
X170890136Y-120517591D01*
X170907290Y-120560919D01*
X170909182Y-120566447D01*
X170922181Y-120611188D01*
X170932380Y-120628434D01*
X170940938Y-120645903D01*
X170948314Y-120664532D01*
X170975698Y-120702223D01*
X170978906Y-120707107D01*
X171002627Y-120747216D01*
X171002633Y-120747224D01*
X171016790Y-120761380D01*
X171029428Y-120776176D01*
X171041205Y-120792386D01*
X171041206Y-120792387D01*
X171077109Y-120822088D01*
X171081420Y-120826010D01*
X172392988Y-122137578D01*
X173696230Y-123440820D01*
X173729715Y-123502143D01*
X173724731Y-123571835D01*
X173682859Y-123627768D01*
X173617395Y-123652185D01*
X173567595Y-123645543D01*
X173479257Y-123614632D01*
X173479249Y-123614630D01*
X173350918Y-123600172D01*
X173344954Y-123599500D01*
X173329969Y-123597811D01*
X173300002Y-123594435D01*
X173299998Y-123594435D01*
X173287400Y-123595854D01*
X173258502Y-123599110D01*
X173251564Y-123599500D01*
X172782940Y-123599500D01*
X172715901Y-123579815D01*
X172695259Y-123563181D01*
X168521819Y-119389741D01*
X168488334Y-119328418D01*
X168485500Y-119302060D01*
X168485500Y-118718417D01*
X168505185Y-118651378D01*
X168557989Y-118605623D01*
X168595617Y-118595197D01*
X168624195Y-118591977D01*
X168682849Y-118585369D01*
X168682852Y-118585368D01*
X168682855Y-118585368D01*
X168853122Y-118525789D01*
X169005862Y-118429816D01*
X169133416Y-118302262D01*
X169229389Y-118149522D01*
X169288968Y-117979255D01*
X169289433Y-117975128D01*
X169309165Y-117800003D01*
X169309165Y-117799996D01*
X169288969Y-117620750D01*
X169288968Y-117620745D01*
X169284398Y-117607684D01*
X169229389Y-117450478D01*
X169227848Y-117448026D01*
X169157990Y-117336847D01*
X169133416Y-117297738D01*
X169005862Y-117170184D01*
X169003233Y-117168532D01*
X168853123Y-117074211D01*
X168682854Y-117014631D01*
X168682850Y-117014630D01*
X168556784Y-117000426D01*
X168492370Y-116973359D01*
X168458949Y-116931010D01*
X168450751Y-116913988D01*
X168442242Y-116896319D01*
X168439583Y-116889898D01*
X168425789Y-116850478D01*
X168425244Y-116849610D01*
X168403563Y-116815106D01*
X168400213Y-116809044D01*
X168382091Y-116771413D01*
X168356049Y-116738757D01*
X168352038Y-116733104D01*
X168337218Y-116709518D01*
X168329818Y-116697740D01*
X168102262Y-116470184D01*
X168102259Y-116470182D01*
X168066904Y-116447966D01*
X168061229Y-116443940D01*
X168028589Y-116417910D01*
X167990959Y-116399787D01*
X167984872Y-116396422D01*
X167949525Y-116374212D01*
X167910114Y-116360421D01*
X167903688Y-116357759D01*
X167866061Y-116339639D01*
X167825345Y-116330345D01*
X167818662Y-116328420D01*
X167779259Y-116314632D01*
X167737763Y-116309955D01*
X167730908Y-116308791D01*
X167690200Y-116299501D01*
X167690196Y-116299500D01*
X167690194Y-116299500D01*
X167690191Y-116299500D01*
X165687863Y-116299500D01*
X165620824Y-116279815D01*
X165575069Y-116227011D01*
X165565125Y-116157853D01*
X165594150Y-116094297D01*
X165600182Y-116087819D01*
X165760151Y-115927850D01*
X166240629Y-115447370D01*
X166287353Y-115418012D01*
X166396316Y-115379885D01*
X166396319Y-115379882D01*
X166396323Y-115379881D01*
X166539510Y-115289910D01*
X166539511Y-115289909D01*
X166539516Y-115289906D01*
X166659103Y-115170319D01*
X166661094Y-115167150D01*
X166749078Y-115027126D01*
X166749082Y-115027118D01*
X166753229Y-115015266D01*
X166787209Y-114918156D01*
X166816567Y-114871432D01*
X166896513Y-114791486D01*
X166909079Y-114781420D01*
X166908925Y-114781233D01*
X166914937Y-114776259D01*
X166914937Y-114776258D01*
X166914940Y-114776257D01*
X166964190Y-114723810D01*
X166985911Y-114702090D01*
X166990401Y-114696300D01*
X166994183Y-114691870D01*
X167027448Y-114656448D01*
X167037674Y-114637845D01*
X167048353Y-114621588D01*
X167061362Y-114604819D01*
X167080656Y-114560230D01*
X167083212Y-114555011D01*
X167106627Y-114512423D01*
X167111905Y-114491861D01*
X167118207Y-114473454D01*
X167126635Y-114453982D01*
X167134233Y-114406008D01*
X167135414Y-114400302D01*
X167147500Y-114353232D01*
X167147500Y-114332004D01*
X167149027Y-114312604D01*
X167152346Y-114291650D01*
X167147775Y-114243293D01*
X167147500Y-114237455D01*
X167147500Y-113858806D01*
X167167185Y-113791767D01*
X167183814Y-113771130D01*
X168725311Y-112229632D01*
X168737886Y-112219559D01*
X168737731Y-112219372D01*
X168743733Y-112214405D01*
X168743740Y-112214402D01*
X168793005Y-112161939D01*
X168814711Y-112140234D01*
X168819194Y-112134452D01*
X168822991Y-112130007D01*
X168831821Y-112120604D01*
X168834834Y-112117395D01*
X168895072Y-112082001D01*
X168964886Y-112084792D01*
X168977631Y-112089897D01*
X169136337Y-112163903D01*
X169364592Y-112225063D01*
X169526724Y-112239248D01*
X169599999Y-112245659D01*
X169600000Y-112245659D01*
X169600001Y-112245659D01*
X169673276Y-112239248D01*
X169835408Y-112225063D01*
X170063663Y-112163903D01*
X170277830Y-112064035D01*
X170471401Y-111928495D01*
X170638495Y-111761401D01*
X170774035Y-111567830D01*
X170873903Y-111353663D01*
X170923805Y-111167425D01*
X173399500Y-111167425D01*
X173413587Y-111314952D01*
X173414472Y-111324217D01*
X173414473Y-111324221D01*
X173470495Y-111515016D01*
X173473684Y-111525875D01*
X173521072Y-111617795D01*
X173569991Y-111712686D01*
X173699905Y-111877883D01*
X173699909Y-111877887D01*
X173858746Y-112015521D01*
X174040750Y-112120601D01*
X174040752Y-112120601D01*
X174040756Y-112120604D01*
X174239367Y-112189344D01*
X174301173Y-112198229D01*
X174364728Y-112227253D01*
X174371208Y-112233286D01*
X180803181Y-118665259D01*
X180836666Y-118726582D01*
X180839500Y-118752940D01*
X180839500Y-119817870D01*
X180839501Y-119817876D01*
X180845908Y-119877483D01*
X180896202Y-120012328D01*
X180896206Y-120012335D01*
X180982452Y-120127544D01*
X180982455Y-120127547D01*
X181097664Y-120213793D01*
X181097671Y-120213797D01*
X181125121Y-120224035D01*
X181229598Y-120263002D01*
X181285531Y-120304873D01*
X181309949Y-120370337D01*
X181295098Y-120438610D01*
X181273947Y-120466865D01*
X181151886Y-120588926D01*
X181016400Y-120782420D01*
X181016399Y-120782422D01*
X180916570Y-120996507D01*
X180916567Y-120996513D01*
X180859364Y-121209999D01*
X180859364Y-121210000D01*
X181756314Y-121210000D01*
X181730507Y-121250156D01*
X181690000Y-121388111D01*
X181690000Y-121531889D01*
X181730507Y-121669844D01*
X181756314Y-121710000D01*
X180859364Y-121710000D01*
X180916567Y-121923486D01*
X180916570Y-121923492D01*
X181016399Y-122137578D01*
X181151894Y-122331082D01*
X181318917Y-122498105D01*
X181512421Y-122633600D01*
X181726507Y-122733429D01*
X181726516Y-122733433D01*
X181940000Y-122790634D01*
X181940000Y-121895501D01*
X182047685Y-121944680D01*
X182154237Y-121960000D01*
X182225763Y-121960000D01*
X182332315Y-121944680D01*
X182440000Y-121895501D01*
X182440000Y-122790633D01*
X182653483Y-122733433D01*
X182653492Y-122733429D01*
X182867578Y-122633600D01*
X183061082Y-122498105D01*
X183228105Y-122331082D01*
X183363600Y-122137578D01*
X183463429Y-121923492D01*
X183463432Y-121923486D01*
X183520636Y-121710000D01*
X182623686Y-121710000D01*
X182649493Y-121669844D01*
X182690000Y-121531889D01*
X182690000Y-121388111D01*
X182649493Y-121250156D01*
X182623686Y-121210000D01*
X183520636Y-121210000D01*
X183520635Y-121209999D01*
X183463432Y-120996513D01*
X183463429Y-120996507D01*
X183363600Y-120782422D01*
X183363599Y-120782420D01*
X183228113Y-120588926D01*
X183228108Y-120588920D01*
X183106053Y-120466865D01*
X183072568Y-120405542D01*
X183077552Y-120335850D01*
X183119424Y-120279917D01*
X183150400Y-120263002D01*
X183254879Y-120224035D01*
X183282326Y-120213798D01*
X183282326Y-120213797D01*
X183282331Y-120213796D01*
X183397546Y-120127546D01*
X183483796Y-120012331D01*
X183534091Y-119877483D01*
X183540500Y-119817873D01*
X183540499Y-118022128D01*
X183534091Y-117962517D01*
X183533300Y-117960397D01*
X183483797Y-117827671D01*
X183483793Y-117827664D01*
X183397547Y-117712455D01*
X183397544Y-117712452D01*
X183282335Y-117626206D01*
X183282328Y-117626202D01*
X183147482Y-117575908D01*
X183147483Y-117575908D01*
X183087883Y-117569501D01*
X183087881Y-117569500D01*
X183087873Y-117569500D01*
X183087865Y-117569500D01*
X182022940Y-117569500D01*
X181955901Y-117549815D01*
X181935259Y-117533181D01*
X176828274Y-112426196D01*
X176794789Y-112364873D01*
X176799773Y-112295181D01*
X176841645Y-112239248D01*
X176903353Y-112215157D01*
X177002797Y-112204999D01*
X177169334Y-112149814D01*
X177318656Y-112057712D01*
X177442712Y-111933656D01*
X177534814Y-111784334D01*
X177589999Y-111617797D01*
X177600500Y-111515009D01*
X177600499Y-110164992D01*
X177589999Y-110062203D01*
X177534814Y-109895666D01*
X177442712Y-109746344D01*
X177318656Y-109622288D01*
X177225888Y-109565069D01*
X177169336Y-109530187D01*
X177169331Y-109530185D01*
X177167862Y-109529698D01*
X177002797Y-109475001D01*
X177002795Y-109475000D01*
X176900010Y-109464500D01*
X176099998Y-109464500D01*
X176099980Y-109464501D01*
X175997203Y-109475000D01*
X175997200Y-109475001D01*
X175830668Y-109530185D01*
X175830663Y-109530187D01*
X175681342Y-109622289D01*
X175557288Y-109746343D01*
X175557285Y-109746347D01*
X175518184Y-109809740D01*
X175466236Y-109856465D01*
X175397274Y-109867686D01*
X175333192Y-109839843D01*
X175315175Y-109821294D01*
X175300092Y-109802114D01*
X175300090Y-109802112D01*
X175141253Y-109664478D01*
X174959249Y-109559398D01*
X174959245Y-109559396D01*
X174959244Y-109559396D01*
X174760633Y-109490656D01*
X174552602Y-109460746D01*
X174552598Y-109460746D01*
X174342672Y-109470745D01*
X174138421Y-109520296D01*
X174138417Y-109520298D01*
X173947256Y-109607598D01*
X173947251Y-109607601D01*
X173776046Y-109729515D01*
X173776040Y-109729520D01*
X173631014Y-109881620D01*
X173517388Y-110058425D01*
X173439274Y-110253544D01*
X173405970Y-110426344D01*
X173399500Y-110459915D01*
X173399500Y-111167425D01*
X170923805Y-111167425D01*
X170935063Y-111125408D01*
X170955659Y-110890000D01*
X170935063Y-110654592D01*
X170882900Y-110459914D01*
X170873905Y-110426344D01*
X170873904Y-110426343D01*
X170873903Y-110426337D01*
X170774035Y-110212171D01*
X170768730Y-110204595D01*
X170638496Y-110018600D01*
X170587214Y-109967318D01*
X170516567Y-109896671D01*
X170483084Y-109835351D01*
X170488068Y-109765659D01*
X170529939Y-109709725D01*
X170560915Y-109692810D01*
X170692331Y-109643796D01*
X170807546Y-109557546D01*
X170893796Y-109442331D01*
X170944091Y-109307483D01*
X170950500Y-109247873D01*
X170950499Y-107452128D01*
X170944091Y-107392517D01*
X170942810Y-107389083D01*
X170893797Y-107257671D01*
X170893793Y-107257664D01*
X170807547Y-107142455D01*
X170807544Y-107142452D01*
X170692335Y-107056206D01*
X170692328Y-107056202D01*
X170557482Y-107005908D01*
X170557483Y-107005908D01*
X170497883Y-106999501D01*
X170497881Y-106999500D01*
X170497873Y-106999500D01*
X170497864Y-106999500D01*
X168702129Y-106999500D01*
X168702123Y-106999501D01*
X168642516Y-107005908D01*
X168507671Y-107056202D01*
X168507664Y-107056206D01*
X168392455Y-107142452D01*
X168392452Y-107142455D01*
X168306206Y-107257664D01*
X168306203Y-107257669D01*
X168257189Y-107389083D01*
X168215317Y-107445016D01*
X168149853Y-107469433D01*
X168081580Y-107454581D01*
X168053326Y-107433430D01*
X167931402Y-107311506D01*
X167931395Y-107311501D01*
X167737834Y-107175967D01*
X167737830Y-107175965D01*
X167694524Y-107155771D01*
X167523663Y-107076097D01*
X167523659Y-107076096D01*
X167523655Y-107076094D01*
X167295413Y-107014938D01*
X167295403Y-107014936D01*
X167060001Y-106994341D01*
X167059999Y-106994341D01*
X166824596Y-107014936D01*
X166824586Y-107014938D01*
X166596344Y-107076094D01*
X166596337Y-107076096D01*
X166596337Y-107076097D01*
X166582887Y-107082369D01*
X166382171Y-107175964D01*
X166382169Y-107175965D01*
X166188597Y-107311505D01*
X166021508Y-107478594D01*
X165891269Y-107664595D01*
X165836692Y-107708219D01*
X165767193Y-107715412D01*
X165704839Y-107683890D01*
X165688119Y-107664594D01*
X165558113Y-107478926D01*
X165558108Y-107478920D01*
X165391082Y-107311894D01*
X165197578Y-107176399D01*
X164983492Y-107076570D01*
X164983486Y-107076567D01*
X164770000Y-107019364D01*
X164770000Y-107914498D01*
X164662315Y-107865320D01*
X164555763Y-107850000D01*
X164484237Y-107850000D01*
X164377685Y-107865320D01*
X164270000Y-107914498D01*
X164270000Y-107019364D01*
X164269999Y-107019364D01*
X164056513Y-107076567D01*
X164056507Y-107076570D01*
X163842422Y-107176399D01*
X163842420Y-107176400D01*
X163648926Y-107311886D01*
X163648920Y-107311891D01*
X163481891Y-107478920D01*
X163481890Y-107478922D01*
X163351880Y-107664595D01*
X163297303Y-107708219D01*
X163227804Y-107715412D01*
X163165450Y-107683890D01*
X163148730Y-107664594D01*
X163018494Y-107478597D01*
X162851402Y-107311506D01*
X162851395Y-107311501D01*
X162657834Y-107175967D01*
X162657830Y-107175965D01*
X162614524Y-107155771D01*
X162443663Y-107076097D01*
X162443659Y-107076096D01*
X162443655Y-107076094D01*
X162215413Y-107014938D01*
X162215403Y-107014936D01*
X161980001Y-106994341D01*
X161979998Y-106994341D01*
X161832007Y-107007288D01*
X161763507Y-106993521D01*
X161733519Y-106971441D01*
X160834259Y-106072181D01*
X160800774Y-106010858D01*
X160805758Y-105941166D01*
X160847630Y-105885233D01*
X160913094Y-105860816D01*
X160921940Y-105860500D01*
X176898115Y-105860500D01*
X176940072Y-105860500D01*
X176944492Y-105860657D01*
X177182425Y-105877672D01*
X177199928Y-105880189D01*
X177426514Y-105929479D01*
X177443488Y-105934463D01*
X177660747Y-106015494D01*
X177676841Y-106022844D01*
X177880355Y-106133970D01*
X177895239Y-106143534D01*
X178080877Y-106282499D01*
X178094240Y-106294078D01*
X178258211Y-106458048D01*
X178269791Y-106471412D01*
X178408756Y-106657046D01*
X178418321Y-106671930D01*
X178529447Y-106875441D01*
X178536797Y-106891534D01*
X178617834Y-107108800D01*
X178622818Y-107125776D01*
X178672106Y-107352352D01*
X178674624Y-107369863D01*
X178691625Y-107607550D01*
X178691783Y-107611975D01*
X178691783Y-111896472D01*
X178691749Y-111896587D01*
X178691783Y-111949377D01*
X178691783Y-111975312D01*
X178691798Y-111975646D01*
X178691836Y-112032320D01*
X178714575Y-112199784D01*
X178759641Y-112362677D01*
X178826207Y-112518010D01*
X178826211Y-112518019D01*
X178913075Y-112662992D01*
X178913076Y-112662994D01*
X179018650Y-112794957D01*
X179059579Y-112833993D01*
X179059822Y-112834247D01*
X179061935Y-112836260D01*
X179061939Y-112836265D01*
X182728180Y-116328420D01*
X183556247Y-117117168D01*
X183558328Y-117119515D01*
X183564642Y-117125468D01*
X183564643Y-117125470D01*
X183594935Y-117154032D01*
X183598462Y-117157640D01*
X183609762Y-117170184D01*
X183671706Y-117238949D01*
X183683958Y-117255008D01*
X183738919Y-117340719D01*
X183748400Y-117358552D01*
X183788716Y-117452043D01*
X183795177Y-117471180D01*
X183819781Y-117569982D01*
X183823049Y-117589912D01*
X183828942Y-117662490D01*
X183831624Y-117695533D01*
X183831892Y-117698827D01*
X183832095Y-117703880D01*
X183823869Y-132919412D01*
X183823861Y-132919504D01*
X183823841Y-132970550D01*
X183823540Y-132976625D01*
X183810604Y-133107531D01*
X183805859Y-133131355D01*
X183770309Y-133248467D01*
X183761010Y-133270908D01*
X183703313Y-133378837D01*
X183689818Y-133399034D01*
X183612182Y-133493651D01*
X183595010Y-133510828D01*
X183550363Y-133547486D01*
X183500421Y-133588490D01*
X183480228Y-133601990D01*
X183372314Y-133659721D01*
X183349875Y-133669027D01*
X183232774Y-133704611D01*
X183208953Y-133709363D01*
X183077930Y-133722351D01*
X183071855Y-133722654D01*
X183021436Y-133722689D01*
X183021344Y-133722697D01*
X140408171Y-133759042D01*
X140402086Y-133758748D01*
X140400647Y-133758607D01*
X140270968Y-133745938D01*
X140247118Y-133741212D01*
X140129799Y-133705711D01*
X140107325Y-133696419D01*
X139999192Y-133638704D01*
X139978962Y-133625202D01*
X139884171Y-133547486D01*
X139866967Y-133530297D01*
X139789174Y-133435582D01*
X139775655Y-133415365D01*
X139717844Y-133307284D01*
X139708531Y-133284817D01*
X139672927Y-133167527D01*
X139668179Y-133143675D01*
X139655282Y-133012862D01*
X139654983Y-133006775D01*
X139654983Y-128053503D01*
X146348633Y-128053503D01*
X146367673Y-128210321D01*
X146423691Y-128358026D01*
X146513428Y-128488033D01*
X146631671Y-128592786D01*
X146631673Y-128592787D01*
X146771545Y-128666199D01*
X146924925Y-128704003D01*
X146924926Y-128704003D01*
X147082896Y-128704003D01*
X147236276Y-128666199D01*
X147307506Y-128628814D01*
X147376151Y-128592786D01*
X147494394Y-128488033D01*
X147584131Y-128358026D01*
X147640148Y-128210321D01*
X147659189Y-128053503D01*
X147640148Y-127896685D01*
X147639938Y-127896132D01*
X147618903Y-127840667D01*
X147584131Y-127748980D01*
X147494394Y-127618973D01*
X147376151Y-127514220D01*
X147376149Y-127514219D01*
X147376148Y-127514218D01*
X147236276Y-127440806D01*
X147082897Y-127403003D01*
X147082896Y-127403003D01*
X146924926Y-127403003D01*
X146924925Y-127403003D01*
X146771545Y-127440806D01*
X146631673Y-127514218D01*
X146513427Y-127618974D01*
X146423692Y-127748978D01*
X146423691Y-127748979D01*
X146367673Y-127896684D01*
X146348633Y-128053502D01*
X146348633Y-128053503D01*
X139654983Y-128053503D01*
X139654983Y-123598730D01*
X141893860Y-123598730D01*
X141912900Y-123755548D01*
X141962097Y-123885267D01*
X141968918Y-123903253D01*
X142058655Y-124033260D01*
X142176898Y-124138013D01*
X142176900Y-124138014D01*
X142316772Y-124211426D01*
X142470152Y-124249230D01*
X142470153Y-124249230D01*
X142628123Y-124249230D01*
X142781503Y-124211426D01*
X142921378Y-124138013D01*
X143039621Y-124033260D01*
X143129358Y-123903253D01*
X143185375Y-123755548D01*
X143204416Y-123598730D01*
X143203988Y-123595200D01*
X143185375Y-123441911D01*
X143147931Y-123343181D01*
X143129358Y-123294207D01*
X143039621Y-123164200D01*
X142921378Y-123059447D01*
X142921376Y-123059446D01*
X142921375Y-123059445D01*
X142781503Y-122986033D01*
X142628124Y-122948230D01*
X142628123Y-122948230D01*
X142470153Y-122948230D01*
X142470152Y-122948230D01*
X142316772Y-122986033D01*
X142176900Y-123059445D01*
X142119163Y-123110595D01*
X142096850Y-123130363D01*
X142058654Y-123164201D01*
X141968919Y-123294205D01*
X141968918Y-123294206D01*
X141912900Y-123441911D01*
X141893860Y-123598729D01*
X141893860Y-123598730D01*
X139654983Y-123598730D01*
X139654983Y-118719603D01*
X143293565Y-118719603D01*
X143313760Y-118898849D01*
X143313761Y-118898854D01*
X143373341Y-119069123D01*
X143445984Y-119184733D01*
X143469314Y-119221862D01*
X143596868Y-119349416D01*
X143661045Y-119389741D01*
X143740628Y-119439747D01*
X143749608Y-119445389D01*
X143808811Y-119466105D01*
X143919875Y-119504968D01*
X143919880Y-119504969D01*
X144099126Y-119525165D01*
X144099130Y-119525165D01*
X144099134Y-119525165D01*
X144278379Y-119504969D01*
X144278382Y-119504968D01*
X144278385Y-119504968D01*
X144448652Y-119445389D01*
X144601392Y-119349416D01*
X144728946Y-119221862D01*
X144824919Y-119069122D01*
X144884498Y-118898855D01*
X144885312Y-118891625D01*
X144912375Y-118827211D01*
X144920842Y-118817832D01*
X145889513Y-117849161D01*
X145902079Y-117839095D01*
X145901925Y-117838908D01*
X145907937Y-117833934D01*
X145907937Y-117833933D01*
X145907940Y-117833932D01*
X145957190Y-117781485D01*
X145978911Y-117759765D01*
X145983401Y-117753975D01*
X145987183Y-117749545D01*
X146020448Y-117714123D01*
X146030674Y-117695520D01*
X146041353Y-117679263D01*
X146054362Y-117662494D01*
X146073656Y-117617905D01*
X146076212Y-117612686D01*
X146099627Y-117570098D01*
X146104905Y-117549536D01*
X146111207Y-117531129D01*
X146119635Y-117511657D01*
X146127233Y-117463683D01*
X146128414Y-117457977D01*
X146140500Y-117410907D01*
X146140500Y-117389679D01*
X146142027Y-117370279D01*
X146145346Y-117349325D01*
X146140775Y-117300968D01*
X146140729Y-117300002D01*
X147844751Y-117300002D01*
X147863685Y-117468056D01*
X147919545Y-117627694D01*
X147919547Y-117627697D01*
X148009518Y-117770884D01*
X148009523Y-117770890D01*
X148129109Y-117890476D01*
X148129115Y-117890481D01*
X148272304Y-117980453D01*
X148277818Y-117983109D01*
X148329678Y-118029932D01*
X148347990Y-118097359D01*
X148326942Y-118163983D01*
X148319870Y-118173493D01*
X148264090Y-118241461D01*
X148264086Y-118241467D01*
X148171188Y-118415266D01*
X148113975Y-118603870D01*
X148094659Y-118800000D01*
X148113975Y-118996129D01*
X148113976Y-118996132D01*
X148154944Y-119131186D01*
X148171188Y-119184733D01*
X148264086Y-119358532D01*
X148264090Y-119358539D01*
X148389116Y-119510883D01*
X148541460Y-119635909D01*
X148541467Y-119635913D01*
X148715266Y-119728811D01*
X148715269Y-119728811D01*
X148715273Y-119728814D01*
X148903868Y-119786024D01*
X149100000Y-119805341D01*
X149296132Y-119786024D01*
X149484727Y-119728814D01*
X149486561Y-119727834D01*
X149593258Y-119670803D01*
X149658538Y-119635910D01*
X149810883Y-119510883D01*
X149935910Y-119358538D01*
X150025258Y-119191380D01*
X150028811Y-119184733D01*
X150028811Y-119184732D01*
X150028814Y-119184727D01*
X150086024Y-118996132D01*
X150105341Y-118800000D01*
X150086024Y-118603868D01*
X150028814Y-118415273D01*
X150028811Y-118415269D01*
X150028811Y-118415266D01*
X149935913Y-118241467D01*
X149935909Y-118241460D01*
X149810885Y-118089118D01*
X149770834Y-118056249D01*
X149731500Y-117998503D01*
X149725500Y-117960397D01*
X149725500Y-117882742D01*
X149727224Y-117867122D01*
X149726939Y-117867096D01*
X149727671Y-117859340D01*
X149727673Y-117859333D01*
X149725500Y-117790185D01*
X149725500Y-117760650D01*
X149724631Y-117753772D01*
X149724172Y-117747943D01*
X149722709Y-117701372D01*
X149717122Y-117682144D01*
X149713174Y-117663084D01*
X149713100Y-117662496D01*
X149710664Y-117643208D01*
X149710663Y-117643206D01*
X149710663Y-117643204D01*
X149693512Y-117599887D01*
X149691619Y-117594358D01*
X149678618Y-117549609D01*
X149678616Y-117549606D01*
X149668423Y-117532371D01*
X149659861Y-117514894D01*
X149652487Y-117496270D01*
X149651154Y-117494435D01*
X149625079Y-117458545D01*
X149621888Y-117453686D01*
X149620916Y-117452043D01*
X149598170Y-117413580D01*
X149598168Y-117413578D01*
X149598165Y-117413574D01*
X149584006Y-117399415D01*
X149571368Y-117384619D01*
X149559594Y-117368413D01*
X149554125Y-117363889D01*
X149523688Y-117338709D01*
X149519376Y-117334786D01*
X149366973Y-117182383D01*
X149337612Y-117135656D01*
X149336313Y-117131943D01*
X149336313Y-117131941D01*
X149280456Y-116972310D01*
X149280455Y-116972307D01*
X149280452Y-116972302D01*
X149190481Y-116829115D01*
X149190476Y-116829109D01*
X149070890Y-116709523D01*
X149070884Y-116709518D01*
X148927697Y-116619547D01*
X148927694Y-116619545D01*
X148768056Y-116563685D01*
X148600003Y-116544751D01*
X148599997Y-116544751D01*
X148431943Y-116563685D01*
X148272305Y-116619545D01*
X148272302Y-116619547D01*
X148129115Y-116709518D01*
X148129109Y-116709523D01*
X148009523Y-116829109D01*
X148009518Y-116829115D01*
X147919547Y-116972302D01*
X147919545Y-116972305D01*
X147863685Y-117131943D01*
X147844751Y-117299997D01*
X147844751Y-117300002D01*
X146140729Y-117300002D01*
X146140500Y-117295130D01*
X146140500Y-115851467D01*
X146159507Y-115785494D01*
X146215788Y-115695924D01*
X146215789Y-115695922D01*
X146275368Y-115525655D01*
X146275369Y-115525649D01*
X146295565Y-115346403D01*
X146295565Y-115346396D01*
X146275369Y-115167150D01*
X146275368Y-115167145D01*
X146230878Y-115040000D01*
X146215789Y-114996878D01*
X146119816Y-114844138D01*
X145992262Y-114716584D01*
X145975279Y-114705913D01*
X145839523Y-114620611D01*
X145669254Y-114561031D01*
X145669249Y-114561030D01*
X145490004Y-114540835D01*
X145489996Y-114540835D01*
X145310750Y-114561030D01*
X145310745Y-114561031D01*
X145140476Y-114620611D01*
X144987737Y-114716584D01*
X144860184Y-114844137D01*
X144764211Y-114996876D01*
X144704631Y-115167145D01*
X144704630Y-115167150D01*
X144684435Y-115346396D01*
X144684435Y-115346403D01*
X144704630Y-115525649D01*
X144704631Y-115525654D01*
X144764211Y-115695924D01*
X144820493Y-115785494D01*
X144839500Y-115851467D01*
X144839500Y-117007921D01*
X144819815Y-117074960D01*
X144803181Y-117095602D01*
X144000905Y-117897877D01*
X143939582Y-117931362D01*
X143927118Y-117933415D01*
X143919882Y-117934230D01*
X143919874Y-117934232D01*
X143749608Y-117993810D01*
X143596867Y-118089784D01*
X143469314Y-118217337D01*
X143373341Y-118370076D01*
X143313761Y-118540345D01*
X143313760Y-118540350D01*
X143293565Y-118719596D01*
X143293565Y-118719603D01*
X139654983Y-118719603D01*
X139654983Y-117933905D01*
X139655260Y-117928049D01*
X139656006Y-117920185D01*
X139667226Y-117801853D01*
X139671620Y-117778881D01*
X139704618Y-117665634D01*
X139713250Y-117643899D01*
X139766936Y-117538872D01*
X139779504Y-117519137D01*
X139819270Y-117468059D01*
X139857511Y-117418941D01*
X139861305Y-117414515D01*
X139889468Y-117384651D01*
X139889468Y-117384649D01*
X139891340Y-117382665D01*
X139899093Y-117372626D01*
X143958071Y-112874306D01*
X143958078Y-112874301D01*
X143963484Y-112868310D01*
X143963610Y-112868232D01*
X143998432Y-112829611D01*
X143998433Y-112829612D01*
X144060016Y-112761313D01*
X144161926Y-112608200D01*
X144240340Y-112441825D01*
X144293570Y-112265769D01*
X144320471Y-112083820D01*
X144320491Y-112019698D01*
X144320500Y-112019524D01*
X144320500Y-107612213D01*
X144320658Y-107607789D01*
X144322265Y-107585326D01*
X144337674Y-107369857D01*
X144340190Y-107352360D01*
X144389483Y-107125766D01*
X144394460Y-107108815D01*
X144475502Y-106891534D01*
X144482851Y-106875444D01*
X144587017Y-106684678D01*
X144593981Y-106671923D01*
X144603537Y-106657054D01*
X144742508Y-106471412D01*
X144754080Y-106458056D01*
X144918056Y-106294080D01*
X144931413Y-106282506D01*
X145117060Y-106143534D01*
X145131923Y-106133981D01*
X145335444Y-106022850D01*
X145351537Y-106015501D01*
X145363985Y-106010858D01*
X145568815Y-105934460D01*
X145585766Y-105929483D01*
X145812360Y-105880190D01*
X145829857Y-105877674D01*
X146067791Y-105860657D01*
X146072214Y-105860500D01*
X146114170Y-105860500D01*
X147597060Y-105860500D01*
X147664099Y-105880185D01*
G37*
%TD.AperFunction*%
%TA.AperFunction,Conductor*%
G36*
X150401402Y-110880767D02*
G01*
X150453796Y-110926991D01*
X150472415Y-110982290D01*
X150484936Y-111125403D01*
X150484938Y-111125413D01*
X150546094Y-111353655D01*
X150546096Y-111353659D01*
X150546097Y-111353663D01*
X150626004Y-111525023D01*
X150645965Y-111567830D01*
X150645967Y-111567834D01*
X150680952Y-111617797D01*
X150781505Y-111761401D01*
X150948599Y-111928495D01*
X151039114Y-111991874D01*
X151142165Y-112064032D01*
X151142167Y-112064033D01*
X151142170Y-112064035D01*
X151356337Y-112163903D01*
X151584592Y-112225063D01*
X151746724Y-112239248D01*
X151819999Y-112245659D01*
X151820000Y-112245659D01*
X151820001Y-112245659D01*
X151836004Y-112244258D01*
X151965038Y-112232969D01*
X152033536Y-112246735D01*
X152083719Y-112295350D01*
X152099653Y-112363379D01*
X152098317Y-112375898D01*
X152092071Y-112415326D01*
X152090887Y-112421046D01*
X152079301Y-112466172D01*
X152079300Y-112466182D01*
X152079300Y-112486216D01*
X152077773Y-112505615D01*
X152074640Y-112525394D01*
X152074640Y-112525395D01*
X152079025Y-112571783D01*
X152079300Y-112577621D01*
X152079300Y-112731523D01*
X152060294Y-112797495D01*
X152024345Y-112854707D01*
X151968485Y-113014343D01*
X151949551Y-113182397D01*
X151949551Y-113182402D01*
X151968485Y-113350456D01*
X152024345Y-113510094D01*
X152024347Y-113510097D01*
X152114318Y-113653284D01*
X152114323Y-113653290D01*
X152233909Y-113772876D01*
X152233915Y-113772881D01*
X152377102Y-113862852D01*
X152377105Y-113862854D01*
X152377109Y-113862855D01*
X152377110Y-113862856D01*
X152449713Y-113888260D01*
X152536743Y-113918714D01*
X152704797Y-113937649D01*
X152704800Y-113937649D01*
X152704803Y-113937649D01*
X152872856Y-113918714D01*
X152877583Y-113917060D01*
X153032490Y-113862856D01*
X153032492Y-113862854D01*
X153032494Y-113862854D01*
X153032497Y-113862852D01*
X153175684Y-113772881D01*
X153175685Y-113772880D01*
X153175690Y-113772877D01*
X153295277Y-113653290D01*
X153385252Y-113510097D01*
X153385254Y-113510094D01*
X153385254Y-113510092D01*
X153385256Y-113510090D01*
X153441113Y-113350459D01*
X153441113Y-113350458D01*
X153441114Y-113350456D01*
X153460049Y-113182402D01*
X153460049Y-113182397D01*
X153442774Y-113029080D01*
X153441113Y-113014341D01*
X153410548Y-112926990D01*
X153383674Y-112850188D01*
X153380113Y-112780410D01*
X153413033Y-112721555D01*
X153904353Y-112230235D01*
X153965674Y-112196752D01*
X154024125Y-112198143D01*
X154049843Y-112205034D01*
X154124592Y-112225063D01*
X154286724Y-112239248D01*
X154359999Y-112245659D01*
X154360000Y-112245659D01*
X154360001Y-112245659D01*
X154433276Y-112239248D01*
X154595408Y-112225063D01*
X154823663Y-112163903D01*
X155037830Y-112064035D01*
X155231401Y-111928495D01*
X155398495Y-111761401D01*
X155528425Y-111575842D01*
X155583002Y-111532217D01*
X155652500Y-111525023D01*
X155714855Y-111556546D01*
X155731575Y-111575842D01*
X155861501Y-111761396D01*
X155861506Y-111761402D01*
X156028594Y-111928491D01*
X156028597Y-111928493D01*
X156028599Y-111928495D01*
X156046622Y-111941115D01*
X156090247Y-111995689D01*
X156099500Y-112042690D01*
X156099500Y-114390191D01*
X156099501Y-114390200D01*
X156108791Y-114430908D01*
X156109955Y-114437763D01*
X156114632Y-114479259D01*
X156128420Y-114518662D01*
X156130345Y-114525345D01*
X156139639Y-114566061D01*
X156157759Y-114603688D01*
X156160421Y-114610114D01*
X156174212Y-114649525D01*
X156196422Y-114684872D01*
X156199787Y-114690959D01*
X156217910Y-114728589D01*
X156243940Y-114761229D01*
X156247966Y-114766904D01*
X156270182Y-114802259D01*
X156270184Y-114802262D01*
X158770488Y-117302566D01*
X158803973Y-117363889D01*
X158798989Y-117433581D01*
X158757117Y-117489514D01*
X158691653Y-117513931D01*
X158668924Y-117513467D01*
X158500004Y-117494435D01*
X158499996Y-117494435D01*
X158320750Y-117514630D01*
X158320737Y-117514633D01*
X158150481Y-117574209D01*
X158150477Y-117574210D01*
X158060904Y-117630494D01*
X157994932Y-117649500D01*
X157500808Y-117649500D01*
X157433769Y-117629815D01*
X157413127Y-117613181D01*
X156529154Y-116729208D01*
X156495669Y-116667885D01*
X156493433Y-116629369D01*
X156495341Y-116610003D01*
X156495341Y-116610001D01*
X156495341Y-116610000D01*
X156476024Y-116413868D01*
X156418814Y-116225273D01*
X156418811Y-116225269D01*
X156418811Y-116225266D01*
X156325913Y-116051467D01*
X156325909Y-116051460D01*
X156200883Y-115899116D01*
X156048539Y-115774090D01*
X156048532Y-115774086D01*
X155874733Y-115681188D01*
X155874727Y-115681186D01*
X155686132Y-115623976D01*
X155686129Y-115623975D01*
X155490000Y-115604659D01*
X155293870Y-115623975D01*
X155105266Y-115681188D01*
X154931467Y-115774086D01*
X154931460Y-115774090D01*
X154779116Y-115899116D01*
X154654090Y-116051460D01*
X154654086Y-116051467D01*
X154561188Y-116225266D01*
X154503975Y-116413870D01*
X154484659Y-116610000D01*
X154503975Y-116806129D01*
X154503976Y-116806132D01*
X154561097Y-116994435D01*
X154561188Y-116994733D01*
X154654086Y-117168532D01*
X154654090Y-117168539D01*
X154779116Y-117320883D01*
X154931460Y-117445909D01*
X154931467Y-117445913D01*
X155105266Y-117538811D01*
X155105269Y-117538811D01*
X155105273Y-117538814D01*
X155293868Y-117596024D01*
X155490000Y-117615341D01*
X155490000Y-117615340D01*
X155490001Y-117615341D01*
X155490003Y-117615341D01*
X155501515Y-117614206D01*
X155509369Y-117613433D01*
X155578015Y-117626449D01*
X155609208Y-117649154D01*
X156659564Y-118699509D01*
X156669640Y-118712086D01*
X156669827Y-118711932D01*
X156674795Y-118717937D01*
X156674797Y-118717939D01*
X156674798Y-118717940D01*
X156676566Y-118719600D01*
X156727260Y-118767205D01*
X156748961Y-118788907D01*
X156748965Y-118788910D01*
X156748966Y-118788911D01*
X156754759Y-118793404D01*
X156759191Y-118797190D01*
X156794607Y-118830448D01*
X156801517Y-118834247D01*
X156813207Y-118840674D01*
X156829468Y-118851355D01*
X156846237Y-118864363D01*
X156890827Y-118883658D01*
X156896056Y-118886220D01*
X156938632Y-118909627D01*
X156959193Y-118914905D01*
X156977597Y-118921207D01*
X156997074Y-118929636D01*
X157034927Y-118935630D01*
X157045054Y-118937235D01*
X157050764Y-118938417D01*
X157097823Y-118950500D01*
X157119045Y-118950500D01*
X157138442Y-118952026D01*
X157159405Y-118955347D01*
X157204104Y-118951121D01*
X157207770Y-118950775D01*
X157213608Y-118950500D01*
X157994932Y-118950500D01*
X158060904Y-118969506D01*
X158150477Y-119025789D01*
X158150481Y-119025790D01*
X158320737Y-119085366D01*
X158320743Y-119085367D01*
X158320745Y-119085368D01*
X158320746Y-119085368D01*
X158320750Y-119085369D01*
X158499996Y-119105565D01*
X158500000Y-119105565D01*
X158500004Y-119105565D01*
X158679249Y-119085369D01*
X158679252Y-119085368D01*
X158679255Y-119085368D01*
X158849522Y-119025789D01*
X159002262Y-118929816D01*
X159045404Y-118886673D01*
X159106725Y-118853189D01*
X159176416Y-118858173D01*
X159232350Y-118900044D01*
X159251744Y-118938359D01*
X159294386Y-119078928D01*
X159357522Y-119197047D01*
X159371764Y-119265449D01*
X159346764Y-119330693D01*
X159290459Y-119372064D01*
X159248164Y-119379500D01*
X156791836Y-119379500D01*
X156784897Y-119379110D01*
X156755999Y-119375854D01*
X156743402Y-119374435D01*
X156743398Y-119374435D01*
X156730800Y-119375854D01*
X156701902Y-119379110D01*
X156694964Y-119379500D01*
X155988436Y-119379500D01*
X155981497Y-119379110D01*
X155952599Y-119375854D01*
X155940002Y-119374435D01*
X155939998Y-119374435D01*
X155927400Y-119375854D01*
X155898502Y-119379110D01*
X155891564Y-119379500D01*
X155188436Y-119379500D01*
X155181497Y-119379110D01*
X155152599Y-119375854D01*
X155140002Y-119374435D01*
X155139998Y-119374435D01*
X155127400Y-119375854D01*
X155098502Y-119379110D01*
X155091564Y-119379500D01*
X154752940Y-119379500D01*
X154685901Y-119359815D01*
X154665259Y-119343181D01*
X150732716Y-115410638D01*
X150699231Y-115349315D01*
X150696397Y-115322957D01*
X150696397Y-115088435D01*
X150696786Y-115081496D01*
X150701462Y-115040000D01*
X150696786Y-114998502D01*
X150696397Y-114991564D01*
X150696397Y-114268435D01*
X150696786Y-114261496D01*
X150701462Y-114220000D01*
X150696786Y-114178502D01*
X150696397Y-114171564D01*
X150696397Y-113408435D01*
X150696786Y-113401496D01*
X150701462Y-113360000D01*
X150696786Y-113318502D01*
X150696397Y-113311564D01*
X150696397Y-113245702D01*
X150696396Y-113245699D01*
X150687100Y-113204973D01*
X150685941Y-113198148D01*
X150681265Y-113156642D01*
X150667471Y-113117221D01*
X150665549Y-113110552D01*
X150656256Y-113069836D01*
X150638142Y-113032223D01*
X150635480Y-113025795D01*
X150621686Y-112986375D01*
X150599460Y-112951003D01*
X150596110Y-112944941D01*
X150577988Y-112907310D01*
X150551946Y-112874654D01*
X150547935Y-112869001D01*
X150531312Y-112842546D01*
X150525715Y-112833637D01*
X149480479Y-111788401D01*
X149446994Y-111727078D01*
X149451978Y-111657386D01*
X149493850Y-111601453D01*
X149532160Y-111582061D01*
X149674727Y-111538814D01*
X149848538Y-111445910D01*
X150000883Y-111320883D01*
X150125910Y-111168538D01*
X150218814Y-110994727D01*
X150230227Y-110957101D01*
X150268523Y-110898665D01*
X150332334Y-110870208D01*
X150401402Y-110880767D01*
G37*
%TD.AperFunction*%
%TA.AperFunction,Conductor*%
G36*
X164770000Y-112220633D02*
G01*
X164953807Y-112171384D01*
X165023657Y-112173047D01*
X165081519Y-112212210D01*
X165109023Y-112276438D01*
X165109900Y-112291159D01*
X165109900Y-112550500D01*
X165090215Y-112617539D01*
X165037411Y-112663294D01*
X164985900Y-112674500D01*
X164632743Y-112674500D01*
X164617122Y-112672775D01*
X164617095Y-112673061D01*
X164609333Y-112672326D01*
X164540172Y-112674500D01*
X164510649Y-112674500D01*
X164503778Y-112675367D01*
X164497959Y-112675825D01*
X164451374Y-112677289D01*
X164451368Y-112677290D01*
X164432126Y-112682880D01*
X164413087Y-112686823D01*
X164393217Y-112689334D01*
X164393203Y-112689337D01*
X164349883Y-112706488D01*
X164344358Y-112708380D01*
X164299613Y-112721380D01*
X164299610Y-112721381D01*
X164282366Y-112731579D01*
X164264905Y-112740133D01*
X164246274Y-112747510D01*
X164246262Y-112747517D01*
X164208570Y-112774902D01*
X164203687Y-112778109D01*
X164163581Y-112801828D01*
X164149412Y-112815997D01*
X164134625Y-112828626D01*
X164112104Y-112844990D01*
X164110328Y-112842546D01*
X164060549Y-112867715D01*
X164025889Y-112869178D01*
X163980001Y-112864659D01*
X163980000Y-112864659D01*
X163783870Y-112883975D01*
X163595266Y-112941188D01*
X163421467Y-113034086D01*
X163421460Y-113034090D01*
X163269116Y-113159116D01*
X163144090Y-113311460D01*
X163144086Y-113311467D01*
X163051188Y-113485266D01*
X162993975Y-113673870D01*
X162974659Y-113870000D01*
X162993975Y-114066129D01*
X163051188Y-114254733D01*
X163144086Y-114428532D01*
X163144090Y-114428539D01*
X163269116Y-114580883D01*
X163421460Y-114705909D01*
X163421467Y-114705913D01*
X163595266Y-114798811D01*
X163595269Y-114798811D01*
X163595273Y-114798814D01*
X163783868Y-114856024D01*
X163980000Y-114875341D01*
X164176132Y-114856024D01*
X164364727Y-114798814D01*
X164378428Y-114791491D01*
X164492823Y-114730345D01*
X164538538Y-114705910D01*
X164690883Y-114580883D01*
X164815910Y-114428538D01*
X164860014Y-114346024D01*
X164908975Y-114296181D01*
X164977113Y-114280720D01*
X165042793Y-114304551D01*
X165074911Y-114343227D01*
X165076238Y-114342394D01*
X165169918Y-114491484D01*
X165169923Y-114491490D01*
X165175590Y-114497157D01*
X165209075Y-114558480D01*
X165204091Y-114628172D01*
X165175590Y-114672519D01*
X164334928Y-115513181D01*
X164273605Y-115546666D01*
X164247247Y-115549500D01*
X162527429Y-115549500D01*
X162460390Y-115529815D01*
X162414635Y-115477011D01*
X162404026Y-115413345D01*
X162405341Y-115400000D01*
X162386024Y-115203868D01*
X162328814Y-115015273D01*
X162328811Y-115015269D01*
X162328811Y-115015266D01*
X162235913Y-114841467D01*
X162235909Y-114841460D01*
X162110883Y-114689116D01*
X161958539Y-114564090D01*
X161958532Y-114564086D01*
X161784733Y-114471188D01*
X161784727Y-114471186D01*
X161651949Y-114430908D01*
X161596129Y-114413975D01*
X161400000Y-114394659D01*
X161203870Y-114413975D01*
X161015266Y-114471188D01*
X160841467Y-114564086D01*
X160841460Y-114564090D01*
X160689116Y-114689116D01*
X160564090Y-114841460D01*
X160564086Y-114841467D01*
X160471188Y-115015266D01*
X160413975Y-115203870D01*
X160394659Y-115400000D01*
X160413975Y-115596129D01*
X160471188Y-115784733D01*
X160564086Y-115958532D01*
X160564090Y-115958539D01*
X160677587Y-116096835D01*
X160704900Y-116161145D01*
X160693109Y-116230013D01*
X160645957Y-116281573D01*
X160581734Y-116299500D01*
X160082940Y-116299500D01*
X160015901Y-116279815D01*
X159995259Y-116263181D01*
X157736819Y-114004741D01*
X157703334Y-113943418D01*
X157700500Y-113917060D01*
X157700500Y-112042690D01*
X157720185Y-111975651D01*
X157753375Y-111941116D01*
X157771401Y-111928495D01*
X157938495Y-111761401D01*
X158068425Y-111575842D01*
X158123002Y-111532217D01*
X158192500Y-111525023D01*
X158254855Y-111556546D01*
X158271575Y-111575842D01*
X158401500Y-111761395D01*
X158401505Y-111761401D01*
X158568599Y-111928495D01*
X158659114Y-111991874D01*
X158762165Y-112064032D01*
X158762167Y-112064033D01*
X158762170Y-112064035D01*
X158976337Y-112163903D01*
X159204592Y-112225063D01*
X159366724Y-112239248D01*
X159439999Y-112245659D01*
X159440000Y-112245659D01*
X159440001Y-112245659D01*
X159513276Y-112239248D01*
X159675408Y-112225063D01*
X159903663Y-112163903D01*
X160117830Y-112064035D01*
X160311401Y-111928495D01*
X160478495Y-111761401D01*
X160608425Y-111575842D01*
X160663002Y-111532217D01*
X160732500Y-111525023D01*
X160794855Y-111556546D01*
X160811575Y-111575842D01*
X160941500Y-111761395D01*
X160941505Y-111761401D01*
X161108599Y-111928495D01*
X161199114Y-111991874D01*
X161302165Y-112064032D01*
X161302167Y-112064033D01*
X161302170Y-112064035D01*
X161516337Y-112163903D01*
X161744592Y-112225063D01*
X161906724Y-112239248D01*
X161979999Y-112245659D01*
X161980000Y-112245659D01*
X161980001Y-112245659D01*
X162053276Y-112239248D01*
X162215408Y-112225063D01*
X162443663Y-112163903D01*
X162657830Y-112064035D01*
X162851401Y-111928495D01*
X163018495Y-111761401D01*
X163148730Y-111575405D01*
X163203307Y-111531781D01*
X163272805Y-111524587D01*
X163335160Y-111556110D01*
X163351879Y-111575405D01*
X163481890Y-111761078D01*
X163648917Y-111928105D01*
X163842421Y-112063600D01*
X164056507Y-112163429D01*
X164056516Y-112163433D01*
X164270000Y-112220634D01*
X164270000Y-111325501D01*
X164377685Y-111374680D01*
X164484237Y-111390000D01*
X164555763Y-111390000D01*
X164662315Y-111374680D01*
X164770000Y-111325501D01*
X164770000Y-112220633D01*
G37*
%TD.AperFunction*%
%TA.AperFunction,Conductor*%
G36*
X164770000Y-110454498D02*
G01*
X164662315Y-110405320D01*
X164555763Y-110390000D01*
X164484237Y-110390000D01*
X164377685Y-110405320D01*
X164270000Y-110454498D01*
X164270000Y-108785501D01*
X164377685Y-108834680D01*
X164484237Y-108850000D01*
X164555763Y-108850000D01*
X164662315Y-108834680D01*
X164770000Y-108785501D01*
X164770000Y-110454498D01*
G37*
%TD.AperFunction*%
%TD*%
%TA.AperFunction,Conductor*%
%TO.N,+5V*%
G36*
X167643880Y-116806748D02*
G01*
X167660112Y-116809505D01*
X167660128Y-116809507D01*
X167662612Y-116809929D01*
X167669401Y-116811478D01*
X167671891Y-116812195D01*
X167671925Y-116812206D01*
X167692232Y-116818055D01*
X167692274Y-116818065D01*
X167694705Y-116818766D01*
X167701279Y-116821067D01*
X167703656Y-116822052D01*
X167703679Y-116822062D01*
X167723204Y-116830150D01*
X167725630Y-116831155D01*
X167731902Y-116834176D01*
X167734103Y-116835393D01*
X167734112Y-116835398D01*
X167752606Y-116845622D01*
X167752628Y-116845633D01*
X167754932Y-116846907D01*
X167760814Y-116850604D01*
X167762950Y-116852119D01*
X167776309Y-116861596D01*
X167792238Y-116875046D01*
X167924942Y-117007749D01*
X167938390Y-117023676D01*
X167949396Y-117039187D01*
X167953100Y-117045081D01*
X167965843Y-117068141D01*
X167968863Y-117074413D01*
X167977921Y-117096286D01*
X167983723Y-117109254D01*
X168003511Y-117150342D01*
X168003515Y-117150349D01*
X168062133Y-117244167D01*
X168095556Y-117286518D01*
X168095564Y-117286527D01*
X168156357Y-117348257D01*
X168173180Y-117365339D01*
X168173184Y-117365341D01*
X168173186Y-117365343D01*
X168296536Y-117439384D01*
X168296539Y-117439384D01*
X168296543Y-117439387D01*
X168359102Y-117465674D01*
X168360086Y-117466127D01*
X168360962Y-117466456D01*
X168420152Y-117481885D01*
X168500187Y-117502748D01*
X168555780Y-117509011D01*
X168582838Y-117515187D01*
X168619219Y-117527918D01*
X168644229Y-117539961D01*
X168676867Y-117560469D01*
X168698576Y-117577782D01*
X168725817Y-117605023D01*
X168743129Y-117626731D01*
X168763634Y-117659364D01*
X168775680Y-117684378D01*
X168788410Y-117720755D01*
X168794587Y-117747821D01*
X168798902Y-117786111D01*
X168798901Y-117813876D01*
X168794586Y-117852174D01*
X168788408Y-117879244D01*
X168775681Y-117915617D01*
X168763632Y-117940636D01*
X168743129Y-117973266D01*
X168725817Y-117994975D01*
X168698575Y-118022217D01*
X168676866Y-118039529D01*
X168644236Y-118060032D01*
X168619218Y-118072081D01*
X168582846Y-118084808D01*
X168555779Y-118090986D01*
X168539025Y-118092874D01*
X168515825Y-118097366D01*
X168460638Y-118108051D01*
X168431091Y-118116238D01*
X168423003Y-118118479D01*
X168423002Y-118118479D01*
X168348003Y-118145801D01*
X168347999Y-118145802D01*
X168347996Y-118145804D01*
X168347992Y-118145806D01*
X168347991Y-118145807D01*
X168226962Y-118223588D01*
X168226951Y-118223596D01*
X168174159Y-118269340D01*
X168079933Y-118378081D01*
X168079930Y-118378085D01*
X168020164Y-118508951D01*
X168000478Y-118575992D01*
X168000476Y-118575997D01*
X167988275Y-118660863D01*
X167983249Y-118695823D01*
X167980000Y-118718418D01*
X167980000Y-118755568D01*
X167960315Y-118822607D01*
X167907511Y-118868362D01*
X167856442Y-118879567D01*
X167514442Y-118880787D01*
X167447333Y-118861342D01*
X167401390Y-118808701D01*
X167390000Y-118756788D01*
X167390000Y-118241340D01*
X167389602Y-118227153D01*
X167389402Y-118223592D01*
X167388681Y-118210774D01*
X167389266Y-118189937D01*
X167393333Y-118153849D01*
X167399966Y-118094978D01*
X167399874Y-118090986D01*
X167397171Y-117973266D01*
X167396839Y-117958795D01*
X167386413Y-117893401D01*
X167347037Y-117762996D01*
X167317233Y-117716620D01*
X167269253Y-117641962D01*
X167269244Y-117641951D01*
X167223499Y-117589158D01*
X167223496Y-117589155D01*
X167223494Y-117589153D01*
X167217794Y-117584214D01*
X167180022Y-117525436D01*
X167175000Y-117490504D01*
X167175000Y-116929000D01*
X167194685Y-116861961D01*
X167247489Y-116816206D01*
X167299000Y-116805000D01*
X167623128Y-116805000D01*
X167643880Y-116806748D01*
G37*
%TD.AperFunction*%
%TD*%
M02*
