M48
; DRILL file {KiCad 7.0.9} date Fri Mar 22 22:57:52 2024
; FORMAT={-:-/ absolute / inch / decimal}
; #@! TF.CreationDate,2024-03-22T22:57:52+02:00
; #@! TF.GenerationSoftware,Kicad,Pcbnew,7.0.9
; #@! TF.FileFunction,Plated,1,2,PTH
FMAT,2
INCH
; #@! TA.AperFunction,Plated,PTH,ViaDrill
T1C0.0118
; #@! TA.AperFunction,Plated,PTH,ComponentDrill
T2C0.0295
; #@! TA.AperFunction,Plated,PTH,ComponentDrill
T3C0.0394
%
G90
G05
T1
X5.67Y-4.74
X5.6732Y-4.674
X5.727Y-4.523
X5.8504Y-4.6181
X5.9014Y-4.463
X5.9014Y-4.4969
X5.9014Y-4.5291
X5.9433Y-4.5063
X5.9437Y-4.4693
X6.012Y-4.456
X6.049Y-4.467
X6.0492Y-4.5134
X6.0492Y-4.5476
X6.0748Y-4.4685
X6.0796Y-4.7812
X6.1051Y-4.7807
X6.1063Y-4.7315
X6.1358Y-4.7811
X6.138Y-4.731
X6.171Y-4.7315
X6.203Y-5.019
X6.2165Y-4.6969
X6.2402Y-4.6575
X6.2441Y-4.6969
X6.2476Y-4.8579
X6.248Y-4.8213
X6.248Y-4.8949
X6.248Y-4.9307
X6.248Y-4.9634
X6.315Y-4.4157
X6.3358Y-4.4583
X6.3511Y-4.4883
X6.3516Y-5.1937
X6.3516Y-5.2331
X6.389Y-5.0799
X6.3898Y-4.7795
X6.3898Y-4.8161
X6.3909Y-5.1937
X6.3909Y-5.2331
X6.4154Y-4.8161
X6.4173Y-4.7795
X6.4303Y-5.1937
X6.4303Y-5.2331
X6.4339Y-4.5161
X6.4339Y-4.5469
X6.4409Y-4.7795
X6.4697Y-5.1937
X6.4697Y-5.2331
X6.5091Y-5.1937
X6.5091Y-5.2331
X6.5248Y-4.715
X6.526Y-4.489
X6.5381Y-4.5157
X6.5457Y-5.1941
X6.5457Y-5.2335
X6.585Y-5.1941
X6.585Y-5.2335
X6.5988Y-4.9343
X6.6018Y-4.6535
X6.6024Y-4.6142
X6.6244Y-5.1941
X6.6244Y-5.2335
X6.634Y-4.6378
X6.6638Y-5.1941
X6.6638Y-5.2335
X6.7031Y-5.1941
X6.7031Y-5.2335
X6.7402Y-5.1933
X6.7402Y-5.2327
X6.752Y-4.523
X6.7795Y-5.1933
X6.7795Y-5.2327
X6.79Y-4.97
X6.813Y-4.9543
X6.813Y-4.524
X6.8189Y-5.1933
X6.8189Y-5.2327
X6.8197Y-4.1909
X6.8228Y-4.8976
X6.8472Y-4.1909
X6.848Y-4.2752
X6.8583Y-5.1933
X6.8583Y-5.2327
X6.8752Y-4.1909
X6.876Y-4.2752
X6.8976Y-5.1933
X6.8976Y-5.2327
X6.9035Y-4.1909
X6.9043Y-4.2752
X6.915Y-4.7571
X6.935Y-4.1909
X6.9358Y-4.2752
X6.9476Y-4.7563
X6.9646Y-4.1909
X6.9654Y-4.2752
X6.9827Y-4.785
X6.9831Y-4.7583
X6.9961Y-4.1909
X6.9969Y-4.2752
X7.015Y-4.7906
X7.0161Y-4.7587
X7.0512Y-4.7587
X7.0516Y-4.7909
T2
X6.8723Y-4.364
X6.951Y-4.364
T3
X5.9772Y-4.2657
X5.9772Y-4.3657
X6.0772Y-4.2657
X6.0772Y-4.3657
X6.1772Y-4.2657
X6.1772Y-4.3657
X6.2772Y-4.2657
X6.2772Y-4.3657
X6.3772Y-4.2657
X6.3772Y-4.3657
X6.4772Y-4.2657
X6.4772Y-4.3657
X6.5772Y-4.2657
X6.5772Y-4.3657
X6.6772Y-4.2657
X6.6772Y-4.3657
X6.9404Y-4.687
X7.0404Y-4.687
X7.1728Y-4.6819
X7.1728Y-4.7819
T0
M30
