%TF.GenerationSoftware,KiCad,Pcbnew,7.0.9*%
%TF.CreationDate,2024-03-23T20:10:25+02:00*%
%TF.ProjectId,Micromouse Power,4d696372-6f6d-46f7-9573-6520506f7765,v0.0.0*%
%TF.SameCoordinates,Original*%
%TF.FileFunction,Profile,NP*%
%FSLAX46Y46*%
G04 Gerber Fmt 4.6, Leading zero omitted, Abs format (unit mm)*
G04 Created by KiCad (PCBNEW 7.0.9) date 2024-03-23 20:10:25*
%MOMM*%
%LPD*%
G01*
G04 APERTURE LIST*
%TA.AperFunction,Profile*%
%ADD10C,0.100000*%
%TD*%
%TA.AperFunction,Profile*%
%ADD11C,0.050000*%
%TD*%
G04 APERTURE END LIST*
D10*
X178942282Y-111947810D02*
G75*
G03*
X179252577Y-112671899I1000018J10D01*
G01*
X143812450Y-112661802D02*
G75*
G03*
X144070000Y-111991865I-742450J669902D01*
G01*
X178942300Y-107610000D02*
G75*
G03*
X176942283Y-105610000I-2000000J0D01*
G01*
X146070000Y-105610000D02*
G75*
G03*
X144070000Y-107610000I0J-2000000D01*
G01*
X146070000Y-105610000D02*
X176942283Y-105610000D01*
X139676925Y-117244947D02*
G75*
G03*
X139404483Y-117930965I727575J-686053D01*
G01*
X179252577Y-112671899D02*
X183768629Y-116973513D01*
X139404454Y-133009547D02*
G75*
G03*
X140405336Y-134009546I1000046J47D01*
G01*
X139404483Y-133009547D02*
X139404483Y-117930965D01*
X184082609Y-117701626D02*
G75*
G03*
X183768629Y-116973513I-1000009J526D01*
G01*
X144070000Y-111991865D02*
X144070000Y-107610000D01*
X178942283Y-107610000D02*
X178942283Y-111947810D01*
X183075193Y-133973140D02*
G75*
G03*
X184074340Y-132973693I-693J999840D01*
G01*
X184082598Y-117701626D02*
X184074340Y-132973693D01*
X183075193Y-133973152D02*
X140405336Y-134009546D01*
X139676911Y-117244934D02*
X143812432Y-112661786D01*
D11*
%TO.C,SW2*%
X147403911Y-128053503D02*
G75*
G03*
X147403911Y-128053503I-400000J0D01*
G01*
X142949138Y-123598730D02*
G75*
G03*
X142949138Y-123598730I-400000J0D01*
G01*
%TO.C,SW1*%
X182383503Y-125586089D02*
G75*
G03*
X182383503Y-125586089I-400000J0D01*
G01*
X177928730Y-130040862D02*
G75*
G03*
X177928730Y-130040862I-400000J0D01*
G01*
%TD*%
M02*
